<?xml version='1.0' encoding='utf-8'?>
<svg xmlns="http://www.w3.org/2000/svg" version="1.1" id="Layer_1" x="0px" y="0px" viewBox="0 0 407.8 256.3" style="enable-background:new 0 0 407.8 256.3;"> <style type="text/css"> .st0{fill:url(#SVGID_1_);} .st1{fill:#649EC6;} .st2{fill:#A8B8BA;} .st3{fill:#AFB1D4;} .st4{fill:#B6BAD2;} .st5{fill:#71BEE5;} .st6{fill:#B2C5CF;} .st7{fill:#BBB2A9;} .st8{fill:#8C8C8C;} .st9{fill:url(#SVGID_2_);} .st10{fill:#999999;} .st11{fill:#ADA27E;} .st12{fill:#B8B8B8;} .st13{fill:url(#SVGID_3_);} .st14{fill:url(#SVGID_4_);} .st15{fill:#D3D391;} .st16{fill:#79A088;} .st17{fill:#60AFDD;} .st18{fill:#7B9185;} .st19{fill:#DACB8A;} .st20{fill:#5CB2CD;} .st21{fill:#29BCEA;} .st22{fill:#D4C37D;} .st23{fill:#ADC9CC;} .st24{fill:#DFE09B;} .st25{fill:#B4D2E9;} .st26{fill:#6DA2BF;} .st27{fill:#5B8AC3;} .st28{fill:url(#SVGID_5_);} .st29{fill:url(#SVGID_6_);} .st30{fill:#B72055;} .st31{fill:url(#SVGID_7_);} .st32{fill:#661830;} .st33{fill:#FDC99F;} .st34{fill:#FCC397;} .st35{fill:#FBB482;} .st36{fill:#006B6E;} .st37{fill:#523100;} .st38{fill:#EFAE8F;} .st39{fill:#FCCCB1;} .st40{fill:#D9B86D;} .st41{fill:#B18421;} .st42{fill:#FFFFFF;} .st43{fill:#004FA3;} .st44{fill:#E68A1D;} .st45{fill:#FFCC78;} .st46{fill:#8AD4E1;} .st47{fill:#483778;} .st48{fill:#AABC4D;} .st49{fill:#BFB200;} .st50{fill:#CF7418;} .st51{fill:#006BB6;} .st52{fill:url(#SVGID_8_);} .st53{fill:#B17F43;} .st54{fill:#FDD8C2;} .st55{fill:#FDCFAA;} .st56{fill:#D88353;} .st57{fill:#674B3D;} .st58{fill:#FBB98A;} .st59{fill:#00316C;} .st60{fill:#2C61AE;} .st61{fill:url(#SVGID_9_);} .st62{fill:url(#SVGID_10_);} .st63{fill:url(#SVGID_11_);} .st64{fill:#BFBFBF;} .st65{fill:#F79560;} .st66{fill:#FEDCBF;} .st67{fill:#F7DB7D;} .st68{fill:#007F60;} .st69{fill:#E5D89B;} .st70{fill:#BBB8DC;} .st71{fill:#ECA078;} .st72{fill:#FFE0BF;} .st73{fill:#C5CA67;} .st74{fill:#E9DF91;} .st75{fill:#1072A8;} .st76{fill:#5FA3CB;} .st77{fill:#9CBDDF;} </style> <linearGradient id="SVGID_1_" gradientUnits="userSpaceOnUse" x1="204.3253" y1="25.884" x2="204.3253" y2="245.168" gradientTransform="matrix(-1 0 0 1 407.8127 0)"> <stop offset="0" style="stop-color:#ABBAA2"/> <stop offset="1.835889e-02" style="stop-color:#A8B8A7"/> <stop offset="8.915287e-02" style="stop-color:#9CB3B6"/> <stop offset="0.1705" style="stop-color:#91AEC2"/> <stop offset="0.2653" style="stop-color:#89ABCB"/> <stop offset="0.3827" style="stop-color:#83A9D2"/> <stop offset="0.547" style="stop-color:#7FA8D6"/> <stop offset="1" style="stop-color:#7DA7D9"/> </linearGradient> <path class="st0" d="M186.6,33.7c-6.9-2.4-16.6-5.2-28.5-6.8c0,0-4.6-0.6-9.1-1c-5.9-0.5-52.6,9.5-78.6,10.8 c-7.3,0.4-55.5,2.1-66.6,5.6C2.9,42.6,0,43.5,0,44.8c0,1.5,3.7,2.8,7.8,4.1c7.9,2.6,10.9,2.3,11.7,4.4c1.1,2.7-2.5,6.5-3.3,7.3 c-4.7,5-9.6,3.9-12.3,6c-11,8.6,22.5,65.2,12.3,73.3c-3.1,2.5-8-1.4-12.1,2.2c-4,3.6-2.8,11-1.3,20.1c1.6,9.6,2.6,16,7.6,22.3 c3.5,4.5,8,6.9,16.9,11.7c10.6,5.8,15.9,8.7,23.6,10c10.1,1.8,10.8-1.1,27.4-0.5c5.2,0.2,11.3,0.8,19,2.5c22,4.8,26.4,8.7,36.8,12.2 c4.8,1.6,8.2,2.2,10.9,2.9c20.6,4.9,22.6,10.4,38.1,12.7c5.3,0.8,2.4-0.3,22.4,0.7c9.9,0.5,14.3,0.9,22,0.7c8.1-0.2,13.6-1,16.4-1.3 c16.7-1.9,31.5,2,43.3,4.3c14.1,2.7,49.4,9.6,84.4-1c13.5-4.1,27.3-8.3,32.7-20.4c6.3-13.9-0.2-34.9-5.6-42.3 c-7.5-10.2-5.9-10-7.3-16c-5.3-23.7,19.4-38.6,13.2-53.6c-1.3-3-2.2-2.1-26.8-17.1c-3.5-2.1-10.4-6.4-24.1-15 c-23.4-14.6-21.9-14-23.9-15c-14.7-7.2-21.5-5.1-46.1-8c-20-2.4-18.7-5.4-47.7-11.3C224.6,38.3,207.7,35.4,186.6,33.7z"/> <path class="st1" d="M73.7,113.8c-1.8,1.1-4.9,2.7-8.9,3.2c-4.3,0.6-7.6-0.3-9.7-0.9c-15.1-4.2-23.8-7.8-23.8-7.8 c-5.3-2.2-11.9-5.1-19.5-8.8c3.2,4.7,8.5,11.4,17,17c7.8,5.1,9.5,3.5,16,8.2c11.9,8.5,9.1,15.9,21.2,24c5.7,3.8,14.3,7.6,14.3,7.6 c0,0-0.1,0-0.3-0.1c-8.6-4.2-25.9,1.9-16.2,11.3c17.3,8,35.1,12.7,51.3,21.2c21.6,9.9,43.7,16,65.8,24c-4.9,4.2-10.3-4.2-16.2-0.9 c-21-5.2-39.9-13.6-60.4-19.8c-17.3-6.6-35.6-8.9-51.3-19.3c-0.5-10.8-20-15.1-22.7-2.8c-1.6,12.7,22.7,12.7,20.5,24.5 c4.9,2.6,11.9,7.1,18.4,14.3c7.6,8.4,11.1,16.7,12.7,21.8c12.4,4.5,48,17,80.8,22.8c14,2.5,21,3.7,29.5,3 c12.6-1.1,18.9-4.7,31.9-2.6c6.6,1.1,12.9,3.4,13.2,2.6c0.4-1.1-10.4-5.9-10-7.1c0.2-0.5,2.7-0.4,14.6,3c3.4,1.4,9.1,3.2,16.3,3.2 c8.9,0,15.7-2.7,19.3-4.4c-12.7-5.1-18-7.6-17.8-8.1c0.2-0.5,5.8,0.9,18.7,4.9c6.5,1.2,15.3,2.4,25.8,2.8c7.5,0.3,19.1,0.7,34-1.9 c6.8-1.2,15.9-3.3,26.4-7.2c-10.2,0.8-22,1.1-34.9,0.1c-21.8-1.7-40.2-6.3-54.4-11.1c-0.1-0.3-0.3-0.6-0.6-0.9c-0.3-0.4-0.7-0.7-1-1 c8.4,1.5,20.3,3.2,34.5,3.8c37.5,1.4,67.7-6.3,67.5-7.6c-0.1-0.9-24.2,9.7-47.4-0.8c-9.9-4.5-17.8-12-32-12.2 c-5.5-0.1-9.9,0.9-12.9,1.8c-2.4-3-5.9-6.5-9.1-5.8c-2.4,0.5-2.9,2.9-5.2,3.6c-2,0.6-5.4-0.2-11.1-6.7c-3.5,0.9-8,1.7-13.2,1.8 c-9.5,0.3-17.1-1.6-21.9-3.2c-1.1,0.5-2.7,0.9-3.8,1.4c-7.6-5.6,9.2-3.3,4.9-9.9c-6.5-13.2-27.5-9.9-40.5-15.5 c-11.9-2.4-22.1-8.9-35.6-8.9c-3.8-6.1-11.9-0.9-16.7-6.1c-6.7-1.9-53.7-15.5-57.5-43.8C73.5,118.4,73.4,116.2,73.7,113.8z"/> <path class="st1" d="M176.3,35.3c-16.3,0.9-11.4,29.2,5.4,25c9.8,0.9,20.2-3.3,26.7,4.7c2.2,0,3.8,0.5,6,0.5c-3.3,1.9-7.1,4.7-7.6,8 c-16.3-12.7-39.2-6.1-57.2-15.1c-2.2-11.8-19.6-7.1-29.4-7.1c-13.3,1.7-22.6-0.2-28.6-2.2c-5.6-1.9-9.9-4.4-17.7-5.3 c-6.6-0.7-12.2,0.2-15.9,1.1c-12.1,0.9-24.1,1.8-36.2,2.6c8.7,1.2,18.2,2.9,28.5,5.3c10.3,2.5,19.7,5.2,27.9,8.1 c5.6-0.1,11.3-0.2,16.9-0.3c4.9,1.6,9.7,3.1,14.6,4.7c4.6-0.4,9.1-0.9,13.7-1.3c14.2,12.7,34.9,9.9,52.3,14.6 c9.3,1.9,0.5,9.9,9.3,12.3c31.1,0.9,58.9,7.1,87.2,14.1c2.7,0,10.9-2.4,12-3.3c1.1-13.2-18.5-14.6-27.8-20.3 c-2.7-2.4-9.8-1.4-11.4-5.2c11.4,4.7,20.2-11.3,7.6-14.6c10.9-11.8-10.9-19.3-21.8-17.9c-14.7-0.5-28.3,3.3-43.6,2.8 C180.6,43.8,183.3,37.2,176.3,35.3z"/> <path class="st2" d="M121.7,48.2c-8,1.2-11.9,2.1-11.9,2.8c0.1,0.6,3.5,1,10.4,1.2c0.4,4.4,4.6,6.5,9.8,7.4c1.9,2.8,6.5-0.5,7.6,3.4 c10.7,4.2,20.4,9.3,28.1,16c0.7,0.2,1.4,0.4,2.1,0.6c-3.4,3.5-8.6-0.5-12.1-2c-8.1-4.8-18.7-6.9-26-12.3c-0.8-0.4-4.6-0.3-5.6,0.1 c-3.6,6.7,7,7.6,11,10.5c7.4,2.5,13.5,6.1,20.4,9.3c0,7.2,11,2.7,14.2,7.8c12,1.8,20.8,8.9,27.8,16.1c1.2,0,2-0.1,3.2-0.1 c0.9-0.9,1.6-1.9,2.1-2.7c3.9-7.3-2.8-15.8-3.7-17c-7-3.1-14.7-7.4-22-13.6c-1.3-1.1-2.5-2.2-3.7-3.3c8.5,2.5,14.7,5.4,18.7,7.7 c5.9,3.3,8.4,5.7,14.3,8.1c6.2,2.6,12,3.5,15.7,3.9c12.1,1.1,14.8,0.7,14.9,0.2c0.2-0.8-4.7-1.9-13.1-5.8c-0.9-0.4-9.1-4.2-8.7-4.9 c0.2-0.3,2.2,0,10.8,2.7c5.1,2,10.2,4,15.3,6c-3.7-2.5-7.3-5-11-7.5c-2.1-0.9-4.3-1.7-6.4-2.7c-6.9-3-13.2-6.1-19.1-9.2 c5.4,0.4,13.8,1.5,23.2,5.3c9.2,3.7,15.6,8.5,19.5,11.8c8.2,0.9,5.2-8.6,0.3-10.4c-3.8-2.7-11.1-7.1-21.4-9.2 c-6.9-1.4-12.9-1.3-17-1c-2-0.6-4-1.3-6.1-1.9c-3.1-1-6.1-1.9-9.1-2.8c-10.1-1.4-15.3-1.6-15.7-0.6c-0.3,1,5,3.4,15.9,7.1 c1.5,0.4,3.6,1.2,5.7,2.5c4,2.5,5.9,5.7,6.8,7.4c-6.3-6-20.2-17.2-41-20.5c-4.8-0.8-9.3-1-13.4-0.9c-5.3-1.2-10.9-2.7-16.7-4.5 C130.7,51.4,126,49.8,121.7,48.2z"/> <path class="st3" d="M132.4,49.8c13.6,7.1,27.9,12.8,38.6,22.8c0.8,0.5,1.7,1.2,2.5,1.6c0.6-0.6,1.5-1,2.1-1.6 C163.7,62.3,150.1,51.1,132.4,49.8z"/> <path class="st3" d="M168.2,59.8c13.6,7.1,27.9,12.8,38.6,22.8c0.8,0.5,1.7,1.2,2.5,1.6c0.6-0.6,1.5-1,2.1-1.6 C199.5,72.4,185.9,61.2,168.2,59.8z"/> <path class="st3" d="M178.8,70.2c13.6,7.1,27.9,12.8,38.6,22.8c0.8,0.5,1.7,1.2,2.5,1.6c0.6-0.6,1.5-1,2.1-1.6 C210,82.8,196.5,71.6,178.8,70.2z"/> <path class="st3" d="M132.3,70.1c13.6,7.1,27.9,12.8,38.6,22.8c0.8,0.5,1.7,1.2,2.5,1.6c0.6-0.6,1.5-1,2.1-1.6 C163.5,82.6,150,71.4,132.3,70.1z"/> <path class="st4" d="M105.2,176.8c-2.1,0.5-2.9,4.7-0.6,5.8c-0.3,3.6,1.8,5.8,4.6,7.1c0.7,2.5,3.7,0.5,3.8,3.7 c5.4,4.7,10.2,10,13.7,16.4c0.4,0.3,0.7,0.5,1.1,0.8c-2.3,2.3-4.7-1.5-6.5-3.2c-3.9-4.8-9.6-7.9-13-13.1c-0.4-0.4-2.5-0.9-3.1-0.7 c-2.8,4.9,3,6.9,4.9,9.7c3.8,2.9,6.8,6.6,10.2,10c-0.9,5.7,5.8,3.6,7,8c6.5,3,10.5,9.7,13.6,16.4c0.7,0.2,1.1,0.2,1.8,0.3 c4.1-2.8-0.5-8.5-2.7-11.1c-1.9-3.4-4.6-5.8-7.1-8.6c4.4-1.3,8.1,3.2,12.1,5.1c5.1,2.7,8,7.1,12.6,10.7c2.1,1,2.4-3.8,4.4-1.1 c3.1,1.8,4.4-3.9,2.1-5.8c-4.1-6.9-9-13-14.9-18.3c3.6,1.4,7.9,3.4,12.5,6.3c4.5,2.8,8,5.8,10.7,8.4c9.3,1.4,14.1,1.7,14.3,1 c0.2-0.7-3.7-2.3-11.5-4.9c-4.2-1.7-9.4-4.3-14.7-8.6c-2.8-2.2-5.1-4.4-7-6.5c-1.2-0.4-2.1-1.5-2.3-2.8c-0.1-1.4,0.7-2.7,2-3.3 c-7.3-0.1-9.2-0.8-9.3-1.5c-0.1-0.8,1.9-1.5,1.8-2.3c-0.2-0.8-2.5-0.5-4.8-1c-1.7-0.4-4-1.3-6.5-3.8c1.9,2.6,3.8,5.2,5.8,7.8 c-1.1-0.6-2.3-0.8-3-0.3c-1,0.7-1.2,3,0.5,5c-2.5-3-5.3-6.2-8.4-9.4c-3.3-3.4-6.6-6.6-9.7-9.4C115.5,180.2,110.1,177.8,105.2,176.8z "/> <path class="st5" d="M101.4,184c8.6,4.7,17.5,8.4,24.6,15.2c0.5,0.3,1.1,0.8,1.6,1.1c0.3-0.4,0.8-0.8,1.1-1.2 C120.8,192.1,111.9,184.5,101.4,184z"/> <path class="st5" d="M123.4,192.5c7,6.9,14.6,12.8,19.7,21.3c0.4,0.4,0.9,1.1,1.3,1.5c0.4-0.3,1-0.5,1.4-0.9 C140,205.5,133.4,195.8,123.4,192.5z"/> <path class="st5" d="M125.5,204.9c8.7,4.6,17.7,8,24.9,14.7c0.5,0.3,1.1,0.8,1.7,1.1c0.3-0.4,0.8-0.8,1.1-1.2 C145.1,212.6,136.1,205.2,125.5,204.9z"/> <path class="st5" d="M101.7,195c7,6.9,14.6,12.8,19.7,21.3c0.4,0.4,0.9,1.1,1.3,1.5c0.4-0.3,1-0.5,1.4-0.9 C118.3,208,111.7,198.3,101.7,195z"/> <path class="st6" d="M42.8,122.6c-9-4.4-11.2-4.9-11.5-4.5c-0.4,0.7,4,4.4,9,8.5c3.7,3.1,5.5,4.4,5.3,4.9c-0.2,0.4-1.9,0.3-9.3-2.5 c2.1,2.9,5.6,6.5,10.5,7.5c3.9,0.8,8.4-0.2,8.5,0.3c0.1,0.4-4,0.9-4.3,2.7c-0.1,0.6,0.2,1.2,0.5,1.6c5.4,4.7,10.2,10,13.7,16.4 c0.4,0.3,0.7,0.5,1.1,0.8c-2.3,2.3-4.7-1.5-6.5-3.2c-3.9-4.8-9.6-7.9-13-13.1c-0.4-0.4-2.5-0.9-3.1-0.7c-2.8,4.8,3,6.9,4.9,9.7 c3.8,2.9,6.8,6.6,10.2,10c-0.9,5.7,5.8,3.6,7,8c2.6,2.1,5.3,4.3,8.1,6.8c3.6,3.2,6.7,6.4,9.5,9.5c-1.7-3.3-2.4-5.1-2-5.3 c0.3-0.2,1.5,1,3.5,3.5c1.7-0.1,3.3-0.2,5-0.2c-3.8-2.9-7.6-5.7-11.3-8.6c-1.9-3.4-4.6-5.8-7.1-8.6c3.1,0.8,7.4,2.2,12.1,5.1 c4.3,2.6,7.3,5.6,9.3,7.8c3,1.6,5.9,3,6.3,2.4c0.5-0.7-3.5-4.3-3-5c0.3-0.3,1.7,0.1,6.3,2.8c6.1,1.2,8.1,1.4,8.3,1 c0.2-0.9-11.1-3.5-11.3-7.8c0-1.4,1.3-2.7,2.8-3.8c-2.4-0.3-7.5-1.4-12.5-5.3c-4.7-3.6-7-7.8-8-10c5.7,3.5,10.4,5.8,13.8,7.3 c2.5,1.1,3.5,1.4,4.9,2.3c5.2,3.2,8,8.1,9.4,11.9c3.1,1.4,6.1,2.9,9.2,4.3c-3.8-4.9-7.7-9.8-11.5-14.7c-2.9-3-5.9-6-8.8-9 c-1.2,0-3.1-0.3-5.2-1.3c-3-1.5-4.6-3.7-5.2-4.8c-0.2-0.3-0.5-0.6-1-0.9c-1.3-0.6-2.6,0.3-3.6-1.6c-2.3-1.3-7.2-3.3-6.4,2.2 c-1.1,0.6-1.2,2.3-2,3.4c-4.5-7.9-9.3-16.1-17-21c-2.1-1.5-4.4-3.1-6.9-4.6C48.2,125.2,45.4,123.8,42.8,122.6z"/> <polygon class="st7" points="37.5,165.4 52.3,170.7 64.5,212.1 46.9,219 31.9,220.3 "/> <polygon class="st8" points="58.1,192.5 77.2,197.8 78.8,211.6 61.8,220.6 49.6,218.5 "/> <linearGradient id="SVGID_2_" gradientUnits="userSpaceOnUse" x1="255.7038" y1="225.2563" x2="396.9303" y2="225.2563" gradientTransform="matrix(-1 0 0 1 407.8127 0)"> <stop offset="0" style="stop-color:#D2C185"/> <stop offset="0.3084" style="stop-color:#A39456"/> <stop offset="0.5" style="stop-color:#8C7F42"/> <stop offset="0.8333" style="stop-color:#8A7E40"/> </linearGradient> <path class="st9" d="M55.8,213.8c3.8,0.4,7.6,0.7,11.4,1.1c2.8-1.5,5.6-2.9,8.3-4.4l7.3,8.5l18.4-3.2l15.1,2.1l6.1-4.3l9.5,8 l1.1,12.7l7.8,8l11.2,5.3c-0.8,1.2-2.5,3.4-5.5,4.7c-6.3,2.8-12.3-1-12.9-1.3c-9.3-1.6-18.5-3.3-27.8-4.9 c-6.1-2.3-10.5-2.1-13.7-0.5c-3.9,1.9-4.3,4.9-8.5,7.1c-2.3,1.2-5.2,2-13.8,0.9c-5.4-0.7-13-2.1-21.9-5.2c-4.4-0.5-8.7-1-13.1-1.5 c-5.6-1.5-11.2-3-16.8-4.4c-0.3-2.5-1.1-6.4-2.9-10.8c-2.2-5.4-4.1-7.3-4.3-10.9c-0.1-2.5,0.5-6.1,4.5-10.8 c-0.7-6.4,3.4-12.2,9.2-13.5c5.1-1.1,10.6,1.5,13.2,6.4C43.8,206.5,49.8,210.2,55.8,213.8z"/> <path class="st10" d="M77.2,197.8c3,2.5,6,5,9,7.4l8.5-4.8l11.2,6.4l9,0.5l9.6,5.8l-4.2,8.5l-32.4-1.1l-13.3-4.2 C75.4,210.2,76.3,204,77.2,197.8z"/> <path class="st11" d="M136.7,236l16.5,1.6c0,0,10.1-1,12.2-2.1c2.1-1.1,10.1,5.3,10.1,5.3l6.4,6.9l-31.9-0.5l-17.5-5.3L136.7,236z"/> <path class="st12" d="M256.7,62.7c-5.6-1.3-11.1-2.6-16.5-3.8c-7.1-1.1-14.2-2.2-21.3-3.3c-12.4-4.2-30.3-8.9-52.2-9.4 c-14.2-0.3-30.7,1.8-30.7,4c0,0.9,3,1.1,15.1,4.9c8.4,2.6,11.3,3.9,17.2,4.8c4.5,0.7,6.2,0.4,9.5,0.7c10.4,0.9,14.1,5.1,24.4,9 c8.1,3.1,5.2,0.2,31,5.2c2.4,0.5,10.6,0.4,20.8,1.7c1,0.1,7.3,0.8,12.1-3.8c2.6-2.4,3.5-5.3,3.9-6.7 C265.6,64.9,261.1,63.8,256.7,62.7z"/> <linearGradient id="SVGID_3_" gradientUnits="userSpaceOnUse" x1="203.9064" y1="3.675941e-07" x2="203.9064" y2="110.0993" gradientTransform="matrix(-1 0 0 1 407.8127 0)"> <stop offset="8.205128e-02" style="stop-color:#ABBAA2"/> <stop offset="9.007925e-02" style="stop-color:#A8B89E"/> <stop offset="0.1549" style="stop-color:#91A981"/> <stop offset="0.2212" style="stop-color:#7F9E6C"/> <stop offset="0.2882" style="stop-color:#71975A"/> <stop offset="0.3562" style="stop-color:#67924E"/> <stop offset="0.426" style="stop-color:#618F48"/> <stop offset="0.5" style="stop-color:#5F8E46"/> </linearGradient> <path class="st13" d="M0.1,12.9c-0.5,3.3,3.4,5.2,4.5,12.7c1.2,7.9-2,14.9-4.6,19.3c8.7-0.8,21.6-2,37.3-3.4 c18.5-1.7,22.6-2.1,26.9-2.6c23.4-3,27.3-4.3,43.7-6.3c24.1-2.9,54.7-6.6,78.6,1.2c3.1,1,10.3,3.6,20.7,5.4c10.4,1.8,16.1,1.4,23,2 c13.5,1.3,19,5.4,34.7,11.4c20.2,7.6,38.8,11.2,61.4,15.6c9.3,1.8,22,2.6,33.3,11.6c3.2,2.5,4.5,4.2,8.7,7.8 c9.5,8.1,18.8,12.8,25.1,15.5c4.3,2.4,8.7,4.8,13,7.2c1.1-6.4,0.2-11-0.9-14c-1.1-3.1-2.5-4.7-3.2-8.6c-0.8-4.1-0.1-7.4,0.1-9.2 c1.2-9.2,5.6-14.1,5.3-28c-0.1-5.9-0.5-18.5-8.4-29.9c-1.3-1.9-6.6-9.1-17.3-14.6c-18.7-9.5-37.3-5.3-60.6-1.4 c-23.4,3.9-47.7,7-61.6,8c-40.2,3-43.9-7.1-103.7-10.8c-1.6-0.1-25.7,0.1-73.7,0.4C45.4,2.3,1.7,2.8,0.1,12.9z"/> <linearGradient id="SVGID_4_" gradientUnits="userSpaceOnUse" x1="178.4048" y1="68.0255" x2="55.3035" y2="68.0255" gradientTransform="matrix(-1 0 0 1 407.8127 0)"> <stop offset="5.641026e-02" style="stop-color:#D2C185"/> <stop offset="0.1772" style="stop-color:#CCBC7F"/> <stop offset="0.3616" style="stop-color:#BDAC70"/> <stop offset="0.5853" style="stop-color:#A59658"/> <stop offset="0.8077" style="stop-color:#8A7E40"/> </linearGradient> <path class="st14" d="M326.6,66.4c-3.7-6.1-0.8-9.4-3.9-15.8c-2.3-4.7-6-7.3-7.5-8.3c-3.1-2.2-4.5-2-12.1-4.6 c-11.1-3.8-12.3-5.6-15.7-4.7c-3.8,1.1-6,4.4-8.8,8.5c-3.4,5.2-4.8,10.2-5.5,13.4c-4.8,7.8-9.5,15.6-14.3,23.4c-9.8,2-19.7,4-29.5,6 c8,5.3,16.1,10.7,24.1,16c8.7,1,17.3,1.9,26,2.9c9.1-2.5,18.2-5,27.3-7.6c7.7,0.2,15.4,0.4,23.1,0.7c5.7-1.6,10.4-2.7,13.6-3.3 c4.5-0.9,6.6-1.2,7.9-2.9c2.5-3.3,0.1-8.8-0.8-10.8c-4.1-3.5-7.8-4.8-10.4-5.4c-3.3-0.8-5.4-0.4-8.3-2.1 C328.9,70.1,327.3,67.6,326.6,66.4z"/> <path class="st15" d="M286.4,102.2c-6.5,0.5-15.9,1.1-17.8,8.9c0.5,0.8,1.1,1.9,1.3,2.7c0.4,0.4,1.1,0.9,1.8,0.8 c1.5-0.2,1.6-2.6,3-3.3c2.2-1,6.1,2.9,6.8,3.6c5.2,5.3,4.4,9.2,7.8,12c2,1.6,5.6,3,12.6,1.4c-1-0.2-4.4-0.9-7-3.8 c-3.4-3.9-3-8.6-3-9.4c1.7,2.2,4.3,5,8.2,6.9c2.5,1.3,4.7,1.8,6.5,2.3c3.6,0.9,5.3,0.8,10.8,1.5c2.8,0.4,5,0.8,6.3,1 c2.9,1.1,7.7,2.4,13.8,2c9.3-0.6,15.9-5,18.5-7c-2.1-1.9-5.3-4.3-9.7-6.2c-7.5-3.2-10.4-1.3-23.5-4.3c-5.3-1.2-6.8-1.3-12.4-2.9 c-3.8-1.1-7.3-3-11.6-1.3C295.3,103.3,290.7,103.3,286.4,102.2z"/> <g> <path class="st16" d="M82.6,218c0,0,7-21.7,6-42.8c0,0-3.9,34.1-9.9,42.3C78.2,218.2,82.6,218,82.6,218z"/> <path class="st16" d="M78,217.5c0,0,7.4-10.2,7-47.4c0,0-2.4,31.5-9.2,47C75.6,217.8,78,217.5,78,217.5z"/> <path class="st16" d="M75.1,217.9c0,0,6.8-31.3,5.6-61.7c0,0-2.8,44.1-8.1,57.9C70.8,218.7,75.1,217.9,75.1,217.9z"/> <path class="st16" d="M70.1,217.4c0,0,7.3-15.2,6.4-68.7c0,0-1.2,48.6-9.2,68.2C66.8,218.1,70.1,217.4,70.1,217.4z"/> <path class="st16" d="M73,217.3c0,0,2.5-38.6-1.9-69.2c0,0,2.9,53-2,68.7C68.8,218.1,73,217.3,73,217.3z"/> <path class="st16" d="M67.3,217.4c0,0,6-19-1.3-69.3c0,0,4.9,45.2-1.7,67.6C63.6,217.9,67.3,217.4,67.3,217.4z"/> <path class="st16" d="M65.2,217.6c0,0,1.8-33.5-4-63c0,0,4.5,47.2,0.7,62.1C61.8,217.5,65.2,217.6,65.2,217.6z"/> <path class="st16" d="M60.5,217.4c0,0,4.6-16.4-4.3-68.9c0,0,6.2,45.8,1.9,68.5L60.5,217.4z"/> <path class="st16" d="M49.6,216.2c0,0-6.9-33.3-5.9-64.1c0,0,3,47.1,8.5,63.8L49.6,216.2z"/> <path class="st16" d="M54.5,217.2c0,0-8.4-17.2-6.7-67.8c0,0-0.7,46,9,66.7C57.5,217.5,54.5,217.2,54.5,217.2z"/> <path class="st16" d="M44.7,216.5c0,0-8.5-26.5-10.9-53.6c0,0,7.3,40.2,13.5,53.3L44.7,216.5z"/> <path class="st16" d="M48.5,216.7c0,0-7.1-9-9.5-50.8c0-0.7,3.2,35.8,13.6,50.5C53.8,218.1,48.5,216.7,48.5,216.7z"/> <path class="st16" d="M40.8,216.6c0,0-8-18-12.1-38c0,0,8.8,28.9,14.5,37.5L40.8,216.6z"/> <path class="st16" d="M85.4,217.7c0,0,8.2-14.5,9.6-32c0,0-7.3,23.1-12.4,30.9C81.4,218.4,85.4,217.7,85.4,217.7z"/> <path class="st16" d="M89.4,218.3c0,0,7.7-11.6,9.1-26.2c0,0-5.9,20.4-11.7,25.7L89.4,218.3z"/> <path class="st16" d="M57.7,217.2c0,0-4.7-65.4-3.4-70.9c0,0-0.7,0.2-0.8,9.3c-0.1,9.2,0.7,56,3.1,61.4L57.7,217.2z"/> <path class="st16" d="M37.4,217c0,0-10-17.1-16.5-38.3c0,0,12.5,29.8,19.3,37.7L37.4,217z"/> <path class="st16" d="M42.3,216.6c0,0-7.6-4.8-18.3-39.7c0,0,10.4,29.4,20.3,39.3L42.3,216.6z"/> </g> <g> <path class="st4" d="M208.6,88.6c-2.7,0.4-3.8,3.3-0.7,4.1c-0.4,2.5,2.4,4.1,6.1,5c0.9,1.7,4.9,0.3,5,2.6c7.2,3.3,13.6,7,18.1,11.5 c0.5,0.2,1,0.4,1.5,0.5c-3,1.6-6.2-1-8.6-2.2c-5.2-3.4-12.7-5.5-17.2-9.2c-0.5-0.3-3.4-0.6-4.1-0.5c-3.7,3.4,3.9,4.8,6.4,6.8 c5,2.1,9,4.6,13.6,7c-1.2,4,7.7,2.5,9.2,5.6c8.6,2.1,13.9,6.8,18,11.5c0.9,0.1,1.5,0.1,2.4,0.2c5.4-1.9-0.7-6-3.5-7.8 c-2.5-2.4-6.1-4.1-9.4-6c5.8-0.9,10.7,2.3,16,3.6c6.8,1.9,10.6,5,16.7,7.5c2.8,0.7,3.2-2.6,5.9-0.8c4.1,1.3,5.9-2.7,2.8-4.1 c-2.1-2.1-5-4.6-9-6.8c-2.1-1.2-4.2-2-6-2.7c7.7,1.3,11.6,1.7,11.7,1.1c0.1-0.5-2.1-1.5-6.7-3.1c-3.2-1.3-6.3-2.5-9.5-3.8 c-0.3-0.7-1.1-2.3-3-3.4c-1.2-0.7-2.3-0.9-2.9-0.9c-3.1-0.9-9.5-2.3-8.5,1.6c-1.5,0.4-1.6,1.6-2.7,2.4 c-5.9-5.6-12.3-11.3-22.4-14.8C222.2,91,215.1,89.3,208.6,88.6z"/> <path class="st17" d="M214.3,93.4c9.3,4.8,19.3,8.9,26,14.9c0.5,0.3,1.1,0.7,1.7,1c0.5-0.2,1.3-0.4,1.8-0.6 C236.2,102.5,227.5,95.7,214.3,93.4z"/> <path class="st17" d="M240,101.7c9.3,4.8,19.3,8.9,26,14.9c0.5,0.3,1.1,0.7,1.7,1.1c0.5-0.2,1.3-0.4,1.8-0.6 C261.9,110.9,253.2,104,240,101.7z"/> <path class="st17" d="M246.6,107.9c9.3,4.8,19.3,8.9,26,14.9c0.5,0.3,1.1,0.7,1.7,1c0.5-0.2,1.3-0.4,1.8-0.6 C268.5,117,259.8,110.2,246.6,107.9z"/> <path class="st17" d="M211.3,103.5c9.3,4.8,19.3,8.9,26,14.9c0.5,0.3,1.1,0.7,1.7,1c0.5-0.2,1.3-0.4,1.8-0.6 C233.3,112.6,224.6,105.8,211.3,103.5z"/> </g> <g> <path class="st16" d="M270.6,80.7c0,0,7.3-11,8.4-22.2c0,0-6,17.8-11.4,21.7C267.2,80.4,270.6,80.7,270.6,80.7z"/> <path class="st16" d="M267,80c0,0,6.7-4.8,9.6-24.6c0,0-4.6,16.5-11.3,24.2C265.1,80,267,80,267,80z"/> <path class="st16" d="M264.7,80c0,0,8-16.1,9.7-32.3c0,0-6,23.2-11.4,30.1C261.3,80.1,264.7,80,264.7,80z"/> <path class="st16" d="M260.9,79.3c0,0,7-7.5,11-35.9c0,0-5.2,25.7-13.1,35.5C258.2,79.4,260.9,79.3,260.9,79.3z"/> <path class="st16" d="M263.2,79.5c0,0,5.3-20.3,4.5-36.9c0,0-2.3,28.4-7.5,36.3C259.8,79.6,263.2,79.5,263.2,79.5z"/> <path class="st16" d="M258.7,79.1c0,0,6.3-9.6,5-36.9c0,0-0.1,24.4-7.2,35.7C255.8,79.1,258.7,79.1,258.7,79.1z"/> <path class="st16" d="M257.1,79c0,0,4.3-17.6,2.4-33.7c0,0-0.6,25.4-4.8,33C254.4,78.7,257.1,79,257.1,79z"/> <path class="st16" d="M253.4,78.6c0,0,5.1-8.3,2.6-36.9c0,0,0.8,24.8-4.5,36.5L253.4,78.6z"/> <path class="st16" d="M245,77c0,0-2.5-18.2,0.9-34.5c0,0-1.7,25.2,1.1,34.5L245,77z"/> <path class="st16" d="M248.7,78c0,0-5.1-9.8,0.6-36.5c0,0-4.6,24.3,1.3,36.1C251,78.4,248.7,78,248.7,78z"/> <path class="st16" d="M241.1,76.8c0,0-4.3-14.7-3.9-29.3c0,0,2.2,21.9,5.9,29.3L241.1,76.8z"/> <path class="st16" d="M244.1,77.2c0,0-4.7-5.4-3-27.7c0-0.4-0.6,19.2,6.2,27.9C248.1,78.4,244.1,77.2,244.1,77.2z"/> <path class="st16" d="M238,76.6c0,0-4.7-10.2-6.1-21.1c0,0,4.4,16,8.1,21.1L238,76.6z"/> <path class="st16" d="M241.3,76.8c0,0-4.8-4-7.1-22c0,0,2.9,15.4,8.5,22L241.3,76.8z"/> <path class="st16" d="M272.9,80.7c0,0,7.6-7,10.3-16.2c0,0-7.7,11.7-12.4,15.4C269.7,80.8,272.9,80.7,272.9,80.7z"/> <path class="st16" d="M275.9,81.3c0,0,7-5.5,9.3-13.1c0,0-6.4,10.3-11.4,12.7L275.9,81.3z"/> <path class="st16" d="M235.4,76.5c0,0-6.3-9.9-9.6-21.6c0,0,7.1,16.8,11.8,21.5L235.4,76.5z"/> <path class="st16" d="M239.2,76.7c0,0-5.5-3.1-10.8-22.5c0,0,5.6,16.4,12.4,22.5L239.2,76.7z"/> <path class="st18" d="M250.8,79.4c0,0,6.1-8.4,6.9-17.2c0,0-4.9,13.7-9.4,16.7C247.9,79.1,250.8,79.4,250.8,79.4z"/> <path class="st18" d="M247.7,78.9c0,0,5.6-3.7,7.8-19c0,0-3.7,12.8-9.2,18.7C246.1,78.8,247.7,78.9,247.7,78.9z"/> <path class="st18" d="M245.8,78.8c0,0,6.6-12.4,7.8-24.9c0,0-4.8,17.9-9.3,23.2C242.9,78.8,245.8,78.8,245.8,78.8z"/> <path class="st18" d="M242.5,78.3c0,0,5.9-5.7,8.9-27.8c0,0-4.1,19.9-10.7,27.4C240.3,78.3,242.5,78.3,242.5,78.3z"/> <path class="st18" d="M244.5,78.4c0,0,4.2-15.7,3.4-28.5c0,0-1.6,22-5.9,28.1C241.6,78.4,244.5,78.4,244.5,78.4z"/> <path class="st18" d="M240.7,78c0,0,5.2-7.4,3.8-28.5c0,0,0.2,18.9-5.7,27.6C238.2,78,240.7,78,240.7,78z"/> <path class="st18" d="M239.3,78c0,0,3.4-13.6,1.6-26.1c0,0-0.2,19.7-3.7,25.6C237,77.7,239.3,78,239.3,78z"/> <path class="st18" d="M236.2,77.6c0,0,4.2-6.4,1.8-28.6c0,0,1,19.2-3.4,28.3L236.2,77.6z"/> <path class="st18" d="M229,76.4c0,0-2.3-14.1,0.4-26.7c0,0-1.2,19.5,1.3,26.8L229,76.4z"/> <path class="st18" d="M232.2,77.1c0,0-4.4-7.6,0.1-28.3c0,0-3.6,18.8,1.5,28C234.1,77.4,232.2,77.1,232.2,77.1z"/> <path class="st18" d="M225.7,76.2c0,0-3.8-11.5-3.6-22.7c0,0,2.1,17,5.3,22.8L225.7,76.2z"/> <path class="st18" d="M228.3,76.5c0,0-4.1-4.2-2.9-21.5c0-0.3-0.3,14.9,5.6,21.7C231.7,77.5,228.3,76.5,228.3,76.5z"/> <path class="st18" d="M223.1,75.9c0,0-4.1-7.9-5.5-16.4c0,0,3.9,12.5,7.1,16.4L223.1,75.9z"/> <path class="st18" d="M225.9,76.2c0,0-4.1-3.2-6.3-17.1c0,0,2.7,12,7.4,17.1L225.9,76.2z"/> <path class="st18" d="M252.7,79.4c0,0,6.4-5.4,8.5-12.5c0,0-6.4,9-10.3,11.9C250,79.4,252.7,79.4,252.7,79.4z"/> <path class="st18" d="M255.3,79.9c0,0,5.9-4.2,7.8-10.1c0,0-5.3,8-9.5,9.8L255.3,79.9z"/> <path class="st18" d="M234.3,77.3c0,0,1.3-27.2,2.5-29.4c0,0-0.5,0-1.2,3.8c-0.7,3.8-3.3,23-2.1,25.4L234.3,77.3z"/> <path class="st18" d="M220.9,75.9c0,0-5.5-7.7-8.3-16.8c0,0,6.2,13.1,10.3,16.8L220.9,75.9z"/> <path class="st18" d="M224.1,76c0,0-4.7-2.5-9.4-17.5c0,0,4.9,12.8,10.8,17.5L224.1,76z"/> </g> <path class="st19" d="M277.7,93.1c-1.9,0.1-3.8,0.1-5.8,0.2c-3.2,0-6.3,0-9.2-0.2c-3.3,0.1-6.8,0.1-10.4,0 c-3.7-0.1-7.2-0.3-10.6-0.6c1,1.1,7.9,8.6,17,7.4c2.2-0.3,4-1,5.5-1.8c-2.1,2.9,3.8,4,7.1,2.3c3.3,1,9,2.4,16.1,1.5 c10.7-1.4,17.7-7,20.4-9.5c-1.3-0.8-8.3-4.5-16.3-1.8c-3.9,1.3-6.6,3.6-7.9,5.1C281.5,94.8,279.6,93.9,277.7,93.1z"/> <g> <path class="st20" d="M128.1,205.3c-2.6-2,1.5-4.3,6.7-2.7c4.2-1.6,10.4-0.6,16.7,1.4c4.4-0.3,6.5,3.1,11,2 c14.8,3,29.5,5.3,43.3,5.9c0.9,0.2,1.9,0.5,2.8,0.7c-0.6-2.9-9.5-3.6-14.5-4.6c-12.6-1.6-25.7-5.5-37.9-6.5 c-1.2-0.2-5.2-1.9-5.9-2.5c1.9-4.3,13.8,0,20.5,0.6c9.9,2.2,19.4,3.5,29.5,5.3c6.1-3,14,3.8,21.7,3.1c14.2,4.6,29.5,5.6,43.2,5.8 c1.3,0.5,2.1,0.9,3.3,1.5c2.9,4.7-12,2.8-18.8,1.9c-7.5-0.4-14.9-1.9-22.6-3c5.3,4.4,17.1,5.9,26,8.8c11.7,3.5,22.1,4.4,34.2,7.1 c4.7,1.5-1,3.6,5.6,4.4c7.3,2,2,5.4-4.1,4.1c-15.6-1-31.4-3.1-47.8-6.3c16.3,7.3,39.3,11.7,58.8,12.5c6.2,1.2,13.1,2.8,13,3.8 c-0.2,1.4-14.9,1-21.5,0.6c-14.1-0.8-34.3-3.8-59.3-13.8c-5.4-0.6-5.3-2.9-10.6-3.2c-5.5-1.6-15.8-5.1-7.3-6.5 c-1-1.2,1.2-1.9,1.2-3.1c-17.5-0.9-36-2.1-54.7-7C149,213.1,137.2,209.2,128.1,205.3z"/> <path class="st21" d="M143.9,206.5c20.2,3.6,40.1,8.1,59.3,9.4c1.2,0.2,2.8,0.4,4,0.6c0.2,0.5,0.9,1.1,1.1,1.5 C187.5,216.3,164.2,214.1,143.9,206.5z"/> <path class="st21" d="M190.5,219.2c20.2,3.6,40.1,8.1,59.3,9.4c1.2,0.2,2.8,0.4,4,0.6c0.2,0.5,0.9,1.1,1.1,1.5 C234.1,229,210.8,226.8,190.5,219.2z"/> <path class="st21" d="M209.9,220.3c20.2,3.6,40.1,8.1,59.3,9.4c1.2,0.2,2.8,0.4,4,0.6c0.2,0.5,0.9,1.1,1.1,1.5 C253.4,230,230.2,227.9,209.9,220.3z"/> <path class="st21" d="M159.2,199.1c20.2,3.6,40.1,8.1,59.3,9.4c1.2,0.2,2.8,0.4,4,0.6c0.2,0.5,0.9,1.1,1.1,1.5 C202.7,208.8,179.5,206.7,159.2,199.1z"/> </g> <path class="st22" d="M294.1,91.5c-2.9-0.4-8.8,2.6-8.8,7.5c1,4.6,4.3,6.7,7.9,7.8c4.7,1.5,8.5,2.3,10.3,2.3 c26.6-0.3,50.6,1.9,50.8-1.4c0.1-1-5.1-2.9-15.4-6.7c-9.7-3.5-14.6-5.3-20.4-6.7C312.7,93,304.4,91.6,294.1,91.5z"/> <g> <path class="st23" d="M267.6,135.8c-1.7,0.1-3.4,0.1-5.1,0.2c1.8,1.9,3.7,3.7,5.5,5.6c0.3,3.6,1.5,4.3,3,3.8 c0.6,1.9,1.8-1.9,2.2,1.1c3.1,0.9,5.9,2.9,8.3,6.7c0.1,0,0.2,0,0.3,0c1.5,0,2.8-0.3,4-0.9c-1.1,2-3,3.2-4.8,3 c-1-0.1-1.8-0.6-2.2-0.9c-2.4-2.1-5.4-1.3-7.6-4.1c-0.2-0.1-1.3,0.8-1.5,1.4c-0.8,6.4,2.2,4.6,3.4,6.1c2.1,0.3,3.9,1.8,5.9,2.9 c0.2,6,3.1-0.3,4.2,3.1c3.4-1.3,6,2.5,8.2,6.8c0.3-0.3,0.6-0.6,0.9-0.8c1.6-5.2-1.2-7.7-2.5-8.7c-1.3-2-2.8-2.5-4.3-3.5 c0.7-1.4,1.4-2.1,2.1-2.4c1.4-0.6,2.6-0.5,4.2-0.5c1.5,0,3.5-0.1,6.1-0.7c4.9,1.7,6.1,1.6,6.3,1.3c0.6-1.1-6.9-5.4-6.3-6.8 c0.4-0.8,4,0.1,6,0.8c3.2,1.1,5.6,2.8,7,4c-0.6-4.2-2.2-6.3-3.5-7.5c-2.5-2.2-5.1-1.9-10.5-4.6c-2.1-1.1-3.8-2.1-4.8-2.8 c1.7-1.3,3.4-2,4.8-2.3c7.6-1.9,16.6,3.1,23.5,12.2c-0.8-2.4-1.7-4.8-2.5-7.3c-3.8-2.9-7.5-5.8-11.3-8.8c-2.4-0.8-5.3-1.6-8.7-2.1 c-1.9-0.3-3.7-0.4-5.3-0.4c-4.4-1.7-5.8-1.7-6-1.3c-0.4,0.8,3,3.7,2.9,3.8c0,0-0.2-0.2-0.5-0.4c-8.3-0.9-10.3-0.7-10.4-0.4 c-0.1,0.5,2.6,1,5.3,3.5c1.1,1.1,1.9,2.2,2.4,3c-0.1,0.7-0.3,1.4-0.3,2.2c0,0.8-0.1,1.6-0.2,2.4c-3-4.6-6.2-9.3-10.3-9 c-1.4-0.6-3.3-1.2-5.5-1.6c-3.6-0.6-6.7-0.2-8.8,0.3C263.2,133.3,265.4,134.6,267.6,135.8z"/> <path class="st21" d="M270.5,139.5c4.1,2,8.3,2.7,11.6,7.5c0.2,0.1,0.5,0.4,0.8,0.6c0.1-0.6,0.4-1.1,0.5-1.7 C279.7,141.2,275.5,136.2,270.5,139.5z"/> <path class="st21" d="M280.9,138.3c4.1,2,8.3,2.7,11.6,7.5c0.2,0.2,0.5,0.4,0.8,0.6c0.2-0.6,0.4-1.1,0.5-1.7 C290.1,140,286,135,280.9,138.3z"/> <path class="st21" d="M284.2,143.4c4.1,2,8.3,2.7,11.6,7.5c0.2,0.1,0.5,0.4,0.8,0.6c0.1-0.6,0.4-1.1,0.5-1.7 C293.5,145.1,289.3,140.1,284.2,143.4z"/> <path class="st21" d="M271.1,154.5c4.1,2,8.3,2.7,11.6,7.5c0.2,0.2,0.5,0.4,0.8,0.6c0.1-0.6,0.4-1.1,0.5-1.7 C280.3,156.2,276.1,151.2,271.1,154.5z"/> </g> <g> <path class="st24" d="M323.3,117.2c0,0,6.1-17.9,5.8-36.9c0,0-3.9,29.6-9,35.6C319.7,116.4,323.3,117.2,323.3,117.2z"/> <path class="st24" d="M320.6,116.5c0,0,6.3-7.5,6.7-40.7c0,0-2.6,27.5-8.5,40C318.6,116.2,320.6,116.5,320.6,116.5z"/> <path class="st24" d="M318.7,116.5c0,0,6.2-26.5,5.8-53.7c0,0-3.2,38.6-7.8,49.8C315.2,116.4,318.7,116.5,318.7,116.5z"/> <path class="st24" d="M313.8,116.2c0,0,6.3-12,6.6-59.8c0,0-2,43-8.9,58.8C311.1,116.1,313.8,116.2,313.8,116.2z"/> <path class="st24" d="M316.8,116.4c0,0,2.8-33.8-0.1-61.9c0,0,1.3,47.8-3,60.7C313.3,116.2,316.8,116.4,316.8,116.4z"/> <path class="st24" d="M312,115.9c0,0,5.3-15.7,0.3-61.9c0,0,3,41.2-2.8,59.8C309,115.6,312,115.9,312,115.9z"/> <path class="st24" d="M310.1,115.8c0,0,2.1-29.4-1.9-56.8c0,0,2.7,42.9-0.7,55.4C307.3,115,310.1,115.8,310.1,115.8z"/> <path class="st24" d="M307.4,114.9c0,0,4.1-13.6-2.1-62.1c0,0,4.1,42,0.1,61.3L307.4,114.9z"/> <path class="st24" d="M298.4,108.8c0,0-5-31-3.5-58.2c0,0,1.5,42.5,5.6,58.5L298.4,108.8z"/> <path class="st24" d="M302.9,114.1c0,0-6.5-17-4.1-61.7c0,0-1.6,40.8,6,61.2C305.4,115,302.9,114.1,302.9,114.1z"/> <path class="st24" d="M294.3,108.1c0,0-6.4-25.3-7.8-49.9c0,0,5.1,37.3,9.9,50.2L294.3,108.1z"/> <path class="st24" d="M298.5,112.3c0,0-5.6-9.5-6.7-47.1c0-0.6,1.9,32.5,10,47.7C302.7,114.7,298.5,112.3,298.5,112.3z"/> <path class="st24" d="M291.2,107.4c0,0-6.2-17.6-9.1-36.2c0,0,6.6,27.5,11,36.3L291.2,107.4z"/> <path class="st24" d="M296.2,112.2c0,0-5.4-7.2-10.2-37.9c0,0,5,26.3,11.6,37.9L296.2,112.2z"/> <path class="st24" d="M326.3,116c0,0,7-11.2,8.5-26.5c0,0-6.5,19-10.8,25C323,115.8,326.3,116,326.3,116z"/> <path class="st24" d="M304.9,111.4c0,0-2.5-59.1-1.3-63.8c0,0-0.6,0-0.9,8.1c-0.3,8.1-0.6,49.9,1.3,55.3L304.9,111.4z"/> <path class="st24" d="M290.2,109.6c0,0-7.8-17.3-12.7-37.5c0,0,9.5,29,15,37.5L290.2,109.6z"/> <path class="st24" d="M294,111.1c0,0-6.1-5.8-14.1-39c0,0,7.9,28.3,15.7,39.1L294,111.1z"/> </g> <path class="st25" d="M59.5,117c-0.7,0.2-4-0.5-4.5-0.8c7.3,10.6,13.4,21,25.3,27c1.2,2.7,2.7,4.3,3.9,5.2c1.6,1.4,2,1,4.3,2.8 c2.4,1.9,3.1,3.2,4.8,3.3c1,0,1.9-0.4,2.4-0.8c-1.8-0.7-8.4-3.7-10.5-10.5c-0.4-1.4-0.6-2.7-0.7-3.8c-2.2-0.3-4.6-0.9-7.1-2 C65.7,132.2,60.9,120.7,59.5,117z"/> <path class="st25" d="M268.2,199.2c-0.5,0.5-3.7,1.6-4.2,1.6c11.7,5.3,22.3,11.2,35.6,10.1c5.3,3.7,12.2-0.5,17,5.3 c1.1-0.5,2.1-0.5,3.2-1.1C303.3,207.2,284.7,207.7,268.2,199.2z"/> <path class="st25" d="M269.3,217.2c-0.6,0.4-4,1.3-4.6,1.3c12.5,4.4,23.9,9.3,38.2,8.4c5.7,3.1,13.1-0.4,18.2,4.4 c1.1-0.4,2.3-0.4,3.4-0.9C307,223.9,287,224.3,269.3,217.2z"/> <path class="st25" d="M67.3,42.6c-2.7-1.1-5.3-2.1-8-3.2c-6,0.6-12,1.1-18,1.7c12.3,3.3,25.6,6.4,39.9,8.8 c6.3,1.1,12.4,1.9,18.4,2.7c2,0,5.2,0.3,8.7,1.9c1.9,0.8,3.4,1.8,4.5,2.7c1.6,0,3.4,0,5.4,0.2c2.1,0.2,4,0.6,5.7,1 c-13.5-6.5-23.2-8.6-29.9-9.3c-2.5-0.3-9.4-0.8-18.2-3.4C72.1,44.5,69.2,43.4,67.3,42.6z"/> <g> <path class="st26" d="M284.3,175.4c-0.5,1.7,0.4,5.3,1.4,4.8c0.9,2.9,2.2,3.3,3.5,2.5c0.9,1.4,1.4-2,2.3,0.4 c3.1,0.1,6.2,1.1,9.2,3.8c0.2,0,0.4-0.1,0.6-0.1c-0.1,3.2-2,1.9-3.1,1.7c-2.7-1.2-5.4,0.1-8-1.8c-0.3-0.1-1.1,0.9-1.2,1.5 c0.4,5.4,2.9,3.4,4.4,4.3c2.1-0.2,4.1,0.7,6.2,1.1c1.3,4.9,2.9-0.9,4.6,1.7c3-1.8,6.2,0.8,9.1,3.9c0.3-0.3,0.4-0.6,0.7-0.9 c0.6-4.7-2.6-6.1-4-6.7c-1.6-1.4-3.2-1.5-4.8-2c1.1-3.8,3.6-2.7,5.5-3.7c2.5-1.2,4.7,0.3,7.2,0.2c1-0.6-0.2-4.4,1.2-3.7 c1.5-0.5,0.4-5.7-0.9-5.7c-3.3-2.7-6.6-4.1-10.1-4.5c3.4-4.5,8.3-3.8,12.4,0c2-1.5-0.4-7.2-1.8-7.1c-4.1-1.4-8.9-1.3-12.5,1.4 c-1.1-0.6-1.1,2.1-2.2,1c-1.1,0.5-3.3,2-1.5,5.7c-0.2,1.1,0.3,2.5,0.3,3.9c-3.7-3.2-7.6-6.4-11.6-5.3 C288.7,171.5,286.3,173.1,284.3,175.4z"/> <path class="st21" d="M287.7,177.9c4.3,0.8,8.5,0.5,12.5,3.8c0.3,0.1,0.6,0.3,0.8,0.3c0-0.5,0.2-1,0.2-1.5 C296.9,177.3,292,174.1,287.7,177.9z"/> <path class="st21" d="M297.5,174.7c4.3,0.8,8.5,0.5,12.5,3.8c0.3,0.1,0.6,0.3,0.8,0.3c0-0.5,0.2-1,0.2-1.5 C306.7,174.1,301.8,170.9,297.5,174.7z"/> <path class="st21" d="M301.6,178.2c4.3,0.8,8.5,0.5,12.5,3.8c0.3,0.1,0.6,0.3,0.8,0.3c0-0.5,0.2-1,0.2-1.5 C310.8,177.7,305.9,174.4,301.6,178.2z"/> <path class="st21" d="M291,190.2c4.3,0.8,8.5,0.5,12.5,3.8c0.3,0.1,0.6,0.3,0.8,0.3c0-0.5,0.2-1,0.2-1.5 C300.2,189.7,295.3,186.4,291,190.2z"/> </g> <g> <path class="st27" d="M19.5,138.6c1.5,2.1,3,4.4,4.6,6.7c0.9,1.4,1.9,2.9,2.8,4.3c1.1,0.9,2.5,2,4.3,3c2.2,1.2,4.3,1.9,5.9,2.3 c0.7,0.9,1.5,1.9,2.5,2.9c1.6,1.7,3.3,3,4.7,4.1c0.3,0,0.5,0,0.8,0c-1,3.4-2.9,1.5-4.2,1.1c-2.9-1.9-6.6-1.2-9.3-3.8 c-0.7,0.2-1.9,0.5-3.4,0.2c-3.2-0.7-4.6-3.4-4.8-3.7c0.5,1.7,2.1,6.3,7,9c1.2,0.7,2.4,1.2,3.5,1.5c2.6,0.3,4.8,1.7,7.3,2.7 c0.3,5.5,3.8-0.3,5.1,2.9c4.1-1.2,7.4,2.3,10.1,6.3c1,0.8,2.2,1.7,3.6,2.4c5.6,2.9,11.3,2.6,14.1,2.3c-4.8-1.8-10.9-4.8-16.4-10 c-1.3-1.2-2.4-2.4-3.3-3.6c-1.6-1.9-3.4-2.3-5.3-3.3c2.3-3.8,5.1-2,7.7-2.7c3.3-0.7,5.6,1.4,8.7,1.9c0.3-0.3,1.9-1.6,1.9-3.8 c0-1.9-1.2-3.7-3.2-4.7c4.6,2.2,9.1,4.3,13.7,6.5c-3.2-2.7-6.4-5.3-9.5-8c-3.3-3.6-7-6-11.1-7.1c5.4-4,11.1-2.1,15.1,2.9 c2.8-1.1,1.4-7.7-0.3-8c-4.6-2.5-10.5-3.4-15.6-1.4c-1.2-0.9-1.9,1.9-3,0.6c-1.5,0.2-4.6,1.3-3.4,5.7c-0.6,1.2-0.4,2.8-0.7,4.2 c-2.5-1.5-5-3.1-7.6-4.8c-1.8-1.2-3.5-2.4-5.1-3.5c-2.3-0.1-5.4-0.3-8.9-1.3C24.2,141.1,21.4,139.7,19.5,138.6z"/> <path class="st21" d="M30.7,149.1c5,1.8,10.2,2.5,14.3,6.9c0.3,0.1,0.6,0.4,0.9,0.6c0.2-0.5,0.5-1,0.7-1.6 C42.1,150.6,36.9,146,30.7,149.1z"/> <path class="st21" d="M43.5,147.9c5,1.8,10.2,2.5,14.3,6.9c0.3,0.1,0.6,0.4,0.9,0.5c0.2-0.5,0.5-1,0.7-1.6 C54.9,149.5,49.7,144.9,43.5,147.9z"/> <path class="st21" d="M47.6,152.7c5,1.8,10.2,2.5,14.3,6.9c0.3,0.1,0.6,0.4,0.9,0.6c0.2-0.5,0.5-1,0.7-1.6 C58.9,154.2,53.8,149.6,47.6,152.7z"/> <path class="st21" d="M31.4,163c5,1.8,10.2,2.5,14.3,6.9c0.3,0.1,0.6,0.4,0.9,0.5c0.2-0.5,0.5-1,0.7-1.6 C42.8,164.5,37.6,159.9,31.4,163z"/> </g> <g> <linearGradient id="SVGID_5_" gradientUnits="userSpaceOnUse" x1="229.3606" y1="94.9214" x2="229.3606" y2="209.3641" gradientTransform="matrix(-1 0 0 1 407.8127 0)"> <stop offset="8.205128e-02" style="stop-color:#DF77AF"/> <stop offset="0.2018" style="stop-color:#DD74AA"/> <stop offset="0.3258" style="stop-color:#D76D9F"/> <stop offset="0.4519" style="stop-color:#CF618E"/> <stop offset="0.5794" style="stop-color:#C5517B"/> <stop offset="0.7066" style="stop-color:#B93C64"/> <stop offset="0.7923" style="stop-color:#B02A54"/> <stop offset="0.8436" style="stop-color:#AA1D4A"/> </linearGradient> <path class="st28" d="M263.1,141.2c14.1,8.6,22,22.9,20,36.3c-2.7,18.1-22.1,26.3-27.3,28.5c-13.4,5.6-26.9,3.5-53.9-0.7 c-12.4-1.9-27.1-4.3-45.5-11.2c-13.2-4.9-24.1-8.9-35.5-17.2c-6.7-4.9-11.2-9.6-19.7-18.6c-1.9-2-5.6-6.2-13-14.8 C77.3,131,76.1,129.3,75,126.1c-0.5-1.5-3.8-11.8,1.3-20c5-8.1,15.4-9.9,19.7-10.7C127.7,89.8,252.7,137.3,263.1,141.2z"/> <linearGradient id="SVGID_6_" gradientUnits="userSpaceOnUse" x1="232.3455" y1="93.3971" x2="232.3455" y2="196.3743" gradientTransform="matrix(-1 0 0 1 407.8127 0)"> <stop offset="0.1103" style="stop-color:#F49AC1"/> <stop offset="0.2587" style="stop-color:#F27898"/> <stop offset="0.4095" style="stop-color:#F0587B"/> <stop offset="0.5504" style="stop-color:#EF3A68"/> <stop offset="0.6763" style="stop-color:#EE215E"/> <stop offset="0.7744" style="stop-color:#ED145B"/> </linearGradient> <path class="st29" d="M106.9,93.4c-14.2,0.7-25.6,6.5-28.5,15.2c-2.6,8,2.7,16,8.6,24.8c2.1,3.1,9.1,13.2,27.4,26.5 c17.6,12.9,33.5,19.8,40.9,22.8c4.6,1.9,18.7,7.3,38,10.8c19.4,3.5,33.5,3.2,43.4,2.2c9-0.9,17.1-2.7,24.6-8 c2.6-1.9,6.1-4.4,8.6-8.9c5.5-9.6,3.6-21.9-2-29.8c-4.7-6.6-11.5-9.4-14.6-10.6c-54-21.1-81.4-31.8-98.2-35.6 C143.4,100,126.9,96.6,106.9,93.4z"/> <path class="st30" d="M252.5,161.9c0,0,4.6-17.5-0.3-22.3c-4.9-4.8-13.5-6.6-19.8-9c-6.2-2.4-24.9-10.1-28.9-12.2 c-4.1-2.1-35.5-12.5-40.1-13.5c-4.6-1.1-37.6-6.9-41.4-8c0,0-10.4-1.6-23.5,1.6c-1.6,0.4-4,1.1-6.4,3c-4.4,3.7-5.1,9.2-5.4,11 c-1.2,8.4,4.9,17.6,14.2,26.8c19.6,19.4,42.2,27.6,51.6,30.6c16.4,5.3,10.8,1.1,49.3,8.2c10,1.9,35.4,5.1,40,1.1 C246.5,175.2,252.5,161.9,252.5,161.9z"/> <linearGradient id="SVGID_7_" gradientUnits="userSpaceOnUse" x1="212.6132" y1="105.5007" x2="253.9207" y2="177.0473" gradientTransform="matrix(-1 0 0 1 407.8127 0)"> <stop offset="0.3256" style="stop-color:#F49AC1"/> <stop offset="0.4852" style="stop-color:#F498BE"/> <stop offset="0.5884" style="stop-color:#F491B4"/> <stop offset="0.6757" style="stop-color:#F385A7"/> <stop offset="0.7541" style="stop-color:#F27595"/> <stop offset="0.8265" style="stop-color:#F05D7F"/> <stop offset="0.8936" style="stop-color:#EE3967"/> <stop offset="0.9282" style="stop-color:#ED145B"/> </linearGradient> <path class="st31" d="M104.4,97.3c-1.6,0.2-6.5,1-10,5.2c0,0-2.7,3.2-3.4,7.9c-0.6,4.4,0.4,12.7,13.8,25.8 c12.1,11.9,24,17.5,44.4,27.1c16.7,7.9,25.5,10.3,29.8,11.4c10.6,2.7,18.9,3.5,25,4c13.3,1.2,20,1.8,27.3-0.4 c5.4-1.7,18.5-5.5,21.3-16.4c2.7-10.6-6.6-20.1-7.6-21.1c-20.6-12.8-39.3-20.9-53.6-26.1c-9.2-3.4-26.3-7.9-41.1-11.7 c-4.5-1.1-8.2-2.1-10.7-2.7c0.2-0.9,0.4-1.8,0.6-2.6c6.5,0.9,15.9,2.5,27,6c3.3,1,5.9,2,8.2,2.8c26.8,9.8,30.7,13.2,48,20.2 c27.4,11.1,31.9,11.8,37,18.6c1.4,1.9,9.1,12.3,5.9,22.8c-4,13.2-22.7,17.5-33.7,20.1c-24.4,5.7-45.7-0.5-56.4-3.6 c-9.5-2.7-17.1-6.1-20.7-7.7c-3.2-1.4-12.8-5.8-25.2-13.6c-12.5-7.9-21-13.3-29.9-23.1c-5.5-6.1-16.9-18.9-14.4-30.6 c0.2-1,0.8-3.8,3-6.4C94.1,97,102.7,97.2,104.4,97.3z"/> <path class="st32" d="M239,169.4c0.8-1,7.5-9.9,4.1-16.5c-1.3-2.5-3.7-3.8-7.4-5.8c-4.8-2.6-7.8-3.2-13.7-5.1 c-8.8-2.8-15.8-5.8-22.5-8.7c-3.9-1.7-6-2.7-7.7-3.4c-13.2-5.9-23.5-6.6-34.6-9.2c-24.3-5.8-37.9-17.8-51.4-15.3 c-5,0.9-6.6,3.2-7,3.8c-2.4,3.9,0.2,9.4,1.4,11.9c3.4,6.9,8.9,12,25.2,22c12.7,7.8,19.1,11.6,29,15.7c10.4,4.3,18.1,6.1,30,9 c15,3.6,22.7,5.4,33.3,5.1C226.8,172.5,234.1,170.8,239,169.4z"/> <path class="st33" d="M133.4,126.7l15.3,0.5c0,0,4.9,9.8,7.5,11.4c2.6,1.6,2.8-20.7,0.9-22c-1.9-1.3-8.3-2.1-8.3-2.1l-10-0.3 l-12.5,0.4l-1.6,6.8L133.4,126.7z"/> <path class="st34" d="M200.6,138.5l17.2,1.2l13.7,2.5c0.6,0.5,3.5,3.1,4,7.5c0.5,4.9-2.4,8.3-2.8,8.8c-3.1,4.9-6.1,9.9-9.2,14.8 l-6.2-0.1l-22.3-26.9L200.6,138.5z"/> <path class="st35" d="M130.6,114.7c0,0,21.7-0.6,24.3,1.4c2.6,2,19.9,27.7,19.8,29.4c-0.1,1.7-3.8,5.5-7,3.8 c-3.2-1.7-18.2-17.9-17.9-22.7c0.3-4.8,1.5-6.4-0.5-5.5c-2,1,0.2,4.6-2,4.8c-2.1,0.1-13.6-0.3-15.2-0.6c-1.7-0.3-1.5,0.6-0.2,1.3 c1.4,0.7,13.7,1.4,15.1,1c1.4-0.4,11.2,18.1,19.6,22.4c0,0,4.2,1.4,5.7,0.7c1.5-0.7,3.5-3.1,3.5-4.6c0-1.6-6.6-12.9-8-14.6 c-1.4-1.7-9.7-15.7-11.5-16.7c-1.8-1-23.7-1.7-24.9-1.3c-1.2,0.4-2.1,1.3-2.1,1.3L130.6,114.7z"/> <path class="st33" d="M126.9,122.1c0,0,18.7,9.2,20,15c1.3,5.8-6.2,15.3-6.2,15.3l-11-6.3l1.8-7.3c0,0-6.6,0.3-14.8-4.9 c-8.1-5.2-7.3-6.5-7.3-6.5S118.1,117.8,126.9,122.1z"/> <path class="st36" d="M126.9,118l1.5,4.4c0,0-7.3-2.4-11.9,0.9c-4.6,3.3-5.3,5.3-5.3,5.3s-1.4-0.1-3-1c-2.8-1.6-3.9-4.3-4.5-5.9 c-1.6-4.3-0.8-8.3-0.3-10.2c1,1,1.9,2,2.9,3c1.8,0.7,4.4,1.5,7.5,1.9c3.5,0.4,6.5,0,8.5-0.4C123.9,116.7,125.4,117.4,126.9,118z"/> <g> <path class="st37" d="M137.9,71.5c0,0,0.5,0.5,1.1-0.3c0.7-1.1,2.2-1.1,2.9-2.4c0.5-1,0.2-2,0-2.6c0,0-0.3-1.2-1.3-2.3 c-2.2-2.4-10.2-3.6-15.5,0.4c-1,0.8-1.8,2.2-2.9,4c-0.3,0.5-0.5,4.8,2.3,6C127.4,75.5,137.9,71.5,137.9,71.5z"/> <path class="st38" d="M125.8,72c0,0-1,1-2.1,3c-1.2,2-6.3,6.7-5.1,7.7c1.2,1,9.9,0.7,9.9,0.7l1.8-3.8l-3.5-7.4L125.8,72z"/> <path class="st39" d="M138.3,67c0.7,0.5,1,1.5,0.7,2.3c0.3,0.9,0.2,1.4,0,1.8c-0.3,0.5-0.7,0.6-1.1,1.2c-0.4,0.5-0.5,1.1-0.6,1.5 c-0.3,0.8-0.6,1.5-0.9,2.3c-0.3,0.6-0.7,1.2-1.1,1.8c-0.7,1-1.5,1.9-2.2,2.8c-0.5,0.2-1.4,0.4-2.4,0.1c-0.1,0-0.4-0.1-0.7-0.3 c-1-0.5-2.5-1.9-3-4c-0.5-1.9-0.1-3.7-0.3-3.7c-0.2,0-0.4,1.8-0.7,1.8c-0.2,0-0.4-1.1-0.7-2.4c0,0,0-0.1,0-0.1 c0-0.4-0.1-2.4,0.2-2.8c0.3-0.4,1-1.8,1.4-1.3c0.4,0.5,2.9-1.2,3-1.6c0.2-0.3,2.1-1.6,2.6-1.4c0.5,0.1,3.2,2.3,3.2,2.3 C136.3,66.5,137.5,66.4,138.3,67z"/> <path class="st38" d="M138.4,71.8c-0.3,1-0.7,1.3-0.9,1.3c-0.4,0-0.6-0.8-1.2-0.9c-0.5-0.1-1,0.3-1.2,0.7 c-0.3,0.5-0.2,1.2-0.1,2.2c0.1,0.8,0.2,0.9,0.1,1.1c-0.2,0.3-0.9,0.5-3.2,0c0.6-0.3,1.2-0.5,1.8-0.8c0-1.2,0.1-2.3,0.1-3.5 c-0.6-0.4-1.5-0.9-2.8-1.2c-0.9-0.2-1.6-0.1-2.2-0.1c1.9-1.1,3.1-1.1,3.8-0.8c1.1,0.3,1.5,1.2,2.8,1.2c0.6,0,1.1-0.2,1.8,0 C137.8,71.2,138.2,71.5,138.4,71.8z"/> </g> <path class="st34" d="M209.8,108.1c2.6-0.9,4.9-1.4,6.5-1.7c3-0.6,5.8-1.1,9.3-0.9c2.1,0.2,3.2,0.3,4.4,0.8c3.3,1.4,4,4,6.5,4 c1.2,0,2.7-0.6,2.7-1.3c0-0.2-0.1-0.4-0.4-0.7c-1.5-1.2-4.7-1.5-5.8-1.5c-1.1-1-3.5-2.9-7-3.5c-3-0.5-5.4,0.1-7.9,0.9 C216.1,104.7,213.1,105.8,209.8,108.1z"/> <path class="st40" d="M125.9,75.5l-2.3,2c0,0-1.5,1,3.5,1.3l2.9,3.8l6,1.9l2.6,5l-0.2,13.5l-5.5,14.4l-11.6-1.4l-6.7,0.1l-7.1-3 l-4.5-2.8c0,0,4.5-28.3,6.6-30.5c2.2-2.3,11.2-5.7,11.2-5.7l4.5-0.3L125.9,75.5z"/> <path class="st41" d="M132.2,80.8c2.5,0.7,4.5,4.2,4.5,4.2c1.4,2.4,3.2,5.5,3.5,10.1c0.1,2-0.1,3.1-1.7,9.7 c-2.2,8.9-1.6,12.3-4.5,13.6c-1.4,0.6-3.3,0.3-7-0.3c-2.2-0.4-2.4-0.6-4.5-1c-3.3-0.5-3.8,0-7.5-0.3c-3.3-0.2-6-0.5-8.5-2.2 c-0.4-0.3-1.9-1.4-2.9-3c-3.6-5.9,3.7-11.7,4.8-24.6c0.1-1.4,0.3-4.3,2-7.3c0.5-0.9,2-3.2,4.8-4.9c2.8-1.7,6.1-2.2,8-1.6 c0.3,0.1,1.2,0.4,1.2,0.7c0,0.2-0.9,0.3-1.3,0.4c-1.4,0-4.7,0.2-7.8,2.5c-2.3,1.7-3.4,3.8-4.2,5.3c-1.7,3.3-1.1,4.5-2.4,10 c-0.8,3.5-1.2,3.5-3.2,10.8c-1.2,4.4-1.6,6.2-0.6,8c0.9,1.6,2.5,2.4,4.3,3.2c0.8,0.4,2.9,1.3,7,1.6c3.3,0.2,4.2-0.5,7.6-0.3 c2.7,0.2,8.1,1.4,9.4,0.6c1.3-0.8,7.5-20.4,3.9-27.6c-1-2.1-1.9-3.7-4.8-4.1c-2.9-0.5-4-2.6-4.9-3.9c-0.9-1.3-5.4-1-4.7-2.7 c0.7-1.7,2.1-2.4,3.2-2.1c1.1,0.3,1.6,1.8,0.5,1.8c-1.1,0-3.1,0.6-1.8,0.9c2.4,0.5,2.8,0.4,3.6,0.9c0.7,0.4,0.8,1,1.8,1.5 c0.2,0.1,0.5,0.2,0.7,0.3C131.4,80.9,131.9,80.7,132.2,80.8z"/> <polygon class="st33" points="181,162.5 192.1,166.2 201.6,167 199.1,170.2 216.7,172.9 222.1,160.1 218.6,150.8 200.7,146.9 189.1,147.6 178.4,155.8 "/> <path class="st42" d="M210,93.5c0,0-2.6,7.4-2.4,8.4c0.1,0.9,2.3,6.2,2.3,6.2l-6.8,3.5c0,0-11.1-4.7-11.1-5.7c0-1.1,4.6-8.9,5.9-10 c1.4-1.1,6.2-2.7,6.2-2.7L210,93.5z"/> <path class="st43" d="M182.3,155.5c-1.1,1.4-1.5,2.6-1.7,3.5c-0.2,1.2,0,2.1-0.5,4.1c-0.1,0.6-0.3,1.1-0.4,1.4 c-3.1-0.4-6.1-0.9-9.2-1.3c-2.6-2-5.2-4-7.8-6.1c-0.1-2.3-0.2-4.6-0.3-6.9c4.1,1,8.1,2,12.2,3.1C177.2,154,179.8,154.7,182.3,155.5 z"/> <path class="st44" d="M122.4,75.8c-1.1,0.2-2.7,0.5-4.5,1.1c-1.7,0.6-2.6,0.9-3.3,1.5c-1.9,1.5-1.9,3.5-3.7,10.8 c-0.3,1.3-0.6,2.3-0.8,3c-0.7,1.2-1.4,2.9-1.9,4.9c-0.5,1.8-0.7,3.4-0.7,4.8c-0.6,2.7-1.1,5.5-1.7,8.2c0.6,0.8,1.2,1.6,1.8,2.4 c2.1,1,6,2.6,11.2,2.7c4.3,0.1,7.7-1,9.7-1.7c2.4-1.7,8.5-1.9,5.7-6.6c-2.2-2.4,2.6-4.3-0.2-6.7c0.8-0.2,2.3-0.7,3.1-2 c0.7-1.3,0.4-2.6,0-4.6c-0.3-1.6-0.9-2.9-1.3-3.7c-1.4-1.8-2.7-3.1-3.7-3.8c-3-2.4-7.8-4.9-8.1-5c-1.9-1-3.1-1.5-3.2-2.5 C120.6,77.3,121.6,76.4,122.4,75.8z"/> <path class="st35" d="M182.4,162.2c0,0,18.9,4,21.2,3.5c2.3-0.6-5.2,7.1-4.2,8.6c1.1,1.5-4.4,0.7-4.4,0.7s2-6,3.6-6.7 c1.6-0.7-16.7-0.8-17.8-4C179.6,161.2,182.4,162.2,182.4,162.2z"/> <path class="st45" d="M130.3,96.6c-0.1-1-0.7-6.5-5.6-10c-2.9-2.1-5.9-2.5-7.3-2.7l-2.3,1.3c-0.8,1.8-1.6,3.6-2.4,5.3 c-0.1,1.1-0.2,2.5,0,4c0.1,1.3,0.4,2.4,0.6,3.3c1.4,1.4,2.7,2.8,4.1,4.2c0.6-0.6,1.3-1.2,2.1-1.8C123.4,97.3,127.7,96.7,130.3,96.6 z"/> <path class="st46" d="M190.6,106.1c0,0,4.6-11.2,9.4-12.8c4.8-1.6,11.5-0.8,11.5-0.8s-6.2,10.3,0.2,15.2c0,0-5.9,4.4-8.5,4.3 c-2.6-0.1-8.8-2.9-9.2-4c-0.3-1.2,1.2-1.7,1.8-1.2c0.6,0.6,6.6,4.1,8.2,3.6c1.6-0.5,5.1-2.8,5.1-2.8s-2.8-4.5-2.4-5.9 c0.5-1.5,2.3-7.9,2.3-7.9s-9.1,0.2-10.3,2.1c-1.2,1.9-5.4,7.6-5.2,9C193.7,106.4,190.3,107,190.6,106.1z"/> <path class="st47" d="M160.3,151c0.2,3.2,1.2,5.5,2,6.8c3.5,5.7,11.1,8.5,19.4,7.5c-0.4-0.7-1.7-3.7-0.4-6c0.5-0.9,1.5-2.2,2.9-2.9 c1-0.5,1.6-0.8,1.6-1.1c-0.1-0.4-1.5-0.6-2.8-0.2c-2.2,0.6-3.2,2.8-3.2,2.9c-0.7,1.7-0.7,3.2-0.6,3.9c0.1,0.7,0.2,1.3,0.3,1.8 c-1.6-0.3-2.9-0.6-4-0.8c-4.2-0.9-4.8-1-5.8-1.5c-2.1-1-3.3-2.2-4-2.8c-1.5-1.5-2.5-2.4-2.7-3.8c-0.2-1.5,0.6-2.5,0-3.2 C162.4,150.8,161.2,150.9,160.3,151z"/> <path class="st33" d="M126.5,97.7c2.8,0.3,4.4,2.5,5.6,4.2c2.1,2.9,2.5,5.9,2.6,7.6c0,0,5.1-0.8,19.5-7.8l2.2-2.8h3.9l3.8,6 l-2.7,0.5l-3.7-0.3l-3.1,2.1l-8,6.1c0,0-3,1.7-6.4,3.2c-6.4,2.9-7.8,2.8-8.6,2.6c-1.8-0.4-3.1-2-5.8-5.3c-2.7-3.3-4.1-5-4.2-6.9 c-0.1-1.4,0.3-3.1-0.7-5.2c-0.2-0.5-0.5-0.9-0.7-1.1C120.5,100.2,123,97.3,126.5,97.7z"/> <path class="st48" d="M179.5,97.8l-11.8,3.1l-4.2,1.8c-2.5,6.5-4.9,13-7.4,19.5c-0.4,4.2-0.8,8.5-1.3,12.7l1.2,11.6l4.2,4.6 c0,0,26.1,2.8,34.5-5.8c8.4-8.6,8.9-36.2,5.3-40.6c-1.1-1.3-6.4-4.4-6.4-4.4L179.5,97.8z"/> <path class="st49" d="M176.1,100.6c-2.1,0.7-5.5,2.1-8.9,5c-3.2,2.7-5.1,5.6-6.1,7.5c-0.9,1.9-1.9,4.3-2.5,7.3 c-0.8,3.3-1,6.2-1,8.5c-0.1,2.2-0.2,4.4-0.3,6.8c0,2.9,0,5.6,0.2,8.2c1.3,4.1,4.6,7.1,8.5,7.6c3.5,0.5,6.2-1.1,7-1.6 c1.6-1.9,3.1-2.7,4.2-2.9c1.9-0.5,3,0.1,5-0.4c1.9-0.5,3.2-1.6,4-2.4c0.5,0.3,1.7,1,3.2,0.9c2.1-0.1,4-1.7,4.8-3.9 c0.7-1.1,2.7-4.7,3.3-8.2c0.2-1.2,0.3-2.4,0.3-2.4c0.1-2,0-3.5,0-4c-0.2-3.3,0.9-6,1.3-8.8c0.3-2.4,0.2-6-2-10.8 c0,0.3,0.4,4.6-3.1,7.2c-3,2.3-6.4,1.6-6.9,1.4c-1.4-1-3.1-2-5-2.9c-2.4-1.2-4.6-2.1-6.6-2.8c-0.3-0.4-1.8-1.9-1.8-4.2 C173.5,102.6,175.9,100.8,176.1,100.6z"/> <path class="st42" d="M170.5,112.8c4.1-0.9,8.6,2.9,10.5,6.7c1.8,3.6,1.2,7.1,0.8,8.7l-0.6,3.4l-9.1-2.2l-6.6,2.5l-2.2-6l0.1-4 c0.1-1.1,0.6-3.6,2.5-6C166.8,115.1,168.3,113.3,170.5,112.8z"/> <path class="st41" d="M130.3,96.6c0,0-1.4-8.2-6.8-12.1c-2.4-1.7-4.4-1.7-4.9-1.7c-0.5,0-2.1,0.1-3.6,1.1c-1.6,1.2-2.2,2.9-2.5,4.4 c-0.2,0.7-0.9,3.7,0.1,7.4c1.2,4.3,4.2,6.9,5.4,7.8c0.5-0.9,1.4-2.2,2.9-3.4c2-1.6,4-2.2,4.9-2.4c1-0.3,1.8-0.3,2-0.3 c1.7-0.1,2.8,0.2,2.8,0.2c0-0.1-1.8-0.8-4-0.7c-0.4,0-1.7,0.1-3.7,0.7c-2.7,0.9-4.7,2.4-6.2,3.8c-1-0.6-2.9-2-3.8-4.3 c-1.9-4.8,1.1-11.6,5.6-12.4c2-0.4,4.8,0.3,6.1,2c0.4,0.6,0.8,1.3,2.2,3.4c0.6,0.8,0.7,1,1,1.4C129.2,93.3,129.9,95.3,130.3,96.6z"/> <path class="st35" d="M126.5,97.7c1.9,1.5,3.1,3,3.8,4c1.2,1.8,0.9,1.6,2,3.9c1.5,3.1,1.6,3.6,1.6,3.9c0.2,2.2-0.8,3.8-0.4,3.9 c0.2,0.1,0.9-0.7,1.5-1.5c0.4-0.4,0.6-0.8,0.8-1.1c0,0,17.8-8.4,18.5-8.7c0.6-0.3,2.7-3.9,4.8-3.1c2.1,0.8,1-0.9,0-1.3 c-1-0.4-3.4,0-4.2,1.1c-1.4,1.9-3.2,2.7-3.2,2.7c-1.4,1.7-5.3,4.2-16.5,7.4c-0.3-2.2-1-5.7-3.6-9.1c-0.8-1-1.5-1.8-2.3-2.5 C128.3,97.4,127.4,97.5,126.5,97.7z"/> <path class="st35" d="M121.6,103.8c0.5,2.7,0.6,2.9,0.6,3.1c0.7,2.4,2.6,3.4,4.3,5.1c3.4,3.3,2.1,6.6,4.8,7.8 c0.5,0.2,1.1,0.4,2.3,0.4c1.5,0,6.6-0.4,14.4-6.9c3.1-2.6,4.6-4.5,7.9-6.1c2.1-1.1,3.3-2.1,4.7-1.6c1.1,0.4,3.8,0.8,3.8-0.8 c0-1.6-1.7-3.9-2.7-3.8c-1,0.1-1.8,0.4-0.8,1.1c1,0.7,2.4,1.6,1.6,1.9c-0.8,0.3-5.2-0.9-5.9,0c-1.5,1.8-3,2.3-6.7,5.8 c-3.3,3.1-6.3,4.7-9.9,6.6c-4.5,2.4-6.8,3.6-8.7,3.3c-1.9-0.3-2.2-1.2-10.5-11.3c-1.7-2.1-3.3-3.9-2.7-5.8c0.4-1.4,1.8-2.3,2.8-2.7 C120.9,100.2,121.6,103.6,121.6,103.8z"/> <path class="st35" d="M127.3,123.5c0.6,0.5,17.4,10,18,13.8c0.6,3.8-3.1,14-6.9,13.9c-3.8-0.1-7.2-1.8-6.9-3.8 c0.3-2-1.6-7.1,0.6-6.9c1.8,0.1,4.7,0.9,5,0.3c0.1-0.1-0.1-0.3-0.1-0.5c-0.6-0.9-2.1-0.8-4-1c-1.8-0.2-3.1-0.7-4.3-1.2 c-0.3-0.1-1.9-0.7-3.8-1.8c-1.4-0.8-1.7-1.1-2.9-1.6c-1.4-0.6-1.9-0.6-3.8-2c-1.3-1-3.1-2.6-4.9-5c-1.2,0.8-2.7,2.1-2.4,2.9 c0.1,0.2,0.2,0.3,0.3,0.3c7.6,5.4,9,7.8,13.8,8.6c2,0.3,4.9,0.4,5,1.3c0,0.2-0.1,0.3-0.1,0.4c-0.6,0.9-1.8,5.3-1.1,6.9 c0.8,1.7,3.7,3.2,5.7,3.9c2,0.8,6.4,1,8-0.9c1.5-2,7.8-12.5,6-14.8c-1.8-2.3-8.6-8.4-11.2-9.6c-1.6-0.8-3.7-3.1-7.1-3.4 C128.9,123.2,127.9,123.4,127.3,123.5z"/> <path class="st50" d="M140,70.3c0.3-0.4,1.4-1.9,0.9-3.3c-0.6-1.5-2.7-1.9-4.5-2.2c-1.5-0.3-7.3-1.3-9.7,2c-1,1.4-1.1,3.2-1.1,4 c0,0,0,0.9,0.6,4.6l0,0c-0.5-0.5-0.9-1.1-1.4-1.6c-0.2-1-0.4-2.1-0.4-3.4c0-1,0-1.8,0-2.6c-0.7,0.4-1.5,0.8-2.2,1.2 c-0.7-0.8-2.1-2.4-2.1-4.6c-0.1-4.7,6-7.5,6.7-7.8c4-1.7,9.9-1.7,13.5,1.9c2.7,2.6,4.5,7.5,2.5,10.2C142,69.5,141,70,140,70.3z"/> <path class="st51" d="M200,140.2c-2.9,2.5-3.9,5.5-4.3,6.8c-1.6,0.1-2.1-0.3-2.3-0.6c-1.1-1.5,1.9-5.4,2.4-6.1c1.1-1.4,2.2-2.4,3-3 c1.9,0.1,3.9,0.2,5.8,0.2C203.5,137.9,201.7,138.7,200,140.2z"/> <path class="st46" d="M170.5,112.8c0.9-0.1,6-0.5,9.7,3c2.5,2.3,3,5.2,3.3,6.8c1,5.1-0.9,9.3-1.8,10.9c0,0-10.1-6.9-16.1,0.3 c-0.3,2.5-0.8,3-1.1,3.1c-0.9,0.1-2-3.4-2.4-6.2c-0.3-1.9-0.2-3.4,0-6.4c0.2-3.7,0.3-5.6,1-6.9c1.9-3.3,5.6-4.8,5.9-4.5 c0.2,0.2-1.3,1.2-2.8,3.5c-0.8,1.3-3.2,4.9-2.5,8.8c0.5,2.7,2.3,5.7,2.3,5.7l0,0c6.8-2.2,9.1-1.8,9.8-1.6c0.2,0.1,2.2,0.7,4.7,1.5 c0,0,0,0,0,0c0.4-0.8,2.2-5.3,0.2-10.2C178,114.2,171,112.9,170.5,112.8z"/> <linearGradient id="SVGID_8_" gradientUnits="userSpaceOnUse" x1="220.0218" y1="153.894" x2="240.8169" y2="189.9122" gradientTransform="matrix(-1 0 0 1 407.8127 0)"> <stop offset="0" style="stop-color:#FBD7DF"/> <stop offset="0.3766" style="stop-color:#F9D4DD"/> <stop offset="0.5123" style="stop-color:#F3CDD7"/> <stop offset="0.609" style="stop-color:#EBC1CD"/> <stop offset="0.6873" style="stop-color:#E2B2BF"/> <stop offset="0.7543" style="stop-color:#D69EAF"/> <stop offset="0.8136" style="stop-color:#C8889D"/> <stop offset="0.8672" style="stop-color:#B8718A"/> <stop offset="0.9149" style="stop-color:#A85576"/> <stop offset="0.959" style="stop-color:#983564"/> </linearGradient> <path class="st52" d="M128.5,156.9c-3.5-0.4-5.6-0.1-6.1,1c-1,1.9,2.9,6.2,11.5,12.9c11.7,5.3,24.4,7.3,36.4,11.4 c4.6,0.2,9,0,12.5,2.3c2.3,2.1,4.8-1.4,6.9,0.7c3.1,0.9,6,3,9.6,2.1c2.7,2.3,6.7-1.4,9,1.6c3.1,2.3,5.8-3.6,8.5-0.2 c0.7,0.4,1.2,0.5,1.7,0.4c1.7-0.2,2.8-1.4,3.7-2.2c1.2-1,3.3-2,7.2-1.9c3.8-1.6,5.7-2.9,5.5-3.8c-0.2-1.3-4.8-1.9-13.5-1.7 c-2.1-3.6-6.2,0-9-2.1c-1.9-1.1-4.2,0.2-4.8,1.6c-3.3-1.4-7.1-3.7-10.8-2.1c-4.2,0-7.3-3.6-11.9-2c-5.2-3.7-11.9-0.5-17.9-2.3 c-0.8,0.4-3.8,1.9-7.7,1.1c-3.9-0.8-6.1-3.3-6.7-4c-2.4,0.1-5.7,0-9.3-1.1C134.4,166,129.9,159.1,128.5,156.9z"/> <path class="st53" d="M178.5,107c0.7,3.3,10.7,1.2,15.4,7c1.4,1.8,2,3.7,2.1,4.2c0.6,2.6-0.1,4.2-0.8,8.1c-0.3,1.6-0.5,4.5-1,10.3 c-0.2,2.7-1.4,5.1-2,7.8c-0.1,0.2-0.2,0.9-0.8,1.3c-0.7,0.5-2.1,0.3-2.7-0.3c-1.5-1.6,3.4-5.7,4-12.9c0.1-1,0-1.3,0.2-5.8 c0.2-4.1,0.2-4.1,0.2-4.8c0-0.5,0.6-8.4-4-8.4c-3,0-8.9-2.4-11.4-4.2c-1.1-0.8-1.8-1.4-2.3-1.8c-1.7-1.6-3.1-2.9-3.1-4.3 c0.2-2.8,6.1-5,7.3-3.8c0.2,0.2,0.3,0.6,0,2.4C178.9,106,178.3,106.2,178.5,107z"/> <path class="st35" d="M204.6,137.6c3.7,0.1,6.8,0.3,9.2,0.5c7.4,0.5,13.3,1.3,19,4.1c1.4,0.7,2.7,1.5,3.4,2.9 c0.6,1,1.1,2.8-0.6,8.3c-1.5,4.8-3.3,8.2-3.5,8.5c-1.7,3-4.4,7.1-8.7,11.5c-0.7-0.1-1.4-0.1-2.1-0.2c3-3.5,6.2-7.9,9-13 c1-1.7,1.8-3.4,2.6-5.1c0.3-0.9,0.6-2.3,0.8-4c0.2-1.8,0.3-2.7-0.1-3.8c-0.6-1.6-1.9-2.6-2.9-3.1c-3.6-2.7-6.6-3.3-8.8-3.5 c-2.6-0.1-5.6,0.5-11.2,0.4c-0.2,0-0.9,0-1.8-0.1c-0.7-0.1-7.1-0.6-7.1-1.8C201.8,138.5,203.3,138,204.6,137.6z"/> <path class="st53" d="M171.5,99.9c-2.3,0.5-6.8,1.7-10.2,5.4c-1.7,1.9-2.4,3.5-3.7,6.7c-1,2.5-3,7.9-3.5,15.2 c-0.2,2.4,0,4.8,0.3,9.6c0.4,7.2,1.1,9.4,1.8,10.7c0.2,0.3,0.3,0.5,0.4,0.6c2.3,3.2,6.9,3.7,7.1,3.2c0.1-0.2-0.9-0.9-1.2-1.1 c-1.2-0.8-2.2-0.9-2.8-1c-1.9-0.6-3.3-3.1-3.3-4.7c0.1-9.1,0.4-22.5,0.8-23.9c1.7-6.3,2.9-10.2,6.5-13.9c3.4-3.5,8.1-6,8.3-5.7 c0.1,0.2-1.3,1.4-1.1,1.6c0.3,0.3,4.3-1.9,4-2.6C174.9,99.6,174.2,99.4,171.5,99.9z"/> <path class="st54" d="M123,122.7c-2,0.3-5.2,1.1-8.3,3.6c-1,0.8-1.8,1.6-2.4,2.4c2.7,2.5,7,5.9,13.2,8.4c4.5,1.9,8.7,2.6,11.8,3 c2.3-0.1,2.9-1,2.9-1.2c0.8-1.4-0.8-4.2-4.3-6.5c-2-1.5-4-2.9-5.9-4.4C127.6,126.2,125.3,124.4,123,122.7z"/> <path class="st35" d="M196.6,144.5c2.2,1,5.6,2.5,10,3.5c10.7,2.5,17.8,0.5,20.5,4.7c1.2,1.8,0.9,3.9,0.8,5.1 c-0.3,2.8-1.6,3.1-9.3,11.5c-1.3,1.4-2.8,3.1-5.1,3.3c-1.2,0.1-2.2-0.3-2.8-0.6c3.3-2.1,5.8-4.1,7.7-5.7c2.6-2.2,6.1-5.4,6.3-8 c0.2-2.3-0.7-4-0.7-4s-0.1-0.1-0.1-0.2c-1.6-2.9-27-2.5-28.3-7.1C195.6,146.6,195.6,145.8,196.6,144.5z"/> <path class="st42" d="M180.3,100c-2.7-0.4-5,1-5.6,2.9c-0.7,2.3,1.2,5.6,4.6,6l13.4,3.6c0.5-1,1.8-3.8,0.8-6.7 C192,101.7,186.5,98.9,180.3,100z"/> <path class="st55" d="M190.4,104.5c-0.1,0.1-0.3,0.4-0.5,0.7c-1.1,1.8-0.4,3-1,3.8c-0.6,0.7-2.6,0.1-6.6-1c-2.4-0.7-3-1-3.6-1.6 c-0.9-1-1.3-2.7-0.6-3.9c0.5-0.9,1.3-0.7,2.8-1.7c1.9-1.3,1.9-2.4,2.8-2.7C184.6,97.7,186.5,98.6,190.4,104.5z"/> <path class="st56" d="M246,95.4c-1.3-0.4-2.6-0.8-4-1.1c-3.7,6-7.4,12-11.2,18c-17,27-34.3,52.7-51.8,77.3 c-1.9-0.3-4.7-0.5-7.5,0.8c-5,2.2-6.9,7.3-9.5,13.8c-1.9,4.9-4.9,12.5-9.3,23c3,1.4,6.1,2.7,9.1,4.1c3.8-3.5,6.7-6.2,8.5-7.8 c5.8-5.3,7.9-7.2,10.5-10.6c2.8-3.6,4.2-5.5,4.7-8.4c0.8-4.9-1.6-9-2.8-10.8c11.4-15.5,23.1-32.4,34.7-50.5 C227.9,126.7,237.4,110.7,246,95.4z"/> <path class="st57" d="M199.5,88.2c-0.7-0.2-1.7-0.5-3-0.8c-3-0.7-4.9-1.2-7-1c-1.2,0.1-3.8,0.5-6.7,2.9c-4.6,2.7-5.5,3.9-5.3,4.5 c0.1,0.3,0.6,0.6,0.8,1.3c0.2,0.7,0,0.9,0.1,1.5c0.2,1,0.9,1.6,1.7,2.3c0.7,0.6,0.8,0.5,2,1.4c1.3,1,1.4,1.3,1.9,1.3 c0.5,0.1,1.4-0.2,2.5-1.9c1.7-1.7,3.4-3.3,5.1-5L199.5,88.2z"/> <path class="st55" d="M199.8,90.1c-0.2,0.9-0.5,2.4-0.4,4.1c0.2,3,1.3,4.8,0.4,5.8c-0.3,0.3-0.9,0.6-2.2,0.5c0,0.5,0,1.1-0.2,1.9 c-0.2,1.1-0.4,2.3-1.4,3.1c-0.6,0.5-1.2,0.6-1.9,0.6c-1.8,0.2-3.4-0.4-4.3-0.9c-0.6-0.6-1.2-1.1-1.8-1.7c-0.4-1.3-0.9-2.6-1.3-3.8 c-0.5-0.7-1-1.4-1.6-2.1c-1.6-1.5-1.8-3.2-1.1-4c0.5-0.6,1.4-0.5,1.7-0.5c0.5,1,1,1.9,1.5,2.9l1.7,0.6c-0.3-0.6-1.6-3.7-0.5-4.8 c0.2-0.2,0.4-0.3,1.9-0.5c1.1-0.2,2.1-0.3,2.8-0.4c0.9-1,1.8-1.9,2.7-2.9C197.1,88.7,198.5,89.4,199.8,90.1z"/> <path class="st58" d="M198.7,91.4c-1.2,1.1-2.3,1.5-3.1,1.7c-1.4,0.3-2.3-0.1-3,0.6c-0.6,0.5-0.7,1.4-0.7,2.1 c1.7-0.3,3.4-0.6,5.1-0.9c0.5,0.9,1,1.9,1.5,2.8c-0.5,0.4-1,0.7-1.5,1.1c0,0.6,0.1,1.2,0.1,1.8l-0.9,0.2c-0.8-0.2-1.7-0.3-2.5-0.5 c0.2,0.5,0.3,0.9,0.5,1.4c1.1,0.3,2.2,0.5,3.3,0.8l0.6-2.7c0.1,0,1.6,0,2.1-0.9c0.1-0.1,0.2-0.4,0-1.1c-0.1-0.5-0.3-1.3-0.8-2.3 c-0.3-0.5-0.6-1.1-1-1.6C198.5,93,198.6,92.2,198.7,91.4z"/> <path class="st59" d="M200.6,91.5c-1.7-0.7-7.4-2.8-13.7-0.4c-2.2,0.9-3.9,2.1-5.1,3.1c0.4,1.1,1,2.4,1.8,3.7 c2,3.4,4.4,5.7,6.3,7.2c-1-0.5-2.1-1-3.1-1.6c-1.4-0.9-3.2-2.4-4.8-4.6c-1.1-1.4-1.8-2.7-2.3-3.9c-0.4,0.4-0.8,0.9-1.2,1.3 c-0.9-0.8-2.5-2.6-3.2-5.4c-0.9-3.7,0.3-7.1,1.6-9c4.8-6.9,19.8-7.7,23.9-1C203.2,84.8,201.4,89.8,200.6,91.5z"/> <path class="st60" d="M194.7,77.7c0.3,0.7,0.6,1.3,0.9,2c-1-0.7-3.3-2.3-6.5-2.1c-2.2,0.1-3.9,1-5.1,1.6c-1.9,1-3.3,2.3-4.1,3.1 c-1,1.1-2.3,3.1-2.8,5.8c-0.1,0.8-0.3,1.9,0,3.4c0.4,1.7,1.3,2.9,1.8,3.4c0.7-0.5,1.6-1.2,2.8-2c2.2-1.6,3.4-2.4,3.6-2.5 c1.3-0.7,3.2-1,7.1-1.5c2.3-0.3,3.2-0.3,4.2-0.1c1.4,0.3,2.5,0.9,3.2,1.4c0.3-1.3,0.7-2.5,1-3.8c0-0.8-0.1-3.4-2-5.7 C197.3,78.8,195.6,78,194.7,77.7z"/> <linearGradient id="SVGID_9_" gradientUnits="userSpaceOnUse" x1="208.8389" y1="84.5058" x2="211.3007" y2="84.5058" gradientTransform="matrix(-1 0 0 1 407.8127 0)"> <stop offset="0" style="stop-color:#FFF200"/> <stop offset="1" style="stop-color:#ED1651"/> </linearGradient> <path class="st61" d="M196.5,81.2c0.5,0.3,1.3,1.1,1.9,2.3c1,2,0.4,3.9,0.3,4.4c-0.5-0.2-1-0.3-1.5-0.5c0.2-0.5,0.3-1.2,0.4-2 C197.6,83.4,196.9,81.9,196.5,81.2z"/> <linearGradient id="SVGID_10_" gradientUnits="userSpaceOnUse" x1="211.2404" y1="84.0699" x2="213.975" y2="84.0699" gradientTransform="matrix(-1 0 0 1 407.8127 0)"> <stop offset="0" style="stop-color:#FFF200"/> <stop offset="1" style="stop-color:#ED1651"/> </linearGradient> <path class="st62" d="M193.8,81.2c0.5,0.2,1.4,0.7,2,1.8c0.8,1.3,1,3.4,0.1,3.9c-0.2,0.1-0.6,0.3-1.5-0.1c0.1-0.8,0.1-1.7,0-2.9 C194.3,82.8,194.1,81.9,193.8,81.2z"/> <linearGradient id="SVGID_11_" gradientUnits="userSpaceOnUse" x1="214.3594" y1="83.8783" x2="216.7561" y2="83.8783" gradientTransform="matrix(-1 0 0 1 407.8127 0)"> <stop offset="0" style="stop-color:#FFF200"/> <stop offset="1" style="stop-color:#ED1651"/> </linearGradient> <path class="st63" d="M191.5,81.2c0.2,0.3,2.7,3.7,1.7,4.9c-0.5,0.6-1.8,0.6-2.1,0.2c-0.2-0.3,0.3-0.8,0.6-1.6 C192,83.9,192.1,82.8,191.5,81.2z"/> <path class="st64" d="M187.3,80.1c-1,0.4-2.4,1.1-3.8,2.3c-3.5,2.9-4.4,6.6-4.7,6.5c-0.3-0.1,0-4,2.8-6.5 C183.7,80.4,186.3,80.1,187.3,80.1z"/> <path class="st65" d="M141.5,62.7c0.3,1.3,0.1,2.3-0.1,3c-0.4-0.1-1-0.2-1.4-0.7c-0.7-0.7-0.3-1.6-0.6-3.2c-0.3-1.9-1-2.7-0.8-2.9 C138.9,58.7,141,60.4,141.5,62.7z"/> <path class="st65" d="M136.1,58.1c0.5,0.4,1.5,1.3,1.9,2.8c0.1,0.3,0.6,2.4-0.4,3c-0.8,0.5-1.9-0.2-2-0.3c0.2-0.6,0.5-1.5,0.6-2.5 C136.4,59.8,136.3,58.8,136.1,58.1z"/> <path class="st65" d="M134.5,58.2c0.8,2.6,0.7,4.6-0.3,5.2c-0.5,0.3-1.4,0.3-1.7-0.1c-0.3-0.4,0.2-1,0.8-2.1 C133.7,60.5,134.1,59.5,134.5,58.2z"/> <path class="st53" d="M198.7,103.3c1.4,1.8,3.4,4.7,4.5,8.7c1.2,4.4,0.7,7.8-0.2,14c-0.8,5.7-1.3,8.6-3.2,11.3 c-1.7,2.3-2.9,2.6-4.7,5.7c-1.6,2.8-1.5,4-3.2,5.3c-2.2,1.8-5.2,1.8-6,1.3c-0.1-0.1-0.2-0.2-0.3-0.3c-0.4-0.7-0.6-1.2-0.5-1.6 c0.2-0.6,1.1-0.8,1.3-0.8c2.5-0.6,6.4-4.6,7.8-6c3.7-3.7,5.2-8,5.7-9.4c0.6-1.8,0.8-4.6,1.3-10.3c0.6-7.8,0.4-9.9,0-11.5 C200.5,107,199.5,104.8,198.7,103.3z"/> <path class="st66" d="M179.2,131.6c3.4,2.3,1.7,9.7,1.5,10.4l10.4,5.1l13.3,4.6l8.1-0.1c0.3,0.9,0.7,1.8,1,2.7 c-0.4,0.5-0.9,1-1.3,1.6c-1.4,1.1-2.9,2.1-4.3,3.2c-2.7-0.6-5.5-1.1-8.2-1.7c-2.4-0.8-4.9-1.5-7.3-2.3c-3.3,0.2-6.1,0-8.1-0.1 c-8.4-0.6-11.8-2.4-12.7-3c-1.1-0.7-2-1.3-2.5-1.8c-1-5.9-1.9-11.7-2.9-17.6c1-0.7,2-1.4,3-2.1c1.6-0.2,4.1-0.4,7,0.1 C177.6,131,178.5,131.1,179.2,131.6z"/> <path class="st34" d="M178.3,131.5c2.5,5.8,1.9,8.9,0.8,10.8c-1.1,1.9-3.4,3.5-3.2,3.8c0.2,0.2,1.1-0.3,2-0.7 c1.6-0.7,2.4-1.4,3.6-1.3c0,0,0.2,0,0.5,0.1c1.4,0.5,19.8,7.9,20.8,8.4c2.9,1.3,4.9-2,7.4-0.8c1.9,0.9,2.7,2.9,3.4,2.6 c0.6-0.3,0.7-2.3-0.3-3.3c-0.9-0.9-2.3-1-4.9-0.7c-1.7,0.2-3.8,0.2-5.6-0.7c-6-3.1-12-3.4-14.1-4.3c-3.5-1.7-5.3-2.5-6-3.9 c-1.5-2.9,0.3-6.1-1.8-8.3C180.1,132,179,131.7,178.3,131.5z"/> <path class="st67" d="M179.2,196.6c1,1.6,2.3,4.1,2.2,7.1c-0.2,5-4,7.9-11.6,16.1c-2.2,2.4-5.4,5.9-9.1,10.4 c-0.7-0.1-1.3-0.1-2-0.2c-0.8-0.6-1.7-1.2-2.5-1.8C163.9,217.7,171.6,207.2,179.2,196.6z"/> <path class="st67" d="M176.5,195.1c-7.2,11-14.3,22-21.5,33c2.1-6.7,4-12.4,5.5-16.8c4.2-12,6.1-15.9,9.8-17 C172.6,193.6,175,194.4,176.5,195.1z"/> <path class="st30" d="M230.6,171.5l-9.2,1.6l-22.2-3.2c-1.3,2.1-2.6,4.1-3.9,6.2c2.4,0.1,4.7,0.3,7.1,0.4l22.7,0.3l9.2-1.3 L230.6,171.5z"/> <path class="st34" d="M166.9,132.4c0.4,2,1.1,5,1.6,8.6c1,6.5,0.9,9.2,3,11c1,0.9,2.1,1.2,5.9,1.5c9.6,0.9,12.8-0.2,17.9,0.9 c2.2,0.5,5.4,1.5,9,3.8c0.6,0.1,1.9,0.1,3.2-0.7c1.8-1.1,2.3-3.1,2.4-3.6c0.3-1.4-0.1-2.1,0.3-2.3c0.6-0.3,2.4,0.9,2.6,2.4 c0.1,0.4,0,0.8-1.3,3.2c-1.1,1.9-1.7,2.8-2.2,3.3c-1.3,0.9-3,1.3-4.5,1c-1.9-0.4-2.4-1.8-4.1-3.2c-2.8-2.4-6.1-2.8-9.7-3.2 c-3.6-0.4-3.3,0.3-8.7,0.3c0,0-11.4,0-14.1-4c-0.3-0.4-0.4-0.9-0.4-0.9c-0.4-1.1,0.2-2.2-1.3-7c-1.2-3.9-2.6-6.3-1.5-8.8 C165.4,133.7,166.3,132.9,166.9,132.4z"/> <polygon class="st30" points="144.6,154.2 135.8,148.3 125.5,143 124.7,149 137.2,157.2 "/> <path class="st66" d="M213.3,95.3c3.5,0.2,7,0.4,10.5,0.7c4.5,1.6,9.1,3.2,13.6,4.8c2.5,0.1,5,0.2,7.5,0.3c0.1,1.1,0.2,2.3,0.3,3.4 c-0.6,0.7-1.1,1.4-1.7,2.2c-0.7,0.3-1.4,0.6-2,1c-0.9,0.3-1.7,0.5-2.6,0.8c0-0.1-0.7-1.6-2.2-1.9c-1.4-0.3-2.4,0.5-2.6,0.6 c-0.6-0.7-1.6-1.6-3.1-2.4c-2.4-1.3-4.5-1.4-4.9-1.4c-2.1-0.1-2.9,0.5-6.3,1.3c-2.1,0.5-3.9,0.7-5.1,0.8c-0.2,0.3-1.1,1.5-2.5,1.7 c-0.5,0.1-1-0.1-1.7-0.4c-2.2-1-3.6-5.3-1.1-9.6C210.7,96.5,212,95.9,213.3,95.3z"/> <path class="st34" d="M210,93.5c2.7-0.1,6.4-0.1,10.8,0.7c9.1,1.6,16.6,5.7,16.7,5.6c0,0-0.3-0.2-1.8-0.8c0.8,0.1,1.8,0.2,2.9,0.3 c1.7,0.1,2.3-0.2,3.9,0c1.3,0.2,1.9,0.2,2.3,0.5c1.7,1.5,0.2,6.2-0.3,6.2c-0.3,0-0.5-1.6-0.5-1.7c-0.2-2,0.6-3.1,0.2-3.5 c-0.3-0.3-1,0.1-2.1,0.4c-1.7,0.5-3.3,0.3-6.4-0.2c-1.4-0.2-2.1-0.2-2.9-0.5c-2.4-0.8-3.3-2.4-9-3.5c-4.8-0.9-8.7-0.7-10.5-0.5 c-1.5,0.1-2.8,0.4-3.7,0.6C209.6,95.9,209.8,94.7,210,93.5z"/> <path class="st68" d="M126.8,118.6c1.1,1.6,2.2,3.2,3.3,4.7c-1.5-0.5-4.1-1.1-7.1-0.7c-1.2,0.2-6.9,0.9-9.7,5.1 c-1.1,1.6-1.1,3-2.2,3.2c-0.8,0.2-1.7-0.4-4.1-3.6c-3.6-4.7-5.4-7.2-5.4-10.2c0-2.6,1.2-4.9,1.5-4.8c0.3,0-0.1,2.1,0.4,5 c0.4,2,1,3.3,1.5,4.4c0.8,1.6,2.2,4.1,4.8,6.7c1.4-1.7,4.3-4.7,8.8-6.3c2.2-0.8,4.4-1.5,6.9-0.7c1.5,0.5,2.5,1.4,2.9,1.1 C128.8,122,127.8,120.2,126.8,118.6z"/> </g> <g> <path class="st16" d="M217.4,57.1c0,0,7.9-12.3,9.4-25.2c0,0-6.8,20.2-12.5,24.4C213.8,56.7,217.4,57.1,217.4,57.1z"/> <path class="st16" d="M213.7,56.3c0,0,7.1-5.2,10.7-27.9c0,0-5.2,18.8-12.4,27.4C211.7,56.1,213.7,56.3,213.7,56.3z"/> <path class="st16" d="M211.3,56.1c0,0,8.8-18.1,11-36.7c0,0-7,26.4-12.7,34.1C207.7,56,211.3,56.1,211.3,56.1z"/> <path class="st16" d="M207.3,55.2c0,0,7.6-8.3,12.4-40.9c0,0-6.1,29.3-14.7,40.2C204.6,55.2,207.3,55.2,207.3,55.2z"/> <path class="st16" d="M209.7,55.5c0,0,6.1-23.1,5.8-42.2c0,0-3.2,32.5-8.9,41.4C206.2,55.4,209.7,55.5,209.7,55.5z"/> <path class="st16" d="M205,54.8c0,0,6.8-10.8,6.2-42.2c0,0-0.8,28-8.5,40.8C202,54.6,205,54.8,205,54.8z"/> <path class="st16" d="M203.3,54.7c0,0,5-20.1,3.4-38.7c0,0-1.4,29.2-6,37.8C200.6,54.2,203.3,54.7,203.3,54.7z"/> <path class="st16" d="M199.5,54c0,0,5.5-9.4,3.8-42.3c0,0,0.2,28.5-5.7,41.8L199.5,54z"/> <path class="st16" d="M190.8,51.9c0,0-2.1-21.1,2-39.6c0,0-2.5,28.9,0.2,39.8L190.8,51.9z"/> <path class="st16" d="M194.7,53.1c0,0-5-11.5,1.7-42c0,0-5.5,27.8,0.3,41.6C197,53.6,194.7,53.1,194.7,53.1z"/> <path class="st16" d="M186.8,51.4c0,0-4.1-17.2-3.2-33.9c0,0,1.7,25.3,5.3,34L186.8,51.4z"/> <path class="st16" d="M189.9,52.1c0,0-4.8-6.4-2.3-32c0-0.4-1.1,22.1,5.7,32.3C194,53.6,189.9,52.1,189.9,52.1z"/> <path class="st16" d="M183.6,51c0,0-4.6-11.9-5.8-24.6c0,0,4.1,18.6,7.8,24.6L183.6,51z"/> <path class="st16" d="M187,51.4c0,0-4.9-4.9-6.8-25.6c0,0,2.6,17.9,8.2,25.7L187,51.4z"/> <path class="st16" d="M219.7,57.3c0,0,8.2-7.8,11.2-18.2c0,0-8.4,13.1-13.4,17.2C216.4,57.2,219.7,57.3,219.7,57.3z"/> <path class="st16" d="M222.9,58.1c0,0,7.4-6,10.1-14.7c0,0-6.9,11.6-12.2,14.1L222.9,58.1z"/> <path class="st16" d="M180.8,50.8c0,0-6.3-11.6-9.3-25.3c0,0,7,19.6,11.7,25.3L180.8,50.8z"/> <path class="st16" d="M184.8,51.2c0,0-5.7-3.9-10.6-26.4c0,0,5.3,19.1,12.3,26.4L184.8,51.2z"/> <path class="st18" d="M196.8,54.8c0,0,6.6-9.5,7.7-19.5c0,0-5.5,15.6-10.3,18.8C193.8,54.4,196.8,54.8,196.8,54.8z"/> <path class="st18" d="M193.6,54.1c0,0,6-4,8.7-21.5c0,0-4.2,14.5-10.2,21.1C192,53.9,193.6,54.1,193.6,54.1z"/> <path class="st18" d="M191.6,53.9c0,0,7.2-14,8.9-28.4c0,0-5.6,20.4-10.3,26.3C188.6,53.8,191.6,53.9,191.6,53.9z"/> <path class="st18" d="M188.2,53.2c0,0,6.3-6.3,10-31.6c0,0-4.8,22.7-11.9,31.1C185.9,53.1,188.2,53.2,188.2,53.2z"/> <path class="st18" d="M190.3,53.4c0,0,4.9-17.9,4.3-32.7c0,0-2.3,25.2-7,32.1C187.3,53.3,190.3,53.4,190.3,53.4z"/> <path class="st18" d="M186.3,52.8c0,0,5.7-8.3,4.8-32.7c0,0-0.3,21.7-6.7,31.5C183.7,52.7,186.3,52.8,186.3,52.8z"/> <path class="st18" d="M184.8,52.7c0,0,4-15.5,2.4-30c0,0-0.8,22.6-4.6,29.2C182.5,52.3,184.8,52.7,184.8,52.7z"/> <path class="st18" d="M181.6,52.1c0,0,4.5-7.2,2.7-32.8c0,0,0.5,22.1-4.3,32.4L181.6,52.1z"/> <path class="st18" d="M174.2,50.4c0,0-2-16.4,1.2-30.7c0,0-1.8,22.4,0.6,30.9L174.2,50.4z"/> <path class="st18" d="M177.5,51.4c0,0-4.4-9,0.9-32.5c0,0-4.3,21.5,0.8,32.3C179.5,51.9,177.5,51.4,177.5,51.4z"/> <path class="st18" d="M170.8,50c0,0-3.7-13.4-3.1-26.3c0,0,1.7,19.7,4.9,26.5L170.8,50z"/> <path class="st18" d="M173.4,50.5c0,0-4.1-5-2.4-24.8c0-0.3-0.7,17.2,5.2,25.2C176.9,51.8,173.4,50.5,173.4,50.5z"/> <path class="st18" d="M168.1,49.7c0,0-4-9.3-5.2-19.1c0,0,3.7,14.5,6.9,19.2L168.1,49.7z"/> <path class="st18" d="M171,50c0,0-4.2-3.8-6-20c0,0,2.4,13.9,7.3,20L171,50z"/> <path class="st18" d="M198.7,54.9c0,0,6.8-5.9,9.2-14c0,0-6.9,10.1-11.1,13.2C195.9,54.8,198.7,54.9,198.7,54.9z"/> <path class="st18" d="M201.5,55.6c0,0,6.2-4.6,8.4-11.3c0,0-5.7,9-10.2,10.8L201.5,55.6z"/> <path class="st18" d="M179.7,51.7c0,0,2.1-31.2,3.5-33.7c0,0-0.5,0-1.3,4.3c-0.8,4.3-4.1,26.4-2.9,29.2L179.7,51.7z"/> <path class="st18" d="M165.8,49.5c0,0-5.5-9.1-8.2-19.7c0,0,6.1,15.3,10.2,19.8L165.8,49.5z"/> <path class="st18" d="M169.1,49.8c0,0-4.8-3.1-9.3-20.6c0,0,4.7,14.9,10.7,20.6L169.1,49.8z"/> </g> <g> <path class="st69" d="M96.2,34.2c-1.5,0.9-1.3,3.2,0.7,3c0.5,1.9,2.4,2.3,4.9,2c1,1,2.9-1,3.6,0.6c5.1,0.5,9.7,1.5,13.6,3.5 c0.3,0,0.7,0,1,0c-1.3,1.9-3.9,0.9-5.6,0.6c-3.9-1.1-8.9-0.7-12.4-2.1c-0.4-0.1-2.1,0.4-2.5,0.7c-1.3,3.3,3.6,2.4,5.6,3.2 c3.5,0.2,6.4,1,9.7,1.5c0.4,3.1,5.1-0.2,6.9,1.6c5.5-0.7,9.9,1.3,13.5,3.5c0.5-0.1,0.9-0.3,1.4-0.4c2.6-2.7-2-4-4.1-4.6 c-2.1-1.1-4.6-1.3-7.1-1.8c3.1-2.1,6.8-1.1,10.2-1.5c4.4-0.4,7.5,0.8,11.7,1.1c1.8-0.2,1.2-2.7,3.2-2.1c2.7-0.1,2.7-3.4,0.6-3.6 c-4.4-2-9.4-3.4-14.9-4c7.2-2.2,14.8-1.2,20.2,1.6c3.8-0.6,1.8-4.4-0.4-4.5c-6.2-1.4-14.1-1.9-20.9-0.8c-1.6-0.5-2.5,1.1-4,0.3 c-2,0.1-6.1,0.8-4.5,3.2c-0.7,0.7-0.5,1.6-0.9,2.4c-4.9-2.4-10.2-4.8-17-4.7C104.8,32.4,100.2,33,96.2,34.2z"/> <path class="st70" d="M108.4,36.6c6.3,0.9,12.7,1.3,17.9,3.5c0.4,0.1,0.8,0.2,1.2,0.3c0.2-0.3,0.6-0.5,0.8-0.8 C122.6,37.4,116.1,35.1,108.4,36.6z"/> <path class="st70" d="M124.4,36.1c6.2,0.9,12.7,1.3,17.8,3.5c0.4,0.1,0.8,0.2,1.2,0.3c0.2-0.3,0.6-0.5,0.8-0.8 C138.6,36.9,132.2,34.5,124.4,36.1z"/> <path class="st70" d="M129.5,38.4c6.2,0.9,12.7,1.3,17.8,3.5c0.4,0.1,0.8,0.2,1.2,0.3c0.2-0.3,0.6-0.5,0.8-0.8 C143.7,39.2,137.2,36.9,129.5,38.4z"/> <path class="st70" d="M109.3,43.7c6.2,0.9,12.7,1.3,17.8,3.5c0.4,0.1,0.8,0.2,1.2,0.3c0.2-0.3,0.6-0.5,0.8-0.8 C123.5,44.5,117,42.1,109.3,43.7z"/> </g> <path class="st71" d="M133.2,167.1c-6.3-2.8-10.9-8.8-9.9-10.3c0.9-1.3,6.7,1.1,9.9,2.5c4.8,2.1,13.7,6.7,13,8.7 C145.7,169.7,138.8,169.6,133.2,167.1z"/> <path class="st72" d="M131.6,57.6c-1.2,0.3-2.9,0.8-4.5,1.7c-4.2,2.2-5.2,4.9-5.6,4.8c-0.4-0.1,0-2.9,3.3-4.8 C127.3,57.9,130.3,57.7,131.6,57.6z"/> <g> <path class="st73" d="M138.1,249.3c0,0,8-13,8.6-26.8c0,0-5.6,21.2-11.8,25.5C134.4,248.4,138.1,249.3,138.1,249.3z"/> <path class="st73" d="M133.9,247.9c0,0,7.7-5.4,9.9-29.6c0,0-4.4,20-11.9,29.1C131.6,247.7,133.9,247.9,133.9,247.9z"/> <path class="st73" d="M131.1,247.7c0,0,8.6-19.3,9.5-39.1c0,0-5.7,28.1-11.7,36.3C127,247.5,131.1,247.7,131.1,247.7z"/> <path class="st73" d="M127,246.3c0,0,7.9-8.7,10.8-43.5c0,0-4.5,31.3-13.4,42.8C123.8,246.2,127,246.3,127,246.3z"/> <path class="st73" d="M129.3,247c0,0,5-24.6,3-45.1c0,0-0.9,34.8-6.6,44.2C125.2,246.9,129.3,247,129.3,247z"/> <path class="st73" d="M124.1,245.8c0,0,6.9-11.4,3.6-45.1c0,0,1.4,30-6.3,43.5C120.6,245.5,124.1,245.8,124.1,245.8z"/> <path class="st73" d="M122,245.5c0,0,4-21.4,0.7-41.4c0,0,0.9,31.3-3.6,40.4C118.8,244.9,122,245.5,122,245.5z"/> <path class="st73" d="M117.8,244.7c0,0,5.5-9.9,0.7-45.3c0,0,2.6,30.6-3,44.7L117.8,244.7z"/> <path class="st73" d="M107.3,242.7c0,0-4.2-22.6-1.1-42.5c0,0-0.4,31,3.6,42.7L107.3,242.7z"/> <path class="st73" d="M111.9,243.4c0,0-6.7-12.4-1.6-45c0,0-3.9,29.7,3.8,44.6C114.7,244.1,111.9,243.4,111.9,243.4z"/> <path class="st73" d="M102.7,242.1c0,0-6.1-18.5-6.5-36.4c0,0,4.1,27.2,8.9,36.6L102.7,242.1z"/> <path class="st73" d="M107.1,242.8c0,0-7.1-9.5-7.7-39c0,0,0.8,27.1,9.4,38.2C109.8,243.2,107.1,242.8,107.1,242.8z"/> <path class="st73" d="M99,241.6c0,0-6.3-12.9-8.7-26.5c0,0,6.3,20.1,11,26.5L99,241.6z"/> <path class="st73" d="M102.9,242.1c0,0-6-5.3-9.9-27.7c0,0,4.5,19.2,11.6,27.7L102.9,242.1z"/> <path class="st73" d="M140.3,249.7c0,0,8.7-8.1,11.2-19.3c0,0-7.6,14.9-13.8,18.1L140.3,249.7z"/> <path class="st73" d="M144.9,250.5c0,0,8-6.3,10.3-15.6c0,0-7,12.3-12.8,14.9L144.9,250.5z"/> <path class="st73" d="M114.9,244.1c0,0,0.1-43.1,1.8-46.5c0,0-0.7,0-1.4,5.9c-0.7,5.9-3.2,36.4-1.3,40.3L114.9,244.1z"/> <path class="st73" d="M95.8,241.3c0,0-8.2-12.6-12.8-27.4c0,0,9.6,21.2,15.5,27.4L95.8,241.3z"/> <path class="st73" d="M100.4,241.8c0,0-6.8-4.3-14.4-28.5c0,0,7.7,20.6,16.3,28.6L100.4,241.8z"/> </g> <g> <path class="st74" d="M76,252.4c0,0,12.3-14.2,14.8-29.7c0,0-10.7,23.8-19.5,28.5C70.6,251.6,76,252.4,76,252.4z"/> <path class="st74" d="M71.9,251.7c0,0,10.9-5.8,16.8-32.7c0,0-8.3,22.2-19.3,32C68.9,251.4,71.9,251.7,71.9,251.7z"/> <path class="st74" d="M69,251.6c0,0,13.7-21.2,17.5-43.4c0,0-11.1,31.2-19.9,40.1C63.5,251.3,69,251.6,69,251.6z"/> <path class="st74" d="M61.4,251.1c0,0,11.6-9.4,19.7-48.3c0,0-9.8,34.8-23.1,47.3C57.3,250.9,61.4,251.1,61.4,251.1z"/> <path class="st74" d="M66,251.4c0,0,9.7-27.3,9.5-50.3c0,0-5.5,38.9-14.2,49.2C60.7,251.1,66,251.4,66,251.4z"/> <path class="st74" d="M58.7,250.8c0,0,10.6-12.5,10.3-50.3c0,0-1.8,33.6-13.7,48.4C54.1,250.4,58.7,250.8,58.7,250.8z"/> <path class="st74" d="M55.8,250.6c0,0,7.9-23.8,5.9-46.3c0,0-2.6,34.9-9.8,45C51.6,249.8,55.8,250.6,55.8,250.6z"/> <path class="st74" d="M51.7,249.8c0,0,8.5-10.9,6.5-50.6c0,0-0.3,34.3-9.5,49.8L51.7,249.8z"/> <path class="st74" d="M38.8,244.4c0,0-2.8-25.4,3.7-47.4c0,0-4.4,34.6-0.5,47.8L38.8,244.4z"/> <path class="st74" d="M44.9,248.9c0,0-7.4-14.1,3.4-50.3c0,0-8.8,33-0.4,50C48.6,249.7,44.9,248.9,44.9,248.9z"/> <path class="st74" d="M32.6,243.6c0,0-5.9-20.9-4.2-40.9c0,0,2.1,30.5,7.4,41.2L32.6,243.6z"/> <path class="st74" d="M38.3,247.2c0,0-7.1-8-2.9-38.6c0.1-0.5-2.2,26.5,8,39.2C44.5,249.3,38.3,247.2,38.3,247.2z"/> <path class="st74" d="M27.8,242.9c0,0-6.8-14.6-8.3-29.9c0,0,5.8,22.7,11.3,30L27.8,242.9z"/> <path class="st74" d="M34.9,247c0,0-7.3-6.1-9.8-31.2c0,0,3.7,21.6,12,31.4L34.9,247z"/> <path class="st74" d="M80.7,251.6c0,0,12.5-8.8,17.3-21.1c0,0-13,15.1-20.6,19.7C75.6,251.3,80.7,251.6,80.7,251.6z"/> <path class="st74" d="M48.5,246.8c0,0,5.4-48.1,8-51.9c0,0-1,0-2.6,6.6c-1.7,6.6-8.8,40.5-6.7,45L48.5,246.8z"/> <path class="st74" d="M26,244.6c0,0-9.3-14.4-13.7-31c0,0,10.2,24.1,17.3,31.2L26,244.6z"/> <path class="st74" d="M31.7,246c0,0-8.5-5-15.6-32.4c0,0,7.7,23.3,18.1,32.5L31.7,246z"/> </g> <path class="st75" d="M10.3,72c2.2,1.7,4.5,3.4,6.8,5.2c1.4,1.1,2.8,2.2,4.1,3.4c1.4,0.6,3.3,1.2,5.6,1.7c2.8,0.6,5.4,0.6,7.3,0.6 c1,0.7,2.2,1.4,3.5,2.1c2.2,1.2,4.4,2,6.4,2.6c0.3-0.1,0.6-0.1,0.9-0.2c-0.3,3.6-3,2.3-4.5,2.2c-3.8-1-7.8,0.7-11.5-1.1 c-0.7,0.4-2.1,1-3.9,1.1c-3.8,0.3-6.1-2-6.3-2.3c1,1.5,3.9,5.5,10.1,6.8c1.5,0.3,3,0.4,4.3,0.4c3-0.4,5.9,0.3,8.9,0.6 c1.6,5.3,4.3-1.4,6.5,1.4c4.4-2.3,8.9,0.2,13,3.3c1.3,0.5,2.9,1,4.7,1.3c7.1,1.3,13.6-0.6,16.6-1.7c-5.9-0.4-13.5-1.6-21-5.2 c-1.7-0.8-3.3-1.7-4.6-2.5c-2.2-1.4-4.5-1.3-6.8-1.7c0.9,0.1,2.3,0.1,4,0.1c4.8-0.2,8.3-1.2,9.3-1.5c3.3-0.9,9.8-1.9,24.3-2.3 c-3.1-1.3-7.7-3-13.3-4.8c-4.5-1.4-8.3-2.5-8.2-2.7c0.1-0.3,5.8,1.3,13.3,2c5,0.5,9.2,0.4,12,0.3c-6.3-2.9-12.7-5.8-19-8.6 c-3.8-0.5-7.7-1-11.7-1.4c-1.8-0.2-3.6-0.3-5.4-0.5c1.2-1.3,3.1-3,5.9-3.6c2.9-0.6,5.1,0.5,8.6,1.6c2.7,0.9,6.6,2,11.8,2.8 c-1-1.4-2-2.8-3-4.3c-3.3-0.6-6.5-1.2-9.8-1.8c-1.9-0.8-4.1-1.5-6.5-2c-9-2.1-16.9-1-22.3,0.3c8.3,0.5,10.2,1.5,10.3,2.4 c0.2,1.5-4.5,3.3-5.3,3.7c-3.3,1.3-6.3,1.5-8.2,1.4c3.4,1.1,6.9,2.1,10.3,3.2c0.1,0.7,0.1,1.5,0.2,2.2c-3.2-0.7-6.4-1.6-9.8-2.5 c-2.3-0.7-4.5-1.3-6.6-2c-2.6,0.6-6.2,1.1-10.4,1.2C16.2,73.1,12.7,72.6,10.3,72z"/> <path class="st76" d="M327.3,177c1.8,1.3,3.7,2.7,5.5,4.1c1.2,0.9,2.3,1.8,3.3,2.7c1.3,0.5,2.9,1.2,5.1,1.7c2.6,0.7,5.1,1,7,1.2 c0.9,0.6,1.9,1.2,3,1.8c1.9,1,3.9,1.8,5.7,2.4c0.3,0,0.6,0,0.9,0c-1,2.3-3.3,1.2-4.8,1c-3.5-1.1-7.8-0.4-10.9-2 c-0.8,0.2-2.3,0.4-4,0.3c-3.8-0.3-5.5-2-5.7-2.2c0.6,1.1,2.7,4,8.4,5.6c1.4,0.4,2.9,0.6,4.1,0.8c3,0.1,5.7,0.9,8.6,1.4 c0.5,3.6,4.5-0.4,6.1,1.6c4.8-1,8.7,1.1,11.9,3.6c1.2,0.5,2.6,1,4.3,1.4c6.6,1.6,13.3,1.1,16.5,0.7c-5.6-0.9-12.8-2.6-19.4-5.7 c-1.5-0.7-2.8-1.4-4-2.2c-1.9-1.2-4.1-1.3-6.3-1.9c2.6-2.6,5.9-1.6,8.8-2.2c3.8-0.7,6.6,0.6,10.2,0.8c0.3-0.2,2.1-1.2,2.1-2.6 c-0.1-1.3-1.6-2.4-3.9-2.9c5.4,1.2,10.8,2.3,16.1,3.5c-3.8-1.6-7.6-3.2-11.4-4.7c-4-2.2-8.3-3.5-13.2-4.1c6.1-2.9,12.9-2,17.7,1.1 c3.2-0.9,1.4-5.2-0.6-5.3c-5.5-1.4-12.4-1.7-18.2-0.1c-1.4-0.6-2.1,1.4-3.5,0.6c-1.8,0.2-5.3,1.1-3.7,4c-0.6,0.8-0.3,1.8-0.7,2.8 c-2.9-0.8-5.9-1.7-9-2.7c-2.1-0.7-4.1-1.4-6-2.1c-2.6,0.1-6.3,0.1-10.4-0.4C332.9,178.4,329.6,177.6,327.3,177z"/> <g> <path class="st16" d="M390.4,102.2c0,0,8.2-13,10.6-27.2c0,0-7.8,21.8-13.4,26C387.2,101.3,390.4,102.2,390.4,102.2z"/> <path class="st16" d="M387.1,100.9c0,0,6.9-5.2,12-30c0,0-6.3,20.4-13.5,29.3C385.3,100.5,387.1,100.9,387.1,100.9z"/> <path class="st16" d="M385,100.5c0,0,9.5-19.3,13-39.8c0,0-8.5,28.7-14.3,36.7C381.7,100.1,385,100.5,385,100.5z"/> <path class="st16" d="M381.4,99.2c0,0,7.5-8.5,14.7-44.3c0,0-8,32-16.6,43.3C378.9,98.9,381.4,99.2,381.4,99.2z"/> <path class="st16" d="M383.6,99.7c0,0,7.4-25.1,8.7-46.3c0,0-5.6,35.8-11.5,45.2C380.4,99.3,383.6,99.7,383.6,99.7z"/> <path class="st16" d="M379.4,98.5c0,0,7.1-11.4,9.1-46.3c0,0-3.1,31-11.1,44.5C376.6,98.1,379.4,98.5,379.4,98.5z"/> <path class="st16" d="M377.8,98.3c0,0,6.2-21.8,6.3-42.6c0,0-3.6,32.2-8.5,41.4C375.4,97.5,377.8,98.3,377.8,98.3z"/> <path class="st16" d="M374.4,97.1c0,0,5.8-9.9,6.9-46.6c0,0-2.2,31.6-8.7,45.9L374.4,97.1z"/> <path class="st16" d="M366.7,94.1c0,0-0.2-23.5,5-43.8c0,0-4.7,31.9-3.2,44.1L366.7,94.1z"/> <path class="st16" d="M370.1,95.7c0,0-3.6-13.2,5-46.4c0,0-7.3,30.4-3.2,46.1C372.2,96.6,370.1,95.7,370.1,95.7z"/> <path class="st16" d="M363.1,93.2c0,0-2.3-19.4-0.1-37.9c0,0-0.6,28.2,2,38.2L363.1,93.2z"/> <path class="st16" d="M365.9,94.2c0,0-3.8-7.5,0.6-35.7c0.1-0.5-2.9,24.4,2.5,36.3C369.5,96.2,365.9,94.2,365.9,94.2z"/> <path class="st16" d="M360.3,92.5c0,0-3.2-13.6-3.2-27.7c0,0,2.2,21,5,27.9L360.3,92.5z"/> <path class="st16" d="M363.3,93.3c0,0-4-5.8-4-29c0,0,0.9,20,5.3,29.1L363.3,93.3z"/> <path class="st16" d="M392.5,102.6c0,0,8-7.9,11.6-19.2c0,0-8.7,13.8-13.5,17.9C389.5,102.2,392.5,102.6,392.5,102.6z"/> <path class="st16" d="M395.3,103.8c0,0,7.2-6.1,10.4-15.5c0,0-7.2,12.3-12.2,14.6L395.3,103.8z"/> <path class="st16" d="M357.8,92c0,0-4.7-13.4-6.4-28.9c0,0,4.7,22.4,8.5,29.1L357.8,92z"/> <path class="st16" d="M361.4,92.8c0,0-4.8-4.8-7.5-30.1c0,0,3.2,21.7,8.9,30.3L361.4,92.8z"/> <path class="st18" d="M371.9,97.8c0,0,6.7-9.9,8.5-20.9c0,0-6.3,16.8-10.9,20C369.2,97.1,371.9,97.8,371.9,97.8z"/> <path class="st18" d="M369.1,96.7c0,0,5.7-3.9,9.7-23.1c0,0-5,15.7-10.9,22.5C367.6,96.4,369.1,96.7,369.1,96.7z"/> <path class="st18" d="M367.3,96.4c0,0,7.7-14.9,10.4-30.7c0,0-6.7,22.1-11.5,28.3C364.5,96,367.3,96.4,367.3,96.4z"/> <path class="st18" d="M364.3,95.3c0,0,6.2-6.5,11.7-34.2c0,0-6.2,24.7-13.4,33.4C362.2,95,364.3,95.3,364.3,95.3z"/> <path class="st18" d="M366.1,95.8c0,0,5.9-19.4,6.6-35.9c0,0-4.2,27.7-9,34.9C363.4,95.4,366.1,95.8,366.1,95.8z"/> <path class="st18" d="M362.6,94.7c0,0,5.8-8.7,7-35.8c0,0-2.1,24.1-8.7,34.4C360.2,94.4,362.6,94.7,362.6,94.7z"/> <path class="st18" d="M361.2,94.5c0,0,4.9-16.9,4.7-33c0,0-2.6,25-6.6,32C359.2,93.8,361.2,94.5,361.2,94.5z"/> <path class="st18" d="M358.4,93.6c0,0,4.7-7.6,5.1-36.1c0,0-1.4,24.6-6.6,35.5L358.4,93.6z"/> <path class="st18" d="M351.8,91c0,0-0.5-18.3,3.6-34c0,0-3.5,24.7-2,34.3L351.8,91z"/> <path class="st18" d="M354.7,92.4c0,0-3.2-10.3,3.5-36c0,0-5.7,23.5-2,35.8C356.5,93.1,354.7,92.4,354.7,92.4z"/> <path class="st18" d="M348.8,90.3c0,0-2.2-15.1-0.7-29.5c0,0,0,21.9,2.3,29.7L348.8,90.3z"/> <path class="st18" d="M351.1,91.1c0,0-3.3-5.9-0.1-27.8c0.1-0.4-2,19,2.6,28.4C354.2,92.7,351.1,91.1,351.1,91.1z"/> <path class="st18" d="M346.3,89.7c0,0-2.9-10.7-3.1-21.6c0,0,2.1,16.4,4.7,21.8L346.3,89.7z"/> <path class="st18" d="M348.9,90.3c0,0-3.5-4.6-3.8-22.6c0,0,1.1,15.6,4.9,22.8L348.9,90.3z"/> <path class="st18" d="M373.7,98.1c0,0,6.7-6,9.5-14.7c0,0-7.1,10.6-11.1,13.7C371.1,97.8,373.7,98.1,373.7,98.1z"/> <path class="st18" d="M376.1,99.1c0,0,6-4.6,8.5-11.8c0,0-5.9,9.4-10.1,11.1L376.1,99.1z"/> <path class="st18" d="M356.7,93c0,0,4.5-34.4,5.9-37c0,0-0.5,0-1.6,4.6c-1.1,4.7-5.9,28.9-5,32.1L356.7,93z"/> <path class="st18" d="M344.2,89.2c0,0-4.2-10.5-5.8-22.6c0,0,4.3,17.5,7.6,22.8L344.2,89.2z"/> <path class="st18" d="M347.3,89.9c0,0-4.1-3.8-6.7-23.6c0,0,3.1,16.9,8,23.8L347.3,89.9z"/> </g> <g> <path class="st24" d="M76.1,45.1c0,0,5.9-10.5,5.6-21.5c0,0-3.8,17.3-8.7,20.8C72.7,44.7,76.1,45.1,76.1,45.1z"/> <path class="st24" d="M73.5,44.7c0,0,6.1-4.4,6.5-23.8c0,0-2.5,16.1-8.2,23.4C71.6,44.6,73.5,44.7,73.5,44.7z"/> <path class="st24" d="M71.7,44.7c0,0,6-15.5,5.7-31.4c0,0-3.1,22.6-7.6,29.1C68.3,44.7,71.7,44.7,71.7,44.7z"/> <path class="st24" d="M66.9,44.6c0,0,6.1-7,6.4-35c0,0-1.9,25.1-8.7,34.4C64.3,44.5,66.9,44.6,66.9,44.6z"/> <path class="st24" d="M69.8,44.7c0,0,2.7-19.8-0.1-36.2c0,0,1.3,27.9-2.9,35.5C66.4,44.6,69.8,44.7,69.8,44.7z"/> <path class="st24" d="M65.2,44.4c0,0,5.1-9.2,0.3-36.2c0,0,2.9,24.1-2.7,34.9C62.3,44.2,65.2,44.4,65.2,44.4z"/> <path class="st24" d="M63.4,44.3c0,0,2.1-17.2-1.9-33.2c0,0,2.6,25.1-0.7,32.4C60.6,43.9,63.4,44.3,63.4,44.3z"/> <path class="st24" d="M60.7,43.8c0,0,4-8-2-36.3c0,0,4,24.5,0.1,35.9L60.7,43.8z"/> <path class="st24" d="M52,40.3c0,0-4.8-18.1-3.4-34c0,0,1.4,24.8,5.5,34.2L52,40.3z"/> <path class="st24" d="M56.4,43.3c0,0-6.3-9.9-4-36c0,0-1.5,23.8,5.8,35.7C58.7,43.9,56.4,43.3,56.4,43.3z"/> <path class="st24" d="M48,39.8c0,0-6.2-14.8-7.6-29.2c0,0,5,21.8,9.6,29.3L48,39.8z"/> <path class="st24" d="M52,42.3c0,0-5.4-5.5-6.5-27.5c0-0.4,1.8,19,9.7,27.9C56.2,43.7,52,42.3,52,42.3z"/> <path class="st24" d="M44.9,39.4c0,0-6-10.3-8.8-21.2c0,0,6.4,16.1,10.7,21.2L44.9,39.4z"/> <path class="st24" d="M49.9,42.2c0,0-5.3-4.2-9.9-22.1c0,0,4.9,15.4,11.3,22.2L49.9,42.2z"/> <path class="st24" d="M79,44.5c0,0,6.8-6.6,8.2-15.5c0,0-6.3,11.1-10.5,14.6C75.8,44.4,79,44.5,79,44.5z"/> <path class="st24" d="M58.3,41.8c0,0-2.4-34.6-1.3-37.3c0,0-0.6,0-0.9,4.8C56,14,55.6,38.4,57.4,41.6L58.3,41.8z"/> <path class="st24" d="M44,40.7c0,0-7.5-10.1-12.3-21.9c0,0,9.3,17,14.5,21.9L44,40.7z"/> <path class="st24" d="M47.7,41.6c0,0-5.9-3.4-13.7-22.8c0,0,7.6,16.5,15.3,22.9L47.7,41.6z"/> </g> <path class="st77" d="M314.3,134.1c1.3,1.1,3.3,2.7,6.2,3.9c2.5,1,4.7,1.4,6.3,1.5c1.5-0.1,3.6,0,6,0.5c2.7,0.6,4.8,1.7,6.3,2.5 c1.3,1.1,3,2.3,5.3,3.3c1,0.4,1.9,0.8,2.8,1c1,0.1,2.1,0.2,3.3,0.3c3.2,0.1,6.1,0,8.6-0.3c-2.8,0.2-4.8,1.1-6.1,1.8 c-1.8,1-2.6,2-4.5,2.5c-1.8,0.5-3.4,0.3-4.5,0c-1.5,0-3.4-0.2-5.5-0.8c-2.5-0.7-4.5-1.7-5.9-2.5c-0.7,0.7-1.7,1.6-3.1,2.2 c-4.2,1.9-8.3,0.1-9.1-0.3c1.3,0.9,3.5,2.1,6.3,2.7c3.2,0.6,5-0.1,8.7-0.1c2,0,4.9,0.3,8.6,1.4c-0.5,1-0.9,2-1.4,3 c2.5-0.5,5-0.9,7.4-1.4c4.8-1,8.7,1.1,11.9,3.6c1.2,0.5,2.6,1,4.3,1.4c6.6,1.6,13.3,1.1,16.5,0.7c-5.6-0.9-12.8-2.6-19.4-5.7 c-1.5-0.7-2.8-1.4-4-2.2c-1.9-1.2-4.1-1.3-6.3-1.9c1.8-0.6,4-1.2,6.6-1.6c3.5-0.5,6.6-0.5,9-0.3c-1.3-1.1-2.7-2.2-4-3.3 c5.3,1.1,9.4,1.7,9.6,1.1c0.2-0.7-4.4-3-3.9-2.9c5.4,1.2,10.8,2.3,16.1,3.5c-3.8-1.6-7.6-3.2-11.4-4.7c-4-2.2-8.3-3.5-13.2-4.1 c1.4-0.7,4.1-1.7,7.4-1.8c3.1-0.1,5.6,0.7,7,1.2c5.9,1.9,8.9,2.7,9,2.4c0.1-0.3-2.5-1.6-7.8-4c-0.4-0.5-3.3-3.5-7.6-3.3 c-2.2,0.1-3.8,1-4.7,1.5c-3.3,2.2-6.9,0.4-7.5,0.3c-2.7-0.5-4.8-1.6-6.3-2.6c1.9-1.4,5.4-3.5,10.2-4.4c3.5-0.7,6.5-0.4,8.6-0.1 c-5.8-2-9.9-1.6-12.5-0.8c-2.8,0.9-4.1,1.7-7,2.8c-3.1,1.1-7.8,2.2-14.4,1.5c7.1,2.5,14.3,5,21.4,7.5c-2.9-0.3-5.8-0.5-8.8-0.8 c1.1,1,2.8,2.2,5,3.2c1.7,0.7,3.2,1.1,4.5,1.3c-7.8,0.8-12.8-0.8-16-2.5c-2.7-1.4-5-3.4-9.3-4.1c-2.9-0.5-4.1,0.1-7.3,0.1 C323.2,136.6,319.3,136.1,314.3,134.1z"/> <g> <path class="st24" d="M206.7,253.4c0,0,5.9-10.5,5.6-21.5c0,0-3.8,17.3-8.7,20.8C203.3,253,206.7,253.4,206.7,253.4z"/> <path class="st24" d="M204.1,253c0,0,6.1-4.4,6.5-23.8c0,0-2.5,16.1-8.2,23.4C202.2,252.8,204.1,253,204.1,253z"/> <path class="st24" d="M202.3,253c0,0,6-15.5,5.7-31.4c0,0-3.1,22.6-7.6,29.1C198.9,252.9,202.3,253,202.3,253z"/> <path class="st24" d="M197.5,252.9c0,0,6.1-7,6.4-35c0,0-1.9,25.1-8.7,34.4C194.9,252.8,197.5,252.9,197.5,252.9z"/> <path class="st24" d="M200.4,253c0,0,2.7-19.8-0.1-36.2c0,0,1.3,27.9-2.9,35.5C197.1,252.8,200.4,253,200.4,253z"/> <path class="st24" d="M195.8,252.7c0,0,5.1-9.2,0.3-36.2c0,0,2.9,24.1-2.7,34.9C192.9,252.5,195.8,252.7,195.8,252.7z"/> <path class="st24" d="M194,252.6c0,0,2.1-17.2-1.9-33.2c0,0,2.6,25.1-0.7,32.4C191.2,252.1,194,252.6,194,252.6z"/> <path class="st24" d="M191.3,252.1c0,0,4-8-2-36.3c0,0,4,24.5,0.1,35.9L191.3,252.1z"/> <path class="st24" d="M182.6,248.6c0,0-4.8-18.1-3.4-34c0,0,1.4,24.8,5.5,34.2L182.6,248.6z"/> <path class="st24" d="M187,251.6c0,0-6.3-9.9-4-36c0,0-1.5,23.8,5.8,35.7C189.3,252.1,187,251.6,187,251.6z"/> <path class="st24" d="M178.6,248.1c0,0-6.2-14.8-7.6-29.2c0,0,5,21.8,9.6,29.3L178.6,248.1z"/> <path class="st24" d="M182.6,250.6c0,0-5.4-5.5-6.5-27.5c0-0.4,1.8,19,9.7,27.9C186.8,252,182.6,250.6,182.6,250.6z"/> <path class="st24" d="M175.5,247.7c0,0-6-10.3-8.8-21.2c0,0,6.4,16.1,10.7,21.2L175.5,247.7z"/> <path class="st24" d="M180.5,250.5c0,0-5.3-4.2-9.9-22.1c0,0,4.9,15.4,11.3,22.2L180.5,250.5z"/> <path class="st24" d="M209.6,252.8c0,0,6.8-6.6,8.2-15.5c0,0-6.3,11.1-10.5,14.6C206.4,252.6,209.6,252.8,209.6,252.8z"/> <path class="st24" d="M188.9,250.1c0,0-2.4-34.6-1.3-37.3c0,0-0.6,0-0.9,4.8c-0.2,4.7-0.6,29.2,1.2,32.3L188.9,250.1z"/> <path class="st24" d="M174.6,249c0,0-7.5-10.1-12.3-21.9c0,0,9.3,17,14.5,21.9L174.6,249z"/> <path class="st24" d="M178.3,249.9c0,0-5.9-3.4-13.7-22.8c0,0,7.6,16.5,15.3,22.9L178.3,249.9z"/> </g> <path class="st25" d="M333.6,193c-2.6-1.4-6.5-2.8-12.5-2.7c-4.9-0.9-9.8-1.9-14.7-2.8c8.1,5.3,15.2,7.8,20.1,9 c5.5,1.4,6.6,0.9,11.6,2.7c8.7,3.1,9.6,6.4,16.5,7.4c1.2,0.2,4.7,0.1,11.7-0.1c4.4-0.1,6.9-0.3,10.9,0c4.1,0.3,6.5,0.9,8.7,1.9 c1.9,0.8,3.4,1.8,4.5,2.7c1.4,0.2,3.3,0.4,5.4,0.2c3.5-0.3,6.3-1.4,8-2.3c-7.2-1.6-20.7-4.4-32.1-6c-5.2-0.7-8.2-1.1-8.2-1.1 c-12.1-1.4-12.4-0.8-15.9-1.8c-1.6-0.5-2.9-1-3.6-1.4C340.9,197.3,335.3,194,333.6,193z"/> <path class="st56" d="M73.7,86.7c3.4,0.9,6.2,1.9,8.1,2.7c4.6,1.9,7,3.6,10.2,2.9c1.6-0.3,2.8-1.1,3.5-1.7c3.5,0.7,7,1.4,10.5,2.1 c0-0.4,0.1-0.8,0.2-1.2c0.1-0.3,0.2-0.6,0.3-0.9c-1.6-0.2-3.3-0.5-5.1-0.8c-1.8-0.3-3.4-0.7-5-1.1c-0.1-1-0.4-2.4-1.5-3.5 c-1.7-1.8-4.7-1.7-10.5-1.5c-5.3,0.2-8.9,0.3-10,0.4C74.2,85,74,85.8,73.7,86.7z"/> <path class="st56" d="M139.9,99.4c3.9,0.7,7.8,1.4,11.8,2.1c0.2-0.2,0.4-0.3,0.6-0.5c0.5-0.4,1-0.7,1.5-1c-2.3-0.5-4.6-1-6.9-1.5 c-2.2-0.6-4.5-1.1-6.7-1.7C140.1,97.8,140,98.6,139.9,99.4z"/> <path class="st77" d="M13.8,72.7c1.3,1.1,3.3,2.7,6.2,3.9c2.5,1,4.7,1.4,6.3,1.5c1.5-0.1,3.6,0,6,0.5c2.7,0.6,4.8,1.7,6.3,2.5 c1.3,1.1,3,2.3,5.3,3.3c1,0.4,1.9,0.8,2.8,1c1,0.1,2.1,0.2,3.3,0.3c3.2,0.1,6.1,0,8.6-0.3c-2.8,0.2-4.8,1.1-6.1,1.8 c-1.8,1-2.6,2-4.5,2.5c-1.8,0.5-3.4,0.3-4.5,0c-1.5,0-3.4-0.2-5.5-0.8c-2.5-0.7-4.5-1.7-5.9-2.5c-0.7,0.7-1.7,1.6-3.1,2.2 c-4.2,1.9-8.3,0.1-9.1-0.3c1.3,0.9,3.5,2.1,6.3,2.7c3.2,0.6,5-0.1,8.7-0.1c2,0,4.9,0.3,8.6,1.4c-0.5,1-0.9,2-1.4,3 c2.5-0.5,5-0.9,7.4-1.4c4.8-1,8.7,1.1,11.9,3.6c1.2,0.5,2.6,1,4.3,1.4c6.6,1.6,13.3,1.1,16.5,0.7c-5.6-0.9-12.8-2.6-19.4-5.7 c-1.5-0.7-2.8-1.4-4-2.2c-1.9-1.2-4.1-1.3-6.3-1.9c1.8-0.6,4-1.2,6.6-1.6c3.5-0.5,6.6-0.5,9-0.3c-1.3-1.1-2.7-2.2-4-3.3 c6.5,1,10.9,1.5,11.1,1c0.1-0.6-5.4-2.7-5.4-2.8c0,0,0,0,0,0c5.4,1.2,10.8,2.3,16.1,3.5c-3.8-1.6-7.6-3.2-11.4-4.7 c-4-2.2-8.3-3.5-13.2-4.1c1.4-0.7,4.1-1.7,7.4-1.8c1.6,0,2.2,0.3,7,1.2c4.4,0.8,6.6,1.3,6.7,1c0.1-0.2-0.8-0.8-5.4-2.5 c-0.4-0.5-3.3-3.5-7.6-3.3c-2.2,0.1-3.8,1-4.7,1.5c-3.3,2.2-6.9,0.4-7.5,0.3c-2.7-0.5-4.8-1.6-6.3-2.6c1.9-1.4,5.4-3.5,10.2-4.4 c3.5-0.7,6.5-0.4,8.6-0.1c-5.8-2-9.9-1.6-12.5-0.8c-1.6,0.5-2.7,1.1-7,2.8c-2.9,1.1-5.2,1.9-6.8,2.5c4.6,2.2,9.2,4.3,13.8,6.5 c-2.9-0.3-5.8-0.5-8.8-0.8c1.1,1,2.8,2.2,5,3.2c1.7,0.7,3.2,1.1,4.5,1.3c-7.8,0.8-12.8-0.8-16-2.5c-2.7-1.4-5-3.4-9.3-4.1 c-2.9-0.5-4.1,0.1-7.3,0.1C22.7,75.1,18.7,74.7,13.8,72.7z"/> </svg>