<?xml version="1.0" encoding="UTF-8"?>
<svg width="126.03mm" height="95.401mm" enable-background="new" version="1.0" xmlns="http://www.w3.org/2000/svg">
 <defs>
  <filter id="g" x="-.0908" y="-.2362" width="1.1816" height="1.4724">
   <feGaussianBlur stdDeviation="1.8974932"/>
  </filter>
  <filter id="h" x="-.12541" y="-.16025" width="1.2508" height="1.3205">
   <feGaussianBlur stdDeviation="1.2262693"/>
  </filter>
  <filter id="b" x="-.17731" y="-.22657" width="1.3546" height="1.4531" color-interpolation-filters="sRGB">
   <feGaussianBlur stdDeviation="1.7336911"/>
  </filter>
  <filter id="i" x="-.099782" y="-.40211" width="1.1996" height="1.8042">
   <feGaussianBlur stdDeviation="1.0799432"/>
  </filter>
  <filter id="a" x="-.11512" y="-.2922" width="1.2302" height="1.5844">
   <feGaussianBlur stdDeviation="0.59888042"/>
  </filter>
  <linearGradient id="j" x1="485.08" x2="485.03" y1="-270.57" y2="-857.9" gradientUnits="userSpaceOnUse">
   <stop stop-color="#6e83b6" offset="0"/>
   <stop stop-color="#3421b1" stop-opacity="0" offset="1"/>
  </linearGradient>
 </defs>
 <g transform="translate(-263.38 794.98)" opacity=".9">
  <path d="m714.14-703.5 1 186.17c0.45431 84.577 18.358 65.78-66.283 65.518l-323.48-1c-84.641-0.26166-63.909 17.026-64.783-68.018l-2-194.67c-0.87374-85.045-19.359-82.518 65.283-82.518h307.48c84.641 0 82.093-33.898 82.783 94.518z" enable-background="new" fill="url(#j)" fill-rule="evenodd"/>
  <path d="m379.1-727.73c-0.77842-0.9987-2.4053-2.3203-0.32376-2.8905 1.4687-0.75838 2.7329-2.1867 4.3897-2.4232 1.8979 0.15769 3.7964 0.31981 5.6882 0.53842-1.3342 2.0154-1.5861 2.3832-3.1782 3.6198-0.50075 0.49734-1.0267 1.2645-1.8362 1.2513-1.3179 0.29964-2.6358 0.59924-3.9537 0.89883-0.26202-0.33156-0.52404-0.6631-0.78606-0.99466zm23.969 15.316c-0.81684-0.46782-1.4913-1.5114-2.5718-1.3147-2.2601-0.14062-4.3596-1.3311-6.6269-1.3998-2.1331 0.20711-4.2633 0.44273-6.3947 0.66747-1.3314-1.265-1.9332-2.9973-2.561-4.6722-0.19825-0.53218-0.60134-1.0831-0.0643-1.548 1.3464-0.0428 2.8252 0.11234 4.2022-0.16727 1.5524 0.25386 2.2074-0.7396 2.586-2.053 0.43862-0.54191 0.24132-1.064-0.12119-1.5811-0.61659-1.1848-1.4925-2.2213-1.7759-3.5171 0.79536-1.1651 1.2834-2.1759 2.1013-3.1335 2.1781-0.28093 5.1214 0.0667 7.3222-0.0573 0.28153-0.63607 0.44079-0.94047 0.72218-1.5766 5.2045 0.36525 8.495 1.4292 12.651 2.1532 0.4862 1.5916 0.61145 1.4777 0.64653 3.1647 0.14931 1.8659-0.0316 3.7686 0.10144 5.6296 0.19799 1.8588-0.67199 3.1611-1.9074 4.3214-1.4843 1.0555-1.968 2.811-2.8842 4.2272-0.84091 1.473-2.9049 1.7509-4.3793 1.229-0.38241 0.0291-0.71789-0.21185-1.046-0.37195zm-1.1652-25.007c-1.7199-0.35078-5.846-1.2308-7.5641-1.5907 1.463-1.7181 3.9308-3.2338 5.6962-3.8445 1.8674-0.5299 2.3594-0.48963 5.5073-0.58356 1.6589 0.39805 2.9905 1.1331 4.3278 2.2136 1.0099 0.91184 1.2344 1.4055 1.6576 2.9726-0.55619 0.93615-1.1692 1.6051-2.3845 1.8791-1.3993 0.16826-2.7963 0.1569-4.1629-0.23913-1.0497-0.20765-2.0287-0.59464-3.0773-0.80734z" color="#000000" enable-background="accumulate" fill="#e32a1c" fill-opacity=".57534"/>
  <path d="m369.1-729.17c-2.8481-2.2995-3.8911-6.6312-4.8716-9.3448-1.1484-4.2434-1.4675-7.1614 0.59723-13.356 5.1608-9.5988 10.438-16.592 17.056-19.901l5.9117-2.8262 8.0927-2.4453 8.0927-2.4453 2.0433-0.0987c1.1238-0.0544 2.0558-0.089 2.0711-0.0771 0.0158 0.0126-1.6826 2.1295-3.7731 4.7058l-3.8009 4.6842-5.0848 7.8087c-2.9762 4.5704-5.1866 7.8497-5.3303 7.9076-0.13494 0.0543-0.64541 0.2235-1.1343 0.37574l-0.88888 0.27679-3.6493 8.205-3.6492 8.205-5.3928 4.4319c-2.966 2.4376-5.4309 4.4475-5.4775 4.4665s-0.41216-0.239-0.81234-0.57337zm2.7083-9.5528c1.2312-1.3043 3.7367-7.8855 3.7367-9.8154 0-0.80272-0.15326-1.1147-0.54744-1.1147-0.44343 0-0.83113 0.30204-1.7763 1.3838-0.81003 0.92716-0.86876 1.0356-1.2351 2.2803-0.49472 1.6809-1.0992 4.8352-1.1925 6.2228-0.0623 0.92501-0.043 1.1128 0.13178 1.2876 0.29204 0.29204 0.40601 0.26047 0.88273-0.24453zm9.9055-18.161c2.3296-1.0931 7.8222-6.4698 8.9833-8.7936 0.93878-1.8788-0.28984-2.2818-2.3852-0.78226-2.9355 2.1008-8.2151 7.9536-8.2151 9.1072 0 0.797 0.56716 0.96142 1.617 0.46874z" color="#000000" enable-background="accumulate" fill="#00f"/>
  <path d="m371.17-728.85c0-0.0575 2.2556-1.9575 5.0124-4.2223l5.0124-4.1178 3.639-8.1747c3.4523-7.7553 3.6576-8.1805 4.0011-8.2872 0.19916-0.0618 0.68553-0.20064 1.0808-0.30846l0.71869-0.19604 2.2279-3.429c1.2254-1.886 2.2899-3.4497 2.3657-3.475 0.0782-0.0261 0.13778 0.0776 0.13778 0.23955 0 1.2788 2.406 0.31792 4.7986-1.9165 1.1782-1.1003 1.6033-1.8644 1.5636-2.8109-0.0126-0.2909-0.0605-0.32939-0.41428-0.32939-1.0262 0-2.781 0.92397-3.9001 2.0535-0.4028 0.40658-0.76568 0.70594-0.8064 0.66522-0.0408-0.0408 0.92591-1.6071 2.148-3.4808 1.9768-3.0308 2.6415-3.9237 6.0222-8.09 2.0901-2.5758 3.8357-4.6832 3.8792-4.6832s1.2078 2.431 2.5873 5.4023c1.9894 4.2847 2.5656 5.4245 2.7852 5.5098 0.15231 0.0591 0.63967 0.14125 1.083 0.18248l0.80611 0.0749 0.75124 1.4216c0.4132 0.78189 0.72246 1.4682 0.68726 1.5252-0.0352 0.0569-0.38177 0.17098-0.77017 0.25341-1.0666 0.22634-1.0267 0.1539-0.86697 1.5772 0.0766 0.68299 0.16869 1.4104 0.20454 1.6165l0.0651 0.37466 1.0974 0.0777c0.60357 0.0428 1.3806 0.1095 1.7268 0.14821l0.62941 0.0705 0.83682 1.3224 0.83683 1.3224-0.56788 0.61016c-0.31232 0.33558-0.67566 0.6677-0.80743 0.73801-0.13162 0.0703-1.1826 0.75756-2.3352 1.5272-1.5209 1.0156-2.195 1.3994-2.4579 1.3994-1.0955 0-3.8871 1.1767-6.107 2.5742-1.3139 0.82713-3.0346 2.1096-4.2336 3.1553-0.74858 0.8574-1.1518 0.75233-2.2146 0.64122-1.475-0.051-1.4587-0.4865-1.693-1.633 0.15531-2.145-1.305-1.0591-2.3698-0.52464l-1.981 0.99747-3.4453 3.0544-3.4453 3.0544-3.7401 4.343-3.7401 4.343-2.8588 2.0577c-2.765 1.9901-2.9001 2.071-4.1165 2.4612-1.0346 0.33192-3.541 0.98918-3.7721 0.98918-0.0335 0-0.0608-0.0471-0.0608-0.10445zm31.554-28.779c2.8803-0.71676 7.1352-3.3009 7.1352-4.3334 0-0.15184-0.0766-0.38084-0.17023-0.50873-0.14742-0.20138-0.31985-0.23251-1.2876-0.23251-1.0435 0-1.2363 0.042-2.9141 0.63489-3.7708 1.3324-6.1687 2.8038-6.1687 3.7851 0 0.97633 1.192 1.2055 3.4056 0.65466z" color="#000000" enable-background="accumulate" fill="#6a6866"/>
  <path d="m393.4-731.83c-0.71873-0.0503-1.1038-0.60904-0.16529-1.0512 0.94578-0.64936 1.5698-1.4072 2.5471-1.9759 0.92631 0.21928 2.9275 0.35233 3.348 0.69206-0.22764 0.5506-0.0638 1.2629-0.14379 1.8347-0.32701 1.104-0.68897 0.75466-2.6433 0.7723-1.129-0.0777-2.3394-0.15769-2.9428-0.27188zm-7.6355-1.4392c-0.75291-0.15153-2.0946-0.42399-2.4186-0.81692 0.86513-0.9945 1.6981-2.0369 2.6932-2.9034 1.188-0.0784 2.419 0.30402 3.6255 0.39003 0.57945 0.19238 2.4137-0.0959 1.2374 0.84026-0.80187 0.73496-1.5908 2.5272-2.681 2.734-0.83059-0.0589-1.6259-0.18687-2.4566-0.24404zm4.7026-6.1664c-0.80387-0.30694-0.96479-0.31364-2.6015-0.6766 2.4218-3.1071 5.3521-5.1487 8.2794-7.7525 1.1816-1.0421 2.2427-1.2987 3.6648-1.9387 0.71812 1.2792-0.7124 2.1637 1.7098 2.4104 1.1067 0.18408 2.7982 0.49701 3.5947-0.49978 1.9726-1.693 3.5617-3.0565 5.9043-4.1891 0.26447 4.0483 0.13036 7.3768 0.398 11.424-0.80617-0.80527-0.84611-1.0305-1.9373-1.8563-1.2396-0.62123-1.9538-1.725-3.8099-1.7522-2.6251-0.0616-4.7188 0.16396-7.0446 1.1493-2.1875 1.1876-3.4212 2.7776-5.419 4.061-0.82097 0.076-1.9066-0.31319-2.7388-0.37965z" color="#000000" enable-background="accumulate" fill="#3f0e1c"/>
  <path d="m382.68-723.64c-2.0822-2.2688-2.2538-2.467-2.1904-2.5304 1.5817-0.13715 2.7-0.40685 4.2392-1.051 0.0526-0.0111 0.66515-0.18912 1.1399-0.77135l1.1291-1.2094c0.67853-0.68108 0.37338-0.37536 0.80652-0.84151 1.0862-1.7411 1.5206-1.9052 2.1127-3.0576l1.1172-1.8328c0.8711-1.429 0.35495-0.56147 1.2116-1.7738-0.55735-0.0476-0.91027-0.0446-1.7043-0.0665-2.2739-0.40257-3.3506-0.63777-4.3512-0.78592 0.10349-0.7741 1.0836-2.1014 1.199-2.1014 2.8146 0.239 2.2936 0.75556 6.1082 1.1241 5.6552 1.326 4.6423 0.79968 10.817 2.4172l2.3302 0.55708 1.611 0.0741 0.95909-0.12656c5.003 0.99866 2.3887-11.885 2.9548-17.068 0.0512-0.0512 3.1759-0.88647 3.3224-0.88811 0.10997-1e-3 -7.6e-4 5.2159-0.15453 7.2832-0.19654 2.6413-0.17767 3.8144-0.4727 5.6241-0.21628 2.9045-0.53559 5.5884-1.0691 8.8927-3.5984-0.14947-4.0105-0.43822-7.68-1.0457l-3.5538-0.64691-2.2413-0.54712c-1.0128-0.24726-1.571-0.52779-2.5061-0.78309l-1.7091-0.27343c-1.0476-0.25166-0.75146-0.2272-1.6177 0.45948l-1.3182 0.90385-1.2179 1.5808-1.4063 2.1047-1.4047 2.2062c-0.1155 0.42298 0.60692 0.9526 0.91155 1.5695l0.81281 1.696c0.45458 0.97834 0.21636 2.378-0.83269 2.9845-0.91014 0.43976-5.0878 0.43272-5.2572 0.42921-0.0539 0.19741-0.88859-1.1916-2.0951-2.5061z" color="#000000" enable-background="accumulate" fill="#0a0000"/>
  <path d="m586.84-613.4c-1.6093-0.0276-3.1193 0.0654-5.1061 0.21171-6.2922 0.46305-6.4075 0.4633-13.292 2.2441-3.892 0.56566-4.8176 1.3761-6.569 2.3202 1.1599 2.01 2.6468 3.9641 3.1232 5.0896-0.0504-1.8339 23.8-8.5748 39.099-2.1312 9.6806 2.8517 18.17 7.8569 25.458 14.029 10.837 9.45 17.745 21.57 20.141 35.313 2.0214 11.598-0.2377 25.967-5.5518 35.313-0.71427 1.2556-1.2968 2.3826-1.2968 2.4981 0 0.37762-3.1875 5.1723-4.9036 7.3674-5.5832 7.1417-12.743 12.955-21.154 17.191-6.4759 3.2613-12.42 5.1796-19.33 6.2666-3.3022 0.51936-12.469 0.94285-15.075 0.67746-4.0397-0.41132-7.5188-0.9766-10.536-1.6937-14.259-3.3882-26.569-11.287-35.702-22.864-5.4412-6.9718-5.7551-7.9714-8.8344-15.92-0.45376-1.4398-0.73373-2.8623-1.2563-4.2765-2.3194 0.15184-3.8839 0.33879-7.0918 0.63513 0.58272 1.9906 1.1332 3.329 1.702 5.335 1.1858 4.1915 5.506 12.477 8.9154 17.106 5.7852 7.8539 11.906 13.317 20.951 18.63 8.2663 4.8556 19.98 8.6958 28.165 9.2728 6.2041 0.43744 8.0546 0.43501 15.035-0.12688 5.9223-0.47691 6.9622-0.66285 12.157-2.1594 14.104-4.0628 26.191-11.864 35.094-22.695 7.3956-8.9966 11.276-16.887 14.062-28.665 1.6011-6.7704 1.8145-12.975 0.77003-20.832-0.69883-5.2547-0.86755-5.9133-2.8368-11.009-3.2574-8.4298-6.3011-14.073-10.455-19.308-8.3582-10.531-14.355-15.339-25.531-20.578-8.6738-4.0661-15.79-6.0747-24.396-6.8594-2.4387-0.22235-4.1452-0.3534-5.7545-0.38108zm-33.757 8.3413c-1.3806 0.68596-3.0005 1.4966-3.6067 1.7784-1.1483 0.53365-4.3647 3.0573-8.9965 7.0711-5.1632 3.7092-8.0463 7.4822-11.793 13.168l-4.6198 6.944-2.8367 7.9179-2.8367 7.8756-0.68892 6.1819c-0.41114 3.5714-0.73068 9.209 0 14.481l0.3242 2.2441c3.0192 0.23835 4.3048 0.0668 6.484 0.0847-0.95723-5.9196-0.51905-17.748 1.3373-24.728 1.399-5.26 4.1544-11.779 4.8224-11.348 0.15938 0.10287 0.19855-0.0613 0.0811-0.38107-0.14378-0.39176-0.091-0.50221 0.1621-0.33874 0.2321 0.14995 0.34559 0.0673 0.24314-0.21171-0.18104-0.49298 1.4374-3.4416 3.7283-6.7747 4.1602-5.8462 9.5065-9.8494 14.427-14.227 2.3061-1.6227 4.4064-2.9086 6.484-4.0225l-2.5125-4.954c-0.12562-0.25036-0.16425-0.49819-0.20263-0.76217z" color="#000000" enable-background="accumulate"/>
  <path d="m401.67-633.51c-0.18757-0.20961-1.0345-1.2959-1.882-2.4139-1.2401-1.6359-1.7946-2.5742-2.8397-4.806l-1.2988-2.7732 1.1608-1.1725c1.1917-1.2037 5.8846-4.35 17.846-11.965l4.8278-3.0735 6.6449-6.0608 6.6449-6.0608 2.2061-3.3812c1.2133-1.8596 2.2061-3.5452 2.2061-3.7457s-0.75922-5.0433-1.6871-10.762c-0.92793-5.7185-1.633-10.443-1.5669-10.5 2.8664-2.4427 7.3589-5.883 9.85-7.5431 2.9499-1.9404 4.6838-2.5835 7.4276-3.3892l4.1866-1.3231c1.1058 0.20151 1.2762 0.63724 1.6093 2.7038l5e-3 8.2133c6e-3 10.952-0.49719 34.374-0.74874 34.757-0.10365 0.15784-3.1271 2.559-6.7187 5.336s-9.3087 7.2073-12.705 9.8452l-6.1745 4.7961-12.872 6.8499-12.872 6.8498h-1.455c-1.2949 0-1.4926-0.0419-1.796-0.38114z" color="#000000" enable-background="accumulate" fill="#e32a1c" fill-opacity=".57534"/>
  <path d="m457.57-691.04c-0.0401-1.1395-0.0866-5.023-0.10302-8.63l-0.0302-6.5582 0.35956-0.0506c0.61404-0.0861 8.8434-0.7884 8.8744-0.75725 0.0662 0.0665 3.1636 6.9387 3.1614 7.0144-0.79169 0.71793-1.3343 1.1111-7.3484 6.1827-2.4807 2.1283-4.629 4.8027-4.7041 4.8268-0.0969 0.0311-0.15785-0.55877-0.20958-2.028zm-34.989 18.429c-2.6352-0.53711-4.7805-1.0213-4.7674-1.0761 0.0333-0.13889 17.535-11.129 17.607-11.057 0.0324 0.0324 0.35216 1.3514 0.71052 2.931l0.65158 2.872-2.4126 3.6639c-1.3269 2.0151-2.4546 3.0391-2.8653 3.5163-0.2356 0.2475-0.60799 0.10997-1.5078 1.3356 1.0638 0.23276-4.7809-1.6487-7.4161-2.1858z" color="#000000" enable-background="accumulate" fill="#e32a1c" fill-opacity=".57534"/>
  <path d="m466.57-603.2-5.534-10.38-7.7586-19.857-7.7586-19.857-2.8406 0.16054c-2.2599 0.12782-2.8199 0.0977-2.7391-0.14695 0.0558-0.16911 3.893-3.2088 8.5271-6.7548l8.4256-6.4473 0.0179-3.1352c9e-3 -1.7244 0.0958-6.5472 0.19082-10.717l0.17286-7.5822 1.9993-2.1201c1.789-1.897 6.897-6.5386 7.2015-6.5439 0.0659-1e-3 1.2193 1.9102 2.5632 4.2475 2.3641 4.1114 2.5392 4.3434 5.3902 7.1363 4.7484 4.6517 7.7373 6.8582 12.948 9.5588 2.4705 1.2803 4.4918 2.372 4.4918 2.4261 0 0.054-2.3447 1.2767-5.2105 2.7171l-5.2105 2.6188-3.7132 3.2246c-2.0423 1.7735-4.5107 4.0368-5.4854 5.0295l-1.7722 1.805 1.1437 2.9533c0.62903 1.6243 2.1394 4.786 3.3565 7.0259 2.4475 4.5046 4.1842 8.3062 6.5119 14.254 1.8742 4.7892 2.8908 9.2048 3.7574 16.32 0.59928 4.9209 0.61156 4.9719 3.0131 12.521 1.3262 4.1692 2.4114 7.6684 2.4114 7.776 0 0.35762-4.1528 2.1495-6.9473 2.9976-2.5745 0.78139-3.0452 0.84639-7.1869 0.99239l-4.4319 0.15626-5.534-10.38z" color="#000000" enable-background="accumulate" fill="#e32a1c" fill-opacity=".57534"/>
  <path d="m507.17-647.53c-6.9833-0.79316-12.712-1.4541-12.731-1.4687-0.0338-0.0262 5.3586-21.461 5.7286-21.775 0.39285-0.0201 2.175 0.80348 4.7681 1.9651 8.0519 3.102 8.1079 3.4744 19.045 7.0161 3.3269 0.83909 6.9128 1.2671 6.5916 1.5651-0.0675 0.11446-2.7948 3.3834-5.3773 7.2094-4.2778 6.3374-4.7237 6.9552-5.0118 6.9434-0.17395-6e-3 -6.0298-0.66184-13.013-1.455zm12.261 43.06c-1.9054-2.5435-0.86872-2.5217-0.96183-2.9293l-1.0822-2.3671-1.4215-1.7217c-0.97685-0.71292-1.8269-1.3589-1.8889-1.4355-0.36938-1.4894-1.6154-1.6034-2.7237-1.6536l-2.3372-0.17955-0.86287-0.84542c-0.47458-0.46498-2.9381-2.3963-5.4745-4.2918s-6.1747-4.752-8.0852-6.3478l-3.4737-2.9014-0.68875-1.5222-0.68874-1.5222 1e-3 -1.9965 1e-3 -1.9965 0.63893-2.3956 0.56799-2.112c8.3888 0.73982 16.851 1.2195 25.229 2.0797 0.0717 0.0237 0.15903 0.62491 0.80049 1.596 1.85 2.8006 4.2271 5.2697 8.9036 9.2484 2.0588 1.7515 3.7432 3.2462 3.7432 3.3214s-0.82544 2.1275-1.8343 4.5606l-1.8343 4.4237-0.54616 0.0359-0.54616 0.0359-1.8479 5.2345-1.8479 5.2345 0.38873 0.65878 0.38872 0.65882-0.25744 1.0481c-0.14157 0.57645-0.29245 1.0481-0.33525 1.0481-0.91975-0.74782-1.4695-1.7462-1.9249-2.9661zm11.847 16.727c-0.10033-0.10713-1.1801-1.381-2.3995-2.8309-1.4755-1.7545-2.2786-2.7581-2.401-3.0007l-0.18395-0.36439 0.64023-2.4043 0.6402-2.4043 0.70969-1.6e-4 0.70968-1.4e-4 0.70232-0.60499 0.7023-0.60499 1.5374-4.8696c0.8456-2.6783 1.5533-4.911 1.5727-4.9616 0.0262-0.0686 0.10302-0.65129-0.27701-0.84349l-0.11487-0.50466 0.64673-2.6334c0.4715-1.9199 1.2624-3.3733 1.2906-3.3725 0.0283 8.4e-4 1.0274 2.0043 2.2202 4.452l2.1688 4.4505 2.5253 4.3546c1.3889 2.395 2.5237 4.3759 2.5219 4.402-1e-3 0.0261-0.69579 0.61281-1.5422 1.3039-0.84639 0.69113-3.1829 2.6504-5.1922 4.3539-1.8484 1.3979-3.4961 2.9148-4.9648 4.6876-0.72329 0.87301-1.3157 1.5902-1.3208 1.5902-5e-3 0-0.0915-0.0875-0.19182-0.19463zm8.2442 2.8562c0-0.15853 1.0862-1.2794 2.9911-3.0108 2.064-1.876 2.3124-2.0766 3.0715-2.6714 0.76319-0.59077 1.5085-1.4705 2.3007-1.9862 0.92499 1.7163 1.501 2.987 1.4578 3.0272-0.0367 0.0341-3.6432 2.7346-4.7094 3.4831-0.10365 0.0727-0.8985 0.43129-2.5341 0.73813-2.4413 0.45798-2.5776 0.48017-2.5776 0.41983z" color="#000000" enable-background="accumulate" fill="#e32a1c" fill-opacity=".57534"/>
  <path d="m487.68-562.45-2.4816-0.84204-2.701-2.3208c-1.4856-1.2764-3.3127-2.6989-4.0604-3.161-1.2583-0.77782-1.3925-0.91629-1.805-1.8634-0.24513-0.56271-0.44568-1.0787-0.44567-1.1467 2e-5 -0.0679 0.32399-0.28784 0.71995-0.48859 0.39597-0.20074 0.77595-0.45004 0.8444-0.55398 0.0684-0.10397 0.12514-0.95127 0.12593-1.883 1e-3 -1.68-0.0142-1.743-1.8395-7.6228-1.0126-3.2609-2.189-6.7483-2.6142-7.7499-0.42518-1.0016-0.7587-1.8269-0.74118-1.834 0.0175-6e-3 1.9376-0.15232 4.2668-0.3226l4.2349-0.30958 3.7267-1.0468c2.8076-0.78869 3.9983-1.2072 4.8278-1.6971 0.60561-0.35761 1.1458-0.59894 1.2004-0.53624 0.15105 0.17335 7.9586 25.202 8.2358 26.402l0.24219 1.048-2.1114 2.7634-2.1114 2.7634-2.1773 0.64188c-1.1975 0.35303-2.3298 0.63286-2.5161 0.62186-0.18633-0.0111-1.4555-0.39895-2.8204-0.86208z" color="#000000" enable-background="accumulate" fill="#0a090a"/>
  <path d="m454.5-542.46c-1.6072-0.22655-3.2325-0.45514-3.6118-0.50798-0.66706-0.0929-0.76436-0.13841-2.9644-1.3855-1.2511-0.70921-2.9036-1.6952-3.6722-2.191l-1.3975-0.90158-0.54458-1.2106c-0.29953-0.66582-0.54033-1.2745-0.5351-1.3526 5e-3 -0.0781 0.18474-0.95377 0.39893-1.9459 0.38444-1.7808 0.39664-1.8171 0.95319-2.8304l0.56373-1.0265 0.97944-0.32287c0.53869-0.17756 3.2047-0.90033 5.9244-1.6061l4.945-1.2832 0.49795-0.71386c0.27387-0.39261 0.56417-0.7756 0.64511-0.85108 0.12672-0.11819 3.8081-0.97807 3.8771-0.90557 0.0126 0.0142-0.0736 0.26374-0.19125 0.5569-0.11772 0.29318-0.19244 0.55457-0.16612 0.58088 0.0262 0.0262 0.76429-0.21116 1.64-0.52771s1.7965-0.62303 2.0462-0.68105c0.2497-0.058 0.46673-0.11835 0.48231-0.13383 0.0158-0.0158-0.0776-0.6756-0.20708-1.4667-0.12956-0.79112-0.21272-1.4642-0.18499-1.4958 0.0619-0.0703 4.1833-1.2554 4.3661-1.2554 0.10807 0 0.13256 0.13699 0.13999 0.78346 5e-3 0.43089 0.0335 1.1178 0.0635 1.5266l0.0545 0.74315 1.0038-1.0071 1.0038-1.0071-0.12561-1.6417-0.12562-1.6417 0.49843-1.3908c0.27414-0.76492 0.50989-1.4022 0.52389-1.4162 0.0142-0.0142 0.8619-0.12356 1.8842-0.24358 1.0223-0.11992 1.9743-0.26892 2.1155-0.33105l0.25674-0.11282 0.49761 1.112c0.2737 0.61162 0.55835 1.1753 0.63259 1.2527 0.0743 0.0774 0.80762 0.57283 1.6297 1.1011 1.281 0.82309 1.8524 1.271 3.9957 3.1327l2.5009 2.1723 2.8763 0.95737 2.8763 0.95736 2.444-0.74315c1.3442-0.40871 2.4478-0.74986 2.4525-0.7581 0.10744-0.18959 3.8366-5.0574 3.9545-5.1618 0.0929-0.0823 0.44395-0.63498 0.78008-1.2281 0.33614-0.59316 0.66122-1.0784 0.7224-1.0784 0.0763 0 0.55694 1.7428 1.5299 5.5477 0.80012 3.129 1.7009 6.434 2.066 7.5805 0.35609 1.118 0.6522 2.0899 0.65801 2.1598 5e-3 0.0698-0.47593 0.97076-1.0706 2.002l-1.0811 1.8749-1.2844 0.92761-1.2844 0.92761-3.5997 0.48466c-1.9798 0.26656-7.8113 1.0532-12.959 1.7482l-9.3591 1.2636-8.2868 1.6957c-4.5577 0.93264-8.4263 1.6923-8.5969 1.688-0.17052-5e-3 -1.625-0.19303-3.2321-0.4196z" color="#000000" enable-background="accumulate" fill="#0a090a"/>
  <path d="m550.47-561.38c-1.4907-0.40994-3.6379-0.94667-4.7715-1.1927-2.357-0.51153-2.2524-0.39924-2.2561-2.4206-3e-3 -1.1958-0.0474-1.341-0.94516-3.0373-0.51857-0.9798-2.2824-3.8382-3.9195-6.352s-2.9852-4.6536-2.9956-4.755c-0.0111-0.10128 0.73081-1.2211 1.6472-2.4882l1.6662-2.3038 3.0402-0.61997c2.3941-0.12451 3.5749-1.0658 5.3239-2.524 1.256-1.0472 2.3397-1.8725 2.4082-1.8339 0.0686 0.0386 2.3845 3.417 5.1466 7.5076 2.2068 3.8564 4.5901 7.0939 8.0129 9.8166 1.645 1.3085 2.9678 2.3941 2.9396 2.4124-0.0281 0.0185-1.309 1.2107-2.8463 2.6496-2.9858 2.7947-4.7363 4.3384-5.4212 4.7808-0.47273 0.30536-3.4519 1.1443-3.9803 1.1208-0.18632-8e-3 -1.5584-0.35049-3.0491-0.76045z" color="#000000" enable-background="accumulate" fill="#0a090a"/>
  <path d="m567.05-569.32-0.88918 0.76216c-0.48427 0.42861-1.3421 1.1997-1.9477 1.6937-0.60558 0.49394-1.4628 1.2665-1.9054 1.6937-0.44254 0.42713-1.6617 1.4805-2.7099 2.3711l-1.9054 1.609-0.93152 0.29639c-1.4772 0.45891-2.6312 0.71981-3.1333 0.71981-0.31819 0-1.4199-0.2563-3.472-0.80449-2.6525-0.70856-6.3637-1.5734-6.7323-1.5666-0.0787 1e-3 -1.0277 1.284-2.2864 3.0909 11.226 0.17097 20.505 0.0946 31.396 0.0842 0.21774-0.66684-9.2e-4 -1.1895 0.0182-1.24 0.0191-0.0506-0.19708-0.69747-0.97087-1.5964-1.6498-1.9165-1.8359-2.1248-2.7099-3.5144l-0.67746-1.0585 0.12704-0.5081 0.12687-0.5081-0.21171-0.33873c-0.13351-0.16641-0.46671-0.4719-0.71981-0.71981zm-30.105 15.328-2.0748 2.3711-3.218 2.4135-3.218 2.3711-1.6513 0.80449c-2.4151 1.1148-2.0064 1.3088-1.6152 1.2419 0.42375-0.0431 4.0988-0.55024 8.5592-0.94546l8.0873-0.71979 5.1233-1.0162c2.795-0.56122 8.6307-1.6656 12.999-2.4558 7.1017-1.2848 8.1353-1.48 9.7809-1.9477 1.0122-0.28768 1.8434-0.53486 1.863-0.55044 0.0196-0.0158 0.37643-1.1551 0.50623-2.6658l0.2698-1.429c-10.823 0.0814-22.05-0.0253-32.889 0.0127-0.85213 0.16721-1.9969 1.9059-2.5229 2.5148z" color="#000000" enable-background="accumulate" fill="#0a090a"/>
  <path d="m564.07-680.47c-5.3851-1.0133-10.13-0.64108-15.048-4.039-3.01-2.0533-2.2225-1.5891-4.661-3.6955-2.7036-1.9075-4.9739-2.333-7.8865-2.4558-2.644-0.11155-4.832-0.2276-4.8623-0.25788-0.0302-0.0302-0.0196-0.0871 0.024-0.12624 0.0434-0.0392 1.0863-0.48636 2.3173-0.99381l1.6114-0.94769 1.4377-0.88658 1.0616-0.8615 2.0959-0.98067c1.2576-0.58842 2.4531-0.93073 2.5833-0.93096 0.13019-2.2e-4 4.334 0.65318 9.3417 1.452 6.303 1.1728 9.7534 1.3004 15.881 0.93338 3.7267-0.28545 9.591-0.71586 13.032-0.95645l6.2558-0.43747 1.8379 9e-3c1.6673 8e-3 1.7891 0.54924 1.6826 0.65577-1.6717 0.72637-3.5833 0.74062-5.4871 1.3182 0 0.20971 0.0335 0.23265 0.40232 0.27615 1.5926 0.17419 2.949 0.19896 4.2137 0.60867l1.0164 0.44972c0.28498 0.72747 0.18362 1.4336-0.0596 2.2558-2.2033 2.3173-5.2234 3.8231-7.6346 5.1487-4.7619 2.642-5.1391 2.8345-7.5952 3.8764-3.8979 1.3457-7.1375 1.1778-11.56 0.58612z" color="#000000" enable-background="accumulate" fill="#fff"/>
  <path d="m385.71-621.23c-1.4164-0.52563-3.1536-1.1443-3.8603-1.3748-1.4391-0.46937-1.2741-0.27701-1.6474-1.9196l-0.14031-0.61704-1.7748-0.44193c-2.0148-0.50165-1.9202-0.41051-1.9202-1.8508v-0.68196l-1.8866-0.27316c-1.0376-0.15027-2.0348-0.30152-2.216-0.33619l-0.3294-0.063v-2.3284l1.2134-2.5012c1.147-2.3644 1.2797-2.579 2.4256-3.9231 0.8946-1.0494 1.609-1.7327 2.7267-2.6081l1.5145-1.1862 1.1806 1e-3 1.1806 1e-3 0.20071 0.4779 0.20073 0.47792h3.3402l4.4751-1.4299c2.4613-0.78645 4.4785-1.4198 4.4828-1.4074 5e-3 0.0126 0.1302 0.45369 0.27996 0.98074 0.43878 1.5444 0.94748 2.4259 3.6639 6.3484l2.5715 3.7132 0.51412 0.0811c0.28277 0.0446 0.9094 0.085 1.3925 0.0897 0.48312 5e-3 0.86042 0.0577 0.83846 0.11709-0.022 0.0596-0.68289 0.81851-1.4687 1.6868-1.3573 1.4997-1.6 1.7028-4.8511 4.0607-2.8043 2.0338-3.8874 2.7382-5.9976 3.9003-1.4164 0.78008-2.7909 1.5407-3.0544 1.6904l-0.47912 0.27201-2.5753-0.95566z" color="#000000" enable-background="accumulate" fill="#e10000"/>
  <path d="m403.92-631.2c-3.6033 3.3201-7.2913 6.5869-11.749 8.6635-1.3703 0.61967-2.7334 1.6259-4.1669 1.9072-2.5662-0.94473-5.2343-1.832-7.5687-3.1742-1.8754-0.82042-4.0665 0.0126-6.0373 0.0852-19.31 2.2961-37.869 12.683-48.732 28.981-6.8024 10.049-10.366 22.269-9.7134 34.418 0.45812 15.118 7.7656 29.601 18.819 39.767 12.277 11.453 28.679 17.958 45.359 19.255 5.7135 0.25024 11.464 0.0359 17.162-0.43897 15.26-2.1247 30.452-8.3709 41.013-19.894 5.2448-5.612 9.191-12.421 11.557-19.719 0.65196-1.6427-1.4714-2.2405-2.4462-3.0541-1.0273-0.45654-2.0231-1.7517-3.2191-1.3625-1.3858 2.4085-1.8688 5.2689-3.1509 7.758-3.9696 8.8234-11.094 15.878-19.196 20.997-16.389 9.7775-36.954 11.594-55.174 6.3634-14.531-4.2201-27.96-13.48-35.712-26.715-5.335-8.9374-7.6649-19.504-6.566-29.88 1.0931-13.67 8.6366-26.359 18.968-35.087 7.9611-6.4747 17.566-11.174 27.666-13.096 6.6884-1.5334 13.737-1.5468 20.483-0.32192 0.99272 0.39553 2.3131 0.15968 2.8298 1.2727 1.4441 1.5336 3.3931 2.7538 5.5848 2.435 1.4359-0.17397 3.2274 0.36643 4.4319-0.56344 2.3854-4.3832 4.2505-9.0576 6.2436-13.633 0.40993-1.4951-1.6337-1.2521-2.5379-1.3401-0.72691-0.85953-0.16652-2.5188-0.87589-3.5186-1.0085-0.17684-2.2771-0.41982-3.2715-0.10476z" color="#000000" enable-background="accumulate" fill="none"/>
  <path d="m417.29-615.64-1.3549 2.6252-1.3126 2.6252 2.4982 1.482c13.867 8.175 23.901 22.389 27.437 38.827 0.66923 3.1112 1.5202 9.8626 1.5243 12.11 1e-3 0.72017-0.0537 0.70598 2.8792-0.0423l2.3711-0.59279 0.0847-1.609c0.13983-2.1543-0.76475-8.7538-1.8207-13.084-2.7368-11.222-7.8528-20.749-15.92-29.681-2.2142-2.6534-4.041-3.978-5.9702-5.5891-2.4124-2.0255-5.5096-4.178-8.7647-6.0972l-1.6513-0.97386zm-10.543-14.1c-0.11645 0.0774-0.35322 0.377-0.97385 0.38106-1.0569 6e-3 -1.7706 3.6798-2.1171 6.6476-0.59751 5.118-8.1122-0.99758-12.321 1.2702l-3.1333 1.6937-3.7684-1.482c-2.0831-0.81632-4.0125-1.6863-4.2765-1.9054-0.59435-0.49326-4.5358-0.20175-9.6116 0.71981-14.571 2.6455-26.719 8.9571-36.795 19.096-8.9491 9.0051-14.284 19.276-16.429 31.545-0.89248 5.1058-0.89406 12.935 0 18.165 4.0569 23.73 23.532 42.981 50.132 49.54 3.2419 0.79939 9.3979 1.8345 12.237 2.0324 4.2207 0.29428 12.153 0.12782 15.92-0.29639 6.099-0.68677 10.652-1.6546 16.429-3.599 17.873-6.0162 30.926-18.142 36.541-33.831 0.71054-1.9854 0.81073-2.5658 0.46576-2.7946-1.3916-0.92296-4.2911-2.6252-4.4459-2.6252-0.10017 0-0.59339 1.2573-1.1009 2.7946-1.993 6.0371-5.5986 11.978-10.331 16.979-8.5823 9.0684-19.66 14.713-34 17.318-4.7819 0.86868-15.928 1.0384-21.425 0.33873-13.006-1.6555-25.336-6.7734-34.339-14.269-10.602-8.8271-17.154-19.725-19.35-32.307-0.57593-3.2994-0.5692-12.665 0-15.92 1.9802-11.324 6.9004-20.793 15.116-29.004 8.7161-8.7108 19.179-14.204 32.264-16.979 3.9384-0.83518 5.0001-0.9099 11.136-0.88917 7.1452 0.0242 9.2071 0.23088 12.237 0.76215 1.1885 0.32911 2.3294 0.59226 3.218 1.2279 0.86908 0.62141-0.77647 1.4274 0.88917 1.609l5.0387 0.55044 2.4135-5.3351c1.3268-2.9348 2.7194-6.0268 3.0909-6.9017l0.67747-1.609-1.4396-0.0847-1.3973-0.12704-0.29639-1.7784c-0.1403-0.88681-0.13762-1.0089-0.25405-0.93151z" color="#000000" enable-background="accumulate"/>
  <path d="m467.38-543.28c-3.8315 0.75472-7.7243 1.4138-11.514 2.2497 0.32135 0.41079 1.0743 0.32907 1.541 0.56174 3.8464 1.041 7.6902 2.1039 11.564 3.0354 0.37955-1.3443 0.64997-1.7148 1.0069-3.0656 0.99673 0.0973 2.1449-0.5878 3.0811-0.2305 5.7485 2.831 11.497 5.064 17.244 7.8965 0.77609 1.0216 1.5534 2.0422 2.332 3.0619 3.488 0.78246 6.9746 1.6974 10.466 2.3881 0.67618-1.9289 0.94624-3.9959 1.3764-5.9962 0.0286-0.45007 0.27896-0.99929 0.15074-1.4115-7.0562-2.8754-14.141-5.6865-21.145-8.6881-1.5939-0.62331-3.1678-1.4346-4.774-1.9427-3.7763 0.71376-7.5526 1.4275-11.329 2.1413z" color="#000000" enable-background="accumulate"/>
  <path d="m406.48-665.89c-0.75823 0.20723-1.3597 0.71774-1.8348 1.4188-0.28344 0.6825-0.64718 1.3383-0.87747 2.0386-0.22358 1.0205-0.5196 2.0368-0.51028 3.0911-0.23187 0.82714 0.0871 1.5827 0.48666 1.7722 0.80001 0.19149 1.4958 0.23526 2.2434 0.28091 0.27564-0.0404 0.55112-0.0822 0.82659-0.12388 0.48745-0.37578 0.32366-0.58595 0.92116-0.737 0.66703 0.38046 0.53257 0.77102 1.1254 1.4562 1.2931 0.22728 1.8126-0.26584 2.6045-0.20231 0.0689-0.36709 2.0371-0.22009 2.2224-0.61421 2.7253-1.2851 1.9939-1.6182 3.4141-3.277 1.3844-1.5357 3.3836-2.1375 3.955-3.1427-2.9449-0.34853-5.6051-0.85546-8.5151-1.4367-1.3976-0.28753-2.7869-0.65111-4.2035-0.80748-0.67857-0.12798-1.2758 0.14884-1.8581 0.28348z" color="#000000" enable-background="accumulate" fill="#e10000"/>
  <path d="m357.95-637.56c0.0536-1.8328-0.59729-6.1104-0.41106-8.6259l0.33859-4.5737 1.0932-3.3086 1.0932-3.3086-0.20285-1.011c-0.17678-0.88107-0.80477-0.95271-1.5263-2.6153-0.84719-1.9521-0.99464-2.1594-0.56289-3.8442 1.9938-2.5808 2.8663-3.4449 5.8868-3.4449 1.5075-2e-5 1.8742 0.0594 2.7679 0.44877 0.90659 0.50934 1.1877 1.4447 1.6512 2.3356l0.62099 1.8869 2.1045 1.2032c3.1191 1.7833 6.225 2.7776 10.671 3.4162l3.3735 0.48452 3.5414-0.48339 3.1521-0.99235c3.534-1.2277 4.2495-2.4319 6.1343-4.861l0.32935-1.5154c0.22136-1.0186 0.12877-2.1661 0.36744-3.2048 0.35951-1.565-5e-3 -1.1425-0.28887-2.4695-0.16029-0.74601 0.13131-1.9372 0.2019-2.0525 0.0706-0.11534 0.0487-1.0619 1.1932-1.7214 0.8812-0.50767 1.0463-1.5287 1.0237-1.5495-0.0226-0.0209-1.078-0.34205-2.3454-0.71389-2.2709-0.66624-2.3446-0.7035-5.0819-2.5689l-2.7776-1.8929-0.11139 0.64586c-0.0654 0.37929 0.0634 1.9742 0.31232 3.8644l0.18049 3.1577-0.12403 3.364c-0.0673 1.8267-0.41873 3.4311-0.48174 3.5874-0.063 0.15626 0.76917 4.5356-1.0402 4.4922l-6.0821-0.14568c-0.90447-1.6382 1.9789-2.029 2.051-3.6869 0.0709-0.33279 0.36718-2.5956 0.34781-5.8565-0.0381-6.3937-0.87287-6.8656 0.16337-11.674-1.3013-1.6132-3.2066-3.5733-2.9995-5.3249 0.16045-1.3579 0.51524-3.6521 2.6627-4.6584 2.6449-0.88739 4.5095-0.32778 6.0958 0.58362 0.31289 0.37873 0.96171 0.91493 1.4043 2.1564l0.80467 2.2572c0.4275 0.76252 0.91582 1.4034 2.2859 1.9227l3.533 0.80428c2.8524 0.64934 4.365 0.8873 7.8525 1.2353 6.8038 0.67893 6.8965 0.69769 8.1076 1.64 0.61033 0.47487 1.1766 1.0911 1.3937 1.5166 0.34135 0.66911 0.35177 0.79428 0.15674 1.8852-0.18842 1.0544-0.38798 1.4386-2.0432 3.9337l-1.8344 2.7652 1.4717 0.3364c0.80941 0.18501 4.5778 1.0102 8.3741 1.8338 3.7963 0.82354 6.9026 1.5389 6.9029 1.5896 3.3e-4 0.0507-0.46978 1.0586-1.5621 2.0327-0.94631 2.169-3.0223 3.2306-5.0296 3.3726-14.529-0.75407-17.62-5.0452-20.084 2.5667-1.7004 3.6535-4.3977 5.7762-6.7815 6.8346-3.2722 1.422-3.528 1.5026-7.599 2.3942-2.6686 0.58445-4.3761 1.0413-4.6584 1.2464-0.40587 0.29489-2.1923 2.0964-4.0637 4.098l-0.73436 0.78546 0.21278 0.95087c0.11709 0.52296-0.0428 2.3046 0.0588 2.3028 0.76796 2.0233 0.1593 0.97844-0.24533 1.9419-0.15279-0.0442-0.8575 1.053-1.9782 1.8484l-1.0399 0.73801-0.96239 1.4966c-0.71311 1.109-1.8426-2.2837-2.2228-2.8978-0.40813-0.65904-0.412-0.70303-0.29993-3.4162 0.0624-1.5117 0.0604-3.388-5e-3 -4.1694l-0.1185-1.4208-1.736-1.2208c-0.95481-0.67145-2.4813-1.5565-3.3922-1.9668-1.5298-0.68907-1.4304-0.39412-2.3404-0.299-0.88877 0.0929-0.92533 0.22006-1.4529 1.0569l-0.68278 1.0829-0.53082 5.1966c0.0864 3.3075 0.15948 6.9855 0.16228 8.1734l5e-3 2.7949c0.61717 1.2265-2.1862 1.153-5.0649 1.293-5.028-0.50309-0.64795-2.2706 0.41378-4.0587z" color="#000000" enable-background="accumulate" fill-opacity=".99543"/>
  <path d="m514.94-558.87h2.8444c5e-3 0 8e-3 0.0856 0.0111 0.17551l0.0528 2.0298c1e-3 0.0897-0.0575 0.0363-0.0637 0.0363h-2.8444c-5e-3 0-0.0111-0.0784-0.0111-0.1755v-1.8906c0-0.0972 5e-3 -0.17551 0.0111-0.17551zm-5.0339 30.667 10.061 1.2113c0.0232 3e-3 0.3122 1.4463 0.3347 1.5037l0.51112 1.2951c0.0227 0.0574-0.21053-0.0142-0.23353-0.0175l-10.671-1.7934c-0.0231-5e-3 -0.0532-0.0558-0.0686-0.11614l-0.46136-1.8104c-0.0158-0.0605 0.25557-0.31399 0.27355-0.2979zm21.105 2.321 58.743 6.6339c0.12656 0.0142 0.0921 0.30686 0.20204 0.24851l2.0942-1.1122c1.8394 0.78794-1.2885 4.1742-2.6345 3.7082l-58.743-6.6339c-0.12672-0.0142-0.15231-0.13446-0.20201-0.24851l-1.0546-2.4215c-0.0496-0.11376-0.23102-0.37553-0.10428-0.36158zm50.912-33.579 3.5467-8e-3c8e-3 -1e-5 0.10697 0.12846 0.14221 0.21862 0.22563 0.58016 0.71323 1.0256 0.93885 1.6057 0.0351 0.0901-0.81063 0.59293-0.81889 0.59293h-3.8087c-8e-3 0 0.0376-0.0983-0.0142-0.18867l-1.0479-1.8078s-0.56082-0.51796-0.32953-0.50304zm-55.548 0.33873h48.5c0.10444 0 0.14884 0.092 0.18868 0.18868l0.8982 2.1821c0.0398 0.0965-0.98234 0.039-1.0869 0.039h-48.5c-0.1046 0-0.18867-0.0842-0.18867-0.18867v-2.0324c0-0.10445 0.0842-0.18868 0.18867-0.18868z" color="#000000" enable-background="accumulate"/>
  <path d="m589.27-541.72c-0.17338 1.9061 0.67297 2.3855-0.14141 4.1417-3.2154 2.2744-5.9498 2.1244-6.7207 2.5961-3.1092 0.17607-1.3308-0.10981-4.3933 0.21047-0.0284 1.6129 1.471 3.7357 1.6514 5.335 3.2039-0.0352 0.5222 0.37396 3.7261 0.33873 0.86053 1.4012 2.0395 2.7417 2.7099 4.1918-0.13936 1.8426-0.56433 3.2635-0.49577 5.0977 1.3826 0.41021 3.0692 0.56651 4.5161 0.55469 1.173-0.41239 2.3692 0.10902 3.3471-0.57135-1.0299-3.3304-2.633-6.4518-4.6153-9.3152-1.1293-1.0009-0.0311-1.3951 0.93151-1.8207 2.1412-1.964 3.232-4.5341 5.9857-5.8744-0.18801-0.12403 2.325-1.4076 1.2202-2.1355 2.8492-0.38019 4.1656-2.8282 4.5228-5.5395-0.13004-1.4349 0.49697-2.9862 0.12735-4.3612 0.0177-3.0801-2.0015-6.2346-4.3188-7.7909-2.27-1.44-3.1308-1.7796-5.6315-1.2702-1.2717 0.25573-3.7149 0.82525-4.6152 1.863-1.296 0.6793-2.8228 2.5477-3.4091 3.0952" color="#000000" enable-background="accumulate"/>
  <g transform="matrix(1.5801 0 0 1.5801 -522.12 219.26)">
   <path d="m629.53-506.75c-0.383-0.33485-1.7597-2.0144-4.9474-6.0358-2.4292-3.0645-4.5132-5.7284-4.631-5.9198s-0.43775-0.70961-0.71099-1.1516l-0.4968-0.80361 0.25708-0.58296c0.1414-0.32062 0.25709-0.59411 0.25709-0.60775 0-0.0136-0.24767-0.11935-0.55038-0.23493-0.52063-0.19877-0.57421-0.24223-0.99098-0.80374-0.43665-0.58829-0.44192-0.60163-0.58754-1.4866-0.14088-0.85619-0.14173-0.92929-0.0207-1.7724l0.12622-0.8794 0.78428-0.47028c0.43135-0.25865 0.78428-0.4859 0.78428-0.505s-0.15925-0.2742-0.35388-0.5669c-0.23483-0.35315-0.32849-0.55756-0.27841-0.60763 0.0415-0.0415 0.32868-0.25971 0.63816-0.4849l0.56269-0.40944 0.37904 0.41007 0.37904 0.41006 0.35998-0.0871c0.19799-0.0479 0.37284-0.0728 0.38857-0.0554 0.0157 0.0174 0.49456 1.0892 1.0641 2.3818 0.91791 2.0832 1.34 2.9053 3.7173 7.2397l2.6818 4.8896 0.92423 2.388c0.64782 1.6738 1.0806 2.9388 1.4471 4.2298 0.28759 1.013 0.52288 1.8744 0.52288 1.9142 0 0.0399-0.26324 0.0709-0.58751 0.0692l-0.58752-3e-3 -0.53065-0.46394z" color="#000000" enable-background="accumulate" fill="#f00"/>
   <path d="m623.23-524.27-4.125 2.4375c0.033 0.0158 0.15625 0.0588 0.15625 0.0625 0 0.0136-0.1086 0.27313-0.25 0.59375l-0.28125 0.59375 0.5 0.78125c0.27324 0.442 0.60095 0.96486 0.71875 1.1562s2.1958 2.873 4.625 5.9375c3.1877 4.0213 4.5858 5.6964 4.9688 6.0312l0.53125 0.46875h0.5625c0.32427 2e-3 0.59375-0.0226 0.59375-0.0625 0-0.0398-0.24366-0.92448-0.53125-1.9375-0.36651-1.291-0.78968-2.545-1.4375-4.2188l-0.90625-2.375-2.6875-4.9062c-1.2264-2.2362-1.9153-3.5406-2.4375-4.5625z" color="#000000" enable-background="accumulate" fill="#fff"/>
  </g>
  <g transform="matrix(1.5801 0 0 1.5801 -547.81 135.69)">
   <path transform="translate(18.861 -816.47)" d="m650.66 341.97c-0.0662-0.0254-0.14045 0.0543-0.21875 0.25-0.0948 0.23692-0.39242 0.57379-1.4375 1.4688-0.97383 0.83394-1.4043 1.2238-1.5312 1.4688-0.27324 0.52735-0.58663 1.5751-0.78125 2.5938-0.16898 0.88433-0.18103 0.9233-0.40625 1.0625-0.20638 0.12754-0.26671 0.25613-0.40625 0.8125-0.13912 0.55338-0.17843 0.71925-0.125 0.875 4e-3 0.0107-5e-3 0.0208 0 0.0312l7.625 3.625c-0.0955-0.0668-0.0336-0.21142 0.1875-0.96875 0.17323-0.59334 0.18311-0.61155 0.40625-0.59375 0.25832 0.0205 0.2858-0.0229 0.375-1 0.0356-0.39022 0.10524-0.72041 0.34375-1.25 0.89639-1.9904 1.0638-3.4913 0.53125-4.9062-0.23702-0.6297-0.76779-1.4432-1.2188-1.8438-0.36179-0.32131-1.3244-0.84375-1.5625-0.84375-0.0993 0-0.1073-0.0673-0.125-0.3125l-0.0312-0.3125-0.75-0.0625c-0.41342-0.0294-0.8186-0.0722-0.875-0.0937zm2.7188 12.188 0.34375 0.1875c-0.029-0.0455-0.0855-0.0895-0.1875-0.125-0.0644-0.0225-0.12442-0.0402-0.15625-0.0625z" color="#000000" enable-background="accumulate" fill="#7e827e"/>
   <path d="m664.63-466.17c0.0237 0.0544-0.0704 0.0861-0.0228 0.15297l0.15625 0.21875-0.1875 0.5c-0.2272 0.58132-0.347 0.71875-0.65625 0.71875-0.15733 0-0.23035 0.0535-0.28125 0.1875-0.0383 0.10063-0.71788 2.2699-1.5 4.8438l-1.4062 4.6875 0.125 0.875c0.21949 1.4901 0.72003 3.2282 1.4688 5.125 0.36165 0.91617 0.69174 1.3479 1.25 1.5625 0.44387 0.17057 1.2181 0.18035 3.2188 0.0937l1.125-0.0312 0.34375-1.1875c0.18075-0.64457 0.35505-1.1679 0.40625-1.1875 0.0732-0.0281 0.87501 0.1585 1.5312 0.375 0.0905 0.0299 0.42745-0.7663 0.34375-0.8125-0.0266-0.0147-0.42678-0.13083-0.875-0.25-0.44821-0.11917-0.81326-0.228-0.8125-0.25 2e-3 -0.0673 2.0965-6.5965 2.125-6.625 0.0146-0.0146 0.4949 0.0637 1.0312 0.1875 0.53636 0.12388 0.9812 0.2063 1 0.1875 0.0719-0.0719 0.26425-0.8912 0.21875-0.9375-0.0263-0.0268-0.46098-0.15208-0.96875-0.28125-0.68604-0.17452-0.92975-0.26475-0.90625-0.34375 0.46989-1.5785 1.1554-3.9344 1.1562-4 1.5e-4 -8e-3 -0.026-0.022-0.0312-0.0312l-0.21875-0.125c-0.0644-0.0225-0.0932-0.0402-0.125-0.0625l-7.4567-3.5516z" color="#000000" enable-background="accumulate" fill="#cfd2ce"/>
  </g>
  <path d="m558.23-548.69c-11.165 2.1286-22.414 3.8648-32.871 5.111-0.0493 1.1454-0.0665 2.2922-0.098 3.4382 5.2531 0.14995 10.511 0.46475 15.756 0.64848 12.096-3.6732 25.48-6.9904 36.269-9.8567 0.2065-0.16377 0.9142-0.0466 0.77288-0.44202-0.18782-0.53745-0.10902-1.307-0.76607-1.4901-0.52374-0.29289-1.023-0.68312-1.6584-0.54793-1.2276 5e-3 -2.4653-0.088-3.6559 0.27624-4.5832 0.95429-9.1664 1.9086-13.75 2.8629z" color="#000000" enable-background="accumulate"/>
  <path d="m550.12-682.99c-0.049-6e-3 -0.0727 0.025-0.098 0.0493-0.098 0.0975-0.20177 1.3908-0.2468 2.8638l-0.0996 2.6663-4.592 13.579c-2.5147 7.4444-4.6763 13.598-4.7895 13.727-0.11219 0.12846-0.74342 0.2764-1.432 0.34564-1.1847 0.11913-1.2239 0.15916-1.2838 0.8394-0.17207 1.9551-0.33166 2.283-1.2838 2.9132-0.65951 0.43635-0.93824 0.79003-0.93808 1.185 0 0.31189-0.12008 0.59252-0.24696 0.59252-0.12798 0-13.521-1.2827-29.774-2.8638s-29.834-2.8638-30.12-2.8638c-0.47654 0-0.31443 0.301 1.3826 3.7032 1.4083 2.8234 1.9278 3.7033 2.2715 3.7033 0.24807 0 12.833 1.1019 27.947 2.4195s27.53 2.3701 27.602 2.3701c0.0711 0 0.21599 0.33878 0.29626 0.74065 0.11534 0.57514-0.66015 2.91-3.6539 10.962-2.092 5.6261-3.9803 10.55-4.1476 10.912-0.20098 0.43562-0.48018 0.6419-0.83932 0.6419-0.43546 0-0.60832 0.22599-0.98754 1.2344-3.1419 8.3544-2.9861 7.9172-2.6665 8.6903 0.16607 0.40137 0.28552 0.88865 0.29642 1.0863 0.0348 0.64961-15.918 47.306-16.344 47.797-0.27952 0.32219-0.37527 0.7257-0.29626 1.2344 0.0932 0.60604-0.11693 1.0637-0.93808 2.2713l-5.1352 9.6285c-0.098-0.0431-0.19862-0.0552-0.29642-0.0988-2.3489-1.5835-4.6596-3.1611-7.0113-4.7402l-3.1848 0.27158c-1.0591 0.22218-2.153 0.73607-3.1849 1.0122 0.69127 1.2632 1.4854 2.4713 2.222 3.7033 1.8047 1.1789 3.9222 1.8639 5.8758 2.7651 3.6777 1.5951 7.4517 2.9826 11.11 4.592-0.50388 2.6588-1.0735 5.3539-1.827 7.9496-2.5295-0.22288-5.0494-0.89391-7.5547-1.3332-0.38395 0.0111-0.9692-0.36174-1.2836-0.19751 0.0442 0.63812 0.12482 1.2808 0.79003 1.4072 1.9123 0.92953 4.1423 1.6674 6.2708 1.9504 1.1397 0.16695 2.323 0.65915 3.4071 0 1.3254-0.55755 2.6417-1.182 3.9501-1.7776 0.0885-1.2989-0.11218-2.6305 0.14853-3.9008 10.191-1.0348 20.428-1.8689 30.663-2.5182 11.56-0.73328 22.039-2.101 35.057-3.0614 3.5784-0.30457 11.437-0.90302 13.776-1.1357 0.0964-1.6212 0.20873-2.6404 0-3.5058-1.4851-2.7027-10.141-21.242-14.714-30.218-7.6737-14.937-13.525-27.61-13.529-27.651 0-0.0408 0.59205-0.1106 1.3332-0.1975l1.3826-0.14806 0.83696-0.50223c0.38838-0.42112 0.90237-0.76954 1.4342-1.4235-0.30495-0.79246-0.28235-0.98652-0.98753-0.79003 0.0806-0.30141-2.6186-4.8856-4.2957-6.419 0.80994-0.35498 1.5586-0.7017 2.0245-0.88878l1.7776-0.74065 0.098-2.5676c0.0648-2.4257 0.0348-2.5182-0.44431-2.5182-0.27445 0-1.4181-0.65589-2.5676-1.4813-1.1495-0.82543-2.6019-1.8376-3.2094-2.222-0.96241-0.60883-1.1757-0.85729-1.432-1.9257-0.456-1.901-0.31522-2.0862 1.5306-2.617l0.79003-0.88878-0.049-0.59252c0.0806-1.0163 0.5162-0.92778-0.79003-1.5307-0.49424 1e-3 -0.66615 0.0679-1.3332 0.14805-1.1476 0.13794-1.2637 0.24382-1.8762 1.3332-0.35614 0.63329-0.97821 1.3879-1.3826 1.7282l-0.74073 0.6419-0.69127-0.54315c-0.38095-0.2973-2.7766-3.8669-5.2832-7.9003-4.2551-6.8469-4.4934-7.3765-4.4934-8.4434 0-1.1866 0.30352-1.879 1.8269-3.9995l0.79002-1.0863 1.185 0.24689c1.949 0.38531 2.184-0.10065 1.6295-3.1107l-0.29626-1.4813h-1.3826c-0.76791 0-1.3826-0.17018-1.3826-0.29626 0-0.12609 1.4826-4.2537 3.3083-9.2334 1.8258-4.9797 3.9032-10.763 4.592-12.838l1.2343-3.802h1.9751c1.5801 0 2.0593-0.0498 2.1726-0.34564 0.0995-0.26262-0.0774-0.46231-0.59252-0.6419-0.4914-0.17132-0.68274-0.35691-0.59252-0.59252 0.0743-0.1927 0.14852-0.47153 0.14852-0.59252 0-0.12103 0.53643-0.1975 1.2343-0.1975h1.284l-0.14852-1.6295c-0.0537-0.88939-0.0679-1.6439-0.098-1.6788-0.0316-0.0349-1.7498-0.2853-3.7526-0.54315-2.2581-0.25434-3.5155-0.90856-5.3327-1.6294zm-8.1472 51.697 6.3202 12.69c3.4649 6.9833 5.8512 12.685 5.8838 12.685 0.13747 0.37724 5.2689 11.676 7.4481 16.892l3.9994 9.5791 17.677 37.724c-22.202 1.6661-44.884 5.0199-65.572 4.987-3.101-0.59078-6.2768-1.013-9.1841-2.3207-0.36388-0.14805-0.72113-0.29814-1.0863-0.44439 0.66615-1.3898 3.838-8.526 4.5426-11.406 1.3325-5.4447 1.4755-5.7731 2.2713-6.5671 0.80425-0.80222 1.1013-1.7667 7.061-21.479l6.2213-20.59 1.037-0.0987 0.98754-0.0493 1.58-4.9377c1.3164-4.0583 1.5767-5.0156 1.3826-5.5302-0.19671-0.52109 0.30448-2.3036 2.9132-10.665 3.4499-11.058 3.093-10.388 5.2834-10.418z" color="#000000" enable-background="accumulate"/>
  <path d="m379.01-556.1v-2.5261l1.455-0.81722 1.455-0.81724 13.357-30.887c7.3464-16.988 14.998-34.556 17.004-39.04l3.6474-8.1528 4.9578-2.6012c8.1707-4.2869 10.37-5.5871 12.264-7.2496 0.9882-0.86734 2.6757-2.1555 3.75-2.8626l1.9532-1.2856h6.4034l1.3524 4.0726 1.3524 4.0726h-11.654l-2.5247 0.97843-2.5247 0.97844-1.0902 1.7492c-0.59963 0.96208-1.086 1.9502-1.0808 2.1958 5e-3 0.24559 0.19771 1.3629 0.42787 2.4828l0.41848 2.0363 23.282 29.54 23.282 29.54-0.77141 1.1677-0.77145 1.1677-1.9794 0.29509c-1.0887 0.16231-2.0738 0.41229-2.1892 0.55552-0.11535 0.14331-0.35654 0.78668-0.53596 1.4298-0.17941 0.6432-0.43401 1.1323-0.56577 1.087-0.13177-0.0453-11.388-12.191-25.015-26.99-13.626-14.799-24.853-26.823-24.949-26.72-0.0958 0.10302-7.5161 14.405-16.49 31.782l-16.315 31.594v5.1446l-1.1379 0.14015c-0.62586 0.0771-2.4046 0.21348-3.9528 0.30299l-2.8148 0.16278v-2.5262z" color="#000000" enable-background="accumulate"/>
  <path d="m561.1-599.24c8.0772 13.416 17.37 27.896 25.528 41.263 0.28149 0.44597 0.82597-0.30222 1.1912-0.32424 0.4834-0.29342 1.1516-0.45759 1.4814-0.92223-8.285-13.377-16.653-28.084-25.006-41.418 0.622-0.8781-1.9309 1.3581-3.1947 1.4017z" color="#000000" enable-background="accumulate"/>
  <path d="m525.44-542.36c-0.0493 1.1454-0.14062 1.0824-0.17202 2.2285 5.2531 0.14995 10.528-0.0939 15.774 0.0899 12.018-3.5404 25.194-6.7326 36.005-9.5944 0.86391-0.22836 0.846-0.37773 0.32775-1.3396-1.9341-0.34707-3.0092 0.0955-4.7208 0.35677-15.13 3.0742-32.774 6.4424-47.214 8.2589z" color="#000000" enable-background="accumulate" fill="#eeeb00"/>
  <path d="m438.85-652.35-1.9257 1.2838c-1.0743 0.70709-2.7644 1.9965-3.7526 2.8638l3.1601 3.9995h5.629l-0.0988-6.3202 3.9995-0.0493-0.59252-1.7776h-6.419z" color="#000000" enable-background="accumulate" fill="#eeeb00"/>
  <path d="m405.22-613.98c-3.3094 7.5891-5.6291 12.879-9.9247 22.812l-6.814 15.702 5.0189 0.1091c6.2095-13.324 13.79-26.762 19.948-38.623z" color="#000000" enable-background="accumulate" fill="#eeeb00"/>
  <path d="m426.95-615.12c4.5388 4.8593 10.806 11.643 17.726 19.158 13.626 14.799 24.853 26.914 24.985 26.96 0.13178 0.0454 0.41311-0.4431 0.59252-1.0863 0.17942-0.64318 0.4278-1.2886 0.54315-1.4319 0.11534-0.14323 1.0839-0.38084 2.1726-0.54314l1.9751-0.29626c0.73285-0.5356 0.3694-0.93166 0.53887-1.563-10.405-13.23-22.437-27.546-32.833-40.784z" color="#000000" enable-background="accumulate" fill="#eeeb00"/>
  <path d="m529.75-643.56-0.49377 5.3821" color="#000000" enable-background="accumulate" fill="#eeeb00"/>
  <path d="m546.71-667.43c-1.8465 5.7904-3.9194 11.135-5.8033 16.753 1.7837 0.33701 1.8653 0.43051 3.6307 0.8246 1.9588-5.8915 3.7738-10.694 5.7746-16.328-1.3736-0.37337-2.2818-0.75909-3.6019-1.249z" color="#000000" enable-background="accumulate" fill="#e7e8e8"/>
  <path d="m546.98-630.87-3.2095 2.1726c8.1423 15.524 15.679 32.578 21.874 47.451l2.9626-1.3332c-4.702-9.5223-7.8973-16.413-7.9003-16.442 0-0.0111 0.27388-0.0351 0.34564-0.0493l-3.4208-8.1709-0.65989-1.4224c-2.7653-5.3775-7.6507-14.207-11.296-19.827l2.2424-0.94664c-0.3275-0.51723-0.6005-0.89009-0.93815-1.4319z" color="#000000" enable-background="accumulate" fill="#eeeb00"/>
  <path d="m558.14-626.48c-0.49424 1e-3 -0.66607 0.0679-1.3332 0.14805-1.1476 0.13794-1.2639 0.24381-1.8763 1.3332-0.35614 0.63328-0.97821 1.3879-1.3825 1.7282l-0.65337 0.43242c-0.5389-0.36598-1.0501-0.75483-1.3711-1.1237 2.0924 5.5965 5.9597 10.61 7.4933 16.405-0.13067 0.26432 2.301 7.0584 2.7771 8.3823 0.12498-0.0142 0.10855-0.0332 0.24688-0.0493l1.3826-0.14805 0.8394-0.54315c0.38838-0.42111 0.90008-0.72862 1.4319-1.3826-0.30495-0.79246-0.28236-0.98652-0.98754-0.79002 0.0637-0.23809-1.8077-4.6742-2.0244-7.4065l1.5307-0.6419 0.0987-2.5676c0.0648-2.4257 0.0348-2.5182-0.44439-2.5182-0.27445 0-1.4181-0.65588-2.5676-1.4813-1.1495-0.82544-2.602-1.8376-3.2095-2.222-0.96241-0.60882-1.1756-0.85729-1.4319-1.9257-0.45601-1.901-0.31514-2.0862 1.5307-2.617l0.79002-0.88878-0.0493-0.59252c0.0806-1.0163 0.5162-0.92777-0.79003-1.5307z" color="#000000" enable-background="accumulate" fill="none"/>
  <path d="m577.21-539.62c-21.212 1.9492-39.404 4.8222-62.523 4.6449l-0.83941 3.6518c8.7385-0.83719 17.503-1.5671 26.268-2.1232 11.56-0.73329 22.039-2.101 35.057-3.0614 0.91078-0.0775 2.202-0.19153 3.5058-0.29626z" color="#000000" enable-background="accumulate" fill="#eeeb00"/>
  <path d="m475.24-649.93c-0.38853 0-0.20561 0.10669 0.74065 2.0244l53.361 5.3271 0.36117-2.167c-3.7792-0.35594-11.055-1.0281-24.343-2.3207-16.253-1.5811-29.834-2.8638-30.12-2.8638z" color="#000000" enable-background="accumulate" fill="#eeeb00"/>
  <path d="m525.75-614.38c-0.21803 0.13446-0.38119 0.44236-0.64189 1.1357-3.1419 8.3544-2.986 7.9172-2.6664 8.6903 0.16607 0.40137 0.28536 0.88866 0.29626 1.0863 4e-4 8e-3 -0.0458 0.17897-0.0493 0.19751l6.1721 3.6539 0.74065-0.0493 1.58-4.9377c1.3164-4.0583 1.5767-5.0156 1.3826-5.5302-0.0438-0.11597-0.0409-0.29295 0-0.59252z" color="#000000" enable-background="accumulate" fill="#eeeb00"/>
  <path d="m488.4-676.22c-5.0918-2.7266-5.799-3.2298-10.348-7.3631-4.6758-4.2489-4.9999-4.6303-7.6629-9.0176-1.5293-2.5196-2.9936-4.7967-2.8554-4.9591 4.5365-4.2967 11.302-7.7399 16.244-11.767-0.0417-0.0378-5.5278 0.58671-12.191 1.3878-6.6633 0.80104-12.419 1.3771-12.789 1.2801-0.58047-0.15184-1.2177 0.47272-1.2191-1.3161-5e-3 -1.9134 0.0485-3.6322-1.0246-4.9732l-3.2314 0.69585c-5.3495 1.152-9.0463 3.2956-16.713 9.691-1.677 1.3991-3.1446 2.4378-3.2613 2.3083-0.3692-0.40971-1.6233-4.5772-1.855-6.1643-0.12245-0.83852-0.88156-4.1926-1.687-7.4534-1.3526-5.4763-1.5497-6.0021-2.5819-6.8878-0.99654-0.85518-1.3007-0.93872-2.8114-0.77214-1.1818 0.13036-1.8345 0.39465-2.1588 0.87425-0.41699 0.61669-0.82661 0.68743-3.9808 0.68743-3.2105 0-3.5652 0.95546-3.0399-2.1391 0.19648-1.1576 0.31633-3.5435 0.4461-6.3963 0.0604-5.9626-0.36789-6.1931 0.263-8.1236l0.99197-5.8202c0.58127-3.4104 0.51028-6.7223 0.52235-8.859l0.0191-3.3879 2.4521-1.4022c2.0299-1.1608 3.152-1.5306 6.5176-2.148l3.5139-1.0466 1.7374-1.2058c1.426-0.98971 1.8854-1.8279 8.5786-4.9008 5.0898-3.2081 10.292-3.7821 16.093-4.5583 4.7849-0.64032 12.359-1.553 16.831-2.0282 4.4721-0.47521 9.5794-1.0894 11.35-1.3648 7.5603-1.1763 11.613-1.0966 18.866-1.5006 7.239-0.40322 5.0328-0.89139 12.974-2.5295 9.7606-0.24527 12.045 0.90462 18.007 3.7266 8.3414 3.9483 8.9899 4.3316 10.199 6.0281l0.6846 0.9605-1.6149 1.6396-0.69304 1.4623 5.1036 2.556 4.1817 2.7333 2.8059 3.4831c13.636 10.222 15.413 18.4 16.171 31.284 0.1915 5.2719-0.0632 8.4853-1.879 13.409-1.197 3.0759-13.136 6.8842-26.048 12.684-1.893 0.6066-4.2547 1.9374-5.0536 2.3855-1.4639 0.82111-3.1454 2.1206-5.7148 3.1208-1.1783 0.45869-7.6558 3.4054-15.287 7.3117-10.305 5.2753-13.773 6.8925-15.91 7.4192-2.244 0.55308-3.0957 0.96732-4.7638 2.317-1.1172 0.90395-2.1844 1.626-2.3716 1.6045-0.18712-0.0215-2.7996-1.356-5.8056-2.9656zm31.059-63.229c2.0958-4.6785 2.9614-4.1616 7.064-8.7942 3.2985-3.7245 5.446-5.4774 9.324-8.7665 1.7725-1.5034 2.0154-1.6278 4.7466-3.6949 0.93428-0.70712-1.3172-3.2804-1.9406-3.124-0.55495 0.13936-2.5718 2.1776-5.6319 5.6918-2.622 3.0112-6.4445 6.9793-8.4944 8.8181-2.3526 2.1104-4.4422 4.3593-5.6662 6.0983-1.821 2.587-1.9748 2.9615-2.5223 6.1429-0.83304 4.8402-0.85355 4.6883 0.52298 3.8761 0.96409-0.56883 0.78319-2.1971 2.5977-6.2476z" color="#000000" enable-background="accumulate" fill="#171834"/>
  <path d="m452.5-718.21c-7.7268 0.55412-14.437 5.945-21.034 11.505 9e-3 0.057 0.043 0.25253 0.0493 0.29627 0.2317 1.5871 1.4578 5.7624 1.8269 6.1721 0.11661 0.12956 1.5818-0.92165 3.2589-2.3207 7.6662-6.3954 11.389-8.5259 16.739-9.6778l2.9626-0.6419-1.5307-5.3327c-0.77497-0.0417-1.5168-0.054-2.2713 0z" color="#000000" enable-background="accumulate" fill="#ff1834"/>
  <path d="m538.66-763.84c0.62332-0.15642 2.86 2.4036 1.9257 3.1107-2.7313 2.0672-2.9677 2.1999-4.7402 3.7032-3.878 3.2892-6.0337 5.0646-9.3322 8.7891-4.1027 4.6325-4.965 4.1105-7.0609 8.7891-1.8145 4.0506-1.6529 5.6526-2.617 6.2215-1.3765 0.81217-1.3268 0.98883-0.49377-3.8514 0.54754-3.1814 0.69727-3.5357 2.5182-6.1227 1.2241-1.739 3.3257-4.0123 5.6783-6.1227 2.0499-1.8388 5.8708-5.8273 8.4928-8.8384 3.0601-3.5142 5.074-5.539 5.6289-5.6783z" color="#000000" enable-background="accumulate" fill="#979794"/>
  <path d="m474.22-702.66c-2.4135 1.623-5.4942 4.0158-7.4159 5.8358 3.0923 7.5044 10.889 16.242 21.087 20.893 3.0059 1.6096 3.6393 2.8161 6.014 2.8376 0.18835 2e-3 1.5654-0.86361 2.6826-1.7676 1.0535-0.85241 1.8065-1.3514 2.7651-1.7282l-15.577-13.574c-7.083-5.6648-6.7848-8.4906-9.5561-12.497z" color="#000000" enable-background="accumulate" fill="#ff1834"/>
  <path transform="matrix(1.1415 -.24495 .24495 1.1415 222.77 -269.81)" d="m279.21-347.03c11.426-0.0435 17.031-0.30663 30.587-0.76751 4.1473 1.5293 14.979 3.7101 19.081 4.7939-0.66201 3.561-2.5631 6.0119-5.1367 7.8603l-47.797-0.19932z" fill="#fff" fill-rule="evenodd" filter="url(#g)" opacity=".51852"/>
  <rect transform="matrix(1.476 -1.0777 1.1818 1.3926 71.21 -3.7392)" x="418.9" y="-175.43" width="25.622" height="4.193" color="#000000" enable-background="accumulate" fill="#fff" fill-rule="evenodd" filter="url(#h)" opacity=".57613"/>
  <rect transform="matrix(.95429 -.2266 .14905 2.6869 65.761 -197.91)" x="418.9" y="-175.43" width="25.622" height="4.193" color="#000000" enable-background="accumulate" fill="#fff" fill-rule="evenodd" filter="url(#i)" opacity=".69136"/>
  <rect transform="matrix(.76855 -.79199 1.8739 1.816 539.83 -88.106)" x="418.9" y="-175.43" width="25.622" height="4.193" color="#000000" enable-background="accumulate" fill="#f00" fill-rule="evenodd" filter="url(#b)" opacity=".57613"/>
  <rect transform="matrix(2.1409 -.24258 .18928 1.2487 -395.83 -450.65)" x="418.9" y="-175.43" width="25.622" height="4.193" color="#000000" enable-background="accumulate" fill="#f00" fill-rule="evenodd" filter="url(#b)" opacity=".57613"/>
  <rect transform="matrix(.86502 .35694 -.14954 .48468 135.51 -842.11)" x="418.9" y="-175.43" width="25.622" height="4.193" color="#000000" enable-background="accumulate" fill="#f00" fill-rule="evenodd" filter="url(#b)" opacity=".57613"/>
  <path d="m528.2-660.99c-4.7918-0.96151-13.897-4.0028-20.962-7.002-3.7552-1.594-6.9028-2.9621-6.9947-3.04-0.092-0.0779 0.12988-1.3275 0.49266-2.7769l0.65986-2.6352 1.1843-0.39092c0.65136-0.215 7.0243-3.3643 14.162-6.9985l12.978-6.6076 4.9894 0.22456c3.9225-0.22778 7.3842 0.62785 9.2006 2.18 1.2413 1.0686 2.4047 2.0825 2.5853 2.2533 0.27447 0.2596-0.77574 1.8501-6.4083 9.705-4.6339 6.4622-6.7397 9.5911-6.7464 10.024-5e-3 0.34636-0.46721 1.7078-1.0262 3.0254-0.7713 1.8182-1.1298 2.4047-1.4874 2.4334-0.25911 0.0209-1.4413-0.1569-2.6272-0.39484zm20.246-35.45c-2.4345-0.35193-4.1603-0.63774-4.1441-0.68627 0.0242-0.0725 20.563-9.1894 20.618-9.1522 0.0126 8e-3 -0.0795 0.2469-0.20214 0.53133l-0.22315 0.51716-5.4908 4.4166c-6.0498 4.8662-6.2188 4.9997-6.3175 4.986-0.0378-5e-3 -1.946-0.28094-4.2405-0.61262z" color="#000000" enable-background="accumulate" fill="#171834"/>
  <path d="m501.97-676.64-0.54314 0.1975-0.69127 2.617c-0.36279 1.4494-0.58573 2.7366-0.49377 2.8145 0.092 0.0779 3.2564 1.4179 7.0115 3.012 7.0651 2.9992 16.144 6.05 20.936 7.0115 1.1858 0.23794 2.4072 0.41587 2.6664 0.39501 0.35753-0.0288 0.71-0.6013 1.4813-2.4195 0.54758-1.2908 0.96478-2.5832 0.98753-2.9626l-31.354-10.665z" color="#000000" enable-background="accumulate" fill="#f00"/>
  <rect transform="matrix(1.5417 -.3459 .3785 1.5341 -286.04 343.23)" x="590.82" y="-447.5" width="12.226" height="2.3085" fill="#fff" fill-rule="evenodd" filter="url(#a)"/>
  <rect transform="matrix(.65112 -.22054 -.078885 2.091 58.835 512.16)" x="590.82" y="-447.5" width="12.226" height="2.3085" fill="#f00" fill-rule="evenodd" filter="url(#a)"/>
  <rect transform="matrix(.50757 -.33203 .12461 1.4725 250.29 301.24)" x="590.82" y="-447.5" width="12.226" height="2.3085" fill="#fff" fill-rule="evenodd" filter="url(#a)"/>
  <path d="m547.69-687.32c-0.55055-0.57331-1.3631-1.3318-1.8055-1.6857-3.9508-1.9554-8.5679-1.6413-11.349-1.6906-2.3875-0.19662-1.435-0.0916-2.9009-0.19014-0.33498-0.29054 2.5915-1.0048 5.0731-2.8099 1.2585-0.78093 1.9221-0.89543 3.0869-0.9253 1.7008 0.0899 2.5651 0.18793 3.8865 0.7046 2.4933 0.74984 4.3251 2.4616 5.4035 3.4801 1.1855 1.1202 2.702 2.6446 3.3702 3.3876 1.4825 1.6487 3.3772 3.2565 5.791 4.9143 1.0564 0.72553 1.0648 0.70472-0.29904 0.74221-3.8465-0.19469-7.7836-3.3868-10.257-5.9273z" color="#000000" enable-background="accumulate" fill="#252625" filter="url(#filter4218-3)"/>
  <g transform="matrix(1.5801 0 0 1.5801 -286.04 343.23)" fill-rule="evenodd">
   <rect transform="matrix(.27737 .96076 -.95467 .29767 -98.04 -1023.3)" x="590.82" y="-447.5" width="12.226" height="2.3085" fill="#fff" filter="url(#a)"/>
   <rect transform="matrix(.17896 .55581 -.61594 .17221 112.43 -836.32)" x="590.82" y="-447.5" width="12.226" height="2.3085" fill="#f00" filter="url(#a)"/>
  </g>
  <rect transform="matrix(.98992 1.2315 -1.2103 1.0158 -574.88 -857.07)" x="590.82" y="-447.5" width="12.226" height="2.3085" fill="#fff" fill-rule="evenodd" filter="url(#a)"/>
  <rect transform="matrix(.58004 .71748 -.80995 .6043 -149.43 -731.59)" x="590.82" y="-447.5" width="12.226" height="2.3085" fill="#f00" fill-rule="evenodd" filter="url(#a)"/>
  <path d="m405.57-737.09c-0.3926-0.0498-0.66882-0.14995-0.81372-0.29484-0.17687-0.17687-0.16766-0.28397 0.0439-0.5101 0.22516-0.24071 0.23132-0.3704 0.0269-0.56405-0.37958-0.35942-0.58148-0.40137-2.1227-0.44106-1.5931-0.0411-2.6966-0.16119-3.1107-0.33879-0.48641-0.41529-0.3051-0.52886-0.22383-1.1321 0.054-0.76267 0.0893-0.85263 0.45057-1.1523 0.91404-1.0767 5.3566-1.4264 6.7265-0.70232 0.35695 0.14632 1.2358 0.98473 1.4742 1.2852 0.46923 0.59117 0.27994 2.7668 0.20423 3.2206-0.0427 0.2551-0.0583 0.28688-0.17232 0.34578-0.3263 0.16873-0.94345 0.27978-1.6713 0.30073-0.30392 9e-3 -0.66915 8.7e-4 -0.81162-0.0169z" color="#000000" color-rendering="auto" enable-background="accumulate" fill="#e32a1c" fill-opacity=".32367" filter="url(#filter4218-3)" image-rendering="auto" opacity="1" shape-rendering="auto" solid-color="#000000" style="isolation:auto;mix-blend-mode:normal"/>
  <path d="m415.56-752.27c-0.2051 1.6362-0.1182 3.3893-0.1559 5.0352-0.286 4.4848-0.5098 8.1782-1.0905 12.595-0.3179 2.5818-0.8106 5.2791-1.0279 7.8601 0.065 2.1931-0.1027 4.0927 0.1532 6.4317 0.7436 0.2723 0.7808 0.20114 1.5566 0.25 0.3124-3.1259 0.685-4.9424 0.6465-6.8359 0.1021-2.231 0.026-4.9335 0.087-7.5579 0.8669-4.8059 1.8493-10.257 1.8382-14.66 0.067-1.5878 0.0755-3.7279 0.1055-5.3131-0.048-0.53486-1.3185 0.53155-1.6784 0.68176-0.8104 0.15371-0.26235 0.62548-0.43395 1.5137z" color="#000000" enable-background="accumulate" fill="#ff1834"/>
 </g>
</svg>
