<?xml version="1.0" encoding="UTF-8"?>
<svg viewBox="0 0 744.09447 1052.362179" xmlns="http://www.w3.org/2000/svg">
 <defs>
  <linearGradient id="a" x2="0" y1="455.75" y2="502.85" gradientUnits="userSpaceOnUse">
   <stop stop-color="#eee" offset="0"/>
   <stop stop-color="#eee" stop-opacity="0" offset="1"/>
  </linearGradient>
  <linearGradient id="b" x1="202.14" x2="207.05" y1="495.98" y2="611.77" gradientUnits="userSpaceOnUse">
   <stop stop-color="#390" offset="0"/>
   <stop stop-color="#015a01" offset="1"/>
  </linearGradient>
 </defs>
 <g transform="matrix(1.048 -.7888 .7888 1.048 -153.92 -65.132)">
  <path d="m-215.57 323h31.181v283.34h-31.181z" fill="#015a01"/>
  <path d="m-109.09 561v41.344c-15.669 32.751-55.439 32.953-76.578 0.94216-6.2664-9.489-19.169 4.8888-29.995 2.7006 22.03 102.81 138.16 45.385 137.76-3.6428v-41.344z" fill="#015a01"/>
  <path d="m-129.2 536.82h18.875c-3.3846 17.214 31.97 24.92 33.999 0h13.877s7.0324 22.804 0 29.836c-15.734 15.734-51.018 15.734-66.752 0-7.0324-7.0324 0-29.836 0-29.836z" fill="#cccccf"/>
  <path d="m-204.69 641.6 28.448-32.958 3.4693 9.3671 9.3671-7.6325 3.8162 11.449 9.0202-3.8162 6.5917 5.5509 5.5509-6.5917 7.9794 6.5917 1.3877-9.3671 5.5509 4.857v-10.408l9.0202 1.0408-2.7754-9.3671 7.9794 2.0816 30.877 5.204 5.5509 10.408-7.6325 3.1224-1.0408 11.796-7.9794 1.3877-4.1632 17.693-5.204-9.714-7.2855 19.081-9.0202-8.3263-5.5509 15.265-9.714-7.6325-4.857 14.571-7.6325-11.796-2.7754 12.836-9.0202-10.755-5.204 11.102-3.4693-14.224-6.2448 12.836 1e-5 -12.836-11.796 13.183-2.4285-17-12.489 11.449 4.1632-18.734-14.918 12.489z" fill="#cccccf"/>
  <path d="m-174.16 620.09-18.04 29.142" fill="none" opacity=".3172" stroke="#000" stroke-width="3.9"/>
  <path d="m-160.28 622.17-9.714 39.55" fill="none" opacity=".3172" stroke="#000" stroke-width="3.9"/>
  <path d="m-145.02 624.25 0.69387 37.468" fill="none" opacity=".3172" stroke="#000" stroke-width="3.9"/>
  <path d="m-116.57 651.31-6.9386-31.918 7.6325 33.305" fill="none" opacity=".3172" stroke="#000" stroke-width="3.9"/>
  <path d="m-114.49 612.45 24.979 20.816" fill="none" opacity=".3172" stroke="#000" stroke-width="3.9"/>
  <path d="m-215.1 280.1h31.224l5.5509 59.672h-45.101z" fill="#d40000"/>
  <path d="m-215.44 352.26h31.224l5.5509-13.183h-45.101z" fill="#980101"/>
 </g>
 <path d="m188.5 394.36c-90.899-0.0644-162.91 1.4004-162.91 64.75 0 67.573 79.885 148.79 181.31 90.5 104.14 59.651 178.62-22.927 178.62-90.5s-79.231-64.719-178.62-64.719c-6.2121 0-12.346-0.027-18.406-0.0312zm-65.312 19c41.555 0 74.562 12.778 74.562 47.781s-26.914 85.75-68.469 85.75-82-50.747-82-85.75 34.352-47.781 75.906-47.781zm166.62 0.28125c41.555 0 74.594 12.778 74.594 47.781s-26.914 85.75-68.469 85.75-82.031-50.747-82.031-85.75 34.352-47.781 75.906-47.781z" fill="#002b3d"/>
 <path d="m188 402.28c-90.899-0.06438-162.91 1.4004-162.91 64.75 0 67.573 79.885 148.79 181.31 90.5 104.14 59.651 178.62-22.927 178.62-90.5s-79.231-64.719-178.62-64.719c-6.2121 0-12.346-0.02696-18.406-0.03125zm-65.312 19c41.555 0 74.562 12.778 74.562 47.781s-26.914 85.75-68.469 85.75-82-50.747-82-85.75 34.352-47.781 75.906-47.781zm166.62 0.28125c41.555 0 74.594 12.778 74.594 47.781s-26.914 85.75-68.469 85.75-82.031-50.747-82.031-85.75 34.352-47.781 75.906-47.781z" fill="url(#b)"/>
 <path d="m195.01 470.29c0 35.705-26.908 87.467-68.463 87.467s-82.02-51.762-82.02-87.467 34.364-48.746 75.919-48.746 74.563 13.041 74.563 48.746z" fill="#0169c9" opacity=".6" stroke="#000" stroke-width="6.4638"/>
 <path d="m362.7 470.27c0 35.003-26.908 85.748-68.463 85.748s-82.02-50.745-82.02-85.748 34.364-47.788 75.919-47.788 74.563 12.785 74.563 47.788z" fill="#0169c9" opacity=".6" stroke="#000" stroke-width="6.4"/>
 <g transform="matrix(.78311 0 0 .78311 131.83 -104.68)">
  <path d="m-123.64 704.01c-22.352-10.201-23.549-53.645-28.457-91.258l-5.8876 43.176c-7.7396 50.946 16.664 65.158 25.513 97.145z" stroke="#000"/>
  <path d="m-156.84 686.34c-4.9857 0-9.0027 4.017-9.0027 9.0027v62.462c0 4.9857 4.017 9.0027 9.0027 9.0027h31.762c4.9857 0 9.0027-4.017 9.0027-9.0027v-62.462c0-4.9857-4.017-9.0027-9.0027-9.0027h-31.762zm27.564 11.784h2.0399c3.3945 0 6.1366 2.7253 6.1366 6.1198v42.535c0 3.3945-2.7421 6.1366-6.1366 6.1366h-2.0399c-3.3945 0-6.1198-2.7421-6.1198-6.1366v-42.535c0-3.3945 2.7253-6.1198 6.1198-6.1198zm-24.614 0.13487h1.5173c3.3945 0 6.1198 2.7253 6.1198 6.1198v42.535c0 3.3945-2.7253 6.1366-6.1198 6.1366h-1.5173c-3.3945 0-6.1198-2.7421-6.1198-6.1366v-42.535c0-3.3945 2.7253-6.1198 6.1198-6.1198z" fill="#390"/>
 </g>
 <g transform="matrix(-.78311 0 0 .78311 280.64 -104.83)">
  <path d="m-123.64 704.01c-22.352-10.201-23.549-53.645-28.457-91.258l-5.8876 43.176c-7.7396 50.946 16.664 65.158 25.513 97.145z" stroke="#000"/>
  <path d="m-156.84 686.34c-4.9857 0-9.0027 4.017-9.0027 9.0027v62.462c0 4.9857 4.017 9.0027 9.0027 9.0027h31.762c4.9857 0 9.0027-4.017 9.0027-9.0027v-62.462c0-4.9857-4.017-9.0027-9.0027-9.0027h-31.762zm27.564 11.784h2.0399c3.3945 0 6.1366 2.7253 6.1366 6.1198v42.535c0 3.3945-2.7421 6.1366-6.1366 6.1366h-2.0399c-3.3945 0-6.1198-2.7421-6.1198-6.1366v-42.535c0-3.3945 2.7253-6.1198 6.1198-6.1198zm-24.614 0.13487h1.5173c3.3945 0 6.1198 2.7253 6.1198 6.1198v42.535c0 3.3945-2.7253 6.1366-6.1198 6.1366h-1.5173c-3.3945 0-6.1198-2.7421-6.1198-6.1366v-42.535c0-3.3945 2.7253-6.1198 6.1198-6.1198z" fill="#390"/>
 </g>
 <path transform="matrix(1.2844 0 0 1 -29.915 -24.532)" d="m170.74 493.53a53.479 40.723 0 1 1 -106.96 0 53.479 40.723 0 1 1 106.96 0z" fill="url(#a)" opacity=".6"/>
 <path transform="matrix(1.2844 0 0 1 134.94 -23.06)" d="m170.74 493.53a53.479 40.723 0 1 1 -106.96 0 53.479 40.723 0 1 1 106.96 0z" fill="url(#a)" opacity=".6"/>
</svg>
