<?xml version="1.0" encoding="UTF-8"?>
<svg viewBox="0 0 531.49603 531.49603" xmlns="http://www.w3.org/2000/svg">
 <g transform="translate(0 -520.86)">
  <path d="m9.1794 594.44c21.115 0 42.23-16 63.346-16h8.8e-4c21.115 4.5e-4 42.23 16 63.345 16h8.8e-4c21.115-4.5e-4 42.23-16 63.345-16h8.8e-4c21.115 4.5e-4 42.23 16 63.345 16h8.8e-4c21.115-4.5e-4 42.23-16 63.345-16h8.8e-4c21.115 4.5e-4 42.23 16 63.345 16h8.8e-4c21.115-4.5e-4 42.23-16 63.345-16h8.8e-4c21.115 4.5e-4 42.23 16 63.345 16v23.166h-8.8e-4c-21.115-4.5e-4 -42.23-16-63.345-16h-8.8e-4c-21.115 4.4e-4 -42.23 16-63.345 16h-8.8e-4c-21.115-4.5e-4 -42.23-16-63.345-16h-8.8e-4c-21.115 4.4e-4 -42.23 16-63.345 16h-8.8e-4c-21.115-4.5e-4 -42.23-16-63.345-16h-8.8e-4c-21.115 4.4e-4 -42.23 16-63.345 16h-8.8e-4c-21.115-4.5e-4 -42.23-16-63.345-16h-8.8e-4c-21.115 4.4e-4 -42.23 16-63.345 16v-23.166" fill="#002154"/>
  <path d="m9.1794 635.64c21.115 0 42.23-16 63.346-16h7.9e-4c21.115 4e-4 42.23 16 63.345 16h7.9e-4c21.115-4e-4 42.23-16 63.345-16h7.9e-4c21.115 4e-4 42.23 16 63.345 16h7.9e-4c21.115-4e-4 42.23-16 63.345-16h7.9e-4c21.115 4e-4 42.23 16 63.345 16h7.9e-4c21.115-4e-4 42.23-16 63.345-16h7.9e-4c21.115 4e-4 42.23 16 63.345 16v23.166h-7.9e-4c-21.115-4e-4 -42.23-16-63.345-16h-7.9e-4c-21.115 4e-4 -42.23 16-63.345 16h-7.9e-4c-21.115-4e-4 -42.23-16-63.345-16h-7.9e-4c-21.115 4e-4 -42.23 16-63.345 16h-7.9e-4c-21.115-4e-4 -42.23-16-63.345-16h-7.9e-4c-21.115 4e-4 -42.23 16-63.345 16h-7.9e-4c-21.115-4e-4 -42.23-16-63.345-16h-7.9e-4c-21.115 4e-4 -42.23 16-63.345 16v-23.166" fill="#003380"/>
  <path d="m9.1794 676.83c21.115 0 42.23-16 63.346-16h7e-4c21.115 3.6e-4 42.23 16 63.345 16h7e-4c21.115-3.6e-4 42.23-16 63.345-16h7e-4c21.115 3.6e-4 42.23 16 63.345 16h7e-4c21.115-3.6e-4 42.23-16 63.345-16h7e-4c21.115 3.6e-4 42.23 16 63.345 16h7e-4c21.115-3.6e-4 42.23-16 63.345-16h7e-4c21.115 3.6e-4 42.23 16 63.345 16v23.166h-7e-4c-21.115-3.6e-4 -42.23-16-63.345-16h-7e-4c-21.115 3.5e-4 -42.23 16-63.345 16h-7e-4c-21.115-3.6e-4 -42.23-16-63.345-16h-7e-4c-21.115 3.5e-4 -42.23 16-63.345 16h-7e-4c-21.115-3.6e-4 -42.23-16-63.345-16h-7e-4c-21.115 3.5e-4 -42.23 16-63.345 16h-7e-4c-21.115-3.6e-4 -42.23-16-63.345-16h-7e-4c-21.115 3.5e-4 -42.23 16-63.345 16v-23.166" fill="#04a"/>
  <path d="m9.1794 718.02c21.115 0 42.23-16 63.346-16h6.1e-4c21.115 3.2e-4 42.23 16 63.345 16h6.2e-4c21.115-3.2e-4 42.23-16 63.345-16h6.2e-4c21.115 3.2e-4 42.23 16 63.345 16h6.2e-4c21.115-3.2e-4 42.23-16 63.345-16h6.2e-4c21.115 3.2e-4 42.23 16 63.345 16h6.2e-4c21.115-3.2e-4 42.23-16 63.345-16h6.2e-4c21.115 3.2e-4 42.23 16 63.345 16v23.166h-6.2e-4c-21.115-3.1e-4 -42.23-16-63.345-16h-6.2e-4c-21.115 3.1e-4 -42.23 16-63.345 16h-6.2e-4c-21.115-3.1e-4 -42.23-16-63.345-16h-6.2e-4c-21.115 3.1e-4 -42.23 16-63.345 16h-6.2e-4c-21.115-3.1e-4 -42.23-16-63.345-16h-6.2e-4c-21.115 3.1e-4 -42.23 16-63.345 16h-6.2e-4c-21.115-3.1e-4 -42.23-16-63.345-16h-6.1e-4c-21.115 3.1e-4 -42.23 16-63.345 16v-23.166" fill="#0054d4"/>
  <path d="m9.1794 759.21c21.115 0 42.23-16 63.346-16h5.3e-4c21.115 2.6e-4 42.23 16 63.345 16h5.3e-4c21.115-2.6e-4 42.23-16 63.345-16h5.3e-4c21.115 2.6e-4 42.23 16 63.345 16h5.3e-4c21.115-2.6e-4 42.23-16 63.345-16h5.3e-4c21.115 2.6e-4 42.23 16 63.345 16h5.3e-4c21.115-2.6e-4 42.23-16 63.345-16h5.3e-4c21.115 2.6e-4 42.23 16 63.345 16v23.166h-5.3e-4c-21.115-2.7e-4 -42.23-16-63.345-16h-5.3e-4c-21.115 2.6e-4 -42.23 16-63.345 16h-5.3e-4c-21.115-2.7e-4 -42.23-16-63.345-16h-5.3e-4c-21.115 2.6e-4 -42.23 16-63.345 16h-5.3e-4c-21.115-2.7e-4 -42.23-16-63.345-16h-5.3e-4c-21.115 2.6e-4 -42.23 16-63.345 16h-5.3e-4c-21.115-2.7e-4 -42.23-16-63.345-16h-5.3e-4c-21.115 2.6e-4 -42.23 16-63.345 16v-23.166" fill="#06f"/>
  <path d="m9.1794 800.4c21.115 0 42.23-16 63.346-16h4.4e-4c21.115 2.2e-4 42.23 16 63.345 16h4.4e-4c21.115-2.2e-4 42.23-16 63.345-16h4.4e-4c21.115 2.2e-4 42.23 16 63.345 16h4.4e-4c21.115-2.2e-4 42.23-16 63.345-16h4.4e-4c21.115 2.2e-4 42.23 16 63.345 16h4.4e-4c21.115-2.2e-4 42.23-16 63.345-16h4.4e-4c21.115 2.2e-4 42.23 16 63.345 16v23.166h-4.4e-4c-21.115-2.2e-4 -42.23-16-63.345-16h-4.4e-4c-21.115 2.2e-4 -42.23 16-63.345 16h-4.4e-4c-21.115-2.2e-4 -42.23-16-63.345-16h-4.4e-4c-21.115 2.2e-4 -42.23 16-63.345 16h-4.4e-4c-21.115-2.2e-4 -42.23-16-63.345-16h-4.4e-4c-21.115 2.2e-4 -42.23 16-63.345 16h-4.4e-4c-21.115-2.2e-4 -42.23-16-63.345-16h-4.4e-4c-21.115 2.2e-4 -42.23 16-63.345 16v-23.166" fill="#2a7fff"/>
  <path d="m9.1794 841.6c21.115 0 42.23-16 63.346-16h3.5e-4c21.115 1.7e-4 42.23 16 63.345 16h3.5e-4c21.115-1.7e-4 42.23-16 63.345-16h3.5e-4c21.115 1.7e-4 42.23 16 63.345 16h3.5e-4c21.115-1.7e-4 42.23-16 63.345-16h3.5e-4c21.115 1.7e-4 42.23 16 63.345 16h3.5e-4c21.115-1.7e-4 42.23-16 63.345-16h3.5e-4c21.115 1.7e-4 42.23 16 63.345 16v23.166h-3.5e-4c-21.115-1.8e-4 -42.23-16-63.345-16h-3.5e-4c-21.115 1.8e-4 -42.23 16-63.345 16h-3.5e-4c-21.115-1.8e-4 -42.23-16-63.345-16h-3.5e-4c-21.115 1.8e-4 -42.23 16-63.345 16h-3.5e-4c-21.115-1.8e-4 -42.23-16-63.345-16h-3.5e-4c-21.115 1.8e-4 -42.23 16-63.345 16h-3.5e-4c-21.115-1.8e-4 -42.23-16-63.345-16h-3.5e-4c-21.115 1.8e-4 -42.23 16-63.345 16v-23.166" fill="#59f"/>
  <path d="m9.1794 882.79c21.115 0 42.23-16 63.346-16h2.6e-4c21.115 1.3e-4 42.23 16 63.345 16h2.6e-4c21.115-1.3e-4 42.23-16 63.345-16h2.6e-4c21.115 1.3e-4 42.23 16 63.345 16h2.6e-4c21.115-1.3e-4 42.23-16 63.345-16h2.6e-4c21.115 1.3e-4 42.23 16 63.345 16h2.6e-4c21.115-1.3e-4 42.23-16 63.345-16h2.6e-4c21.115 1.3e-4 42.23 16 63.345 16v23.166h-2.6e-4c-21.115-1.3e-4 -42.23-16-63.345-16h-2.6e-4c-21.115 1.4e-4 -42.23 16-63.345 16h-2.6e-4c-21.115-1.3e-4 -42.23-16-63.345-16h-2.6e-4c-21.115 1.4e-4 -42.23 16-63.345 16h-2.6e-4c-21.115-1.3e-4 -42.23-16-63.345-16h-2.6e-4c-21.115 1.4e-4 -42.23 16-63.345 16h-2.6e-4c-21.115-1.3e-4 -42.23-16-63.345-16h-2.6e-4c-21.115 1.4e-4 -42.23 16-63.345 16v-23.166" fill="#80b3ff"/>
  <path d="m9.1794 923.98c21.115 0 42.23-16 63.346-16h1.8e-4c21.115 9e-5 42.23 16 63.345 16h1.8e-4c21.115-9e-5 42.23-16 63.345-16h1.8e-4c21.115 9e-5 42.23 16 63.345 16h1.8e-4c21.115-9e-5 42.23-16 63.345-16h1.8e-4c21.115 9e-5 42.23 16 63.345 16h1.8e-4c21.115-9e-5 42.23-16 63.345-16h1.8e-4c21.115 9e-5 42.23 16 63.345 16v23.166h-1.8e-4c-21.115-9e-5 -42.23-16-63.345-16h-1.8e-4c-21.115 9e-5 -42.23 16-63.345 16h-1.8e-4c-21.115-9e-5 -42.23-16-63.345-16h-1.8e-4c-21.115 9e-5 -42.23 16-63.345 16h-1.8e-4c-21.115-9e-5 -42.23-16-63.345-16h-1.8e-4c-21.115 9e-5 -42.23 16-63.345 16h-1.8e-4c-21.115-9e-5 -42.23-16-63.345-16h-1.8e-4c-21.115 9e-5 -42.23 16-63.345 16v-23.166" fill="#acf"/>
  <path d="m9.1794 965.17c21.115 0 42.23-16 63.346-16h8.8e-5c21.115 4e-5 42.23 16 63.346 16h9e-5c21.115-4e-5 42.23-16 63.346-16h9e-5c21.115 4e-5 42.23 16 63.346 16h9e-5c21.115-4e-5 42.23-16 63.346-16h9e-5c21.115 4e-5 42.23 16 63.346 16h9e-5c21.115-4e-5 42.23-16 63.346-16h9e-5c21.115 4e-5 42.23 16 63.346 16v23.166h-9e-5c-21.115-4e-5 -42.23-16-63.346-16h-9e-5c-21.115 5e-5 -42.23 16-63.346 16h-9e-5c-21.115-4e-5 -42.23-16-63.346-16h-9e-5c-21.115 5e-5 -42.23 16-63.346 16h-9e-5c-21.115-4e-5 -42.23-16-63.346-16h-9e-5c-21.115 5e-5 -42.23 16-63.346 16h-9e-5c-21.115-4e-5 -42.23-16-63.346-16h-8.8e-5c-21.115 5e-5 -42.23 16-63.346 16v-23.166" fill="#d5e5ff"/>
  <path d="m9.1794 553.25c21.115 0 42.23-16 63.346-16h9.7e-4c21.115 4.9e-4 42.23 16 63.345 16h9.7e-4c21.115-4.9e-4 42.23-16 63.345-16h9.7e-4c21.115 4.9e-4 42.23 16 63.345 16h9.7e-4c21.115-4.9e-4 42.23-16 63.345-16h9.7e-4c21.115 4.9e-4 42.23 16 63.345 16h9.7e-4c21.115-4.9e-4 42.23-16 63.345-16h9.7e-4c21.115 4.9e-4 42.23 16 63.345 16v23.166h-9.7e-4c-21.115-4.9e-4 -42.23-16-63.345-16h-9.7e-4c-21.115 4.9e-4 -42.23 16-63.345 16h-9.7e-4c-21.115-4.9e-4 -42.23-16-63.345-16h-9.7e-4c-21.115 4.9e-4 -42.23 16-63.345 16h-9.7e-4c-21.115-4.9e-4 -42.23-16-63.345-16h-9.7e-4c-21.115 4.9e-4 -42.23 16-63.345 16h-9.7e-4c-21.115-4.9e-4 -42.23-16-63.345-16h-9.7e-4c-21.115 4.9e-4 -42.23 16-63.345 16v-23.166" fill="#00112a"/>
 </g>
</svg>
