<?xml version="1.0" encoding="UTF-8"?>
<svg viewBox="0 0 403.85715 238.14285" xmlns="http://www.w3.org/2000/svg">
 <g transform="translate(-88.964 -177.22)">
  <path d="m340.91 177.72-251.44 105 82.844 132.16 320-186.44-151.41-50.719zm-0.21875 7.7812 130.81 44.094-290.84 166.12-72.906-111.31 232.94-98.906z" fill="#dde6dc" fill-rule="evenodd"/>
  <path d="m114.46 294.33 226.16-96.518 115.85 40.312-275.67 157.5-66.339-101.29z" fill="#51badc" fill-rule="evenodd"/>
  <path d="m89.464 282.72 82.857 132.14 320-186.43-151.43-50.714-251.43 105z" fill="none" stroke="#000"/>
  <path d="m107.86 284.33 232.77-98.75 130.8 43.929-15 8.6607-115.71-40.357-225.85 97.411-7.0089-10.893z" fill="#aac1a8" fill-rule="evenodd"/>
  <path d="m107.76 284.39 72.884 111.32 290.85-166.12-130.81-44.083-232.92 98.883z" fill="none" stroke="#000" stroke-width=".91079"/>
  <path d="m114.82 295.22 225.9-97.379 115.71 40.236" fill="none" stroke="#000"/>
  <path d="m340.72 198.06v-12.196" fill="none" stroke="#000"/>
  <path d="m342.81 310.33c0.38842 1.894 5.6644 1.2628 6.214-1.1439 1.0743-4.7046 2.6185-9.4752 2.6969-14.329 0.03603-2.2315-1.6545-4.4688-3.6466-5.3504-3.8773-1.716-7.9848-2.9743-12.046-4.2454-3.124-0.97772-6.448-1.614-9.6465-1.7168-4.7624 0.16775-6.4711 5.864-7.3081 10.059-1.5727 7.8831-3.2232 19.883-4.7455 27.78 1.3378 1.3178 5.065 1.3232 5.3106-0.87646 0.29029-2.5999 0.91078-9.1804 1.3951-11.761 1.0593-5.6439 1.8712-11.38 3.4207-16.891 3.391-5.5935 13.254-0.86211 17.999 0.9745 1.7026 0.65915 3.1771 2.3904 2.5722 4.7108-1.0808 4.146-2.9652 9.1312-2.2151 12.789z" fill="#b7b7b7" fill-rule="evenodd" stroke="#000"/>
  <path d="m324.13 321.36c0.38842 1.894 5.6644 1.2628 6.214-1.1439 1.0743-4.7046 2.6185-9.4752 2.6969-14.329 0.03603-2.2315-1.6545-4.4688-3.6466-5.3504-3.8773-1.716-7.9848-2.9743-12.046-4.2454-3.124-0.97772-6.448-1.614-9.6465-1.7168-4.7624 0.16775-6.4711 5.864-7.3081 10.059-1.5727 7.8831-3.2232 19.883-4.7455 27.78 1.3378 1.3178 5.065 1.3232 5.3106-0.87646 0.29029-2.5999 0.91078-9.1804 1.3951-11.761 1.0593-5.6439 1.8712-11.38 3.4207-16.891 3.391-5.5935 13.254-0.86211 17.999 0.9745 1.7026 0.65915 3.1771 2.3904 2.5722 4.7108-1.0808 4.146-2.9652 9.1312-2.2151 12.789z" fill="#b7b7b7" fill-rule="evenodd" stroke="#000"/>
  <path d="m295.05 341.11 29.062-16.359-1.7601-9.9684-27.627 16.034" fill="#dde6dc" fill-rule="evenodd"/>
  <path d="m294.09 330.92 28.686-16.384" fill="none" stroke="#000" stroke-width=".91079"/>
 </g>
</svg>
