<?xml version="1.0" encoding="UTF-8"?>
<svg viewBox="0 0 640 480" xmlns="http://www.w3.org/2000/svg">
 <g fill="#00f">
  <path d="m251.64 251.6c-6.8379 6.6258-16.062 9.2235-26.292 9.2235-12.987 0-24.808-5.3008-31.593-15.32-6.7318 10.231-18.606 15.32-31.752 15.32-12.987 0-24.702-5.4068-31.487-15.426-6.7324 10.337-18.606 15.426-31.911 15.426-9.5945 0-18.394-2.1736-25.02-8.0575l-5.0358-36.046c6.8914 9.1175 17.811 15.001 30.056 15.001 13.305 0 25.179-6.5198 31.911-16.856 6.7848 10.018 18.5 16.856 31.487 16.856 13.146 0 25.02-6.5198 31.752-16.75 6.7854 10.019 18.606 16.75 31.593 16.75 13.252 0 24.967-6.8379 31.646-17.174l-5.3538 37.053z"/>
  <path d="m378.64 252.6c-6.8379 6.6258-16.062 9.2235-26.292 9.2235-12.987 0-24.808-5.3008-31.593-15.32-6.7318 10.231-18.606 15.32-31.752 15.32-12.987 0-24.702-5.4068-31.487-15.426-6.7324 10.337-18.606 15.426-31.911 15.426-9.5945 0-18.394-2.1736-25.02-8.0575l-5.0358-36.046c6.8914 9.1175 17.811 15.001 30.056 15.001 13.305 0 25.179-6.5198 31.911-16.856 6.7848 10.018 18.5 16.856 31.487 16.856 13.146 0 25.02-6.5198 31.752-16.75 6.7854 10.019 18.606 16.75 31.593 16.75 13.252 0 24.967-6.8379 31.646-17.174l-5.3538 37.053z"/>
  <ellipse cx="257" cy="244" ry="11"/>
  <ellipse cx="258" cy="245" ry="5"/>
  <path d="m505.64 251.6c-6.8379 6.6258-16.062 9.2235-26.292 9.2235-12.987 0-24.808-5.3008-31.593-15.32-6.7318 10.231-18.606 15.32-31.752 15.32-12.987 0-24.702-5.4068-31.487-15.426-6.7324 10.337-18.606 15.426-31.911 15.426-9.5945 0-18.394-2.1736-25.02-8.0575l-5.0358-36.046c6.8914 9.1175 17.811 15.001 30.056 15.001 13.305 0 25.179-6.5198 31.911-16.856 6.7848 10.018 18.5 16.856 31.487 16.856 13.146 0 25.02-6.5198 31.752-16.75 6.7854 10.019 18.606 16.75 31.593 16.75 13.252 0 24.967-6.8379 31.646-17.174l-5.3538 37.053z"/>
 </g>
 <g fill="#007fff">
  <path d="m254.64 312.6c-6.8379 6.6258-16.062 9.2235-26.292 9.2235-12.987 0-24.808-5.3008-31.593-15.32-6.7318 10.231-18.606 15.32-31.752 15.32-12.987 0-24.702-5.4068-31.487-15.426-6.7324 10.337-18.606 15.426-31.911 15.426-9.5945 0-18.394-2.1736-25.02-8.0575l-5.0358-36.046c6.8914 9.1175 17.811 15.001 30.056 15.001 13.305 0 25.179-6.5198 31.911-16.856 6.7848 10.018 18.5 16.856 31.487 16.856 13.146 0 25.02-6.5198 31.752-16.75 6.7854 10.019 18.606 16.75 31.593 16.75 13.252 0 24.967-6.8379 31.646-17.174l-5.3538 37.053z"/>
  <path d="m381.64 313.6c-6.8379 6.6258-16.062 9.2235-26.292 9.2235-12.987 0-24.808-5.3008-31.593-15.32-6.7318 10.231-18.606 15.32-31.752 15.32-12.987 0-24.702-5.4068-31.487-15.426-6.7324 10.337-18.606 15.426-31.911 15.426-9.5945 0-18.394-2.1736-25.02-8.0575l-5.0358-36.046c6.8914 9.1175 17.811 15.001 30.056 15.001 13.305 0 25.179-6.5198 31.911-16.856 6.7848 10.018 18.5 16.856 31.487 16.856 13.146 0 25.02-6.5198 31.752-16.75 6.7854 10.019 18.606 16.75 31.593 16.75 13.252 0 24.967-6.8379 31.646-17.174l-5.3538 37.053z"/>
  <path d="m508.64 312.6c-6.8378 6.6258-16.062 9.2235-26.292 9.2235-12.987 0-24.808-5.3008-31.593-15.32-6.7318 10.231-18.606 15.32-31.752 15.32-12.987 0-24.702-5.4068-31.487-15.426-6.7324 10.337-18.606 15.426-31.911 15.426-9.5945 0-18.394-2.1736-25.02-8.0575l-5.0358-36.046c6.8914 9.1175 17.811 15.001 30.056 15.001 13.305 0 25.179-6.5198 31.911-16.856 6.7848 10.018 18.5 16.856 31.487 16.856 13.146 0 25.02-6.5198 31.752-16.75 6.7854 10.019 18.606 16.75 31.593 16.75 13.252 0 24.967-6.8379 31.646-17.174l-5.3538 37.053z"/>
 </g>
 <g fill="#0ff">
  <path d="m256.64 370.6c-6.8379 6.6258-16.062 9.2235-26.292 9.2235-12.987 0-24.808-5.3008-31.593-15.32-6.7318 10.231-18.606 15.32-31.752 15.32-12.987 0-24.702-5.4068-31.487-15.426-6.7324 10.337-18.606 15.426-31.911 15.426-9.5945 0-18.394-2.1736-25.02-8.0575l-5.0358-36.046c6.8914 9.1175 17.811 15.001 30.056 15.001 13.305 0 25.179-6.5198 31.911-16.856 6.7848 10.018 18.5 16.856 31.487 16.856 13.146 0 25.02-6.5198 31.752-16.75 6.7854 10.019 18.606 16.75 31.593 16.75 13.252 0 24.967-6.8379 31.646-17.174l-5.3538 37.053z"/>
  <path d="m382.64 370.6c-6.8379 6.6258-16.062 9.2235-26.292 9.2235-12.987 0-24.808-5.3008-31.593-15.32-6.7318 10.231-18.606 15.32-31.752 15.32-12.987 0-24.702-5.4068-31.487-15.426-6.7324 10.337-18.606 15.426-31.911 15.426-9.5945 0-18.394-2.1736-25.02-8.0575l-5.0358-36.046c6.8914 9.1175 17.811 15.001 30.056 15.001 13.305 0 25.179-6.5198 31.911-16.856 6.7848 10.018 18.5 16.856 31.487 16.856 13.146 0 25.02-6.5198 31.752-16.75 6.7854 10.019 18.606 16.75 31.593 16.75 13.252 0 24.967-6.8379 31.646-17.174l-5.3538 37.053z"/>
  <path d="m510.64 370.6c-6.8378 6.6258-16.062 9.2235-26.292 9.2235-12.987 0-24.808-5.3008-31.593-15.32-6.7318 10.231-18.606 15.32-31.752 15.32-12.987 0-24.702-5.4068-31.487-15.426-6.7324 10.337-18.606 15.426-31.911 15.426-9.5945 0-18.394-2.1736-25.02-8.0575l-5.0358-36.046c6.8914 9.1175 17.811 15.001 30.056 15.001 13.305 0 25.179-6.5198 31.911-16.856 6.7848 10.018 18.5 16.856 31.487 16.856 13.146 0 25.02-6.5198 31.752-16.75 6.7854 10.019 18.606 16.75 31.593 16.75 13.252 0 24.967-6.8379 31.646-17.174l-5.3538 37.053z"/>
 </g>
</svg>
