<?xml version='1.0' encoding='utf-8'?>
<svg xmlns="http://www.w3.org/2000/svg" width="297mm" height="210mm" version="1.1" style="shape-rendering:geometricPrecision; text-rendering:geometricPrecision; image-rendering:optimizeQuality; fill-rule:evenodd; clip-rule:evenodd" viewBox="0 0 29700 21000"> <defs> <style type="text/css">  .str0 {stroke:#373435;stroke-width:276.91} .str14 {stroke:#373435;stroke-width:50} .str9 {stroke:#373435;stroke-width:50} .str12 {stroke:#373435;stroke-width:50} .str2 {stroke:#373435;stroke-width:103.84} .str6 {stroke:#373435;stroke-width:39.99} .str5 {stroke:#373435;stroke-width:40} .str15 {stroke:#373435;stroke-width:40} .str16 {stroke:#373435;stroke-width:40} .str1 {stroke:#373435;stroke-width:55.38} .str3 {stroke:#373435;stroke-width:55.38} .str13 {stroke:#373435;stroke-width:25} .str4 {stroke:#373435;stroke-width:20} .str10 {stroke:#373435;stroke-width:20} .str17 {stroke:#373435;stroke-width:50;stroke-linecap:round} .str7 {stroke:#373435;stroke-width:20;stroke-linecap:round} .str11 {stroke:#373435;stroke-width:20;stroke-linecap:round} .str8 {stroke:#373435;stroke-width:20;stroke-linecap:round;stroke-linejoin:round} .fil0 {fill:none} .fil2 {fill:#FEFEFE} .fil6 {fill:#E6E7E8} .fil22 {fill:#A9ABAE} .fil20 {fill:#373435} .fil26 {fill:#201E1E} .fil23 {fill:#3F4EA1} .fil19 {fill:#5C1908} .fil21 {fill:#5C7700} .fil12 {fill:#60608A} .fil14 {fill:#6E0000} .fil1 {fill:#900000} .fil18 {fill:#91331B} .fil24 {fill:#915A12} .fil15 {fill:#AD4B4B} .fil25 {fill:#AD7328} .fil17 {fill:#C29D6D} .fil3 {fill:#D2D2F7} .fil10 {fill:#DCE0FA} .fil4 {fill:#EDEDFC} .fil13 {fill:#EDFAB1} .fil5 {fill:#EF4F25} .fil16 {fill:#F2C891} .fil9 {fill:#F5F6FF} .fil11 {fill:#FFD49C} .fil7 {fill:#373435;fill-rule:nonzero} .fil27 {fill:#373435;fill-rule:nonzero} .fil8 {fill:black;fill-rule:nonzero}  </style> </defs> <g id="Camada_x0020_1"> <metadata id="CorelCorpID_0Corel-Layer"/> <g id="_1101950544"> <rect class="fil0" width="29700" height="21000"/> <g> <rect class="fil1 str0" x="2010" y="3517" width="11082" height="14418"/> <rect class="fil2 str1" x="2455" y="4096" width="10192" height="13260"/> <path class="fil3 str2" d="M8076 2581c959,241 1670,1109 1670,2144 0,36 -1,73 -3,109l-4416 0c-2,-36 -3,-73 -3,-109 0,-1035 710,-1903 1670,-2144 -18,-56 -28,-115 -28,-177 0,-314 255,-569 569,-569 314,0 569,255 569,569 0,62 -10,121 -28,177zm-541 -397c121,0 220,99 220,220 0,122 -99,220 -220,220 -122,0 -220,-98 -220,-220 0,-121 98,-220 220,-220z"/> <path class="fil4 str3" d="M9740 4560c4,54 6,109 6,165 0,36 -1,73 -3,109l-4416 0c-2,-36 -3,-73 -3,-109 0,-56 2,-111 6,-165l4410 0z"/> <circle class="fil2" cx="5016" cy="6584" r="1205"/> <polygon class="fil5" points="4714,6252 5319,6252 5319,6697 5764,6697 5764,7302 5319,7302 5319,7747 4714,7747 4714,7302 4269,7302 4269,6697 4714,6697 "/> <rect class="fil6" x="6544" y="6030" width="4910" height="186"/> <rect class="fil6" x="6544" y="6605" width="4910" height="186"/> <rect class="fil6" x="6544" y="7180" width="4910" height="186"/> <rect class="fil6" x="6544" y="7755" width="4910" height="186"/> <rect class="fil6" x="3794" y="8394" width="7660" height="186"/> <rect class="fil6" x="3794" y="8969" width="7660" height="186"/> <rect class="fil6" x="3794" y="9544" width="7660" height="186"/> <rect class="fil6" x="3794" y="10119" width="7660" height="186"/> <rect class="fil6" x="3794" y="10687" width="7660" height="186"/> <rect class="fil6" x="3794" y="11262" width="7660" height="186"/> <rect class="fil6" x="3794" y="11837" width="7660" height="186"/> <rect class="fil6" x="3794" y="12411" width="7660" height="186"/> <rect class="fil6" x="3794" y="14765" width="7660" height="186"/> <rect class="fil6" x="3794" y="13078" width="7660" height="186"/> <rect class="fil6" x="3794" y="15431" width="7660" height="186"/> <rect class="fil6" x="3794" y="13653" width="7660" height="186"/> <rect class="fil6" x="3794" y="16006" width="7660" height="186"/> <rect class="fil6" x="3794" y="14228" width="7660" height="186"/> </g> <g> <path class="fil7" d="M10989 7516c0,2 0,728 -154,1254 -35,119 -76,253 -123,402 -173,554 -410,1313 -441,1754 -10,133 -16,234 -21,310 -5,82 -8,140 -10,180l-4 89 -99 -22c-7,52 -41,280 -79,542l105 9c-14,113 -31,226 -48,339 -13,89 -24,169 -33,231 -9,61 -15,103 -16,118 -8,68 18,133 18,133l4 10 1 12c0,1 15,166 54,203 53,51 448,269 450,270l21 12 11 23c0,0 23,52 113,79 68,21 102,-37 103,-37l90 -148 46 167c0,1 23,88 45,80 14,-5 33,-66 52,-151 34,-148 54,-350 63,-496 4,-60 -11,-135 -35,-215 -25,-83 -61,-171 -96,-250l-5 -9 1 0 -1 -1 0 0 -1 -2 0 0 -1 -4 -1 0c-9,-20 -18,-41 -28,-62l0 0 -5 -10 0 0 0 -1 0 0 -3 -6 0 1 -1 -3 0 0 -1 -3 0 0 -1 -1 0 -1 -2 -3 0 0 0 -1 -6 -13 0 0 -2 -3 0 0 -5 -10 0 0 -1 -3 0 -1 -1 -1 0 0 -2 -5 0 0 -3 -5c0,-1 -2,-4 -2,-5l0 -1 0 1 -2 -5 -1 0 -1 -3 0 0 -3 -7 0 0 0 -1 -4 -7 0 -1 0 0 -2 -3 0 0 0 -2 -1 0 0 -1 0 -1 -2 -3 0 0 0 0 0 0 -3 -7 0 0 -2 -4 0 0 -2 -3 0 0 -57 -123 120 10c5,-29 11,-63 19,-102 17,-82 41,-189 71,-313l-105 -23c23,-89 45,-178 67,-268l1 0c37,-145 75,-290 115,-435l0 0c29,-107 59,-214 89,-321l0 0 1 -2 0 0 11 -38 0 0c21,-74 43,-147 65,-221l0 0 11 -34 0 0 0 -2c10,-33 21,-66 31,-99l0 -1 10 -30 -1 0 1 -1c8,-25 16,-50 24,-75l1 0 4 -12c-1,0 9,-28 9,-30 46,-133 96,-290 146,-463 44,-151 90,-319 135,-499l142 -565 5 583c1,109 0,209 -3,295 -3,90 -9,166 -18,226 -22,146 -54,296 -89,461 -89,415 -199,931 -214,1728 -8,365 -18,717 -27,1060 -22,739 -42,1438 -29,2121 46,11 96,21 150,31 75,13 159,27 250,39l63 9 73 3463 273 390 -98 9c-87,73 -632,537 -708,615 -55,57 -23,183 -23,183l9 34 -60 83 -6 -4c-5,16 -7,31 3,35l1 0c4,2 137,29 311,60 107,19 230,40 349,57l42 6c87,12 168,21 234,25 52,3 92,4 112,-1 66,-14 162,-133 256,-249 93,-115 184,-227 273,-265 58,-24 147,-86 234,-151l226 -172c0,-2 0,-3 0,-4l-7 7c0,0 6,-10 7,-7l-7 7 -40 -44 87 -123 -10 -45 4 -16c0,0 12,-56 17,-94 1,-1 -16,-35 -37,-80 -30,-67 -68,-149 -86,-229 -8,-37 -33,-461 -65,-1081 -33,-613 -74,-1425 -114,-2244l-4 -79 79 0c186,2 377,-1 569,-8 180,-7 360,-19 537,-36l62 -6 17 60c32,111 63,223 94,337 29,110 58,222 87,336 419,1687 308,2764 279,2981l447 410 -39 110 2 50c114,30 379,107 522,209 84,60 192,132 323,190 128,58 280,102 451,107 270,8 500,-69 590,-103l3 -68 12 -40c-82,-83 -304,-305 -404,-391 -101,-88 -237,-201 -288,-242l-22 1 -117 -268 131 -179c-46,-77 -138,-232 -146,-248 -8,-15 -105,-518 -200,-1030 -88,-469 -176,-949 -195,-1069 -38,-238 -222,-595 -222,-596l-6 -12 -2 -13c0,-1 -40,-316 -93,-715l-8 -59 56 -21c32,-11 62,-23 93,-35l32 -13c-8,-37 -20,-90 -35,-159 -31,-134 -73,-322 -125,-547 -48,-214 -98,-429 -147,-643l1 0 -148 -637c-98,-427 -204,-878 -303,-1301 -85,-363 -162,-685 -220,-924l-1 -4 -1 -4c-16,-119 -33,-234 -51,-329l0 0c-16,-91 -32,-162 -47,-197 -85,-208 -90,-522 -91,-559 -10,-76 -103,-820 52,-1272l51 -145c25,-72 53,-152 90,-262l81 -235c111,424 224,849 333,1274 0,0 59,234 74,505 5,93 56,313 119,581 104,443 238,1015 247,1394 0,37 1,74 2,111l0 0 0 1 0 0 0 26 0 0 0 1 0 0 -1 72 -96 6c-4,104 -9,199 -16,284 -6,74 -13,142 -21,205l96 12 -11 76c-8,52 -16,94 -22,127l67 10 -41 91c-22,50 -46,101 -68,148 -17,37 -34,70 -47,96 -13,24 -21,53 -25,84 -4,34 -4,70 -2,107l35 625c4,-5 8,-12 12,-21 6,-12 10,-29 13,-50 8,-67 9,-108 9,-140 1,-65 1,-104 36,-181 53,-116 127,-194 127,-194l59 -63 54 68c0,1 153,189 79,481 -29,116 -86,270 -136,409 -19,51 -36,100 -51,142l-49 141c2,-2 6,-4 10,-6 5,-4 10,-8 15,-11 73,-60 166,-145 167,-146l19 -17 26 -2c1,0 48,-3 120,-43 25,-13 65,-73 107,-147 59,-104 114,-230 140,-309 33,-101 73,-137 107,-167 14,-12 25,-23 31,-43 10,-34 18,-159 22,-306 4,-150 4,-320 -3,-440 0,-75 2,-150 3,-225l103 12c1,-101 2,-215 3,-338 0,-104 1,-215 1,-329l-103 5 0 -148 -1 0 0 -1 1 0c-2,-442 -5,-897 -43,-1338l0 0c-4,-41 -8,-82 -13,-123l0 0c-3,-21 -6,-43 -9,-64l0 0 -4 -22 0 0 -2 -12 0 0 -2 -11c-54,-285 -98,-484 -134,-626 -35,-137 -62,-215 -83,-262 -50,-110 -252,-1461 -253,-1465l-1 -11 1 -12c1,-2 97,-581 -94,-981l0 0 -11 -23 0 0 -3 -5 0 0c-58,-113 -137,-217 -219,-304 -111,-120 -227,-210 -307,-260l-30 -19 -1 -9c-177,-58 -812,-272 -936,-408 -111,-122 -144,-393 -153,-526l-168 8 145 -139c42,-40 83,-80 122,-118 21,-21 41,-41 60,-60 112,-109 185,-210 234,-310 48,-99 71,-199 82,-305l14 -130 105 77c5,4 10,7 15,9 17,8 36,8 56,0 26,-10 54,-32 80,-68 15,-21 30,-45 43,-74 32,-69 49,-173 58,-281 13,-170 4,-344 -6,-413 -4,-27 -13,-51 -25,-66 -6,-7 -12,-13 -18,-16 -5,-2 -11,-3 -17,-2 -12,2 -25,8 -41,21 -16,13 -34,45 -51,88 -12,27 -22,56 -31,87l0 1 -6 17c-6,21 -12,41 -17,62l-135 522c-4,-182 -11,-367 -12,-549l0 0 0 -11 20 -65c0,-114 -2,-1020 10,-1121 10,-82 63,-134 111,-166l-239 -120 208 -36c-16,-28 -72,-127 -124,-194 -15,-18 -27,-34 -36,-47l-41 27 -52 33 -57 -61 -15 -15 -61 -62 70 -51c13,-9 23,-17 30,-24 -27,-46 -99,-149 -239,-249 -36,-26 -67,-47 -94,-65 4,38 3,75 -2,112l-14 93 -93 -37 -6 -3c-13,-8 -27,-15 -40,-22 -16,-9 -29,-16 -41,-22l-43 -21 1 -47c1,-28 -2,-57 -8,-87 -4,-21 -10,-41 -18,-62l-126 -29 -15 -14c-59,-57 -372,-140 -748,-137 -174,1 -359,22 -536,75 93,33 201,85 301,168l89 73 -103 51c-9,5 -19,11 -30,18 -12,8 -25,17 -39,28l-45 33 -44 -34c-8,-5 -16,-11 -25,-18 -7,-4 -16,-10 -25,-16 -325,-202 -536,-65 -657,14l-6 4c-63,40 -130,101 -183,152 77,17 178,40 279,65 22,-1 37,0 44,0 484,37 393,50 168,55 261,73 389,137 -179,94 -37,-2 -363,14 -486,20l-37 84c74,-20 171,-40 286,-51l164 -15 -52 71 683 279 -678 -95 473 258 -554 -116c38,91 118,319 135,635 17,320 29,417 48,569l1 12 -73 9 -47 59 -1 -1c-23,-18 -46,-32 -66,-42l-6 -4c2,9 8,24 2,48 -14,60 -22,141 -17,229l0 1c3,49 10,100 23,152 23,93 67,181 113,256 67,106 134,180 160,200l78 -20 14 80c76,438 122,469 521,741l82 56 55 36 -2 43c-2,42 -10,129 -32,219 -24,97 -65,199 -138,260l0 0c-8,6 -16,12 -24,17 -8,6 -16,11 -25,16l-97 56 -3 -26c-133,58 -329,108 -489,149l-85 21 -94 24 0 -3c-161,43 -508,168 -688,484 -244,430 -143,1261 -143,1263l1 5 0 4zm-297 1213c141,-486 147,-1157 147,-1210 -8,-71 -96,-896 162,-1349 265,-465 834,-569 879,-577 48,-12 64,-16 81,-21 200,-50 459,-116 538,-180l94 -76c15,-32 27,-69 36,-105 13,-55 21,-110 24,-150l-66 -45c-428,-292 -493,-336 -574,-781 -5,-2 -10,-4 -15,-7 -33,-16 -138,-118 -226,-258 -55,-87 -105,-189 -132,-299 -15,-60 -24,-121 -27,-180 -7,-104 4,-201 20,-272 22,-93 65,-157 109,-168l0 0c5,-1 11,-2 16,-2 13,-1 29,1 46,7 -11,-101 -21,-218 -32,-445 -20,-372 -131,-603 -138,-619l-113 -216c-105,27 -162,54 -162,54l-181 85 220 -500 -15 -3 89 -98c1,-1 160,-179 305,-273l5 -4c52,-33 118,-76 198,-107l-82 -4 255 -127c260,-129 555,-176 825,-178 385,-3 725,91 832,163l44 10 -7 -11 171 38c0,0 76,14 293,169 209,149 292,312 301,330l19 -13 41 67c0,0 9,15 71,95 50,63 100,148 126,192 16,4 25,8 25,8l42 16 21 186 -3 1c2,42 5,84 7,126l-56 17c0,0 -79,24 -86,80 -8,66 -10,518 -10,826 35,-25 69,-39 102,-44 36,-5 70,0 100,14 29,13 54,33 74,59 29,37 49,85 57,137 11,76 21,265 6,446 -9,124 -31,246 -71,333 -17,38 -37,71 -58,99 -44,61 -95,100 -148,120 -36,14 -72,19 -107,14 -16,88 -42,174 -83,260 -56,115 -139,230 -265,353 -19,19 -39,38 -60,58l-58 58 0 4c0,1 8,384 119,506 116,128 913,380 915,381l53 17 0 33c85,58 198,149 305,264 90,96 177,210 242,338l0 0 3 5 0 0 13 26 0 1c194,406 122,967 109,1056 19,125 200,1329 240,1416 24,54 54,140 91,286 36,141 81,344 136,636l2 12 1 0 2 12 0 1 4 24 0 1c3,23 6,45 9,68l0 0c6,43 10,85 14,128l0 0c39,442 41,899 43,1343l103 -5 0 78c0,143 0,281 -1,409 -1,159 -2,303 -4,422l-1 82 -103 -11 -1 50c7,123 7,297 3,451 -4,158 -14,298 -27,343 -17,61 -44,85 -75,113 -21,18 -44,39 -65,102 -28,86 -88,224 -152,336 -54,96 -113,177 -165,206 -64,35 -121,50 -154,57 -31,27 -99,88 -155,134l-4 3c46,203 85,373 112,497 31,134 48,216 50,227l7 55 -51 23c-28,13 -59,26 -92,39 -14,5 -27,11 -41,16 43,325 76,584 84,643 33,66 193,395 231,629 19,119 107,598 194,1066 94,501 185,987 186,990 8,15 166,281 167,281l25 43 -139 189 41 94 1 0 15 33c45,38 191,157 297,250 201,174 510,343 443,569l-8 142 -1 0 0 1 -41 19c-1,0 -314,145 -696,134 -194,-6 -364,-56 -508,-120 -143,-64 -259,-141 -349,-205 -160,-114 -524,-199 -525,-199l-54 -13 -9 -193 15 -43 -432 -397 6 -40c1,-3 192,-1098 -271,-2961 -26,-108 -55,-220 -86,-334 -24,-90 -50,-182 -76,-274 -160,14 -322,24 -483,30 -166,7 -333,10 -497,9 39,788 78,1566 110,2165 32,612 56,1027 63,1057 14,66 48,139 75,199 31,66 55,120 50,161 -5,32 -12,70 -17,92l17 76 -62 88c8,18 13,39 11,60 -3,29 -140,164 -285,275 -95,72 -196,140 -266,170 -54,23 -134,121 -215,221 -110,136 -224,276 -340,302 -35,7 -88,8 -153,4 -69,-5 -154,-14 -246,-27 -6,0 -34,-5 -42,-6 -115,-16 -241,-38 -354,-58 -185,-33 -335,-65 -345,-69l0 0c-59,-26 -74,-206 -74,-206l-2 -27 37 -52c-9,-64 -17,-201 68,-289 73,-74 523,-459 678,-590l-39 -56 3 0 -150 -214 -71 -3381c-69,-11 -133,-21 -194,-32 -80,-15 -152,-30 -215,-46l-55 -13 -2 -58c-14,-705 6,-1425 28,-2186 10,-345 20,-698 27,-1059 16,-813 128,-1335 218,-1756 10,-47 19,-92 28,-136 -20,63 -39,122 -58,177l-14 41 1 0c-8,24 -16,48 -24,72l0 0c-3,11 -7,22 -10,32l0 0c-10,33 -21,66 -31,98l0 0 0 1 0 1 -11 34 1 0c-22,73 -44,146 -65,219l0 0 -11 38 0 1 -1 1 0 1c-30,106 -60,211 -89,318l0 0c-39,144 -77,288 -114,433l0 0c-10,39 -20,79 -30,118l103 23 -18 74c-37,154 -68,286 -87,382 -17,82 -26,132 -25,140l17 95 -33 -2 1 1 0 0 5 10 0 0c10,22 20,43 29,65l1 0 1 4 0 0 1 2 1 1 50 113 -2 0c21,54 42,109 58,163 29,95 47,188 42,267 -10,152 -31,363 -67,520 -30,132 -76,233 -146,259 -95,34 -158,-19 -195,-77 -45,25 -106,41 -183,18 -111,-33 -169,-100 -193,-137 -80,-44 -404,-226 -463,-282 -70,-66 -94,-243 -99,-288 -10,-30 -34,-112 -24,-196 2,-15 8,-59 17,-122 8,-62 20,-142 33,-231l26 -182 -107 -8 12 -79c48,-332 93,-632 93,-633l0 0c-1,-15 -2,-36 -1,-62l3 -90 102 22c2,-27 4,-58 6,-93 5,-84 12,-186 21,-312 32,-458 272,-1227 447,-1787 49,-156 92,-296 123,-399zm929 -6974c-23,4 -44,8 -64,13l51 10 13 -23zm3850 10474l-92 -11 10 -75c11,-77 21,-168 30,-272 8,-106 15,-221 17,-344l1 -69 94 -6c0,-23 -1,-45 -1,-68 -9,-362 -141,-926 -244,-1363 -64,-274 -117,-500 -123,-608 -13,-250 -66,-466 -69,-477l-208 -793 -60 174c-152,443 -45,1208 -45,1211l1 6 0 4c0,0 0,313 79,505 19,45 38,127 57,227 17,97 35,213 51,333 64,264 140,582 220,921 72,307 151,646 231,990l13 -27c8,-17 17,-36 26,-55l-32 -5 19 -79c0,0 11,-42 25,-119zm186 1312l19 83c38,-105 75,-212 97,-298 27,-108 15,-195 -4,-256 -12,19 -23,40 -34,63 -22,49 -22,75 -23,120 0,38 -1,87 -9,157 -5,36 -13,66 -24,92 -7,14 -14,27 -22,39z"/> <path class="fil8" d="M11010 7516c0,1 0,325 -46,696 -23,186 -57,384 -109,562 -35,119 -76,251 -121,397l-2 5c-172,553 -409,1311 -440,1751 -5,67 -9,125 -13,175 -3,54 -6,99 -8,135 -3,40 -5,73 -6,100 -2,33 -3,59 -4,79l-5 104 -100 -22 -76 516 105 9 -6 51c-9,71 -20,145 -31,218l-12 83c-15,102 -30,205 -44,307 -3,18 -5,32 -6,41 -7,61 15,121 18,128l5 12 1 13c0,1 7,77 24,138 8,26 16,48 26,57 16,15 70,50 135,89 135,81 311,179 312,179l25 14 12 26 1 3c0,0 8,16 37,38 16,12 38,23 68,32 56,17 85,-27 88,-31 36,-58 71,-116 106,-174 18,66 37,133 54,199 0,0 1,6 5,16 5,14 13,33 23,45 2,3 -1,7 0,7l1 0 0 0 -1 0c1,0 3,-8 9,-24 12,-28 24,-69 35,-118 15,-65 27,-140 37,-215 12,-97 21,-196 26,-279 2,-28 -1,-60 -6,-95 -7,-37 -17,-76 -29,-115 -12,-41 -27,-83 -44,-126 -17,-43 -34,-84 -52,-123l-17 -39c-8,-17 -5,-9 -18,-38l-21 -46 -11 -22 0 -1 -5 -10 -1 0c-28,-62 -57,-124 -86,-186l130 11 2 -13c4,-20 9,-46 15,-78 9,-45 21,-97 34,-155 10,-45 21,-94 34,-146l-105 -23 42 -165c11,-44 21,-84 29,-116l9 -37 1 0c17,-69 33,-129 47,-181 21,-81 41,-154 58,-218l10 -37 0 0 34 -123c16,-55 31,-111 47,-166 2,-8 7,-22 11,-35l-1 0c14,-48 27,-90 38,-128l38 -127c9,-29 21,-69 34,-109l7 -22c4,-13 11,-36 19,-58 6,-21 13,-41 20,-61 23,-68 48,-143 73,-224 24,-78 49,-158 72,-239 22,-73 45,-155 70,-247 22,-82 44,-166 65,-251l167 -665 3 392 1 119c1,87 2,174 1,261l18 0 -18 59c0,38 -3,156 -8,243 -2,46 -5,86 -10,109l-4 25 -6 42 0 1c-5,32 -11,64 -17,96 -8,45 -15,81 -21,112l-8 40 -1 0c-15,74 -28,136 -41,198 -14,65 -28,130 -39,186l-9 44c-7,35 -13,66 -18,94l-15 75 -3 19c-5,27 -11,61 -18,101l-11 68 -5 34c-6,39 -11,74 -15,101l-8 55 -5 47c-7,51 -12,98 -17,142 -4,32 -7,62 -10,92l-4 50c-9,101 -16,199 -21,295 -5,100 -9,198 -11,296 -7,363 -17,713 -27,1055l0 5c-11,376 -21,741 -27,1097 -6,344 -8,681 -2,1014l40 9c28,6 56,11 83,16 34,7 71,13 110,19 36,6 76,12 119,19l72 10 104 3475 246 351 -61 52c-1,1 -285,242 -496,425 -106,92 -195,171 -221,198 -51,52 -21,171 -20,172l9 39 -46 64 3 42c0,0 -1,1 -1,1 51,10 168,33 309,57 114,21 241,42 357,57 86,12 167,22 232,26 52,4 92,4 113,-1 28,-6 65,-36 106,-78 46,-47 94,-107 143,-166l0 -1c94,-116 186,-229 278,-268 25,-11 57,-29 94,-53 44,-28 91,-62 137,-97 56,-43 114,-89 160,-126 24,-20 42,-26 52,-30l-41 -46 89 -126 -9 -42 4 -20 0 0c2,-6 13,-56 18,-92 0,-5 -4,0 -8,-10 -8,-19 -18,-40 -29,-63l0 -1c-31,-67 -69,-150 -86,-231 -5,-19 -12,-127 -23,-301 -11,-187 -26,-457 -43,-782 -15,-268 -37,-579 -60,-913 -29,-418 -61,-871 -84,-1331l-5 -93 93 1c95,2 190,2 287,1 92,-2 186,-4 282,-7 89,-3 181,-8 273,-14 90,-5 178,-12 264,-20l72 -6 20 69c14,51 37,103 60,155 25,59 51,119 68,180 13,49 27,104 44,167 15,59 29,115 42,168 217,874 293,1585 310,2097 17,469 -15,772 -29,882l448 411 -41 116 1 38c52,13 131,36 215,65 107,38 223,87 303,143 41,30 89,63 143,96 54,32 113,65 177,93 64,29 126,54 192,73 65,19 136,31 220,33 111,4 221,-8 318,-25 130,-22 236,-54 293,-75l3 -60 11 -34c-51,-51 -147,-147 -238,-235 -62,-60 -121,-116 -160,-150l-1 0c-44,-39 -91,-79 -135,-116 -95,-79 -171,-142 -171,-142 -3,-1 -14,-11 -17,-13l-109 -251 131 -177 -74 -123c-34,-58 -65,-110 -69,-119l0 0c-5,-11 -30,-130 -64,-306 -35,-185 -85,-451 -137,-728 -46,-245 -93,-498 -130,-704 -32,-175 -56,-310 -65,-365 -37,-233 -216,-583 -221,-592 -2,-5 -5,-10 -7,-15l-2 -13c-8,-35 -78,-337 -126,-702l-10 -70 67 -24c16,-5 35,-12 56,-20 19,-7 38,-14 55,-21 16,-6 29,-11 39,-15l1 -1 -7 -32 -26 -116 -54 -237c-73,-320 -146,-640 -219,-960l0 0 -146 -630c-73,-317 -151,-652 -229,-986 -66,-280 -130,-555 -191,-809 -54,-227 -101,-422 -138,-571 -35,-144 -64,-256 -83,-324l0 0c-2,-8 -4,-17 -6,-25l-5 -18c-1,-4 -3,-9 -5,-14 -1,-4 -3,-8 -4,-11 -31,-75 -51,-163 -65,-247 -24,-148 -26,-286 -26,-314 -5,-36 -31,-236 -37,-483 -6,-257 9,-564 89,-796l0 0 52 -148c31,-90 66,-192 111,-323l170 -500 0 518 284 1085 0 0 1 2c1,4 59,237 73,507 5,92 57,311 119,578l1 1c104,444 238,1016 247,1396l0 2c0,30 0,44 1,58l0 29 1 0 0 74 -1 0 0 61 -97 6c-1,41 -3,79 -5,116 -3,57 -6,110 -10,157 -4,43 -8,86 -12,128 -3,22 -5,44 -8,65l97 12 -14 89c-5,34 -11,68 -17,99l-3 16 72 10 -48 106c-11,25 -24,52 -36,80 -13,27 -24,51 -32,68 -9,19 -18,37 -26,54 -8,15 -15,29 -22,43 -6,10 -11,23 -14,36 -5,14 -7,29 -9,43 -2,17 -3,34 -4,51 0,17 1,36 2,55l32 571c1,-5 2,-12 3,-18 4,-34 6,-60 7,-82 1,-24 2,-42 2,-58 0,-32 0,-57 5,-86 5,-29 14,-60 32,-99 54,-117 127,-196 129,-197 20,-25 47,-50 70,-74l62 79 0 0c7,9 155,201 81,492 -15,58 -36,127 -60,198 -24,68 -51,142 -76,212l-1 2c-18,51 -36,99 -50,140l-37 104c68,-56 154,-134 159,-138 8,-6 16,-15 24,-21 10,-1 22,-1 33,-2 0,0 16,-2 48,-13 18,-6 39,-15 63,-29 9,-4 21,-18 37,-39 20,-27 43,-63 66,-103l0 0c27,-49 55,-104 79,-158 26,-56 47,-109 59,-149 17,-51 36,-86 55,-113 20,-27 39,-44 56,-60 7,-6 13,-12 18,-18l0 0c4,-4 7,-10 9,-19 4,-14 8,-50 12,-99 4,-57 7,-128 10,-204 2,-78 3,-161 2,-239 0,-72 -2,-141 -5,-199l-1 -3c0,-31 1,-76 2,-122l2 -115 103 12 1 -123c1,-64 1,-131 1,-201 1,-60 1,-123 1,-186l0 -130 -102 5 0 -111 -1 0 0 -101 0 0c-1,-205 -2,-412 -7,-620 -6,-222 -16,-445 -36,-667l-2 -31 -4 -30c-1,-17 -4,-37 -7,-61l-2 -22c-4,-29 -9,-58 -14,-87 -27,-141 -51,-263 -74,-367 -22,-102 -42,-187 -60,-258 -18,-70 -33,-124 -47,-165 -13,-41 -25,-72 -35,-95 -51,-111 -250,-1445 -254,-1468 0,-3 -1,-10 -2,-13l2 -14c2,-9 95,-579 -92,-973l-1 0 -19 -38c-55,-104 -126,-198 -200,-280 -102,-111 -210,-198 -290,-252 -16,-11 -30,-20 -41,-27l-4 -2 -66 -22c-59,-19 -153,-50 -255,-87 -70,-25 -148,-54 -225,-84 -95,-38 -188,-77 -265,-116 -81,-41 -145,-81 -179,-118l0 0 -7 -8 -1 -1c-3,-4 -6,-8 -10,-13 -46,-62 -78,-149 -99,-238 -39,-167 -43,-346 -43,-352l-1 -38 28 -27c41,-39 80,-77 117,-114l0 0 1 -1 0 0 24 -24 36 -36c56,-54 102,-106 140,-157 38,-51 68,-101 92,-150 23,-48 41,-97 54,-147 13,-49 22,-101 27,-154l16 -151 8 6 -6 -288c-1,-29 -2,-60 -2,-90 -2,-65 -4,-130 -4,-196l0 -8 20 -64c0,-78 -1,-477 2,-777 1,-169 4,-307 8,-343 7,-60 37,-106 71,-139 9,-9 19,-17 28,-24l-255 -128 229 -39c-13,-22 -33,-56 -55,-92 -19,-29 -40,-60 -60,-86l-29 -37 -28 18c-18,12 -41,26 -68,43l-72 45 -40 -60 -215 141 184 -187c-18,-25 -37,-51 -55,-76l66 -52c35,-28 61,-46 80,-59 -17,-25 -41,-57 -75,-94 -37,-40 -85,-84 -146,-128 -28,-20 -53,-37 -76,-52 2,26 2,55 -1,86l-12 137c-46,-27 -92,-54 -137,-81l-17 -9 -18 -10c-21,-11 -42,-21 -63,-31l-4 -49c-3,-39 -10,-75 -18,-105 -5,-17 -10,-33 -15,-47l-186 -42 -5 12 -81 -33c-84,-34 -197,-64 -328,-84 -116,-17 -246,-26 -380,-22 -93,4 -189,13 -284,32 -37,7 -73,15 -109,24 17,7 35,14 53,22 76,36 158,84 235,152l105 92 -129 54 -21 9 -22 10 -22 10 -21 10 -49 25c-19,-15 -38,-30 -57,-44 -9,-7 -18,-13 -28,-19l-14 -9c-160,-100 -290,-116 -394,-98 -105,18 -189,72 -249,111l-6 4c-41,26 -84,62 -124,98 -14,12 -27,25 -39,36 31,7 66,15 104,24 53,12 107,25 155,36l19 0c10,0 16,0 19,1l1 0c68,5 109,8 126,10l1 0c34,-9 59,-4 74,7l834 47 -828 27c5,6 8,13 9,20 7,36 -10,59 -55,66 -26,4 -81,4 -174,-3 -20,-2 -121,2 -230,7 -91,4 -188,9 -247,12l-24 53c16,-4 31,-8 48,-11 61,-13 133,-25 215,-33l192 -18 -59 81 760 311 -709 -100 487 266 -613 -129c40,104 111,322 127,618 16,318 28,415 47,568l8 61 -66 8 -41 52 -40 -30c-11,-9 -23,-17 -33,-24l-11 -7 -6 25c-7,31 -13,67 -16,108 -3,37 -4,77 -1,118l0 3c1,23 4,48 8,73 3,25 8,50 14,74 11,42 26,84 44,124 20,46 43,89 68,128l0 0c31,50 64,94 92,128 27,32 48,54 60,65l85 -22 16 94c38,219 68,335 135,427 68,93 181,169 382,306l103 71 -1 46 0 0 0 1c0,8 -7,369 -173,512 -12,13 -31,27 -49,41 -7,5 -13,10 -19,14l-81 66 0 -39c-25,10 -50,20 -75,28 -29,10 -59,20 -89,29l-48 14 0 0c-46,13 -93,25 -140,37l0 1 -12 3 -21 20 -15 -11 -103 26 0 2 -40 8 -17 5 -1 -2c-73,14 -538,114 -756,496 -241,424 -142,1243 -141,1256 0,2 1,4 1,6l0 4zm387 12404c-13,-3 -31,-10 -16,-4l0 1c1,0 7,1 16,3zm1999 -680c1,-1 2,-3 2,-4 1,-9 0,-3 -2,4zm1269 -15385l98 71c2,2 4,3 6,4l6 4c7,3 14,5 22,5 7,0 16,-2 25,-5 12,-5 24,-12 36,-22l0 0c13,-11 26,-25 39,-43 7,-10 14,-21 21,-33 7,-11 14,-24 20,-38 14,-31 26,-70 35,-113 10,-50 17,-107 22,-164 6,-75 7,-150 6,-216 -1,-84 -6,-156 -12,-194 -2,-13 -5,-25 -9,-36 -4,-10 -8,-18 -14,-25 -2,-3 -4,-5 -7,-8 -2,-1 -4,-2 -6,-3 -2,-1 -3,-2 -4,-2 -2,0 -4,0 -6,0 -4,1 -9,3 -14,5 -7,3 -14,8 -21,14 -6,4 -12,12 -19,24 -10,16 -19,36 -29,59 -5,13 -11,27 -16,42 -5,14 -9,28 -14,42l0 1 -5 16c-3,12 -6,23 -9,30 -3,12 -6,23 -9,34l-142 551zm-2871 -2150l-33 -13 -14 27 125 18 -78 -32zm-82 131l-21 -12 -16 30 114 24 -77 -42zm3975 11744c8,-23 16,-47 24,-70 23,-67 44,-131 58,-187 19,-74 18,-138 10,-191 -2,-10 -4,-20 -6,-30 -6,12 -12,24 -18,36 -11,24 -16,41 -19,57 -3,17 -3,35 -3,58 0,20 0,42 -2,66 -1,28 -3,58 -8,93 -2,17 -5,34 -9,49 -5,17 -10,32 -16,46 -5,11 -10,21 -15,30l-4 7 8 36z"/> <path class="fil2 str4" d="M11900 5667c0,0 -552,149 -759,513 -208,365 -221,1336 -221,1336 0,0 0,718 -151,1234 -150,515 -526,1598 -567,2170 -41,573 -32,605 -32,605 0,0 -62,416 -111,757 291,6 716,14 986,26 -46,-99 -85,-177 -91,-204 -17,-73 328,-1412 522,-1986 195,-574 484,-1617 574,-2592 91,-975 -150,-1859 -150,-1859z"/> <path class="fil9 str5" d="M11900 5667c0,0 -552,149 -759,513 -208,365 -221,1336 -221,1336 0,0 0,718 -151,1234 -150,515 -526,1598 -567,2170 -41,573 -32,605 -32,605 0,0 -72,486 -123,837l1033 21c-60,-134 -119,-245 -126,-279 -17,-73 328,-1412 522,-1986 195,-574 484,-1617 574,-2592 91,-975 -150,-1859 -150,-1859z"/> <path class="fil10 str5" d="M11900 5667c0,0 -571,88 -828,540 -257,452 -152,1309 -152,1309 0,0 0,718 -151,1234 -150,515 -526,1598 -567,2170 -41,573 -32,605 -32,605 0,0 -36,242 -75,508l859 70c-14,-81 328,-1413 522,-1985 195,-574 484,-1617 574,-2592 91,-975 -150,-1859 -150,-1859z"/> <path class="fil10 str6" d="M10071 11390c-2,64 0,71 0,71 0,0 -44,301 -93,632l1070 89c-6,-35 40,-253 113,-553l-1090 -239z"/> <path class="fil11 str5" d="M10053 12320c-29,197 -52,362 -56,393 -10,87 24,171 24,171 0,0 16,194 77,251 60,57 465,281 465,281 0,0 36,83 160,120 124,37 187,-70 187,-70 0,0 44,167 144,130 101,-37 147,-458 164,-712 10,-148 -75,-362 -151,-530l-1014 -34zm855 883l-44 18c0,0 3,-19 -27,-46 -29,-27 -95,-38 -95,-38l-41 -2c0,0 -17,-17 -12,-40 5,-24 76,-252 76,-252 0,0 54,56 94,151 40,95 46,180 46,180l3 29z"/> <path class="fil0 str7" d="M10254 12888c-8,21 -18,140 13,185 30,44 125,107 184,168 59,61 112,175 112,175"/> <path class="fil0 str7" d="M10139 12959c-2,19 -28,112 -16,144 12,33 42,80 42,80"/> <path class="fil0 str7" d="M10739 12811c97,114 147,213 164,339 16,125 7,316 7,316"/> <path class="fil0 str7" d="M10765 12843c0,0 -77,228 -77,260 0,33 128,203 138,221 10,18 86,-16 86,-16"/> <path class="fil0 str7" d="M10701 13135c0,0 80,1 123,19 42,18 40,67 40,67l44 -18"/> <path class="fil11 str5" d="M12738 4999c0,0 -5,332 -144,449 -140,118 -715,218 -815,268 -101,51 -175,327 -124,1009 51,682 197,2424 122,2936 -76,511 -282,1077 -304,2198 -22,1121 365,3101 365,3101l77 3648 216 307c0,0 -640,543 -724,630 -85,87 -43,254 -43,254l-39 56c0,0 10,135 29,142 18,8 920,188 1090,151 169,-37 386,-452 542,-518 156,-66 503,-360 506,-384 2,-24 -26,-55 -26,-55l71 -101 -13 -60c0,0 13,-58 19,-102 5,-43 -94,-197 -124,-334 -31,-137 -346,-6756 -346,-6756l-6 -75 43 -1c0,0 67,163 89,207 22,44 869,2061 1335,3938 466,1878 272,2991 272,2991l440 404 -28 76 6 121c0,0 378,88 551,211 173,123 450,300 815,311 365,11 663,-127 663,-127l6 -105 -30 -102c0,0 -261,-288 -388,-398 -127,-111 -309,-260 -309,-260l-80 -185 135 -183c0,0 -161,-268 -170,-286 -9,-18 -347,-1829 -387,-2078 -40,-250 -230,-619 -230,-619 0,0 -189,-1486 -289,-2075 -100,-589 -519,-2197 -519,-2197 0,0 -109,-1128 -194,-1335 -85,-206 -85,-533 -85,-533 0,0 -110,-786 48,-1245 159,-459 491,-1378 539,-1869 47,-491 16,-634 16,-634 0,0 -819,-258 -949,-401 -130,-144 -138,-555 -138,-555l-1476 73 -15 92z"/> <path class="fil12" d="M11535 10976c-32,253 -56,542 -62,883 -22,1121 365,3101 365,3101l77 3648 216 307c0,0 -640,543 -724,630 -85,87 -43,254 -43,254l-39 56c0,0 10,135 29,142 18,8 920,188 1090,151 169,-37 386,-452 542,-518 156,-66 503,-360 506,-384 2,-24 -26,-55 -26,-55l71 -101 -13 -60c0,0 13,-58 19,-102 5,-43 -94,-197 -124,-334 -31,-137 -346,-6756 -346,-6756l-6 -75 43 -1c0,0 67,163 89,207 22,44 869,2061 1335,3938 466,1878 272,2991 272,2991l440 404 -28 76 6 121c0,0 378,88 551,211 173,123 450,300 815,311 365,11 663,-127 663,-127l6 -105 -30 -102c0,0 -261,-288 -388,-398 -127,-111 -309,-260 -309,-260l-80 -185 135 -183c0,0 -161,-268 -170,-286 -9,-18 -347,-1829 -387,-2078 -40,-250 -230,-619 -230,-619 0,0 -189,-1486 -289,-2075 -100,-589 -519,-2197 -519,-2197 0,0 -16,-174 -42,-398l-3415 -32z"/> <path class="fil13 str5" d="M12677 5325c-21,49 -48,93 -83,123 -26,22 -67,44 -118,64l687 1891c0,0 -99,-9 -85,18 13,26 308,-18 308,-18l1085 -1599 -159 -437 -1635 -42z"/> <path class="fil14" d="M15219 19380l6 118c0,0 378,88 551,211 172,123 450,300 815,311 364,11 663,-127 663,-127l5 -105 -30 -101c0,0 -260,-289 -387,-400 -127,-110 -309,-259 -309,-259l-1 -3c-209,10 -473,122 -836,287 -237,108 -386,103 -477,68z"/> <path class="fil15 str4" d="M15213 19383l5 109c0,0 378,88 551,211 172,124 450,300 815,311 364,11 663,-127 663,-127l20 -131 -24 11c-150,56 -372,105 -626,119 -253,13 -534,-120 -754,-254 -220,-134 -516,-207 -650,-249z"/> <path class="fil14" d="M12123 18910l4 5c0,0 -640,542 -724,630 -110,113 -76,254 -82,309 0,0 10,135 29,143 18,8 921,188 1090,151 169,-37 386,-453 542,-519 157,-66 503,-360 506,-383 2,-24 -26,-55 -26,-55l12 -17c-90,5 -237,8 -404,-8 -276,-25 -397,-176 -625,-238 -97,-27 -216,-27 -322,-18z"/> <path class="fil15 str4" d="M11321 19854c0,0 10,135 29,143 18,8 921,188 1090,151 169,-37 381,-348 525,-461 144,-112 520,-418 523,-441 2,-24 -26,-55 -26,-55l9 -13c-114,101 -688,447 -910,734 -163,211 -1126,29 -1240,-58z"/> <path class="fil10 str5" d="M12552 5450c-143,116 -712,216 -812,266 -101,50 -175,327 -124,1009 51,681 198,2424 122,2935 -76,512 -282,1077 -304,2198 -23,1166 -76,2221 -55,3243 849,294 3281,444 4513,-211 -10,-72 -1052,-4624 -1133,-4819 -84,-206 -84,-534 -84,-534 0,0 -111,-785 48,-1245 158,-459 491,-1378 538,-1869 48,-491 16,-633 16,-633 0,0 -818,-259 -949,-402 -5,-6 -11,-13 -16,-21 -250,777 -612,1463 -1072,2069 -37,72 -627,-1459 -688,-1986z"/> <path class="fil9 str5" d="M12552 5450c-59,48 -192,94 -334,134 -107,284 -132,609 -77,967l716 109 0 3 -576 15c100,494 472,1324 670,1591 -6,100 -36,282 -33,327 0,0 1282,-1371 1449,-1833l7 -21 -590 -102 0 -2 775 -19c115,-450 43,-848 -46,-1117 -86,-41 -154,-81 -185,-114 -5,-6 -11,-13 -16,-21 -250,777 -612,1463 -1072,2069 -37,72 -627,-1459 -688,-1986z"/> <path class="fil11 str5" d="M14670 3522c0,0 71,-447 182,-535 111,-87 204,-9 222,111 17,120 32,540 -59,736 -90,196 -233,237 -327,145 -93,-92 -18,-457 -18,-457z"/> <path class="fil16 str4" d="M14954 3790c0,0 -29,-122 -67,-105 -38,18 -53,91 -62,67 -86,-229 137,-750 196,-639 20,38 26,406 6,531 -21,126 -73,146 -73,146z"/> <path class="fil17 str4" d="M14935 3732c-12,-29 -29,-56 -48,-47 -38,18 -53,91 -62,67 -57,-154 24,-438 101,-576 20,22 41,54 51,100 18,78 -5,305 -42,456z"/> <path class="fil11 str4" d="M12066 3905c0,0 -166,-1142 -180,-1671 -14,-529 424,-1070 1076,-1226 792,-189 1562,208 1686,1038 62,418 77,1022 72,1421 -6,497 0,717 -400,1108 -423,413 -897,785 -1540,346 -544,-373 -598,-307 -714,-1016z"/> <path class="fil11 str5" d="M12161 4114c-5,16 -82,69 -124,47 -42,-21 -253,-244 -319,-508 -65,-263 6,-527 50,-529 45,-3 216,108 282,237 66,129 111,753 111,753z"/> <path class="fil16 str4" d="M12005 4017c0,0 -76,-103 -42,-193 35,-89 -63,-458 -139,-548 -77,-89 -82,180 -58,330 23,150 155,368 197,390 42,21 42,21 42,21z"/> <path class="fil17 str4" d="M11956 3893c-3,-23 -1,-46 7,-69 27,-70 -26,-309 -87,-454 -37,41 -71,113 -60,233 13,145 82,239 140,290z"/> <path class="fil18 str5" d="M12046 3948c0,0 -19,-313 -61,-652l54 -5c0,0 177,1020 507,1075 330,55 355,-47 355,-47 0,0 30,352 208,356 177,4 166,-279 166,-279 0,0 22,5 74,1 52,-5 80,-9 80,-9 0,0 6,145 127,202 122,57 288,-7 325,-131 38,-124 28,-204 28,-204 0,0 342,172 533,-81 191,-253 200,-553 205,-768 2,-81 34,-134 73,-170 1,82 1,160 0,231 -6,497 50,801 -350,1191 -110,107 -250,252 -369,340 -338,252 -826,326 -1302,0 -544,-372 -537,-340 -653,-1050z"/> <path class="fil18 str5" d="M12060 2115c0,0 87,169 73,294 -15,126 -107,338 -116,449 -10,111 78,674 78,674l-128 -289c0,0 -37,-27 -65,-50 -20,-159 -32,-253 -50,-586 -21,-401 -146,-649 -146,-649l-49 -94 210 44 -183 -101 41 -78 242 34 -215 -88 51 -70c0,0 364,-84 694,68 330,151 435,288 435,288 0,0 -210,-171 -459,-183 -249,-12 -413,337 -413,337z"/> <path class="fil18 str5" d="M14644 3519c0,0 -67,-814 -70,-830 -3,-17 -159,-335 -209,-444 -50,-109 25,-188 8,-293 -16,-105 -163,-126 -163,-126 0,0 147,-86 348,-106 201,-20 314,18 314,18l9 71 -97 17 101 50 4 67c0,0 -126,38 -138,143 -13,105 -10,1124 -10,1124l-97 309z"/> <path class="fil0 str4" d="M12503 4009c0,0 253,262 429,272 176,9 202,-91 436,-67 233,24 300,100 486,45 185,-54 347,-283 347,-283"/> <path class="fil0 str7" d="M14113 3936c0,0 81,9 138,76"/> <path class="fil0 str8" d="M12482 4076c0,0 5,-74 59,-93"/> <path class="fil0 str7" d="M13094 4324c119,107 431,63 497,-8"/> <path class="fil0 str7" d="M13024 3621c-33,38 -95,169 66,227"/> <path class="fil0 str7" d="M13575 3588c111,62 55,218 -46,242"/> <g> <path class="fil17" d="M13161 3751c39,-1 72,13 72,30 1,17 -31,32 -70,33 -40,1 -72,-12 -73,-29 0,-18 31,-33 71,-34z"/> <path id="1" class="fil7" d="M13243 3781l-20 0 0 0 0 0 0 -1 0 0 0 -1 -1 -1 0 0 -1 -1 -1 -1 -1 -1 -1 -1 -1 -1 -1 -1 -2 -1 -2 -1 -2 -1 -2 0 -2 -1 -2 -1 -3 -1 -2 -1 -3 0 -3 -1 -3 0 -3 -1 -3 0 -3 -1 -3 0 -3 0 -4 -1 -3 0 -3 0 -4 0 0 -20 4 0 3 0 4 0 4 1 4 0 3 0 4 1 3 0 4 1 3 0 3 1 4 1 3 1 3 1 3 1 3 1 2 1 3 1 2 2 3 1 2 2 2 1 2 2 2 2 2 2 2 2 1 2 2 2 1 2 0 3 1 3 0 3 0 0zm-80 43l-1 -20 0 0 4 0 3 0 4 -1 3 0 3 0 3 -1 3 0 3 -1 3 -1 3 0 3 -1 2 -1 3 -1 2 -1 3 -1 2 -1 2 -1 2 -1 1 -1 2 -1 1 -1 2 -1 1 -1 1 -1 1 -1 0 0 1 -1 0 -1 0 0 0 -1 0 0 0 -1 20 0 0 2 0 3 -1 3 -1 2 -1 3 -1 2 -2 2 -2 2 -2 2 -2 2 -2 1 -2 2 -2 1 -3 2 -2 1 -3 2 -3 1 -3 1 -2 1 -4 1 -3 1 -3 1 -3 1 -4 1 -3 0 -4 1 -3 0 -4 1 -4 0 -3 1 -4 0 -4 0 0 0zm-83 -39l20 -1 0 0 0 1 0 0 0 1 1 0 0 1 1 1 0 1 1 0 1 1 1 1 2 1 1 1 2 1 1 1 2 1 2 1 3 1 2 0 2 1 3 1 3 1 2 0 3 1 3 0 3 1 3 0 3 0 4 1 3 0 3 0 4 0 3 0 1 20 -4 0 -4 0 -4 0 -3 0 -4 -1 -4 0 -3 0 -4 -1 -3 -1 -4 0 -3 -1 -3 -1 -3 -1 -3 -1 -3 -1 -3 -1 -3 -1 -2 -1 -3 -1 -2 -2 -3 -1 -2 -2 -2 -2 -2 -1 -2 -2 -1 -2 -2 -2 -1 -3 -1 -2 -1 -3 -1 -2 0 -3 0 0zm81 -44l0 20 0 0 -3 1 -4 0 -3 0 -3 0 -4 1 -3 0 -3 1 -3 0 -3 1 -3 1 -2 0 -3 1 -2 1 -3 1 -2 1 -2 1 -2 1 -2 1 -2 1 -1 1 -2 1 -1 1 -1 1 -1 1 -1 1 -1 1 0 1 0 0 -1 1 0 0 0 1 0 0 -20 1 0 -3 1 -3 0 -2 1 -3 2 -2 1 -2 1 -3 2 -2 2 -1 2 -2 2 -2 2 -2 3 -1 2 -2 3 -1 2 -1 3 -1 3 -2 3 -1 3 -1 3 -1 3 -1 4 0 3 -1 4 -1 3 -1 4 0 3 -1 4 0 4 0 4 0 4 -1 0 0z"/> </g> <g> <path class="fil17" d="M13458 3740c39,4 66,20 60,38 -5,17 -41,28 -80,24 -39,-3 -66,-20 -60,-37 5,-17 41,-28 80,-25z"/> <path id="1" class="fil7" d="M13528 3781l-19 -6 0 0 0 -1 0 0 0 -1 0 0 0 -1 0 0 0 -1 -1 -1 0 -1 -1 -1 -1 0 -1 -1 -1 -2 -1 -1 -2 -1 -2 -1 -1 -1 -2 -1 -2 -1 -3 -1 -2 -1 -2 -1 -3 0 -2 -1 -3 -1 -3 -1 -3 0 -3 -1 -3 -1 -4 0 -3 0 -3 -1 2 -20 3 1 4 0 4 1 3 0 4 1 3 1 4 1 3 1 3 1 3 1 3 1 3 1 3 1 3 1 2 2 3 1 2 2 2 1 2 2 2 2 2 2 2 2 2 2 1 2 1 2 1 3 1 2 1 3 0 2 0 3 0 3 -1 3 0 0zm-91 31l2 -20 0 0 4 0 3 1 3 0 4 0 3 0 3 0 3 -1 4 0 3 0 3 0 3 -1 2 0 3 -1 3 -1 3 0 2 -1 2 -1 3 -1 2 0 2 -1 2 -1 1 -1 2 -1 1 -1 2 -1 1 -1 1 -1 0 -1 1 0 0 -1 1 -1 0 0 19 6 -1 2 -1 3 -2 2 -1 2 -2 2 -2 2 -2 2 -2 1 -2 2 -3 1 -2 2 -3 1 -3 1 -2 1 -3 1 -3 1 -3 1 -3 1 -4 1 -3 0 -3 1 -4 0 -3 1 -4 0 -3 0 -4 1 -4 0 -3 0 -4 0 -4 0 -4 -1 -4 0 0 0zm-69 -50l19 6 0 0 0 0 0 1 0 0 0 1 0 0 0 1 0 0 1 1 0 1 1 1 1 1 1 1 1 1 1 1 2 1 1 1 2 1 2 1 2 1 2 1 3 1 2 1 3 1 2 1 3 0 3 1 3 1 3 0 3 1 3 0 4 1 3 0 -2 20 -3 0 -4 -1 -4 0 -3 -1 -4 -1 -3 0 -4 -1 -3 -1 -3 -1 -3 -1 -3 -1 -3 -2 -3 -1 -3 -1 -2 -1 -3 -2 -2 -1 -2 -2 -3 -2 -2 -1 -1 -2 -2 -2 -2 -2 -1 -2 -1 -3 -1 -2 -1 -3 -1 -2 0 -3 0 -3 0 -3 1 -2 0 0zm91 -32l-2 20 0 0 -4 0 -3 0 -3 0 -4 0 -3 0 -3 0 -3 0 -4 0 -3 0 -3 1 -3 0 -3 1 -2 0 -3 1 -3 1 -2 0 -2 1 -3 1 -2 1 -2 1 -2 1 -1 1 -2 0 -1 1 -2 1 -1 1 -1 1 0 1 -1 1 0 1 -1 0 0 1 -19 -6 1 -3 1 -2 2 -2 1 -3 2 -2 2 -1 2 -2 2 -2 2 -1 3 -2 2 -1 3 -1 3 -2 2 -1 3 -1 3 -1 3 -1 3 0 4 -1 3 -1 3 0 4 -1 3 0 4 -1 3 0 4 0 4 0 3 0 4 0 4 0 4 0 4 0 0 0z"/> </g> <path class="fil0 str7" d="M13370 3450c0,0 45,55 30,114 -16,60 -35,63 -35,63"/> <g> <path class="fil19" d="M12191 2684c0,0 111,-153 325,-153 214,0 337,86 410,98 72,12 102,-2 102,-2 0,0 45,-58 54,-133 9,-76 -5,-115 -5,-115 0,0 -90,72 -214,67 -125,-6 -205,-93 -342,-95 -137,-1 -254,91 -292,158 -38,67 -38,175 -38,175z"/> <path id="1" class="fil7" d="M12516 2521l0 20 0 0 -19 1 -19 1 -18 2 -18 3 -17 3 -16 4 -16 4 -15 5 -14 6 -14 6 -14 6 -12 6 -12 7 -12 7 -11 7 -10 7 -10 7 -9 7 -8 6 -8 7 -7 6 -7 7 -6 5 -5 6 -5 5 -4 4 -3 4 -3 4 -2 2 -2 2 0 1 -1 1 -16 -12 1 -1 1 -1 1 -2 3 -3 3 -4 3 -4 5 -5 5 -5 5 -6 7 -6 6 -6 8 -7 8 -7 9 -7 9 -7 11 -8 10 -7 12 -7 12 -7 12 -7 14 -7 14 -7 14 -6 16 -5 15 -6 17 -4 17 -5 18 -3 18 -3 19 -2 20 -1 20 -1 0 0zm412 98l-4 20 0 0 -7 -2 -8 -1 -8 -3 -8 -2 -8 -3 -9 -3 -9 -4 -9 -3 -10 -4 -10 -4 -10 -4 -11 -4 -11 -4 -11 -4 -12 -5 -12 -4 -13 -4 -13 -4 -13 -4 -14 -4 -14 -4 -15 -4 -15 -3 -16 -3 -16 -3 -16 -3 -17 -2 -18 -2 -18 -2 -18 -1 -19 -1 -20 0 0 -20 20 0 20 1 19 1 18 2 18 2 18 2 17 3 16 3 16 3 16 4 15 3 15 4 14 4 13 5 14 4 12 4 13 4 12 5 11 4 12 4 10 5 11 4 10 4 9 3 9 4 9 3 8 3 8 3 8 2 7 2 7 2 7 1 0 0zm92 2l16 12 -3 3 -1 0 0 1 -1 0 -1 0 -1 1 -1 0 -1 0 -2 1 -1 0 -2 1 -3 0 -2 1 -3 0 -2 1 -3 0 -3 0 -4 1 -3 0 -4 0 -4 1 -5 0 -4 0 -5 0 -5 0 -5 -1 -5 0 -6 0 -6 -1 -6 0 -6 -1 -7 -1 -7 -1 4 -20 6 1 6 1 6 1 6 0 6 1 5 0 5 1 5 0 4 0 5 0 4 0 4 0 4 -1 3 0 3 0 3 0 3 -1 3 0 2 -1 2 0 2 0 2 -1 2 0 1 0 1 -1 1 0 1 0 1 -1 0 0 0 0 0 0 0 0 -4 3zm52 -129l20 3 0 0 -1 7 -1 7 -2 7 -1 7 -2 7 -2 7 -2 6 -2 6 -2 7 -2 6 -3 5 -2 6 -2 5 -3 5 -2 5 -2 5 -3 5 -2 4 -2 4 -2 4 -3 3 -2 4 -1 3 -2 2 -2 3 -1 2 -1 2 -1 1 -1 2 -1 0 0 1 -1 0 -16 -12 1 0 0 0 0 -1 1 -1 1 -2 1 -1 2 -2 1 -3 2 -2 1 -3 2 -3 2 -3 2 -4 2 -4 3 -4 2 -4 2 -4 2 -5 3 -5 2 -5 2 -5 2 -6 2 -5 2 -6 2 -6 2 -6 2 -6 1 -6 2 -7 1 -6 1 -7 1 -7 0 0zm12 -105l-13 -16 16 4 0 1 0 0 0 1 0 1 1 1 0 1 1 2 0 2 1 2 0 2 1 3 0 2 1 3 0 4 1 3 0 4 1 3 0 5 0 4 1 4 0 5 0 5 0 5 0 6 0 5 0 6 0 6 0 7 -1 6 0 7 -1 7 -1 7 -20 -3 1 -7 1 -6 0 -7 1 -6 0 -6 0 -5 0 -6 0 -5 0 -5 0 -5 0 -5 0 -4 -1 -5 0 -4 0 -3 -1 -4 0 -3 -1 -3 0 -3 -1 -3 0 -3 0 -2 -1 -2 0 -2 -1 -1 0 -2 0 -1 -1 -1 0 0 0 -1 0 0 0 0 16 5zm-222 69l1 -20 0 0 12 0 11 0 10 -1 11 -1 10 -1 10 -2 10 -1 10 -2 9 -3 9 -2 9 -3 8 -3 8 -3 8 -3 8 -3 7 -3 6 -3 7 -3 6 -4 5 -3 6 -3 5 -2 4 -3 4 -3 3 -2 4 -2 2 -2 2 -1 2 -2 1 0 1 -1 0 0 13 16 -1 0 -1 0 -1 2 -2 1 -2 2 -3 2 -3 2 -4 2 -5 3 -4 3 -5 3 -6 3 -6 3 -6 3 -7 4 -7 3 -8 3 -7 4 -9 3 -8 3 -9 3 -9 3 -10 3 -10 2 -10 2 -10 2 -11 2 -11 1 -11 1 -12 1 -12 0 -12 0 0 0zm-341 -95l0 -20 0 0 13 1 13 1 12 1 12 2 12 2 12 2 11 3 11 3 11 4 11 3 11 4 10 4 10 4 11 4 10 5 10 4 9 4 10 4 10 5 10 4 10 4 9 3 10 4 10 3 10 4 10 2 11 3 10 2 11 2 10 2 11 1 11 1 -1 20 -11 -1 -12 -1 -12 -2 -11 -2 -11 -3 -11 -2 -10 -3 -11 -4 -10 -3 -11 -4 -10 -4 -10 -4 -10 -4 -10 -4 -9 -4 -10 -5 -10 -4 -10 -4 -10 -4 -10 -4 -10 -4 -10 -4 -11 -3 -10 -3 -11 -3 -11 -3 -11 -2 -11 -3 -11 -1 -12 -1 -12 -1 -12 -1 0 0zm-283 153l-18 -10 0 0 4 -7 5 -6 5 -7 5 -7 6 -7 6 -7 6 -7 7 -7 8 -7 7 -7 8 -7 9 -7 8 -6 9 -7 10 -6 9 -6 10 -6 11 -6 10 -5 11 -5 11 -5 11 -5 12 -4 12 -4 12 -3 12 -3 12 -3 13 -2 13 -2 13 -1 13 -1 13 0 0 20 -13 0 -12 1 -12 1 -12 2 -12 2 -12 2 -11 3 -11 3 -12 4 -10 4 -11 4 -11 5 -10 5 -10 5 -10 5 -9 6 -9 6 -9 6 -9 6 -8 6 -8 6 -8 7 -7 6 -7 7 -6 7 -6 6 -6 7 -5 6 -5 7 -5 6 -4 6 -3 6 0 0zm-55 164l16 12 -18 -6 0 -1 0 -1 0 -1 0 -2 0 -3 1 -3 0 -4 0 -4 0 -4 0 -5 1 -5 0 -6 1 -6 1 -6 0 -6 1 -7 1 -7 1 -7 1 -7 2 -7 1 -8 2 -7 2 -8 2 -7 2 -8 2 -7 3 -8 2 -7 3 -7 3 -7 4 -7 3 -7 18 10 -3 6 -3 6 -3 7 -3 6 -3 7 -2 7 -2 7 -2 7 -2 7 -2 7 -1 7 -2 8 -1 7 -1 6 -1 7 -1 7 -1 6 -1 6 0 6 -1 6 0 5 -1 5 0 5 0 4 0 4 0 4 -1 3 0 2 0 2 0 2 0 1 0 0 -18 -6zm16 12l-18 25 0 -31 18 6z"/> </g> <path class="fil19 str7" d="M14410 2614c0,0 -225,-139 -424,-120 -199,18 -321,112 -407,137 -85,26 -124,4 -124,4l-98 -232c0,0 134,101 265,57 131,-45 216,-160 436,-121 219,39 352,275 352,275z"/> <path class="fil2 str4" d="M12283 3142c0,0 67,-164 295,-214 227,-50 339,60 377,148 38,87 38,132 38,132 -156,137 -547,101 -710,-66z"/> <path class="fil20" d="M12237 3131l86 58c0,0 3,-102 90,-164 86,-61 177,-102 303,-97 126,4 157,35 157,35 -254,-229 -647,99 -636,168z"/> <path class="fil0 str7" d="M12303 2978c158,-191 522,-194 646,-15"/> <circle class="fil14" cx="12686" cy="3086" r="157"/> <circle class="fil0 str9" cx="12619" cy="3084" r="432"/> <path class="fil2 str10" d="M14278 3101c0,0 -67,-164 -295,-214 -227,-50 -339,60 -377,148 -38,88 -38,132 -38,132 156,137 547,102 710,-66z"/> <path class="fil20" d="M14324 3091l-86 57c0,0 -3,-102 -90,-164 -86,-61 -177,-102 -303,-97 -127,5 -157,35 -157,35 254,-229 647,99 636,169z"/> <path class="fil0 str11" d="M14258 2946c-158,-191 -522,-194 -646,-15"/> <circle class="fil0 str12" cx="13942" cy="3044" r="432"/> <path class="fil0 str9" d="M13012 2872c163,-70 342,-84 543,-21"/> <path class="fil18 str13" d="M13281 3870c-448,-121 -800,262 -867,700 0,0 248,-242 358,-286 110,-43 325,-33 438,-146 112,-112 71,-268 71,-268z"/> <path class="fil18 str13" d="M13299 3867c0,0 -39,178 147,272 186,94 293,-22 569,121 276,143 272,293 272,293 0,0 35,-352 -301,-585 -335,-233 -687,-101 -687,-101z"/> <path class="fil21 str14" d="M13168 5679c116,297 532,208 642,36l-239 -390 -215 2 -188 352z"/> <g> <path class="fil21" d="M13300 5835l-294 1074 117 265c0,0 86,213 113,221 28,8 180,-241 180,-241l262 -397 -56 -911 0 0c-104,37 -227,40 -322,-11l0 0z"/> <path id="1" class="fil7" d="M12982 6903l294 -1074 48 13 -294 1074 -47 3 -1 -16zm1 16l-3 -8 2 -8 1 16zm117 265l-117 -265 46 -20 116 265 1 1 -46 19zm45 -20l1 1 0 0 -1 -1zm98 207l-14 48 0 0 -9 -5 -6 -5 -6 -5 -4 -6 -5 -6 -4 -7 -5 -8 -5 -8 -4 -8 -5 -9 -5 -10 -5 -9 -5 -10 -5 -10 -5 -11 -4 -10 -5 -10 -5 -10 -4 -10 -4 -10 -5 -9 -3 -9 -4 -9 -3 -8 -4 -7 -2 -6 -3 -6 -2 -5 -1 -4 -2 -3 0 -2 -1 0 47 -19 0 1 1 1 1 3 1 4 2 5 3 5 2 7 3 7 4 8 3 8 4 9 4 9 4 10 5 9 4 10 5 10 4 10 5 10 5 10 5 10 4 9 5 9 4 8 5 8 4 7 4 6 3 6 3 4 3 3 2 2 -1 0 -4 -2 0 0zm152 -231l42 28 0 -1 0 1 -2 2 -2 4 -3 4 -3 6 -4 6 -5 8 -5 8 -6 10 -6 9 -7 10 -7 11 -7 11 -8 12 -7 11 -8 12 -8 11 -8 12 -8 11 -8 11 -7 11 -8 10 -7 10 -8 9 -7 8 -7 8 -6 7 -6 6 -7 5 -7 5 -10 3 -16 0 14 -48 -9 0 -3 1 1 -1 3 -3 5 -4 5 -5 5 -7 7 -7 6 -8 7 -9 7 -10 8 -10 7 -11 8 -11 8 -11 8 -11 7 -12 8 -11 7 -11 7 -11 7 -11 7 -10 6 -9 5 -9 6 -9 4 -7 4 -7 4 -5 3 -5 2 -3 1 -2 0 -1 1 -1zm304 -369l-262 397 -42 -28 262 -396 46 12 -4 15zm4 -15l0 8 -4 7 4 -15zm-56 -911l56 911 -50 3 -56 -911 25 -27 25 24zm-25 -24l23 0 2 24 -25 -24zm0 0l0 0 0 50 0 0 -8 -48 8 -2zm-8 2l4 -2 4 0 -8 2zm-314 37l0 -50 12 3 8 5 8 4 9 3 8 4 9 3 9 3 9 2 9 2 10 2 9 2 10 2 9 1 10 1 10 1 9 0 10 1 10 0 10 -1 10 0 9 -1 10 -1 10 -1 10 -1 10 -2 10 -1 9 -2 10 -2 10 -3 9 -2 10 -3 9 -3 10 -3 16 47 -10 3 -11 4 -10 3 -11 3 -10 2 -11 3 -11 2 -11 2 -10 1 -11 2 -11 1 -11 1 -11 1 -11 0 -12 1 -11 0 -11 -1 -11 0 -11 -1 -10 -1 -11 -2 -11 -2 -11 -2 -11 -2 -10 -3 -11 -3 -10 -3 -11 -4 -10 -4 -10 -4 -10 -5 -10 -5 12 3zm0 -50l6 0 6 3 -12 -3zm0 0l0 0 0 50 0 0 -24 -31 24 -19zm-24 19l5 -19 19 0 -24 19z"/> </g> <path class="fil11 str5" d="M15686 12117c0,0 -160,373 -225,495 -65,121 -26,303 -18,416 9,113 -21,451 9,495 30,43 161,52 182,-122 22,-173 -8,-195 39,-299 48,-104 113,-174 113,-174 0,0 130,161 65,417 -65,256 -264,707 -234,746 30,39 69,65 143,5 74,-61 169,-148 169,-148 0,0 65,-4 152,-52 87,-48 234,-351 282,-499 48,-148 113,-121 139,-213 26,-91 39,-676 13,-867 -26,-191 -829,-200 -829,-200z"/> <path class="fil0 str7" d="M15735 12853c30,63 58,85 58,85"/> <path class="fil0 str7" d="M15924 13953c0,0 32,-36 77,-165 44,-129 123,-603 123,-603"/> <path class="fil0 str7" d="M16417 13133c-23,74 -40,227 -40,227"/> <path class="fil9 str5" d="M14885 7821l330 -2052c0,0 470,245 672,666 201,421 100,1025 100,1025 0,0 202,1345 247,1445 46,101 113,329 223,906 109,576 65,2696 65,2696l-997 -142c0,0 100,-385 85,-983 -14,-598 -352,-1709 -366,-1972 -14,-264 -71,-492 -71,-492l-288 -1097z"/> <path class="fil10 str5" d="M14885 7821c35,-714 121,-1407 330,-2052 6,-41 470,245 672,666 201,421 100,1025 100,1025 0,0 202,1345 247,1445 46,101 113,329 223,906 84,444 77,1803 69,2404 -300,-34 -680,-78 -954,-112 24,-171 46,-418 38,-721 -14,-598 -352,-1709 -366,-1972 -14,-264 -71,-492 -71,-492l-288 -1097z"/> <path class="fil10 str15" d="M16634 11459c0,322 -3,615 -6,830 -365,-42 -827,-96 -1158,-136 21,-159 42,-371 46,-625 315,-21 785,-54 1118,-69z"/> <path class="fil22 str4" d="M12860 7543c-1,246 -1,573 -1,582l-107 0c1,-9 2,-344 3,-588 1,-784 -684,-788 -683,-11 1,246 1,590 2,599l-106 0c-1,-10 -2,-354 -2,-602 -1,-908 896,-912 894,20z"/> <path class="fil23 str4" d="M12860 7543l0 101 -106 0 1 -107c1,-784 -684,-788 -683,-11l0 118 -106 0 0 -121c-1,-908 896,-912 894,20z"/> <circle class="fil6 str4" cx="12015" cy="8245" r="166"/> <circle class="fil6 str4" cx="12787" cy="8245" r="166"/> <path class="fil23 str4" d="M12360 5542c0,0 35,-106 122,-113 86,-8 82,15 82,15 0,0 -71,-51 -71,482 0,533 -12,925 -12,925l-132 -2c0,0 -12,-997 -9,-1115 4,-117 20,-192 20,-192z"/> <path class="fil23 str4" d="M14700 5688c19,106 70,270 89,541 43,590 -58,1447 -58,1447l-154 -27c130,-709 147,-1457 -59,-2154 89,-12 157,57 182,193z"/> <circle class="fil6 str4" cx="14622" cy="7716" r="191"/> <circle class="fil22" cx="14622" cy="7716" r="89"/> <path class="fil0 str5" d="M13312 7339c0,0 -431,447 -425,1907 7,1460 276,6103 276,6103"/> <path class="fil18 str5" d="M12767 1822l754 90 1107 -299c0,0 -230,-326 -567,-465 -338,-140 -1256,-83 -1319,-89 -62,-5 -306,219 -306,219l331 544z"/> <path class="fil24 str5" d="M13328 1968c0,0 825,-137 1121,-194 297,-57 377,-47 377,-47 0,0 -70,-128 -136,-212 -65,-84 -76,-103 -76,-103 -329,222 -633,384 -1056,450 255,-82 1046,-403 994,-508 0,0 -73,-157 -278,-303 -204,-146 -267,-157 -267,-157 226,375 -270,759 -562,909 229,-212 675,-493 482,-916l-304 -70 -556 1216 261 -65z"/> <path class="fil25 str16" d="M13041 2055c0,0 -369,-325 -874,-388 -505,-62 -834,96 -834,96l124 -282c0,0 492,-26 542,-22 50,4 -465,-95 -465,-95 0,0 154,-172 289,-260 136,-88 373,-249 743,-18 370,230 487,746 487,746 0,0 -15,-403 -264,-677 -249,-274 -596,-289 -596,-289 626,-312 1478,-120 1591,-12 4,285 -429,1110 -743,1201z"/> <path class="fil18" d="M12068 3531l-25 -215 -52 -62c0,0 34,167 37,243 3,76 40,34 40,34z"/> <path class="fil18" d="M14638 3236c0,0 20,191 24,253 3,62 -4,107 -4,107l41 -61c0,0 21,-318 21,-339 0,-20 -82,40 -82,40z"/> <circle class="fil26" cx="12690" cy="3085" r="101"/> <circle class="fil2" cx="12626" cy="3027" r="42"/> <circle class="fil2" cx="12725" cy="3138" r="25"/> <circle class="fil14" cx="13850" cy="3045" r="157"/> <circle class="fil26" cx="13846" cy="3044" r="101"/> <circle class="fil2" cx="13910" cy="2986" r="42"/> <circle class="fil2" cx="13811" cy="3097" r="25"/> <path class="fil13 str14" d="M12716 5127c-13,108 -47,271 -136,346 -3,3 -7,5 -10,8 74,97 328,253 529,343l252 -472 215 -2 286 467c197,-116 448,-319 503,-402l-2 -2c-80,-88 -114,-279 -128,-412 -97,105 -294,265 -617,302 -427,49 -683,-47 -892,-176z"/> <line class="fil0 str17" x1="14370" y1="2986" x2="14780" y2="3020"/> <g> <path class="fil27" d="M12209 3010l-13 -48c14,-4 27,4 31,18 4,13 -4,27 -18,30zm-410 112l-13 -49 410 -111 13 48 -410 112zm-13 -49l13 49c-14,3 -28,-4 -31,-18 -4,-13 4,-27 18,-31z"/> </g> <path class="fil0 str4" d="M12099 18909c0,0 182,-28 393,33 210,61 327,195 587,225 260,30 413,7 413,7"/> <path class="fil0 str4" d="M15218 19378c0,0 65,48 258,10 194,-39 405,-171 571,-229 81,-29 209,-79 308,-105 103,-28 194,-32 177,-29"/> <circle class="fil22" cx="12789" cy="8245" r="92"/> <circle class="fil22" cx="12015" cy="8245" r="92"/> </g> </g> </g> </svg>