<?xml version="1.0" encoding="UTF-8"?>
<svg enable-background="new 0 0 595.3 841.9" version="1.1" viewBox="0 0 595.3 841.9" xml:space="preserve" xmlns="http://www.w3.org/2000/svg">
<style type="text/css">
	.st0{fill:url(#ah);}
	.st1{fill:url(#am);}
	.st2{fill:url(#an);}
	.st3{fill:none;stroke:url(#ao);stroke-width:6;stroke-miterlimit:10;}
	.st4{opacity:0.17;fill:url(#ap);}
	.st5{fill:url(#aq);}
	.st6{fill:url(#ar);}
	.st7{fill:url(#as);}
	.st8{fill:url(#at);}
	.st9{fill:url(#x);}
	.st10{fill:url(#y);}
	.st11{fill:url(#z);}
	.st12{fill:url(#aa);}
	.st13{fill:none;stroke:url(#ab);stroke-width:7;stroke-miterlimit:10;}
	.st14{opacity:0.17;fill:url(#ac);}
	.st15{fill:none;stroke:url(#ad);stroke-width:6;stroke-linecap:round;stroke-miterlimit:10;}
	.st16{fill:none;stroke:url(#ae);stroke-width:6;stroke-linecap:round;stroke-miterlimit:10;}
	.st17{fill:none;stroke:url(#af);stroke-width:6;stroke-linecap:round;stroke-miterlimit:10;}
	.st18{fill:url(#ag);}
	.st19{fill:url(#ai);}
	.st20{fill:url(#aj);}
	.st21{fill:none;stroke:#754C29;stroke-width:4;stroke-miterlimit:10;}
	.st22{fill:url(#ak);}
	.st23{fill:url(#al);}
</style>
			<linearGradient id="ah" x1="248.93" x2="273.02" y1="125.38" y2="125.38" gradientTransform="matrix(-.3342 .9425 .9425 .3342 245.68 -150.65)" gradientUnits="userSpaceOnUse">
			<stop stop-color="#2C1503" offset="0"/>
			<stop stop-color="#3C2415" offset="1"/>
		</linearGradient>
		<path class="st0" d="m293.1 131.5s15.1 0.7 21.4 11.7c3.2 5.7-7.3 9.9-14.4 8.5s-52.7-5.5-61.3-20c-4.3-7.2 11.4-12 16-11.8s38.3 11.6 38.3 11.6z"/>
			<linearGradient id="am" x1="234.22" x2="266.84" y1="124.03" y2="124.03" gradientTransform="matrix(-.3342 .9425 .9425 .3342 245.68 -150.65)" gradientUnits="userSpaceOnUse">
			<stop stop-color="#594A42" offset="0"/>
			<stop stop-color="#3C2415" offset="1"/>
		</linearGradient>
		<path class="st1" d="m253.4 123.4c6-4.2 7.4-17.2 17-13.4s14.1-3 21.2 8 10.7 18.6 10.9 22.9-41.7-0.2-48.1-5.9c-6.5-5.8-4.9-8.8-1-11.6z"/>
			<linearGradient id="an" x1="264.25" x2="327.83" y1="217.81" y2="217.81" gradientTransform="matrix(-1 0 0 1 632.04 0)" gradientUnits="userSpaceOnUse">
			<stop stop-color="#C2B59B" offset="0"/>
			<stop stop-color="#BF9B7D" offset=".5563"/>
			<stop stop-color="#9F877C" offset="1"/>
		</linearGradient>
		<path class="st2" d="m306.4 244.9v-0.2c0.9 0.2 1.4 0.2 1.4 0.2s3.3-6 5.2-12.4c2-6.8 1.6-10.8 1.6-10.8s-2.1-0.6-3.4-4.2c-1.8-5-0.9-12 0.6-15 2-4 5.4-4.2 8.2-2 2.1 1.7 4.2 5.6 4.4 6.8s-1.4-11.4-2.6-15.6c-2.6-9.2 1.6-22.7 10.4-21.3 13.1 2.1 15.9 3.9 22.1 4.5l1 0.9s4.8 9 4.6 18.2 0.6 12.6 2 15.6 2.2 8.2 5.2 9.6-5.6 3.6-7.2 0.6-3.2 7.2-2 9.8-0.6 6.6-0.6 6.6 2.2 1.4 1.2 3-3.4 3.4-6 2.2-4-2-6.8-1.2-4 2.2-3.6 4 0.4 3 2 3.4 0.8 0.4 3.2 0 5.4-0.2 5 2 0.8 1.8-1.2 2.2-1 2.6-1.4 4.6 1 5.6-1.6 6.4-2.8 3.4-6 1.8-7-2-10-3.2-7-5-7.4-3.6-0.6 7.4-0.6 7.4l-19.8-0.6c-0.1 0.2 2.7-14.9 2.1-19.7z"/>
				<linearGradient id="ao" x1="451.46" x2="507.59" y1="669.37" y2="669.37" gradientTransform="matrix(-1 0 0 1 632.04 0)" gradientUnits="userSpaceOnUse">
				<stop stop-color="#282543" offset="0"/>
				<stop stop-color="#3D1623" offset="1"/>
			</linearGradient>
			<circle class="st3" cx="152.5" cy="669.4" r="25.1"/>
				<linearGradient id="ap" x1="458.27" x2="500.78" y1="669.37" y2="669.37" gradientTransform="matrix(-1 0 0 1 632.04 0)" gradientUnits="userSpaceOnUse">
				<stop stop-color="#fff" offset="0"/>
				<stop offset="1"/>
			</linearGradient>
			<circle class="st4" cx="152.5" cy="669.4" r="21.3"/>
			<linearGradient id="aq" x1="272.88" x2="301.58" y1="229.52" y2="229.52" gradientTransform="matrix(-1 0 0 1 632.04 0)" gradientUnits="userSpaceOnUse">
			<stop stop-color="#594A42" offset="0"/>
			<stop stop-color="#3C2415" offset="1"/>
		</linearGradient>
		<path class="st5" d="m337.6 227.2s1.5-0.3 0.4-1.8c-2.6-3.5-5.6-1-6.5 0.6s-1.4 3.4-0.4 5.3 3 4.4 7.6 3.9c1.3-0.1 6.4-4.2 9.8-4.2 2.5 0 8 1.7 9.5 4.3 0.2 0.3 2.8-4.1 0.2-7.2-1.7-2-5.3-3.2-7.8-2.7s-10.6 5.4-12 5.9c-2.3 0.8-3.1-0.5-4.1-1.8-1.3-1.7 0.1-4.3 2.2-3.8 1.1 0.4 1.1 1.5 1.1 1.5z"/>
			<linearGradient id="ar" x1="276.31" x2="336.5" y1="199.21" y2="199.21" gradientTransform="matrix(-1 0 0 1 632.04 0)" gradientUnits="userSpaceOnUse">
			<stop stop-color="#594A42" offset="0"/>
			<stop stop-color="#3C2415" offset="1"/>
		</linearGradient>
		<path class="st6" d="m355.7 175s-2.2-13.6-12.6-18.4-21.7-2.9-25.7-1.2c-5.8 2.4-10.6 6.8-15 15.8-3.7 7.5-6.4 20.4-6.8 33.5-0.4 13 2 35.3 4.6 37.5s7.6 2.8 7.6 2.8 3.3-6 5.2-12.4c2-6.8 1.6-10.8 1.6-10.8s-2.1-0.6-3.4-4.2c-1.8-5-0.9-12 0.6-15 2-4 5.4-4.2 8.2-2 2.1 1.7 4.2 5.6 4.4 6.8s-1.4-11.4-2.6-15.6c-2.6-9.2 1.6-22.7 10.4-21.3 14.1 2.1 16.3 4.1 23.5 4.5z"/>
			<linearGradient id="as" x1="302.3" x2="331.52" y1="269.59" y2="269.59" gradientTransform="matrix(-1 0 0 1 632.04 0)" gradientUnits="userSpaceOnUse">
			<stop stop-color="#A53C1E" offset="0"/>
			<stop stop-color="#5D332A" offset="1"/>
		</linearGradient>
		<path class="st7" d="m325.3 260.9s2.8 1.4 3.1 2.2 2.1 4.9 1 8.5c-1.2 3.5-1.7 5.7-3.2 6.5s-15-1.6-19-0.4-3.2 0.7-4.3-0.3c-1.1-0.9-2.4-3.9-2.3-6s-0.1-6.8 0.9-8.6 2.2-1.8 3.2-1.4 2 0.3 3.8 0.3c1.7-0.1 16.8-0.8 16.8-0.8z"/>
			<linearGradient id="at" x1="378.35" x2="326.8" y1="281.11" y2="281.11" gradientTransform="matrix(-1 0 0 1 632.04 0)" gradientUnits="userSpaceOnUse">
			<stop stop-color="#A53C1E" offset="0"/>
			<stop stop-color="#5D332A" offset="1"/>
		</linearGradient>
		<path class="st8" d="m253.7 276.4s4 2 10.8 1.6 7.7 0.4 12.1-1 11.5-2.6 13.9-2.6c2.5 0 8.2 0.5 10.2 0.8s4.6 3.1 4.6 3.1-4.6 0.7-7.9 2c-3.4 1.3-8.8 3.5-14.7 4.7s-10.2 3-13.8 2.7-4.8 2.1-10.2-3c-5.4-5.2-5-8.3-5-8.3z"/>
			<linearGradient id="x" x1="327.83" x2="304.43" y1="136.36" y2="136.36" gradientTransform="matrix(-1 0 0 1 632.04 0)" gradientUnits="userSpaceOnUse">
			<stop stop-color="#C2B59B" offset="0"/>
			<stop stop-color="#BF9B7D" offset=".5563"/>
			<stop stop-color="#9F877C" offset="1"/>
		</linearGradient>
		<path class="st9" d="m327.6 134.3s-8.5-4.2-11.8-3.6c-3.3 0.7-5.1-0.2-7.2 0.2s-5.2 2.7-4.3 6.9 1 3.8 1.6 4.2-0.6-2.4 3.1-2.2 6.4 2 8.5 1.3 7.2 1.1 8.2 0.2c1.2-0.8 1.9-7 1.9-7z"/>
			<linearGradient id="y" x1="234.19" x2="289.06" y1="475.5" y2="475.5" gradientTransform="matrix(-1 0 0 1 632.04 0)" gradientUnits="userSpaceOnUse">
			<stop stop-color="#00827A" offset="0"/>
			<stop stop-color="#006838" offset=".5121"/>
			<stop stop-color="#224F61" offset=".8949"/>
		</linearGradient>
		<path class="st10" d="m343 395.8s26.8-21 43.5-0.7c16.6 20.3 10.2 46.7 10.2 48.1s-42.5 99.9-32.4 120.7c1.1 2.3-9.6 0.2-10.2-2.3-8.3-36.8 38.3-115.1 30-136.8-14.8-38.8-34.2-2.8-34.2-2.8l-6.9-26.2z"/>
			<linearGradient id="z" x1="227.9" x2="334.36" y1="248.28" y2="248.28" gradientTransform="matrix(-1 0 0 1 632.04 0)" gradientUnits="userSpaceOnUse">
			<stop stop-color="#CF7558" offset="0"/>
			<stop stop-color="#935942" offset="1"/>
		</linearGradient>
		<path class="st11" d="m307 308.9l-9.3-3.1c4.6-9.7 5.2-28.4 5.2-28.4l4.3 0.3 20.1-1.4s6-3.2 12.5-5.5 8.8 2.3 23.1-0.9 51.1-68.7-2.8-109.1c-16.8-12.6-35.2-16.8-35.2-16.8l4.2-13.3s25.4 4.2 51.8 29.1c45.3 42.8 12.5 104.7 0.9 117-7.9 8.3-26.4 19.9-26.4 19.9l-12.4 69.2s-38.5-1.3-37.9-2.5c4.3-8.9 2.9-38.9 1.9-54.5z"/>
		<circle cx="348.8" cy="202.3" r="1.7"/>
		<path d="m342.3 427l-36.1-13.2s-8.3 1.4-5.5 10.4 8.3 7.6 15.3 7.6c6.9 0 26.3-4.8 26.3-4.8z"/>
			<linearGradient id="aa" x1="281.24" x2="256.22" y1="559.52" y2="559.52" gradientTransform="matrix(-1 0 0 1 632.04 0)" gradientUnits="userSpaceOnUse">
			<stop stop-color="#594A42" offset="0"/>
			<stop stop-color="#726658" offset="1"/>
		</linearGradient>
		<path class="st12" d="m362.7 550.7s-9.6-6.5-9.7-5c-0.3 3.5-5.9 22.7 2 25.5 3.2 1.2 19.4 5.5 20.8-1.6 0.5-2.3-11.2-5.8-11.5-6.7-1.1-2.9-1.6-12.2-1.6-12.2z"/>
			<linearGradient id="ab" x1="123.94" x2="357.93" y1="585.01" y2="585.01" gradientTransform="matrix(-1 0 0 1 632.04 0)" gradientUnits="userSpaceOnUse">
			<stop stop-color="#282543" offset="0"/>
			<stop stop-color="#3D1623" offset="1"/>
		</linearGradient>
		<circle class="st13" cx="391.1" cy="585" r="113.5"/>
			<linearGradient id="ac" x1="132.37" x2="349.5" y1="585.01" y2="585.01" gradientTransform="matrix(-1 0 0 1 632.04 0)" gradientUnits="userSpaceOnUse">
			<stop stop-color="#fff" offset="0"/>
			<stop offset="1"/>
		</linearGradient>
		<circle class="st14" cx="391.1" cy="585" r="108.6"/>
				<linearGradient id="ad" x1="233.82" x2="482.53" y1="547.42" y2="547.42" gradientTransform="matrix(-1 0 0 1 632.04 0)" gradientUnits="userSpaceOnUse">
				<stop stop-color="#282543" offset="0"/>
				<stop stop-color="#3D1623" offset="1"/>
			</linearGradient>
			<path class="st15" d="m395.2 434.1s-58.2-27-106.8 11.8-59.3 74.9-63.1 105.4c-5.8 46.9-19.6 126.7-72.8 117.9"/>
				<linearGradient id="ae" x1="231.97" x2="243.52" y1="485.1" y2="485.1" gradientTransform="matrix(-1 0 0 1 632.04 0)" gradientUnits="userSpaceOnUse">
				<stop stop-color="#282543" offset="0"/>
				<stop stop-color="#3D1623" offset="1"/>
			</linearGradient>
			<line class="st16" x1="391.5" x2="397.1" y1="585.8" y2="384.5"/>
				<linearGradient id="af" x1="221.57" x2="273.34" y1="387.41" y2="387.41" gradientTransform="matrix(-1 0 0 1 632.04 0)" gradientUnits="userSpaceOnUse">
				<stop stop-color="#282543" offset="0"/>
				<stop stop-color="#3D1623" offset="1"/>
			</linearGradient>
			<path class="st17" d="m407.5 381.2h-22.9s-18-1.4-22.9 12.5"/>
			<linearGradient id="ag" x1="205.49" x2="332.23" y1="439.04" y2="439.04" gradientTransform="matrix(-1 0 0 1 632.04 0)" gradientUnits="userSpaceOnUse">
			<stop stop-color="#006838" offset="0"/>
			<stop stop-color="#3A7579" offset=".2066"/>
			<stop stop-color="#006838" offset=".5121"/>
			<stop stop-color="#184D45" offset=".8949"/>
		</linearGradient>
		<path class="st18" d="m343 395.8v-27.5s13.9-72.1-6-96.4c0 0-5.2 2.2-6.4 2.7 0 0 12.4 14.8 12 44.6s-0.7 45.1-0.7 45.1l-30.5-0.7s4.2-46.8-0.3-62.4-8.6-21.8-8.6-21.8-3.3 19.1-2.5 20.8c15.3 34.4-2.1 98.5 0 107 6.2 25.4 50.6-0.9 100.5 74 23.9 35.9 12.3 122 12.3 122l9.2 3.1s6-60.8 4.2-85.6c-5.9-79.5-83.2-124.9-83.2-124.9z"/>
			<linearGradient id="ai" x1="251.35" x2="279.35" y1="384.45" y2="384.45" gradientTransform="matrix(-1 0 0 1 632.04 0)" gradientUnits="userSpaceOnUse">
			<stop stop-color="#C2B59B" offset="0"/>
			<stop stop-color="#BF9B7D" offset=".5563"/>
			<stop stop-color="#9F877C" offset="1"/>
		</linearGradient>
		<path class="st19" d="m353 383.6l13.2-4.9s7.3-2.4 12.5 1.4-1.4 8.3-1.4 8.3-5.9 1.4-6.2-0.3-0.3-5.5-3.5-4.2-6.6 4.5-6.6 4.5l-8.3 2.4 0.3-7.2z"/>
			<linearGradient id="aj" x1="353.76" x2="278.35" y1="349.08" y2="349.08" gradientTransform="matrix(-1 0 0 1 632.04 0)" gradientUnits="userSpaceOnUse">
			<stop stop-color="#CF7558" offset="0"/>
			<stop stop-color="#935942" offset="1"/>
		</linearGradient>
		<path class="st20" d="m305.7 318.8c-4.9 11.7-28.5 55.1-10 64.4 16.4 8.3 57.6-1.5 57.6-1.5l0.5 11.7s-23.4 5-43.3 5.1-29.5-9.9-31.7-22.5c-3.4-19.5 17.5-66.6 22.3-76.2-0.2-0.1 6.4 14.5 4.6 19z"/>
		<polyline class="st21" points="423.3 616.9 406.4 614.1 391.8 586.1 366.5 575 352.3 575.3"/>
			<linearGradient id="ak" x1="220.46" x2="192.65" y1="602.77" y2="602.77" gradientTransform="matrix(-1 0 0 1 632.04 0)" gradientUnits="userSpaceOnUse">
			<stop stop-color="#594A42" offset="0"/>
			<stop stop-color="#726658" offset="1"/>
		</linearGradient>
		<path class="st22" d="m423.1 592s-9.1-2.8-9.4-0.7c-0.2 2.1-0.8 7.5-1.2 10.8-0.5 3.6-0.5 5.7-0.9 8.1-0.6 4.1 10.5 5.1 17.3 4.8 7.2-0.3 10.9-3.2 10.4-6.5-0.3-1.8-16.7-3.7-16.6-6.4 0.4-4.3 0.4-10.1 0.4-10.1z"/>
			<linearGradient id="al" x1="272.88" x2="293.22" y1="243.61" y2="243.61" gradientTransform="matrix(-1 0 0 1 632.04 0)" gradientUnits="userSpaceOnUse">
			<stop stop-color="#CF7558" offset="0"/>
			<stop stop-color="#995A4E" offset="1"/>
		</linearGradient>
		<path class="st23" d="m339 246.9c1.8-5.3-0.2-7 1.9-9 2.3-2.2 4.3-2.5 6.5-2.4s4 0.6 7.2 0.5 5.3 2 4.4 3.4l-0.1 0.1c-1.1 1.6-3.5 3.2-6 2-2.7-1.2-4.1-2-7-1.2s-4.1 2.2-3.7 4 0.4 3 2 3.4 0.8 0.4 3.3 0 5.5-0.2 5.1 2c-0.3 1.7 0.3 1.8-0.3 2-0.9 0-1.6-0.1-1.6-0.1-3.4 0.1-13.3-0.3-11.7-4.7z"/>
</svg>
