<svg version="1.2" baseProfile="tiny-ps" xmlns="http://www.w3.org/2000/svg" viewBox="0 0 373 336" width="373" height="336">
	<title>9-svg</title>
	<style>
		tspan { white-space:pre }
		.shp0 { fill: #000000 } 
	</style>
	<g id="Layer">
		<path id="Layer" fill-rule="evenodd" class="shp0" d="M32.29 32.39L39.82 32.39C31.7 33.97 31.59 40.77 34.44 46.61C26.93 44.51 29.47 36.95 32.29 32.39L32.29 32.39Z" />
		<path id="Layer" fill-rule="evenodd" class="shp0" d="M80.69 37.13C80.68 38.7 77.76 38.14 78.54 40.3C75.17 40.1 76.72 36.36 80.69 37.13Z" />
		<path id="Layer" fill-rule="evenodd" class="shp0" d="M76.39 41.88C75.89 44.67 73.68 46.2 72.09 48.2C68.04 47.21 73.02 42.32 76.39 41.88Z" />
		<path id="Layer" fill-rule="evenodd" class="shp0" d="M116.19 46.62C119.22 48.07 122 49.72 121.57 53.73C118.55 52.25 117.42 49.4 116.19 46.62Z" />
		<path id="Layer" fill-rule="evenodd" class="shp0" d="M140.92 75.85C144.06 74.69 144.06 79.38 140.92 78.22L140.92 75.85Z" />
		<path id="Layer" fill-rule="evenodd" class="shp0" d="M258.16 101.92C249.21 99.13 242.37 95.92 228.05 95.6L228.05 93.23C235.28 95.1 257.19 92.83 258.16 101.92Z" />
		<path id="Layer" fill-rule="evenodd" class="shp0" d="M148.45 144.58C150.53 147.98 147.08 154.09 147.37 158.8C142.71 155.05 147.68 149.09 148.45 144.58Z" />
		<path id="Layer" fill-rule="evenodd" class="shp0" d="M105.43 158.02C104.65 160.9 100.36 161.66 103.28 165.13C100.74 165.37 101.28 167.87 97.9 167.5C101.37 165.04 99.01 158.3 105.43 158.02Z" />
		<path id="Layer" fill-rule="evenodd" class="shp0" d="M226.97 161.97C227 161.2 228.29 161.36 229.12 161.18C251.72 168.28 276.49 173.78 299.03 180.93C289.39 181.14 279.89 177.01 269.99 174.61C254.74 170.92 239.07 167.8 226.97 161.97L226.97 161.97Z" />
		<path id="Layer" fill-rule="evenodd" class="shp0" d="M234.5 171.45C248.13 175.42 268.5 180.85 282.9 184.09C295.82 187 309.71 188.09 323.77 192.78C331.26 193.34 339.04 193.69 342.05 197.52C324.75 198.67 308.15 192.2 291.5 188.04C279.27 184.98 267.34 182.61 254.93 179.35C246.21 177.06 238.06 177.61 234.5 171.45L234.5 171.45Z" />
		<path id="Layer" fill-rule="evenodd" class="shp0" d="M354.96 198.31L354.96 201.47L350.66 201.47C347.31 199.29 352 195.85 354.96 198.31Z" />
		<path id="Layer" fill-rule="evenodd" class="shp0" d="M240.95 227.54C257.02 228.91 276.09 234.91 290.43 240.18C274.66 238.59 256.15 232.18 240.95 227.54Z" />
		<path id="Layer" fill-rule="evenodd" class="shp0" d="M293.65 301.81C274.92 298.27 256.88 292.18 238.8 286.8C220.46 281.34 202.39 275.58 183.94 270.21C179.43 268.89 174.26 267.74 169.96 266.25C162.28 263.6 153.77 259.62 144.15 256.77C122.02 250.22 98.26 243.12 76.39 235.44C76.21 234.52 76.62 234.04 77.46 233.86C78.33 233.71 78.53 233.07 79.61 233.07C134.67 252.48 196.75 271.67 254.93 289.17C264.6 292.07 273.83 294.12 282.9 297.07C286.8 298.34 291.95 298.38 293.65 301.81L293.65 301.81Z" />
		<path id="Layer" fill-rule="evenodd" class="shp0" d="M236.65 279.69C238.58 279.59 238.92 280.66 240.95 280.48C241.29 281.87 234.93 281.89 236.65 279.69Z" />
		<path id="Layer" fill-rule="evenodd" class="shp0" d="M333.45 286.8C333.11 285.41 339.47 285.39 337.75 287.59C335.5 287.92 334.9 287.05 333.45 286.8Z" />
		<path id="Layer" fill-rule="evenodd" class="shp0" d="M339.9 286.8C348.19 288.61 357.86 289.41 364.64 292.33C363.08 295.83 358.92 292.53 357.11 291.54C350.47 290.62 343.41 290.01 339.9 286.8L339.9 286.8Z" />
		<path id="Layer" fill-rule="evenodd" class="shp0" d="M276.45 291.54C278.5 289.08 281.12 292.77 283.98 292.33C281.93 294.79 279.31 291.1 276.45 291.54L276.45 291.54Z" />
		<path id="Layer" fill-rule="evenodd" class="shp0" d="M321.62 297.86C325.98 295.6 328.62 300.44 321.62 297.86Z" />
		<path id="Layer" fill-rule="evenodd" class="shp0" d="M294.73 302.6C306.86 303.13 320.13 307.55 332.38 310.5C340.47 312.45 348.67 313.63 354.96 316.82C352.64 319.88 349.1 318.02 346.36 317.61C339.6 316.62 331.1 312.77 322.7 310.5C312.36 307.71 302.93 306.25 294.73 302.6L294.73 302.6Z" />
		<path id="Layer" fill-rule="evenodd" class="shp0" d="M330.22 305.76C330.38 303.8 333.86 305.53 334.52 305.76C333.81 308.13 332.22 305 330.22 305.76Z" />
		<path id="Layer" fill-rule="evenodd" class="shp0" d="M320.54 314.45C323.77 313.65 322.44 316.21 322.69 317.61C330.08 320.61 339.7 321.97 346.35 325.51C350.74 326.34 354.03 324.46 354.96 328.67C354.09 329.35 352.01 329.14 351.73 330.25C342.51 324.65 329.91 321.52 318.39 317.61C317.61 315.46 320.53 316.02 320.54 314.45L320.54 314.45Z" />
		<path id="Layer" fill-rule="evenodd" class="shp0" d="M266.77 316.03C273.87 318.71 280.91 321.45 287.21 324.72C285.84 327 279.64 323.72 276.45 322.35C272.7 320.74 267.22 318.68 266.77 316.03L266.77 316.03Z" />
		<path id="Layer" fill-rule="evenodd" class="shp0" d="M364.64 319.19L366.79 319.19C367.09 320.47 365.78 320.55 365.72 321.56L363.56 321.56C363.26 320.29 364.58 320.2 364.64 319.19Z" />
		<path id="Layer" fill-rule="evenodd" class="shp0" d="M309.79 335.78C303.37 333.92 298.8 330.69 292.58 328.67C293.44 325.73 298.86 328.72 300.11 330.25C305.02 330.59 311.66 332.99 309.79 335.78L309.79 335.78Z" />
		<path id="Layer" fill-rule="evenodd" class="shp0" d="M48.43 13.43C51.57 12.58 54.62 11.66 59.18 11.85C63.01 13.26 61.55 18.54 64.56 20.54C68.57 17.78 72.11 19.48 77.47 18.17C69.34 17.97 84.73 13.81 89.3 13.43C95.63 12.9 100.81 14.99 107.58 15.8C110.25 16.12 114.16 15.49 117.26 15.8C124.75 16.56 133.08 17.58 137.7 11.85C140.94 11.05 139.61 13.61 139.85 15.01C147.42 11.46 144.01 18.81 152.76 18.96C155.37 25.18 158.11 29.92 155.99 37.13C154.67 41.61 148.99 43.63 150.61 49.77C152.24 55.96 161.96 57.16 167.82 61.63C173.67 58.46 178.09 53.66 185.03 53.73C193.68 53.81 201.5 61.35 200.08 68.74C199.24 73.12 193.85 72.28 193.63 78.22C195.5 81.58 206.38 78.34 208.69 81.38C204.99 84.46 203.01 80.61 196.86 81.38C199.61 85.41 201.3 90.23 201.16 96.39C205.54 98.93 211.65 97.52 217.29 98.76C218.85 99.11 219.99 100.8 221.59 101.13C223.49 101.53 225.85 100.81 228.05 101.13C230.08 101.44 231.53 103.18 233.43 103.5C245.97 105.68 261.91 103.81 268.92 111.4C247.58 106.53 222.6 104.34 203.31 97.97C194.51 102.32 203.54 116.39 192.56 121.68C193.25 124.59 194.99 126.74 195.78 129.58C205.67 134.96 214.27 141.28 218.37 150.91C236.94 154.07 254.34 159.77 272.15 164.34C281 166.61 293.68 169.35 303.34 171.45C311.13 173.14 321.92 172.48 327 176.19C333.04 175.97 338.59 176.11 340.98 178.56C347.24 179.5 357.65 177.38 356.04 184.09C347.37 182.01 338.7 179.06 329.15 177.77C324.24 177.11 319 177.95 314.09 176.98C310.27 176.23 307.16 173.92 303.34 173.03C289.03 169.69 270.82 168.65 259.24 162.76C254.48 163.14 253.89 161.67 250.64 162.76C243.86 158.72 229.8 156.03 220.52 156.44C223.48 163.22 225.19 170.92 226.98 178.56C232.29 180.16 238.42 181.05 244.19 182.51C249.56 183.87 256.07 185.04 259.24 188.04C247.9 186.37 238.91 182.97 228.05 180.93C225.68 183.87 229.52 187.99 229.13 191.99C227.72 191.71 227.43 190.6 225.9 190.41C225.13 197.21 231.86 193.65 231.28 199.89C239.77 200.24 246.37 201.97 248.49 207C252.21 207.15 254.65 206.78 258.17 207.8C264.29 209.56 275.38 212.02 275.38 216.49C266.06 214.06 257.59 207.88 246.33 209.38L246.33 206.21C239.38 205.8 235.81 202.89 231.28 200.68C231.21 204.69 233.13 207.23 232.35 211.74C235.86 214.7 243.11 214.9 248.49 216.49C246.87 219.9 241.75 216.12 236.66 217.28C254.8 223.17 276.73 226.29 292.59 233.87C283.68 232.65 266.83 226.62 256.02 226.76C255.04 225.36 252.06 225.45 251.71 223.59C244.22 226.13 242.18 219.44 233.43 220.44C230.97 221.79 233.04 226.47 232.35 229.13C243.08 232.99 255.47 234.71 266.77 237.82C267.75 238.09 268.96 239.86 270 240.19C277.3 242.51 287.08 242.03 292.58 246.51C269.58 244.44 254.52 236.55 234.5 232.29C231.06 232.39 229.77 234.08 230.2 237.03C240.38 240.61 254.65 241.19 264.62 244.93C256.87 243.77 239.84 242.59 231.28 239.4C224.8 245.7 223.16 255.55 212.99 259.15C216.05 261.87 222.69 262.66 228.05 261.52C229.15 262.56 229.1 264.43 230.2 265.47C253.67 268.51 276.5 272.02 290.43 282.06C287.66 280.94 281.92 282 281.83 278.9C274.52 282.16 273.33 274.27 266.77 277.32C270.39 279.94 276.66 280.6 281.83 282.06C282.27 283.97 279.86 283.78 280.75 286.01C271.88 284.63 263.87 282.61 256.01 280.48C262.63 279.32 271.38 283.4 278.6 284.44C278.68 281.74 274.61 282.1 271.07 282.06C259.74 275.11 238.23 275.64 228.05 267.84C223.6 269.46 217.76 266.16 212.99 265.47C213.26 264.62 215.13 264.94 215.14 263.89C204.57 263.49 197.81 260.3 189.33 258.36C188.7 253.03 182.87 251.52 178.57 248.88C179.95 247.84 179.95 245.97 178.57 244.93C177.63 241.56 173.55 242.69 171.04 240.98C161.82 234.68 161.68 221.11 152.76 214.12C151.94 211.14 158.47 213.57 157.06 210.16C155.92 207.04 153.8 210.37 150.61 210.16C151.37 207.23 148.77 206.77 149.53 203.84L145.23 203.84C151.43 199.34 138.7 201.34 136.63 203.84C136.05 206.64 140.44 205.79 139.86 208.58C138.74 213.54 134.1 216.85 126.95 218.06C121.53 218.99 114.78 216.11 110.82 219.65C112.31 221.45 118.3 219.94 121.57 220.44C118.43 223.86 107.14 221.55 105.44 218.86C104.81 216.03 108.62 216.45 111.89 216.49C112.93 213.62 107.06 215.82 107.59 213.32C113.65 206.62 116.99 192.64 109.74 184.88C104.52 185.68 106.36 188.6 101.14 188.04C101.15 190.14 100.73 192.55 102.21 193.57C104.04 193.86 104.24 192.96 104.36 191.99C105.16 194.59 104.94 197.79 104.36 199.89C102.14 207.96 95.21 218.47 89.31 222.81C83.26 227.25 110.11 228.22 114.04 231.5C112.16 233.84 108.31 231.04 105.44 231.5C115.5 237.54 138.7 237.24 144.16 244.14C146.56 240.12 166.34 250.87 175.35 252.04C171.56 253.94 165.64 251.54 161.37 250.46C148.03 247.08 131.26 240.94 116.19 238.61C108.98 233.37 94.51 233.47 86.08 229.13C103.05 238.25 127.16 242.14 146.31 249.67C118.45 245.12 92.47 232.34 65.65 224.39C57.62 213.43 47.19 204.23 46.29 188.04C50.45 190.29 49.16 194.24 50.59 197.52C54.52 206.59 60.15 215.01 68.87 220.43C73.64 219.88 75.99 220.48 80.7 218.85C79.51 216.84 72.38 219.17 71.02 217.27C88.59 217.38 98.93 200.27 95.76 187.25C94.96 183.96 90.16 182.4 91.46 179.35C93.84 179.97 94.15 182.11 95.76 183.3C99.26 182.05 99.57 180.21 103.29 182.51C105.5 181.5 108.75 181.25 108.67 178.56C110.26 181.43 114.51 177.91 116.2 176.19C114.58 173.58 113.57 177.83 110.82 176.98C114.08 174.11 119.47 172.8 122.65 169.87C122.33 168.26 120.5 167.76 119.42 166.71C114.13 174.45 98.47 178.65 86.08 178.56C85.06 175.7 90.32 177.46 92.54 176.98C87.36 171.56 89.19 161 83.93 155.65C80.65 158 81.38 165.64 82.85 169.08C78.42 169.18 76.12 167.7 71.02 168.29C70 165.43 75.26 167.19 77.48 166.71C77.8 163.53 78.75 160.23 78.55 154.86C80.29 154.63 80.4 155.6 81.78 155.65C81.81 144.31 83.38 126.4 73.17 120.09C69.37 122.04 71.34 128.22 68.87 131.15C67.93 133.69 71.66 132.79 72.1 134.31C72.5 143.04 71.79 150.94 71.02 158.8C66.34 159.05 66.32 162.72 66.72 166.71C70.08 168.18 73.33 169.76 72.1 174.61C66.95 177.39 62.64 176.93 58.12 173.03C61.56 157.72 64.65 139.31 63.49 120.88C54.93 121.17 59.51 131.12 51.66 131.94C56.15 135.19 51.22 138.96 47.36 140.63C47.69 141.7 50.05 141.29 51.66 141.42C52.29 143.99 50.93 145.1 50.59 146.95C47.67 147.52 51.36 143.23 48.43 143.79C47.56 143.94 47.36 144.58 46.28 144.58C44.91 147.7 49.23 146.63 50.59 147.74C52.17 158.04 49.85 169.66 52.74 180.14C55.12 188.77 62.71 196.05 64.57 203.05C54.77 201.46 58.76 186.74 49.51 187.25C49.62 184.01 49.72 180.77 48.44 178.56C45.69 178.64 46.3 181.2 46.28 183.3C42.02 176.95 42.75 166.93 37.68 161.18C40.44 161.26 39.41 164.12 40.91 165.13C44.8 163.45 42.68 157.78 40.91 155.64C44.97 150.29 42.68 140.94 44.13 133.52C46.51 121.45 54.94 114.2 63.49 105.87C61.89 102.72 58.67 104.87 55.97 103.5C56.78 99.22 52.25 98.85 50.59 96.39C52.05 91.14 55.62 87.44 62.42 86.12C62.14 88.69 65.77 88.4 66.72 90.07C71.95 89.96 71.84 82.6 69.95 79.8C64.97 80.8 59.77 80.29 54.89 81.38C52.61 81.88 51.61 83.21 49.51 83.75C47.88 84.17 47.47 82.63 46.29 82.96C41.27 84.32 35.34 86.73 30.15 88.49C21.61 91.39 18.38 95.97 11.87 101.13C0.89 98.37 -4.31 86.31 4.33 79.8C14.49 77.26 23.99 74.23 32.29 70.32C31.6 76.14 16.12 77.92 14.01 85.33C12.02 85.21 13.35 82.65 11.86 82.17C9.11 82.26 9.72 84.81 9.7 86.91C14.35 88.53 21.68 85.96 26.91 83.75C26.74 84.67 27.15 85.16 27.99 85.33C33.38 83.23 41.87 83.41 45.2 79.8C34.61 78.36 45.86 70.36 34.44 69.53C35.4 68.12 37.45 67.52 36.6 64.79C26.99 61.95 24.8 58.54 19.39 51.36C18.32 49.95 15.68 48.55 15.08 47.41C11.12 39.77 12.35 27.03 15.08 18.96C15.6 17.43 18.35 16.13 19.39 14.22C21.04 11.17 20.99 7.39 22.61 5.53C24.59 3.27 29.16 2.51 30.14 0C33.96 1.03 34.05 1.79 38.75 0.79C39.27 4.24 35.43 2.47 37.67 5.53C40.3 4.83 38.84 1.12 43.05 1.58C46.74 3.61 49.53 6.3 52.73 8.69C52.92 11.47 49.09 11.29 48.43 13.43L48.43 13.43ZM193.64 159.59C195.22 168.39 191.94 178.98 201.17 183.3C202.61 179.92 194.85 179.27 200.1 177.77C204.7 180.66 210.81 191.68 201.17 193.57C199.32 192.55 201.15 188.84 197.94 188.83C196.43 190.09 194.24 190.84 191.49 191.2C196.14 206.2 171.34 199.57 159.22 202.26C158.17 206.19 161.42 206.96 162.45 209.37C162.42 215.26 165.69 216.6 167.83 221.22C171.11 228.3 171.71 238.6 180.74 237.02C178.62 231.99 173.46 229.19 172.13 223.59C184.77 228.96 175.84 245.53 195.79 244.92C195.84 246.01 195.28 246.66 194.72 247.29C200.41 247.42 203.61 248.64 208.7 247.29C229.57 214.87 207.23 175.98 197.94 146.95C191.07 147.48 195.67 143.68 189.34 143C188.73 149.19 192.96 155.82 193.64 159.59L193.64 159.59ZM135.55 196.73C143.43 192.69 145.76 187.33 145.23 178.56C143.2 178.38 142.86 179.45 140.93 179.35C142.57 176.23 137.76 173.86 139.85 173.03C141.54 173.36 140.77 175.51 144.16 174.6C143.76 168.93 136.62 173.81 137.7 169.86C134.2 171.24 131.24 173.02 129.1 175.4C133.73 175.15 133.3 178.63 136.63 179.35C137.66 177.87 133.41 176.7 136.63 176.19C144.92 182.73 134.53 189.33 133.4 197.52L130.17 197.52C130.26 200.08 130.73 202.38 132.32 203.84C135.85 201.69 141.59 201.17 144.15 198.31C145.6 199.72 150.38 200.75 152.76 199.1C151.88 196.85 150.33 195.09 147.38 194.36C148.32 196.89 145.73 196.83 144.15 197.52C144.78 195.54 149.89 192.31 145.23 191.2C144.34 195.06 138.36 195.94 137.66 198.64C137.12 197.88 135.56 197.87 135.55 196.73L135.55 196.73ZM137.66 198.64C137.86 198.92 137.91 199.31 137.7 199.89C137.57 199.43 137.56 199.02 137.66 198.64ZM64.57 109.03C62.87 109.1 60.83 108.92 61.34 110.61C63.19 110.65 64.09 110 64.57 109.03ZM32.3 3.16C30.45 3.12 29.54 3.77 29.07 4.74C30.92 4.78 31.83 4.13 32.3 3.16ZM129.1 21.33C134.21 21.39 139.36 21.49 138.78 17.38C133.96 17.52 132.52 20.15 129.1 21.33ZM122.65 26.07C121.09 29.8 130.33 30.56 124.8 32.39C119.79 26.32 110.44 19.24 100.06 19.75C105.79 22.92 111.47 26.12 116.2 30.02C119.68 38.79 133.67 44.05 133.41 52.93C120.08 40.6 110.55 25.48 90.38 18.17C90.91 23.31 98.46 23.3 101.14 26.86C102.5 32.45 105.04 37.16 107.59 41.87C107.78 39.64 106.67 36.45 109.74 36.34C116.17 37.85 112.58 41.88 115.12 45.82C108.9 49.94 111.56 60.59 109.74 67.94C116.36 67.53 113.38 60.08 119.43 59.25C117.14 69.16 107.63 73.76 104.37 82.96C109.91 81.22 112.41 73.07 117.27 73.47C110.36 81.04 103.24 88.45 94.69 94.81C89.57 109.27 84 122.82 85.01 139.84C89.11 142.59 90.06 149.27 88.23 154.06C92.6 160.97 95.33 169.67 95.76 175.39C102.82 175.83 107.63 170.44 106.52 167.49C105.4 168.58 102.25 172.18 101.14 170.65C104.81 165.18 110.53 161.22 117.27 158.01C118.14 160.75 115.67 161.05 116.2 163.54C121.18 163.25 119.28 157.9 123.73 157.22C120.17 157.2 118.37 155.89 118.35 153.27C114.88 152.56 116.84 155.85 115.12 156.43C111.2 153.95 108.91 157.72 107.59 159.59C102.34 152.89 117.47 144.54 112.97 135.89C112.07 136.81 111.55 138.01 111.89 139.84C104.92 143.41 101.09 149.28 100.06 157.22C97.49 156.91 100.66 160.82 96.84 159.59C96.68 153.69 99.83 150.2 102.21 146.16C99.88 143.21 101.19 142.29 100.06 139.05C109.79 133.56 108.74 120.14 117.27 113.77C107.17 114.05 108.02 129.04 97.91 131.94C102.52 124 110.33 118.41 112.97 109.03C120.85 106.65 125.36 101.8 129.1 96.38C133.85 95.9 139.83 92.18 138.78 90.06C133.71 91.42 125.15 88.34 122.65 89.27C125.53 78.22 128.27 67.07 144.16 65.57C142.75 65.56 142.79 63.38 144.16 63.2C146.79 66.19 154.59 68.99 160.3 67.15C156.81 57.33 140.25 52.91 138.78 44.24C141.48 44.89 142.19 47.01 144.16 48.19C145.93 45.01 142.7 39.47 138.78 37.92C137.38 39.88 141.94 41.2 138.78 41.87C134.67 41.21 130.71 40.42 130.18 37.13C134.18 36.83 132.99 40.33 137.71 39.5C139.05 32.96 130.21 26.34 122.65 26.07L122.65 26.07ZM119.42 18.17C117.53 18.62 113.1 17.21 112.97 18.96C116.07 19.32 116.33 21.76 120.5 21.33C120.74 19.84 119.29 19.59 119.42 18.17ZM135.56 22.91C134.28 24.43 128.75 21.19 128.03 24.49C133.46 25.5 134.76 29.55 140.93 30.02C145.68 28.24 147.85 24.57 149.54 20.54C143.8 17.74 139.88 22.14 135.56 22.91L135.56 22.91ZM26.93 26.86C24.48 27.43 26.61 31.37 22.62 30.81C21.76 33.55 24.22 33.85 23.7 36.34C14.78 39.52 23.78 46.36 23.7 52.14C31.64 50.98 37.73 52.63 44.13 56.1C46.55 52.6 48.32 48.64 49.51 44.24C44.89 41.83 42.44 46.63 37.68 46.62C35.76 42.85 35.71 35.7 41.98 35.55C44.04 35.89 46.61 35.84 46.28 37.93C42.57 37.3 41.74 38.8 39.83 39.51C39.67 41.47 39.63 43.34 41.98 43.46C41.47 40.97 43.33 40.23 45.21 39.51C47.35 40.3 47.67 42.44 49.51 43.46C50.28 37.7 54.96 34.82 57.04 30.02C54.24 29.45 54.22 26.83 52.74 25.28C52.42 25.99 49.83 28.74 49.51 26.87C50.89 25.83 50.89 23.95 49.51 22.92C47.26 20.27 45.47 25.96 44.13 23.71C44.21 22.33 43.89 21.25 43.06 20.54C34.97 20.93 33.77 26.36 30.15 30.02C27 27.38 32.79 26.76 30.15 25.28C29.71 26.27 28.77 26.89 26.93 26.86L26.93 26.86ZM82.85 56.88C89.25 58.64 94.86 56.63 98.99 54.51C104.9 40.32 102.62 17.56 74.25 21.33C60.84 29.13 51.19 39.68 49.51 56.09C51.23 59.3 55.96 60.31 55.97 64.78C52.54 63.35 49.8 61.41 48.44 58.46C43.08 59.23 42.03 56.85 38.76 56.09C35.61 57.37 40.47 60.16 37.68 60.83C33.5 61.23 30.65 56.57 28 58.46C32.12 60.19 36.42 64.14 41.98 62.41C42.41 66.07 46 71.55 50.59 69.52C48.22 67.81 43.5 63.7 44.13 62.41C50.66 66.57 53.68 73.31 65.64 73.47C66.26 71.82 68.31 71.22 67.8 68.73C64.52 68.79 57.94 71.33 58.11 67.15C62.13 67.22 61.18 68.04 64.57 67.15C70.13 60.7 73.04 52.3 79.63 46.61C80.27 48.02 76.47 49.89 79.63 50.56C84.53 47.84 87.19 39.27 94.68 41.08C91.87 46.38 84.59 48.41 81.78 53.72C87.72 53.33 91 46.82 94.68 47.4C92.11 51.57 84.88 52.32 82.85 56.88L82.85 56.88ZM145.24 30.81C150.27 30.82 151.74 28.22 152.77 25.28C149.38 23.77 146.84 28.5 145.24 30.81ZM146.31 38.71C147.27 36.78 148.82 35.29 148.46 32.39C146.27 30.7 144.21 32.61 142.01 33.18C142.64 35.61 142.29 38.77 146.31 38.71ZM149.54 33.18L151.69 33.18L151.69 31.6L149.54 31.6L149.54 33.18ZM110.82 43.45C110.63 42.27 111.2 40.54 109.74 40.29C108.35 41.34 108.32 43.23 110.82 43.45ZM104.37 52.93C104.51 51.89 104.53 47.22 103.29 49.77C103.15 50.81 103.13 55.49 104.37 52.93ZM32.3 56.09L32.3 53.72L29.08 53.72L29.08 56.09L32.3 56.09ZM94.68 71.11C96.66 72.29 97.37 74.4 100.06 75.06C104.24 69.61 108.45 62.99 106.52 55.3C99.73 57.62 93.98 58.82 83.93 60.04C83.64 63.15 84.34 65.53 87.16 66.37C89.79 65.31 85.22 63.98 88.23 63.2C90.15 66.01 90.06 70.29 93.61 71.9C94.57 69.29 93.35 67.5 97.91 66.37C98.85 69.42 95.28 69.18 94.68 71.11L94.68 71.11ZM82.85 63.2C82.84 61.11 83.45 58.55 80.7 58.46C79.05 59.67 78.79 63.88 82.85 63.2ZM173.2 61.62C171.38 70.03 158.94 70.64 147.39 71.9C147.14 70.5 148.47 67.94 145.23 68.73C134.21 68.22 128.37 78.47 136.63 82.96C145.65 81.42 150.33 76.69 160.29 75.84C160.72 74.48 158.7 73.82 160.29 73.47C169.46 75.49 185.4 71.59 194.71 68.73C197.17 58.61 181.02 57.39 173.2 61.62L173.2 61.62ZM76.4 66.37C77.87 65.3 78.45 60.85 75.32 60.83C74.51 62.74 74.47 64.66 76.4 66.37ZM163.52 66.37C163.86 65.3 165.05 64.86 164.6 63.2C160.93 62.61 160.4 66.22 163.52 66.37ZM83.93 69.53C86.17 67.95 83.96 66.15 81.78 65.57C81.62 67.54 81.58 69.41 83.93 69.53ZM61.34 75.85C57.54 72.32 48.23 72.83 44.13 69.53C43.33 76.03 56.94 82.93 61.34 75.85ZM44.13 74.27C44.29 72.3 43.58 70.99 41.98 70.31C40.27 71.5 42.01 73.64 44.13 74.27ZM96.84 75.85C94.56 72.13 91.33 72.67 86.08 70.32C87.46 73.78 89.93 76.44 96.84 75.85ZM166.75 82.17C162.38 85.93 165.93 94.58 167.82 98.76C168.93 101.21 167.24 105.07 173.2 103.5C173.53 96.76 170.14 92.03 172.06 87.84C169.41 84.22 167.59 80 163.52 77.43C160.7 79.59 164.56 81.31 166.75 82.17L166.75 82.17ZM172.06 87.84C172.11 87.91 172.17 87.98 172.22 88.05C172.2 87.93 172.17 87.81 172.13 87.7C172.1 87.74 172.08 87.79 172.06 87.84ZM173.2 89.28C172.86 88.88 172.53 88.47 172.22 88.05C172.33 88.62 172.34 89.26 173.2 89.28ZM183.96 80.59C183.85 79.34 184.1 77.85 181.8 78.22C181.85 79.3 181.3 79.95 180.73 80.59L183.96 80.59ZM91.45 94.02C93.57 88.92 98.13 84.39 92.53 79.8C89.51 78.85 85.11 78.93 80.7 79.01C80.21 84.18 77.67 87.84 78.55 94.02L91.45 94.02ZM188.26 79.8C189.93 82.28 193.31 87.64 196.86 86.12C194.6 83.83 193.63 77.27 188.26 79.8ZM133.4 85.33C133.73 83.25 131.91 82.73 129.1 82.96C128.22 85.78 131.39 86.88 133.4 85.33ZM151.69 90.86C154.44 89.5 155.45 91.76 157.07 90.07C155.7 88.99 151.8 88.85 151.69 90.86ZM162.44 91.65C161.02 91.64 161.46 90.26 160.29 90.07C160.04 92.25 156.29 91.87 154.92 93.23C157.96 93.09 162.29 93.91 162.44 91.65ZM191.49 93.23C180.6 92.08 187.06 103.67 181.8 106.66C190.61 108.47 182.81 119.09 190.41 123.25C193.19 121.91 188.33 119.58 189.33 116.93C192.63 112.28 199.02 102.22 193.64 96.39C189.81 100.77 192.4 105.88 188.26 109.03C189.18 105.37 186.57 108.2 186.11 106.66C191.01 102.74 187.29 96.86 191.49 93.23L191.49 93.23ZM185.03 91.65C181.31 91.66 179.81 98.62 182.88 98.76C183.15 96.06 185.6 94.96 185.03 91.65ZM175.35 95.6C175.41 95.12 175.51 94.66 176.43 94.81C176.31 93.84 176.11 92.94 174.28 93.23C174.44 94.16 174.09 95.47 175.35 95.6L175.35 95.6ZM60.27 97.18C63.61 98.22 63.34 96.97 67.8 97.18L67.8 94.02C65.08 94.91 61.7 95.33 60.27 97.18ZM143.09 97.97C145.34 101.86 154.43 102.17 160.3 101.13C163.08 101.2 161.43 104.51 165.68 103.5C166.51 97.08 154.45 98.43 150.62 96.39C150.13 96.13 152.84 94.22 149.54 94.81C151.33 98.75 144.32 96.24 143.09 97.97L143.09 97.97ZM82.86 109.03C88.87 109.49 88.26 105.09 88.24 101.13C83.91 102.16 85.59 102.69 81.78 101.13C79.32 106.47 82.64 104.78 82.86 109.03L82.86 109.03ZM149.54 103.5C148.09 103.25 147.49 102.37 145.24 102.71C143.52 104.91 149.89 104.89 149.54 103.5ZM166.75 105.87C161.97 105.43 160.47 102.58 154.92 102.71C155.68 107.01 163.71 108.81 166.75 105.87ZM172.13 113.77C172.13 113.77 172.13 113.77 172.13 113.77C172.13 113.77 172.13 113.77 172.13 113.77L172.13 113.77ZM183.96 115.35C183.2 111.17 181.67 107.56 177.51 105.87C176.86 107.5 179.24 111.36 175.36 110.61C175.76 106.89 175.27 103.83 169.98 104.29C168.54 107 171.23 110.48 172.13 113.77C177.96 112.91 179.28 115.36 183.96 115.35ZM134.48 106.66C130.88 112.12 122.24 120.15 121.58 129.57C121.36 132.62 123.3 136.52 123.73 139.84C124.49 145.76 121.36 154.13 130.18 155.64C134.46 152.39 133.72 147.76 135.56 143.79C141.15 131.75 151.96 120.38 151.69 107.45C145.5 105.55 141.12 104.89 134.48 106.66L134.48 106.66ZM162.45 112.98C164.3 113.29 165.21 111.81 165.68 112.98C158.33 117.38 165.62 125.03 165.68 131.15C171.11 131.44 167.47 127.29 167.83 124.83C168.48 120.31 170.79 114.92 169.98 111.4C163.68 111.54 168.88 109.31 163.53 108.24C165.41 111.04 162.81 110.18 162.45 112.98L162.45 112.98ZM80.71 120.88C80.93 119.99 81.9 119.65 82.86 119.3C82.08 114.61 78.61 111.88 73.18 110.61C72.94 111.22 73.15 112.17 72.1 112.19C72.73 115.44 75.91 114.99 77.48 116.93C76.03 115.14 74.61 121.36 80.71 120.88ZM82.86 113.77C82.92 112.76 84.24 112.68 83.93 111.4C82.67 111.52 80.88 111.26 80.71 112.19C82.13 112.2 81.69 113.57 82.86 113.77L82.86 113.77ZM118.35 113.77L120.5 113.77L120.5 112.19L118.35 112.19L118.35 113.77ZM182.88 120.88C182.43 117 175.59 117.81 173.2 115.35C167.29 120.02 177.55 124.69 182.88 120.88ZM49.51 129.57C54.47 127.14 59.32 120.46 59.2 116.93C55.35 120.69 51.05 124.11 49.51 129.57ZM64.57 116.93C61.85 116.1 59.81 119.6 62.42 120.09C62.89 118.85 65.81 119.42 64.57 116.93ZM156 119.3C156 119.3 156 119.3 156 119.3C156 119.3 156 119.3 156 119.3C150.77 131.29 139.74 142.24 144.16 158.8C141.49 158.69 139.7 159.21 138.79 160.38C146.21 158.35 142.22 164.71 147.39 164.33L147.39 160.38C149.59 160.82 149.5 162.76 151.69 161.17C150.38 151.35 154.96 146.38 157.07 137.47C158.65 137.46 160.48 140.8 160.3 137.47C161.18 135.57 160.27 132.63 158.15 131.15C155.6 133.26 155.78 141.49 151.7 139.84C154.32 134.09 161.46 126.11 156 119.3C156 119.3 156 119.3 156 119.3L156 119.3ZM116.2 122.46C116.46 121.33 117.97 121.13 118.35 120.09C116.14 119.4 113.52 122.14 116.2 122.46ZM171.05 124.83C171.05 124.83 171.05 124.83 171.05 124.83L171.05 124.83L171.05 124.83ZM171.05 128.78C174.28 130.63 179.85 130.75 183.96 131.94C189.33 137.48 194.96 142.83 202.24 146.95C204.88 154.5 207.52 162.04 213 167.5C211.29 153.74 206.26 142.52 195.79 133.52C193.34 132.44 191.75 135.56 191.49 133.52C190.33 126.91 181.17 122.26 171.05 124.83L171.05 128.78ZM106.52 135.89C111.79 136.84 113.62 127.81 111.9 128.78C111.1 131.88 107.7 133.07 106.52 135.89ZM175.36 134.31L172.13 134.31C172.47 136.14 171.96 137.34 171.05 138.26C175.92 139.47 173.38 135.23 175.36 134.31ZM66.72 150.11C66.89 151.41 66.8 154.93 69.95 155.64L69.95 136.68C69.71 136.07 69.05 135.76 67.8 135.89C69.46 141.62 66.18 145.79 66.72 150.11L66.72 150.11ZM104.37 139.05C104.53 138.12 106.29 137.26 104.37 136.68C104.22 137.62 102.45 138.47 104.37 139.05ZM120.5 141.42C120.5 141.42 120.5 141.42 120.5 141.42C120.5 141.42 120.5 141.42 120.5 141.42L120.5 141.42ZM121.58 137.47C120.2 137.43 120.09 136.46 118.35 136.68C119.33 138.07 118.72 140.62 120.5 141.42C119.61 139.19 122.02 139.37 121.58 137.47ZM179.66 141.42C180.86 138.93 179.76 139.63 179.66 136.68L176.43 136.68C176.04 139.42 173.91 141.82 179.66 141.42ZM187.19 146.16C186.3 142.94 187.02 143.44 187.19 139.84C185.05 139.83 185.82 137.69 182.88 138.26C183.09 141.8 184.06 144.78 187.19 146.16ZM165.68 154.85C160.85 156.69 159.63 160.35 153.85 159.59C153.68 163.93 153.73 168.11 154.92 171.45C164.1 172.94 168.45 181.95 175.36 182.51C171.26 173.92 170.02 163.25 165.68 154.85L165.68 154.85ZM153.84 174.61C154.92 178.03 159.47 178.9 164.6 179.35C163.51 172.77 157.67 176.88 153.84 174.61ZM176.43 179.35C176.61 176.58 176.15 174.29 174.28 173.03C174.21 175.71 173.95 178.54 176.43 179.35ZM173.2 168.28C176.72 159.55 171.62 149.18 167.83 139.84C162.13 148.68 169.78 159.5 173.2 168.28ZM176.43 147.74C176.43 147.74 176.43 147.74 176.43 147.74C178.04 147.88 180.4 147.46 180.74 148.53C180.54 150.76 175.62 149.52 176.43 152.48C179.57 164.4 181.72 177.04 186.11 188.04C191.2 188.35 191.02 184.79 196.87 185.67C190.78 172.23 188.33 156.12 181.81 143L178.58 143C177.45 144.74 178.62 145.63 176.43 147.74C176.43 147.74 176.43 147.74 176.43 147.74C176.43 147.74 176.43 147.74 176.43 147.74L176.43 147.74ZM165.67 227.54C163.45 227.33 165.41 224.04 162.44 224.38C161.86 226.21 164.18 229.83 165.67 227.54ZM115.12 152.48C114.34 150.69 117.06 146.32 112.97 146.95C111.69 149.16 111.05 152.27 115.12 152.48ZM164.6 150.9C164.42 149.72 164.99 147.99 163.53 147.74C163.51 149.31 160.59 148.75 161.37 150.9L164.6 150.9ZM158.15 154.06C158.28 152.09 160.2 151.59 157.07 150.9C155.67 151.96 156.41 153.29 158.15 154.06ZM63.5 151.69C63.42 151.7 63.57 152.43 63.5 152.48C58.39 156.77 68.66 151.02 63.5 151.69ZM47.37 170.66C50.72 168.33 47.93 163.49 47.37 159.59C47.02 157.24 49.53 152.77 45.21 152.48C45.1 159.15 45.47 165.46 47.37 170.66L47.37 170.66ZM129.11 158.01L129.11 156.43L126.96 156.43L126.96 158.01L129.11 158.01ZM63.5 160.38C63.79 159.31 62.83 157.3 62.42 158.8C62.13 159.88 63.09 161.89 63.5 160.38ZM124.81 162.76L128.03 162.76C128.23 161.03 127.15 160.24 124.81 160.38L124.81 162.76ZM134.48 167.5C134.48 167.5 134.48 167.5 134.48 167.5C134.48 167.5 134.48 167.5 134.48 167.5L134.48 167.5ZM139.86 169.08C139.56 167.27 140.12 166.11 142.01 165.92C142.08 166.4 142.17 166.85 143.09 166.71C143.37 164.13 141.81 162.9 138.79 162.76C137.94 164.77 136.84 166.59 134.48 167.5C137.79 166.91 136.55 169.66 139.86 169.08ZM151.69 165.12C151.59 163.88 151.84 162.39 149.54 162.75C149.59 163.84 149.04 164.49 148.47 165.12L151.69 165.12ZM111.9 167.5C114.89 168.76 114.87 164.08 112.97 164.33C112.64 165.4 111.44 165.84 111.9 167.5ZM146.32 170.66C146.31 170.66 146.31 170.66 146.31 170.66C146.31 170.66 146.31 170.66 146.31 170.66L146.32 170.66ZM148.47 167.49C147.81 167.45 147.19 167.38 147.39 166.7L145.24 166.7C145.78 169.19 142.71 169.93 146.31 170.66C145.53 168.5 148.45 169.07 148.47 167.49ZM208.7 169.87C208.73 169.94 209.67 169.8 209.77 169.87C213.95 174.2 206.16 164.27 208.7 169.87ZM223.76 184.09C223.93 178.17 222.38 173.51 219.45 169.87C218.1 174.5 218.39 182.06 223.76 184.09ZM48.44 176.98C48.74 175.18 48.18 174.01 46.28 173.82C46.43 175.29 46.99 176.46 48.44 176.98ZM217.3 180.14C217.27 177.78 217.4 175.32 214.07 175.4C214.02 177.8 213.44 180.6 217.3 180.14ZM158.14 198.31C158.14 198.31 158.14 198.31 158.14 198.31C158.14 198.31 158.14 198.31 158.14 198.31L158.14 198.31ZM167.82 195.94C165.91 195.5 163.35 195.53 162.44 194.36C168.73 195.55 168.68 192.09 171.05 190.41C172.73 191.54 171.89 194.53 175.35 194.36C174.57 187.02 157.79 184.61 152.76 177.77C152.24 178.7 151.62 179.56 150.61 180.14C150.14 178.64 152.08 175.37 148.46 176.19C149.32 181.87 148.38 188.89 153.84 191.2C155.35 188.43 150.82 186.14 153.84 184.88C154.95 190.5 158.74 195.76 158.14 198.31C162.06 198.03 164.84 196.91 167.82 195.94ZM125.87 188.04C125.92 185.43 125.43 182.45 129.1 182.51L129.1 187.25C132.77 187.31 132.29 184.32 132.33 181.72C125.84 184.32 127.47 176.93 125.88 178.56C126.48 181.9 121.65 181.25 121.57 184.09C125.84 183.32 122.01 188.5 125.87 188.04ZM173.2 186.46C173.44 187.07 173.23 188.02 174.27 188.04C173.41 183.14 169.11 180.77 162.44 180.14C162.1 185.13 168.82 184.93 173.2 186.46L173.2 186.46ZM180.73 188.83C182.21 188.79 183.09 189.2 183.95 189.62C185.89 188.1 184.26 184.75 180.73 184.88L180.73 188.83ZM219.45 193.57C222.88 198.42 218.44 209.06 224.83 211.74C228.42 209.87 225.07 205.81 223.75 203.05C226.29 195.49 224.54 187.34 215.15 187.25C215.47 190.23 216.59 197.25 219.45 193.57L219.45 193.57ZM189.33 190.41C192.97 190.71 193.92 189.04 195.79 188.04C192.52 188.01 188.71 187.58 189.33 190.41ZM95.76 203.84C100.9 202.6 100.06 192.8 98.99 189.62C99.49 195.52 96.4 198.78 95.76 203.84ZM183.96 191.2C183.3 190.74 178.85 189.35 178.58 191.2C179.83 191.33 179.75 192.45 179.65 193.57C183.1 194.26 183.02 192.35 183.96 191.2ZM154.91 195.15C155.22 193.35 154.66 192.18 152.76 191.99C152.91 193.46 153.47 194.63 154.91 195.15ZM180.73 198.31C183.38 198.41 185.91 198.43 187.18 197.52C187.69 195.04 185.84 194.29 183.95 193.57C184 195.97 181.68 196.64 180.73 198.31L180.73 198.31ZM128.03 201.47C128.15 198.48 125.92 197.22 122.65 196.73C123.76 198.81 123.52 201.88 128.03 201.47ZM164.6 198.31C163.72 201.17 172.71 200.22 172.12 198.31C169.68 197.93 166.63 196.74 164.6 198.31ZM128.03 207.79C128.54 204.78 127.57 202.86 124.8 202.26C125.04 205.07 123.25 206.39 119.42 206.21C117.18 203.15 121.02 204.92 120.5 201.47C116.88 200.92 116.97 203.09 115.12 203.84C118.51 206.75 115.57 209.41 116.2 214.11C120.43 215.7 122.74 212.42 123.72 209.37C119.66 208.23 121.66 211.54 118.35 210.95C120.52 206.98 124.72 207.53 128.03 207.79L128.03 207.79ZM80.7 221.22C78.35 221.89 73.97 219.67 72.1 222.8L83.93 222.8C89.26 217.77 96.45 214.09 97.91 206.21C96.49 206.2 96.93 204.83 95.76 204.63C89.35 209.7 89.74 218.65 80.7 221.22L80.7 221.22ZM129.1 210.16C132.41 210.71 131.17 210.71 134.48 210.16C134.33 207.63 135.54 204.11 131.25 204.63C130.06 206.12 129.88 208.36 129.1 210.16ZM122.65 214.9C125.95 216.01 130.34 215.31 131.25 212.53C129.42 209.94 123.13 211.97 122.65 214.9ZM112.97 216.48L116.2 216.48C116.33 215.06 115.13 214.63 112.97 214.9L112.97 216.48ZM222.68 227.54C228.33 227.36 228.86 217.28 222.68 217.27C222.46 222.48 221 223.73 222.68 227.54ZM162.45 221.22C163.52 221.22 163.73 221.86 164.6 222.01C164.5 220.77 164.74 219.27 162.45 219.64L162.45 221.22ZM228.06 228.33C231.65 228.51 233.34 220.06 229.13 219.64C229.96 223.41 227.45 224.73 228.06 228.33ZM222.69 237.02C225.44 234.83 224.51 234.86 228.07 236.23C228.97 235.32 229.48 234.11 229.14 232.28C224.3 235.77 226.96 230.07 221.61 229.91C222.32 232.75 218.14 236.03 222.69 237.02L222.69 237.02ZM171.06 237.02C169.61 234.67 168.92 231.75 165.68 230.7C166.92 233.22 167.83 235.98 171.06 237.02ZM182.89 244.13C184.78 251.17 190.9 255.1 200.1 256.77C202.21 257.01 202.23 255.71 203.33 255.2C216.01 260.9 223.85 248.02 222.69 238.6C215.35 239.53 216.23 246.5 211.93 249.66C206.75 250.34 204.2 252.94 199.03 253.61C193.35 250.67 188.01 247.48 182.89 244.13L182.89 244.13ZM201.18 251.24L197.95 251.24C196.37 253.55 202.76 253.55 201.18 251.24ZM224.84 240.97L226.99 240.97L226.99 239.39L224.84 239.39L224.84 240.97ZM250.65 272.58C247.88 270.73 243.76 270.71 240.97 271.79C242.73 272.65 248.36 274.71 250.65 272.58ZM265.71 276.53C262.41 273.24 255.56 273.26 251.73 273.37C255.03 274.91 261.73 278.1 265.71 276.53Z" />
		<path id="Layer" fill-rule="evenodd" class="shp0" d="M105.43 30.02C107.75 30.69 106.34 34.1 108.66 34.76C107.29 36.47 104.73 32.44 105.43 30.02L105.43 30.02Z" />
		<path id="Layer" fill-rule="evenodd" class="shp0" d="M148.45 250.46C165.55 254.38 183.86 261.38 202.23 266.26C207.1 267.55 211.81 267.18 218.36 268.63C231.05 271.44 243.8 276.52 253.86 279.69C231.33 274.63 206.55 267.06 186.1 263.1C195.45 267.29 206.71 270.08 217.29 273.37C211.5 273.27 204.33 270.67 197.93 268.63C191.51 266.59 184.63 264.8 180.72 261.52C172.97 260.1 164.41 259.28 160.28 255.2C157.23 256.02 155.8 256.02 152.75 255.2C152.93 254.27 154.71 254.53 155.98 254.41C152.99 252.03 148.55 254.98 143.07 252.04C141.02 251.49 144.24 250.81 144.15 252.04C147.53 252.94 146.76 250.8 148.45 250.46L148.45 250.46Z" />
		<path id="Layer" fill-rule="evenodd" class="shp0" d="M220.52 274.95C215.49 272.4 228.59 279.04 220.52 274.95Z" />
		<path id="Layer" fill-rule="evenodd" class="shp0" d="M347.43 331.83C338.41 333.34 329.47 328.25 320.54 327.09C323.93 331.45 334.05 330.86 338.82 334.2C333.09 336.57 325.73 333.56 319.47 331.04C317.27 330.16 315.24 327.95 313.01 327.09C297.39 321.06 278.97 316.46 261.39 312.08C258.86 308.93 252.25 308.78 247.4 307.34C234.9 298.63 216.07 293.04 199 286.8C194.26 285.06 184.41 284.84 185.02 278.89C229.06 294.12 269.01 314.39 318.39 325.51C321.37 326.18 324.55 327.18 328.07 327.88C334.05 329.06 342.79 327.47 347.43 331.83L347.43 331.83ZM314.09 326.3C316.09 325.54 317.68 328.67 318.39 326.3C317.73 326.07 314.25 324.33 314.09 326.3Z" />
		<path id="Layer" fill-rule="evenodd" class="shp0" d="M242.03 282.06C243.87 279.76 245.94 283.85 249.56 282.85C248.06 284.9 243.99 282.27 242.03 282.06Z" />
		<path id="Layer" fill-rule="evenodd" class="shp0" d="M292.58 282.06C303.75 282.55 316.46 288.74 329.15 290.75C315.75 291.6 306.41 284.77 292.58 282.06Z" />
		<path id="Layer" fill-rule="evenodd" class="shp0" d="M338.83 301.02C329.94 293.95 311.59 298.58 304.41 290.75C299.98 291.37 298.89 289.54 294.73 289.96C293.49 288.79 293.49 287.97 294.73 286.8C290.86 287.01 289.55 285.34 286.13 285.22C285.17 287.77 289.64 286.33 290.43 287.59C292.38 289.54 285.75 286.35 282.9 286.8C283.97 285.74 285.81 285.25 286.13 283.64C292.86 287.11 304.71 284.45 305.49 290.75C308.94 291.44 307.72 288.7 309.79 288.38C314.04 288.24 309.44 289.59 311.94 290.75C330.26 294.67 345.49 300.86 365.72 303.39C367.27 303.21 366.09 301.03 367.87 301.02C363.09 296.1 349.87 297.39 346.36 291.54C355.3 293.4 362.3 296.68 371.1 298.65C369.54 303.98 374.17 308.17 372.17 311.29C369.22 310.15 371.62 307.49 367.87 305.76C358.09 305.04 351.29 302.14 342.06 301.02C340.73 303.58 345.54 301.62 344.21 304.18C339.27 302.27 332.76 301.53 328.07 299.44C330.3 297.86 334.26 301.71 338.83 301.02L338.83 301.02ZM301.19 289.96L301.19 288.38L299.03 288.38L299.03 289.96L301.19 289.96Z" />
		<path id="Layer" fill-rule="evenodd" class="shp0" d="M259.23 286.8C256.49 285.22 263.53 287.05 264.61 287.59C267.35 289.18 260.31 287.34 259.23 286.8Z" />
		<path id="Layer" fill-rule="evenodd" class="shp0" d="M272.14 289.96C264.96 287.58 280.73 292.01 272.14 289.96Z" />
		<path id="Layer" fill-rule="evenodd" class="shp0" d="M372.17 315.24C362.1 316.74 353.25 310.78 344.21 308.92C346.78 309.28 367.25 311.14 372.17 315.24Z" />
	</g>
</svg>